<?xml version="1.0" encoding="utf-8"?>
<!-- Generator: Adobe Illustrator 28.1.0, SVG Export Plug-In . SVG Version: 6.00 Build 0)  -->
<svg version="1.1" xmlns="http://www.w3.org/2000/svg" xmlns:xlink="http://www.w3.org/1999/xlink" x="0px" y="0px"
	 viewBox="0 0 300 100" style="enable-background:new 0 0 300 100;" xml:space="preserve">
<style type="text/css">
	.st0{fill:#FFFFFF;}
	.st1{fill:#83CDEA;}
	.st2{opacity:0.6;}
	.st3{fill:#B2B2B2;}
	.st4{fill:#FDD100;stroke:#FFFFFF;stroke-width:2.25;stroke-linejoin:round;stroke-miterlimit:10;}
	.st5{fill:#FDD100;}
	.st6{fill:url(#SVGID_1_);}
	.st7{fill:#5C9EC2;}
</style>
<g id="Livello_3">
	<path class="st0" d="M93.97,49.99c0,23.82-19.32,43.13-43.15,43.13c-23.83,0-43.15-19.31-43.15-43.13
		c0-23.82,19.32-43.13,43.15-43.13C74.65,6.87,93.97,26.18,93.97,49.99"/>
</g>
<g id="Livello_2">
	<g>
		<path class="st1" d="M80.67,33.72l-19.45-4.05l-21.21,2.85l-18.19-2.59v36.91l18.19,3.92l21.21-4.81l19.45,4.75V33.72z"/>
		<g>
			<path class="st0" d="M49.12,49.01c-0.3,0.17-0.64,0.03-0.96,0.14c-0.05,0.3-0.05,0.6,0,0.91c0.73,0.09,1.44,0.14,2.01-0.46
				c0.12-0.12,0.27-0.21,0.4-0.32c0.16-0.14,0.31-0.15,0.45,0c0.51,0.53,1.2,0.78,1.78,1.22c0.23,0.18,0.54,0.13,0.81,0.09
				c0.4-0.06,0.79-0.01,1.18-0.05c0,0.07,0,0.09,0,0.1c0.15,0.9,0.14,0.91-0.73,0.91c-0.06,0-0.12,0-0.18,0
				c-1.34,0-1.35,0.02-2.35-0.69c-0.23-0.16-0.43-0.22-0.69-0.22c-0.11,0-0.21,0-0.32,0c-0.59,0-1.26-0.17-1.75,0.04
				c-0.69,0.3-1.26,0.9-1.88,1.36c-0.12,0.09-0.09,0.21-0.09,0.32c0,0.38,0,0.76,0,1.13c0,0.45-0.15,0.99,0.04,1.34
				c0.24,0.46,0.83,0.67,1.29,0.96c0.38,0.24,0.85,0.13,1.26,0.09c1.24-0.13,1.24-0.15,1.67,0.97c0.1,0.25,0.16,0.52,0.26,0.77
				c0.04,0.1,0.12,0.25,0.02,0.41c-0.34,0.57-0.19,1.14-0.01,1.72c0.17,0.58,0.31,1.17,0.41,1.77c0.09,0.52,0.46,0.87,0.74,1.26
				c0.17,0.23,1.08,0.11,1.21-0.13c0.64-1.16,1.25-2.34,1.92-3.48c0.23-0.4,0.07-0.76,0.06-1.14c0-0.1-0.03-0.25-0.06-0.37
				c-0.11-0.45-0.05-0.79,0.42-1.11c0.76-0.51,1.14-1.37,1.65-2.11c0.18-0.26,0.35-0.53,0.54-0.81c-0.56-0.5-1.09-0.98-1.63-1.46
				c0.01-0.17,0.13-0.27,0.25-0.35c0.07,0,0.15-0.02,0.16,0c0.36,0.6,0.98,0.64,1.55,0.61c0.79-0.03,1.17,0.36,1.46,1.01
				c0.26,0.59,0.63,1.14,0.89,1.73c0.2,0.46,0.56,0.27,0.87,0.31c0.32,0.04,0.37-0.22,0.45-0.41c0.2-0.48,0.39-0.96,0.54-1.45
				c0.05-0.15,0.37-0.16,0.19-0.4l0.09,0.18c0.66,0.73,1.13,1.61,1.78,2.38c0.56-0.28,1.02-0.71,1.56-1.07
				c-0.16-0.32-0.31-0.63-0.47-0.95c0.08-0.27,0.35-0.34,0.52-0.49c0.17-0.15,0.35-0.29,0.54-0.41c0.36-0.23,0.66-0.53,1.04-0.73
				c0.23-0.13,0.24-0.31,0.16-0.59c-0.15-0.45-0.43-0.87-0.47-1.36c0,0,0-0.06,0.09-0.09c0.32-0.1,0.55-0.09,0.7,0.31
				c0.09,0.24,0.17,0.53,0.43,0.7c0.16-0.08,0.32-0.15,0.42-0.3c-0.05-0.2-0.08-0.39-0.14-0.58c-0.11-0.37,0.13-0.76,0.5-0.77
				c0.21,0,0.37-0.01,0.47-0.27c0.09-0.24,0.29-0.43,0.44-0.64c0.39-0.57,0.67-1.18,0.51-1.91c-0.18-0.03-0.37-0.06-0.56-0.09
				c0,0-0.07,0-0.05-0.05c0.45-1.08,0.52-1.13,1.59-1.13c0.05,0,0.09-0.01,0.14,0c0.45,0.1,0.8-0.1,0.98-0.46
				c0.17-0.33,0.41-0.29,0.65-0.25c0.23,0.03,0.32,0.13,0.32,0.13c-0.07,0.35-0.42,0.51-0.54,0.82c0,0-0.07,0.04,0.04,0.09
				c0.48,0.21,0.88,0.09,1.27-0.23c0.58-0.47,1.19-0.89,1.76-1.37c0.31-0.26,0.62-0.27,1.01-0.24c0.39,0.03,0.78,0.13,1.17,0.03
				c0.13-0.43,0.07-0.78-0.31-1.06c-0.39-0.3-0.76-0.64-1.14-0.95c-0.56-0.45-1.26-0.39-1.91-0.54c-0.67-0.15-1.36-0.25-2.04-0.37
				c-0.36-0.06-0.42-0.39-0.6-0.63c-0.15-0.2-0.2-0.54-0.45-0.58c-0.38-0.06-0.78-0.03-1.18-0.01c-0.19,0.01-0.23,0.22-0.27,0.36
				c-0.11,0.39-0.37,0.4-0.69,0.32c-0.72-0.19-1.45-0.37-2.18-0.54c-0.21-0.05-0.3-0.16-0.37-0.36c-0.21-0.68-0.47-1.36-0.66-2.05
				c-0.07-0.27-0.19-0.32-0.42-0.32c-0.3,0.01-0.6,0.01-0.91,0c-0.22-0.01-0.41,0.05-0.59,0.18c-1.05,0.74-2.12,1.45-3.16,2.19
				c-0.17,0.12-0.31,0.19-0.51,0.17c-0.59-0.05-1.07,0.15-1.6,0.43c-1.3,0.7-2.59,1.42-3.88,2.13c-0.21,0.12-0.34,0.04-0.46-0.02
				c-0.71-0.41-1.39-0.84-2.09-1.26c-0.26-0.16-0.43-0.22-0.7,0.12c-0.88,1.14-1.82,2.23-2.75,3.32c-0.23,0.27-0.27,0.46,0,0.74
				c0.3,0.32,0.53,0.71,0.85,1.15c-0.72,0.72-1.44,1.44-2.18,2.18c0.23,0.16,0.26,0.52,0.62,0.56"/>
			<path class="st0" d="M39.33,66.79c0.13-0.47,0.05-0.96-0.02-1.4c-0.11-0.68,0.16-1.13,0.56-1.6c1.21-1.39,2.4-2.81,3.59-4.21
				c0.18-0.22,0.2-0.51,0.27-0.77c0.14-0.47,0.29-0.93,0.44-1.43c-0.89-0.72-1.78-1.44-2.66-2.16c-0.38-0.3-0.77-0.59-1.13-0.91
				c-0.17-0.16-0.32-0.14-0.51-0.09c-0.54,0.14-1.09,0.27-1.63,0.41c-0.18,0.05-0.33,0.03-0.5-0.04c-0.97-0.42-1.91-0.91-2.9-1.29
				c-0.14-0.05-0.26-0.18-0.21-0.45c0.07-0.35,0.12-0.72,0.14-1.11c0.73-0.08,1.44-0.18,2.15-0.24c0.17-0.01,0.26-0.08,0.36-0.19
				c1.31-1.35,2.63-2.7,3.95-4.03c0.18-0.18,0.13-0.36,0.13-0.55c-0.04-1.04-0.1-2.09-0.12-3.13c-0.01-0.32-0.1-0.4-0.42-0.42
				c-0.44-0.03-0.77,0.07-0.9,0.51c-0.04,0.13-0.15,0.17-0.18,0.27c-0.2-0.05-0.3-0.2-0.42-0.32c-0.62-0.65-1.23-1.31-1.87-1.94
				c-0.18-0.18-0.14-0.33-0.04-0.5c0.3-0.49,0.6-0.97,0.9-1.45c0.09-0.14,0.15-0.31,0.04-0.45c-0.32-0.44-0.49-0.97-0.79-1.42
				c-0.12-0.17-0.21-0.17-0.34-0.17c-1.94,0-3.87,0-5.81-0.01c-0.25,0-0.37,0.14-0.5,0.28c-0.82,0.89-1.64,1.78-2.43,2.64
				c-0.6-0.1-1.13-0.08-1.66-0.04c-0.28,0.02-0.56,0.03-0.82,0.01c-0.94-0.08-1.43,0.65-2.07,1.09c-0.15,0.11-0.09,0.55-0.11,0.84
				c-0.02,0.41-0.04,0.82-0.05,1.22c-0.01,0.23,0,0.43,0.17,0.64c0.28,0.36,0.51,0.77,0.82,1.26c-0.3,0.2-0.6,0.39-0.92,0.6
				c0.6,0.51,0.6,0.5,1.01,0.13c0.43-0.39,0.88-0.76,1.31-1.14c0.52-0.44,1.49-0.32,1.95,0.22c0.58,0.69,1.14,1.4,1.78,2.03
				c0.35,0.35,0.39,0.73,0.44,1.15c0.06,0.53,0.09,1.06,0.14,1.59c0.01,0.11,0.03,0.23,0.09,0.31c0.63,0.85,1.28,1.69,1.89,2.55
				c0.11,0.15,0.22,0.24,0.37,0.31c1.4,0.64,2.81,1.27,4.22,1.9c0.15,0.07,0.32,0.08,0.41,0.25c-0.2,0.34-0.36,0.71-0.6,1.01
				c-0.25,0.31-0.18,0.53,0,0.83c0.4,0.66,0.84,1.3,1.2,1.98c0.11,0.2,0.11,0.35,0.08,0.55c-0.19,1.6-0.38,3.2-0.55,4.81
				c-0.09,0.8,0.37,1.61,1.09,1.95c0.17,0.08,0.34,0.19,0.54,0.14"/>
			<path class="st0" d="M71.58,58.51c0.27,0.36,0.59,0.66,0.85,1.02c0.21,0.3,0.43,0.6,0.69,0.86c0.16,0.16,0.13,0.3,0.08,0.46
				c-0.18,0.61-0.38,1.21-0.54,1.82c-0.06,0.24-0.18,0.29-0.41,0.32c-0.76,0.11-1.3-0.24-1.87-0.68c-0.72-0.55-0.74-0.53-1.67-0.37
				c-0.57,0.1-1.13,0.21-1.72,0.33c-0.15-0.67-0.17-1.33-0.19-2.01c0-0.21,0.15-0.25,0.28-0.32c0.24-0.11,0.47-0.25,0.73-0.31
				c0.39-0.09,0.43-0.28,0.27-0.61c0.63-0.58,1.35-0.89,2.22-0.72c0.09,0.24,0.02,0.49,0.05,0.73c0.61,0.22,0.61,0.22,0.86-0.41
				c0.03-0.09,0.12-0.15,0.18-0.23C71.39,58.4,71.52,58.42,71.58,58.51z"/>
			<path class="st0" d="M47.67,37.99c-0.33-0.69-0.79-1.29-1.22-1.91c-0.1-0.15-0.2-0.13-0.33-0.13c-1.83,0-3.66,0-5.49,0
				c-0.11,0-0.22-0.02-0.32,0.09c-0.53,0.56-1.21,0.96-1.71,1.54c0.18,0.4,0.37,0.78,0.53,1.19c0.46,1.14,1.21,2.08,2,2.99
				c0.27,0.31,0.52,0.63,0.77,0.95c0.13,0.16,0.28,0.24,0.5,0.23c0.85-0.03,1.69-0.04,2.54-0.05c0.24,0,0.35-0.1,0.46-0.32
				c0.74-1.52,1.5-3.03,2.26-4.54"/>
			<path class="st0" d="M71.75,49.83c0.88-0.8,1.72-1.64,2.5-2.53c0.18-0.21,0.11-0.49,0.32-0.7c-0.37-0.22-0.72-0.07-1.06-0.13
				c0.03,0.12-0.08,0.15-0.07,0.19c0.07,0.73-0.44,1.14-0.87,1.58c-0.41,0.42-0.74,0.92-1.2,1.29c0.12,0.14,0.15,0.31,0.35,0.3"/>
			<path class="st0" d="M42.59,43.48c0.56,0,0.62,0,1.24,0c-0.06,0.58-0.03,1.11-0.16,1.64c-0.24-0.03-0.48,0.09-0.62-0.19
				c-0.24-0.45-0.53-0.87-0.68-1.36L42.59,43.48z"/>
			<path class="st0" d="M60.1,37.81c-0.12-0.14-0.24-0.27-0.37-0.41c-0.01-0.02-0.06,0-0.18,0c-0.66,0.66-1.37,1.38-2.09,2.08
				c-0.07,0.07-0.05,0.15-0.04,0.23c0.04,0.37,0.09,0.73,0.14,1.08c0.44-0.07,0.7-0.24,0.54-0.72c-0.05-0.13,0.06-0.19,0.13-0.27
				c0.62-0.65,1.24-1.3,1.86-1.95"/>
			<path class="st0" d="M46.81,43.57c0.2-0.18,0.37-0.39,0.59-0.54c0.32-0.21,0.29-0.48,0.23-0.78c-1.05-0.2-1.26-0.1-1.69,0.78
				c0.27,0.18,0.55,0.35,0.82,0.53H46.81z"/>
			<path class="st0" d="M72.25,57.63c-0.02-0.26-0.31-0.43-0.23-0.73c0.03-0.14-0.15-0.2-0.22-0.21c-0.28-0.06-0.5-0.25-0.77-0.33
				c-0.22-0.07-0.4-0.17-0.6,0.09c-0.17,0.22-0.41,0.02-0.63,0.01c-0.17-0.01-0.43-0.09-0.44,0.18c-0.01,0.18,0.14,0.35,0.39,0.32
				c0.29-0.03,0.47,0.09,0.65,0.35c0.33,0.48,0.71,0.5,1.17,0.14c0.18,0.07,0.3,0.24,0.55,0.19L72.25,57.63z"/>
			<path class="st0" d="M56.33,58.08c0.36-0.26,0.39,0.05,0.45,0.27c0.16,0.63-0.08,1.15-0.46,1.63c-0.11-0.06-0.27-0.04-0.36-0.18
				c0.08-0.18,0.13-0.37,0.24-0.53c0.27-0.41,0.2-0.81,0.04-1.23L56.33,58.08z"/>
			<path class="st0" d="M75.38,62.35c-0.35,0.53-0.74,1.03-1.22,1.58c-0.03-0.26-0.31-0.29-0.27-0.59c0.27-0.24,0.48-0.58,0.71-0.9
				c0.23-0.3,0.47-0.35,0.77-0.13V62.35z"/>
			<path class="st0" d="M48.9,44.93c0.39,0.4,0.73,0.83,1.03,1.32c-0.42,0.4-0.83,0.8-1.29,1.23c-0.16-0.22-0.32-0.43-0.48-0.65
				c0.2-0.24,0.43-0.53,0.66-0.82c-0.16-0.18-0.31-0.35-0.47-0.53c0.19-0.17,0.2-0.46,0.46-0.55"/>
			<path class="st0" d="M70.08,51.69c0.43-0.41,0.87-0.82,1.29-1.23c-0.09-0.21-0.23-0.29-0.39-0.36c-0.41,0.41-0.84,0.8-1.14,1.3
				C69.77,51.62,70.08,51.69,70.08,51.69z"/>
			<path class="st0" d="M64.59,56.54c0.33,0.32,0.69,0.61,0.99,0.96c0.28,0.32,0.6,0.44,1.01,0.45c0.37,0.01,0.72,0.13,1.18,0.07
				c0.05-0.04-0.04-0.22,0.05-0.35c-0.38-0.19-0.79-0.18-1.19-0.26c-0.17-0.03-0.6-0.29-0.69-0.34c-0.15-0.09-0.23-0.29-0.35-0.4
				c-0.53-0.5-0.53-0.51-1.1-0.17L64.59,56.54z"/>
		</g>
		<g class="st2">
			<polygon class="st3" points="40.01,32.52 40.01,70.75 61.22,65.94 61.22,29.67 			"/>
		</g>
		<g id="VtAZmA_00000027575389408500672900000003717368119341008515_">
			<g>
				<path class="st4" d="M53.99,15.46c1.09,0.95,2.18,1.91,3.26,2.85c-1.39,1.61-2.76,3.2-4.13,4.79c-1.03-0.92-2.12-1.89-3.37-3.01
					c1.32-1.48,2.73-3.05,4.13-4.62C53.92,15.47,53.95,15.47,53.99,15.46z"/>
				<path class="st4" d="M87.54,44.26c-1.15,1.33-3.88,4.51-4.09,4.77c-1.12-1-2.21-1.97-3.27-2.91c1.29-1.5,2.66-3.11,4.17-4.87
					c1.05,0.95,2.12,1.93,3.19,2.9C87.53,44.18,87.53,44.22,87.54,44.26z"/>
				<path class="st4" d="M75.47,29.75c0.03,0.52-0.12,1.14-0.58,1.68c-2.02,2.36-4.04,4.74-6.07,7.09c-0.96,1.11-2.46,1.2-3.59,0.25
					c-0.83-0.7-1.66-1.41-2.48-2.12c-1.12-0.97-1.24-2.46-0.29-3.59c1.98-2.33,3.96-4.65,5.95-6.97c1.02-1.19,2.47-1.32,3.67-0.34
					c0.85,0.7,1.68,1.43,2.52,2.15C75.13,28.35,75.4,28.91,75.47,29.75z"/>
				<path class="st4" d="M57.18,38.31c1.85-1.56,4.17-1.66,6.1-0.14c2.22,1.75,2.46,4.27,1.2,6.37
					C62.05,42.47,59.61,40.38,57.18,38.31z"/>
				<path class="st4" d="M61.74,22.28c-1.31,1.53-2.68,3.12-4.03,4.69c-1.07-0.93-2.18-1.88-3.26-2.82c1.3-1.52,2.66-3.12,4.01-4.69
					C59.53,20.38,60.64,21.33,61.74,22.28z"/>
				<path class="st4" d="M58.97,28.04c1.32-1.54,2.68-3.14,4.03-4.72c1.08,0.92,2.18,1.86,3.24,2.77c-1.33,1.56-2.7,3.16-4.07,4.76
					C61.15,29.95,60.06,29,58.97,28.04z"/>
				<path class="st4" d="M71.05,38.42c1.35-1.59,2.71-3.2,4.05-4.77c1.09,0.93,2.19,1.87,3.27,2.79c-1.36,1.59-2.73,3.2-4.11,4.81
					C73.2,40.32,72.13,39.38,71.05,38.42z"/>
				<path class="st4" d="M79.73,37.54c1.03,0.89,2.12,1.83,3.18,2.75c-1.37,1.58-2.75,3.18-4.1,4.73c-1.02-0.87-2.12-1.8-3.21-2.72
					C76.94,40.77,78.32,39.17,79.73,37.54z"/>
			</g>
		</g>
		<g id="VtAZmA_00000112622282728313160580000004076416390412902300_">
			<g>
				<path class="st5" d="M53.99,15.46c1.09,0.95,2.18,1.91,3.26,2.85c-1.39,1.61-2.76,3.2-4.13,4.79c-1.03-0.92-2.12-1.89-3.37-3.01
					c1.32-1.48,2.73-3.05,4.13-4.62C53.92,15.47,53.95,15.47,53.99,15.46z"/>
				<path class="st5" d="M87.54,44.26c-1.15,1.33-3.88,4.51-4.09,4.77c-1.12-1-2.21-1.97-3.27-2.91c1.29-1.5,2.66-3.11,4.17-4.87
					c1.05,0.95,2.12,1.93,3.19,2.9C87.53,44.18,87.53,44.22,87.54,44.26z"/>
				<path class="st5" d="M75.47,29.75c0.03,0.52-0.12,1.14-0.58,1.68c-2.02,2.36-4.04,4.74-6.07,7.09c-0.96,1.11-2.46,1.2-3.59,0.25
					c-0.83-0.7-1.66-1.41-2.48-2.12c-1.12-0.97-1.24-2.46-0.29-3.59c1.98-2.33,3.96-4.65,5.95-6.97c1.02-1.19,2.47-1.32,3.67-0.34
					c0.85,0.7,1.68,1.43,2.52,2.15C75.13,28.35,75.4,28.91,75.47,29.75z"/>
				<path class="st5" d="M57.18,38.31c1.85-1.56,4.17-1.66,6.1-0.14c2.22,1.75,2.46,4.27,1.2,6.37
					C62.05,42.47,59.61,40.38,57.18,38.31z"/>
				<path class="st5" d="M61.74,22.28c-1.31,1.53-2.68,3.12-4.03,4.69c-1.07-0.93-2.18-1.88-3.26-2.82c1.3-1.52,2.66-3.12,4.01-4.69
					C59.53,20.38,60.64,21.33,61.74,22.28z"/>
				<path class="st5" d="M58.97,28.04c1.32-1.54,2.68-3.14,4.03-4.72c1.08,0.92,2.18,1.86,3.24,2.77c-1.33,1.56-2.7,3.16-4.07,4.76
					C61.15,29.95,60.06,29,58.97,28.04z"/>
				<path class="st5" d="M71.05,38.42c1.35-1.59,2.71-3.2,4.05-4.77c1.09,0.93,2.19,1.87,3.27,2.79c-1.36,1.59-2.73,3.2-4.11,4.81
					C73.2,40.32,72.13,39.38,71.05,38.42z"/>
				<path class="st5" d="M79.73,37.54c1.03,0.89,2.12,1.83,3.18,2.75c-1.37,1.58-2.75,3.18-4.1,4.73c-1.02-0.87-2.12-1.8-3.21-2.72
					C76.94,40.77,78.32,39.17,79.73,37.54z"/>
			</g>
		</g>
		<g>
			<linearGradient id="SVGID_1_" gradientUnits="userSpaceOnUse" x1="2.8996" y1="51.6565" x2="96.1937" y2="51.6565">
				<stop  offset="0" style="stop-color:#1590BB"/>
				<stop  offset="0.7957" style="stop-color:#52A782"/>
				<stop  offset="1" style="stop-color:#7AB829"/>
			</linearGradient>
			<path class="st6" d="M39.39,8.4c-3.55,1.35-6.9,3.04-9.96,5.08c-1.53,1.02-2.99,2.11-4.36,3.3c-1.37,1.18-2.68,2.41-3.87,3.74
				C16.36,25.76,13,32.09,11.4,38.73c-0.4,1.66-0.71,3.34-0.88,5.03c-0.17,1.69-0.29,3.38-0.23,5.07c-0.01,0.42,0.03,0.85,0.05,1.27
				l0.08,1.26l0.14,1.26l0.06,0.63l0.1,0.62l0.19,1.25c0.08,0.41,0.17,0.82,0.25,1.24c0.15,0.83,0.4,1.63,0.6,2.45
				c0.94,3.22,2.23,6.36,3.98,9.25l0.66,1.08c0.22,0.36,0.47,0.7,0.7,1.06c0.45,0.71,0.98,1.37,1.48,2.06
				c0.26,0.33,0.54,0.66,0.8,0.98l0.4,0.49c0.14,0.16,0.28,0.32,0.42,0.47l0.85,0.94l0.9,0.9c4.79,4.82,10.85,8.44,17.48,10.41
				c1.65,0.53,3.35,0.88,5.06,1.2l1.29,0.19l0.65,0.09l0.65,0.07l1.3,0.14c0.44,0.03,0.87,0.05,1.31,0.08
				c0.87,0.07,1.75,0.05,2.63,0.06c0.87-0.03,1.75-0.05,2.63-0.12c1.75-0.12,3.5-0.32,5.23-0.67c6.93-1.3,13.55-4.39,19.15-8.87
				c2.8-2.24,5.35-4.83,7.55-7.72c2.21-2.88,4.07-6.06,5.59-9.45c-0.7,3.62-1.93,7.21-3.72,10.56c-0.88,1.68-1.89,3.31-3.03,4.87
				c-1.13,1.56-2.39,3.04-3.73,4.45c-5.4,5.61-12.51,9.86-20.35,11.96c-3.91,1.05-7.99,1.63-12.08,1.62c-0.51,0-1.02,0.01-1.53-0.01
				l-1.53-0.07l-0.77-0.04l-0.76-0.08l-1.53-0.16c-2.03-0.29-4.06-0.63-6.04-1.18c-1-0.23-1.97-0.57-2.96-0.87
				c-0.49-0.16-0.96-0.35-1.45-0.52c-0.48-0.18-0.97-0.35-1.43-0.56l-1.42-0.6c-0.47-0.21-0.93-0.44-1.39-0.66
				c-0.93-0.43-1.82-0.94-2.72-1.42c-0.45-0.25-0.87-0.53-1.31-0.79c-0.44-0.27-0.87-0.53-1.29-0.83l-1.26-0.86
				c-0.41-0.3-0.82-0.61-1.22-0.92l-0.61-0.46l-0.59-0.49l-1.17-0.98l-1.13-1.03l-0.56-0.52l-0.54-0.54l-1.06-1.09l-1.01-1.14
				c-0.17-0.19-0.34-0.38-0.5-0.57l-0.48-0.59c-0.32-0.4-0.64-0.78-0.95-1.19c-0.59-0.82-1.21-1.62-1.75-2.47
				c-0.27-0.42-0.56-0.84-0.82-1.27l-0.76-1.3c-0.26-0.43-0.48-0.88-0.71-1.33c-0.23-0.45-0.47-0.89-0.68-1.34
				c-0.41-0.92-0.85-1.82-1.2-2.76c-0.76-1.85-1.34-3.77-1.83-5.71c-1.87-7.76-1.57-15.94,0.91-23.44
				c2.46-7.49,7.04-14.25,13.04-19.27C24.49,12.84,31.83,9.46,39.39,8.4z"/>
		</g>
		<g>
			<path class="st7" d="M92.43,61.45c0.14-1.91,0.22-3.78,0.21-5.63c-0.01-1.85-0.11-3.67-0.31-5.46c-0.19-1.79-0.51-3.56-0.86-5.29
				c-0.41-1.73-0.84-3.43-1.43-5.08c-2.26-6.61-5.99-12.58-10.89-17.46c-4.9-4.88-10.91-8.73-17.68-11.11
				c-3.37-1.24-6.94-2.04-10.63-2.56c-1.85-0.27-3.72-0.41-5.63-0.49c-1.91-0.07-3.84-0.05-5.82,0.01c1.76-0.89,3.62-1.57,5.55-2.11
				c1.93-0.54,3.91-0.92,5.93-1.14c4.03-0.43,8.2-0.28,12.26,0.54c4.07,0.78,8.03,2.23,11.7,4.18c1.83,1,3.6,2.09,5.26,3.34
				c0.85,0.6,1.63,1.29,2.44,1.94l1.15,1.05l0.57,0.53l0.55,0.55c1.48,1.45,2.8,3.04,4.04,4.68c0.59,0.84,1.21,1.67,1.73,2.55
				c0.56,0.86,1.05,1.76,1.54,2.65c0.94,1.81,1.78,3.67,2.41,5.6c0.35,0.95,0.61,1.93,0.89,2.9c0.12,0.49,0.22,0.98,0.33,1.47
				c0.11,0.49,0.22,0.98,0.29,1.48c0.08,0.49,0.17,0.99,0.24,1.48c0.06,0.5,0.1,1,0.15,1.49c0.12,0.99,0.13,1.99,0.17,2.98
				c0.01,0.5-0.02,0.99-0.02,1.49c-0.01,0.49-0.01,0.99-0.07,1.48c-0.09,0.99-0.16,1.96-0.32,2.94c-0.3,1.94-0.75,3.85-1.38,5.69
				C94.18,58,93.4,59.79,92.43,61.45z"/>
		</g>
	</g>
</g>
<g id="Livello_4">
	<g>
		<path class="st1" d="M132.92,36.91v1.5h-11.87v11.12h11.87v1.5h-11.87v11.12h11.87v1.5h-13.38V36.91H132.92z"/>
		<path class="st1" d="M150.44,53.42h-9.26l-3.73,10.25h-1.61l9.97-27.38l9.95,27.38h-1.59L150.44,53.42z M149.89,51.91l-4.08-11.22
			l-4.08,11.22H149.89z"/>
		<path class="st1" d="M165.61,54.37c-0.14,0.01-0.29,0.02-0.45,0.02h-4.55v9.28h-1.5V36.91h7.02c2.04,0.28,3.77,1.13,5.2,2.56
			c1.71,1.71,2.56,3.76,2.56,6.17c0,2.42-0.85,4.48-2.56,6.19c-1.18,1.18-2.54,1.96-4.06,2.32l6.17,9.52h-1.86L165.61,54.37z
			 M160.61,38.43v14.43h4.55c1.98,0,3.68-0.7,5.09-2.12c1.41-1.41,2.12-3.11,2.12-5.11c0-2-0.71-3.7-2.12-5.1
			c-1.41-1.4-3.11-2.11-5.09-2.11H160.61z"/>
		<path class="st1" d="M184.18,38.42v25.25h-1.5V38.42h-6.77v-1.5h15.05v1.5H184.18z"/>
		<path class="st1" d="M195.8,51.68v11.99h-1.5V36.91h1.5v13.26h11.21V36.91h1.5v26.76h-1.5V51.68H195.8z"/>
		<path class="st1" d="M227.09,36.91l10.05,17.39l10.03-17.39h1.72l-0.07,0.12v26.64h-1.5V39.64l-10.18,17.63l-10.2-17.63v24.03
			h-1.5V37.03l-0.07-0.12H227.09z"/>
		<path class="st1" d="M266.84,53.42h-9.26l-3.73,10.25h-1.61l9.97-27.38l9.95,27.38h-1.59L266.84,53.42z M266.29,51.91l-4.08-11.22
			l-4.08,11.22H266.29z"/>
		<path class="st1" d="M277.01,54.39v9.28h-1.5V36.91h7.02c2.04,0.28,3.77,1.13,5.2,2.56c1.71,1.71,2.56,3.76,2.56,6.17
			c0,2.42-0.85,4.48-2.56,6.19s-3.76,2.56-6.17,2.56H277.01z M277.01,38.43v14.43h4.55c1.98,0,3.68-0.7,5.09-2.12
			c1.41-1.41,2.12-3.11,2.12-5.11c0-2-0.71-3.7-2.12-5.1c-1.41-1.4-3.11-2.11-5.09-2.11H277.01z"/>
	</g>
</g>
</svg>
