<?xml version="1.0" encoding="utf-8"?>
<!-- Generator: Adobe Illustrator 28.1.0, SVG Export Plug-In . SVG Version: 6.00 Build 0)  -->
<svg version="1.1" id="Livello_2" xmlns="http://www.w3.org/2000/svg" xmlns:xlink="http://www.w3.org/1999/xlink" x="0px" y="0px"
	 viewBox="0 0 117.45 117.45" style="enable-background:new 0 0 117.45 117.45;" xml:space="preserve">
<style type="text/css">
	.st0{fill:#FFFFFF;}
</style>
<g>
	<path class="st0" d="M46.59,16.07c2.21,6.16,2.97,12.47,2.29,19.02c6.36-2.02,12.79-2.6,19.41-1.76c-1.18,9.66-5.12,18-11.96,25.12
		c2.42,0.37,4.74,0.86,7.01,1.56c2.28,0.71,4.49,1.59,6.63,2.65c2.12,1.06,4.14,2.28,6.06,3.67c1.93,1.39,3.73,2.93,5.43,4.64
		c-4.67,4.68-10.09,8.13-16.38,10.39c4.64,4.74,7.99,10.18,10.1,16.35c-10.4,3.94-26.44,4.22-40.25-5.55
		c-14.29-10.1-20.9-27.42-17.38-43.9C21.16,31.33,33.86,20.03,46.59,16.07z M76.32,70.95c-15.52-13.28-38.67-12.03-52.33,0.06
		C39.15,84.06,62.32,83.28,76.32,70.95z M23.25,67.01c0.08,0.01,0.1,0.02,0.11,0.01c0.14-0.1,0.28-0.2,0.42-0.3
		c3.95-2.94,8.29-5.15,13-6.63c3.3-1.04,6.67-1.71,10.13-1.92c1.48-0.09,2.97-0.08,4.46-0.1c0.26,0,0.45-0.06,0.63-0.24
		c0.45-0.44,0.92-0.85,1.37-1.3c5.44-5.43,9.01-11.86,10.75-19.29c0.06-0.25,0.09-0.51,0.15-0.82c-3.57-0.15-7.03,0.15-10.46,0.91
		c-6.14,1.36-11.67,3.98-16.57,7.86c-4.93,3.91-8.73,8.69-11.38,14.35C24.72,61.93,23.85,64.42,23.25,67.01z M44.37,20.56
		c-3.07,1.08-7.97,4.21-11.17,7.11c-3.29,2.98-6.01,6.4-8.15,10.26c-2.14,3.86-3.58,7.96-4.37,12.29
		c-0.7,3.81-0.74,11.71-0.02,12.97c0.02-0.02,0.05-0.04,0.06-0.07c0.04-0.1,0.07-0.21,0.11-0.31c3.48-10.2,9.88-18.1,19.2-23.71
		c1.54-0.93,3.14-1.74,4.79-2.46c0.2-0.09,0.4-0.15,0.42-0.43c0.11-1.19,0.29-2.38,0.35-3.58c0.17-3.2-0.02-6.39-0.65-9.54
		C44.77,22.25,44.57,21.42,44.37,20.56z M70.63,95.57c-2.22-5-5.32-9.34-9.28-13.03c-12.94,3.02-24.95,1.09-36.07-6.11
		c2.01,3.65,4.56,6.87,7.64,9.68c5.96,5.44,12.96,8.84,20.97,10.18C59.49,97.24,65.06,96.98,70.63,95.57z"/>
	<path class="st0" d="M50.46,18.33c0.61-0.02,1.18-0.06,1.74-0.06c2.87,0.02,5.61,0.66,8.24,1.77c3.2,1.35,6.03,3.27,8.63,5.54
		c3.09,2.69,5.72,5.77,8.05,9.11c4.62,6.61,7.88,13.84,9.98,21.58c0.78,2.86,1.32,5.77,1.69,8.71c0.35,2.81,0.45,5.63,0.29,8.45
		c-0.2,3.63-0.85,7.18-2.26,10.56c-1.1,2.65-2.58,5.06-4.73,7.04c-1.21,1.12-2.58,2.01-4.09,2.68c-0.12,0.05-0.25,0.08-0.4,0.13
		c-0.01-0.28,0.18-0.3,0.3-0.37c1.21-0.69,2.32-1.51,3.31-2.49c1.5-1.49,2.65-3.21,3.55-5.11c1.19-2.52,1.9-5.17,2.29-7.92
		c0.36-2.56,0.46-5.12,0.33-7.7c-0.2-4.17-0.89-8.27-1.96-12.3c-2.18-8.21-5.61-15.87-10.45-22.9c-2.26-3.27-4.82-6.3-7.81-8.95
		c-2.43-2.15-5.06-3.99-8.05-5.3c-2.32-1.02-4.74-1.63-7.27-1.81c-0.25-0.02-0.51-0.01-0.76-0.03C50.7,18.93,50.57,18.8,50.46,18.33
		z"/>
	<path class="st0" d="M85.25,89.35c-0.05-0.27,0.13-0.33,0.23-0.43c1.22-1.06,2.25-2.28,3.11-3.64c1.24-1.96,2.11-4.07,2.7-6.3
		c0.63-2.35,0.94-4.73,1.07-7.15c0.11-2.11,0.04-4.21-0.14-6.31c-0.32-3.75-1.03-7.44-2.02-11.07c-1.69-6.16-4.14-12-7.41-17.5
		c-0.05-0.08-0.09-0.16-0.15-0.27c0.25-0.19,0.51-0.36,0.73-0.57c0.22-0.2,0.39-0.44,0.63-0.72c0.11,0.15,0.21,0.28,0.29,0.41
		c1.64,2.65,3.07,5.41,4.32,8.26c2.11,4.84,3.64,9.86,4.54,15.06c0.64,3.65,0.93,7.33,0.77,11.04c-0.17,3.95-0.86,7.8-2.46,11.46
		c-0.99,2.27-2.32,4.33-4.11,6.07c-0.54,0.52-1.15,0.97-1.74,1.45C85.52,89.23,85.39,89.27,85.25,89.35z"/>
	<path class="st0" d="M63.31,16.76c0.2,0,0.39-0.01,0.59,0c2.87,0.21,5.54,1.08,8.08,2.38c3.08,1.57,5.79,3.63,8.27,5.98
		c3.55,3.36,6.48,7.21,8.95,11.39c3.07,5.19,5.33,10.7,6.79,16.53c0.14,0.54,0.25,1.09,0.37,1.62c-0.48,0.07-0.9,0.13-1.38,0.2
		c-0.02-0.05-0.07-0.14-0.09-0.23c-0.66-2.66-1.45-5.29-2.44-7.86C90.1,40.68,87,35.01,82.9,29.89c-2.65-3.31-5.64-6.28-9.15-8.71
		c-2.23-1.54-4.6-2.81-7.22-3.56c-0.95-0.27-1.94-0.42-2.91-0.63c-0.11-0.02-0.22-0.06-0.33-0.09
		C63.29,16.85,63.3,16.81,63.31,16.76z"/>
	<path class="st0" d="M72.06,18.4c0.25,0.07,0.43,0.11,0.6,0.16c2.76,0.82,5.24,2.18,7.54,3.86c3.49,2.53,6.41,5.6,8.94,9.05
		c4.79,6.54,7.99,13.77,9.67,21.66c0.66,3.12,1.03,6.28,1,9.47c-0.02,3.43-0.44,6.81-1.61,10.07c-0.34,0.95-0.8,1.86-1.21,2.79
		c-0.06,0.13-0.15,0.25-0.24,0.39c-0.23-0.19-0.06-0.33-0.01-0.45c0.59-1.31,1.05-2.67,1.4-4.07c0.42-1.72,0.64-3.46,0.77-5.22
		c0.14-2,0.12-3.99-0.05-5.98c-0.25-3.05-0.79-6.05-1.59-9.01c-1.74-6.44-4.44-12.45-8.19-18c-2.14-3.17-4.58-6.08-7.45-8.64
		c-2.75-2.44-5.75-4.49-9.26-5.74c-0.07-0.03-0.15-0.05-0.21-0.09C72.12,18.61,72.11,18.54,72.06,18.4z"/>
	<path class="st0" d="M75.73,62.55c-0.16-0.09-0.29-0.16-0.42-0.24c-0.64-0.38-1.26-0.77-1.91-1.13c-0.27-0.15-0.42-0.33-0.5-0.63
		c-1.06-3.65-2.44-7.17-4.12-10.59c-0.38-0.77-0.78-1.53-1.19-2.29c-0.12-0.21-0.13-0.39-0.03-0.61c0.29-0.66,0.56-1.32,0.84-1.98
		c0.04-0.1,0.09-0.19,0.14-0.29c0.24,0.03,0.27,0.22,0.35,0.36c1.18,2,2.22,4.06,3.16,6.17c1.55,3.49,2.8,7.08,3.69,10.79
		c0.02,0.09,0.04,0.18,0.06,0.27C75.8,62.41,75.77,62.44,75.73,62.55z"/>
	<path class="st0" d="M77.22,83.23c-0.01,1.86-1.58,3.38-3.47,3.37c-1.89-0.01-3.42-1.55-3.4-3.43c0.02-1.86,1.56-3.35,3.43-3.35
		C75.67,79.83,77.23,81.37,77.22,83.23z"/>
	<path class="st0" d="M79.21,28.88c-0.52,0.24-1.01,0.47-1.55,0.73c-0.08-0.09-0.2-0.21-0.3-0.34c-2.42-2.87-5.12-5.44-8.27-7.53
		c-2.67-1.78-5.54-3.13-8.69-3.84c-1.83-0.41-3.68-0.6-5.55-0.59c-0.15,0-0.3,0-0.45,0c-0.01-0.04-0.01-0.08-0.02-0.12
		c0.08-0.03,0.17-0.09,0.25-0.1c1.85-0.25,3.69-0.21,5.53,0.05c4.61,0.66,8.64,2.63,12.33,5.35c2.39,1.77,4.52,3.81,6.47,6.04
		c0.07,0.08,0.14,0.17,0.21,0.25C79.18,28.8,79.19,28.84,79.21,28.88z"/>
	<path class="st0" d="M100.88,64.22c0.5-7.55-0.97-14.76-3.85-21.71c-2.88-6.95-6.96-13.09-12.63-18.14
		c0.08-0.18,0.17-0.15,0.27-0.07c0.36,0.29,0.72,0.56,1.07,0.86c3.68,3.09,6.63,6.76,9.05,10.87c2.83,4.81,4.79,9.95,5.87,15.42
		c0.59,2.98,0.88,5.99,0.77,9.02c-0.04,1.12-0.18,2.24-0.28,3.35c-0.01,0.14-0.07,0.28-0.1,0.42
		C100.99,64.23,100.93,64.23,100.88,64.22z"/>
	<path class="st0" d="M83.39,73.28c0,0.5,0.02,0.92,0,1.34c-0.18,3.87-0.81,7.64-2.26,11.26c-0.95,2.37-2.23,4.54-4,6.41
		c-0.19,0.2-0.4,0.39-0.61,0.6c-0.3-0.38-0.26-0.74-0.11-1.1c0.04-0.1,0.11-0.19,0.18-0.28c1.98-2.41,3.16-5.2,3.94-8.16
		c0.55-2.07,0.87-4.18,1-6.31c0.04-0.64,0.07-1.27,0.09-1.91c0.01-0.18,0.03-0.33,0.18-0.46c0.45-0.41,0.89-0.84,1.34-1.25
		C83.19,73.38,83.26,73.36,83.39,73.28z"/>
	<path class="st0" d="M83.17,68.45c-0.16-0.12-0.26-0.18-0.34-0.26c-0.51-0.46-1.01-0.94-1.53-1.4c-0.16-0.14-0.24-0.3-0.28-0.51
		c-0.57-3.54-1.41-7.02-2.55-10.43c-0.04-0.13-0.08-0.26-0.11-0.37c0.63-0.28,1.23-0.55,1.84-0.81
		C81.07,55.84,83.36,66.3,83.17,68.45z"/>
	<path class="st0" d="M64.97,30.1c-0.77-0.03-1.54-0.04-2.31-0.09c-0.15-0.01-0.3-0.15-0.42-0.27c-1.26-1.16-2.58-2.25-3.98-3.24
		c-1.79-1.26-3.67-2.37-5.71-3.22c-0.74-0.31-1.18-0.84-1.36-1.71c0.26,0.06,0.45,0.09,0.63,0.14c2.49,0.77,4.81,1.89,6.99,3.29
		c2.13,1.36,4.09,2.93,5.93,4.65c0.11,0.1,0.2,0.21,0.3,0.32C65.02,30.02,64.99,30.06,64.97,30.1z"/>
	<path class="st0" d="M70.92,36.65c2.15,2.87,3.99,5.92,5.62,9.12c-0.68,0.25-1.3,0.49-1.97,0.74c-0.09-0.17-0.2-0.36-0.29-0.55
		c-1.13-2.2-2.39-4.32-3.77-6.37c-0.19-0.28-0.25-0.54-0.16-0.87c0.14-0.54,0.23-1.1,0.35-1.64c0.03-0.13,0.07-0.26,0.11-0.39
		C70.84,36.67,70.88,36.66,70.92,36.65z"/>
	<path class="st0" d="M79.79,50.64c0.01,1.36-1.11,2.47-2.5,2.47c-1.38,0-2.5-1.11-2.5-2.47c0.01-1.34,1.11-2.43,2.47-2.45
		C78.63,48.17,79.78,49.29,79.79,50.64z"/>
	<path class="st0" d="M96.21,62.4c0.44-0.07,0.82-0.14,1.23-0.21c0.03,0.54,0.09,1.06,0.09,1.59c-0.01,1.48,0.01,2.96-0.09,4.44
		c-0.25,3.73-1.02,7.34-2.67,10.74c-0.71,1.47-1.59,2.83-2.69,4.06c-0.09,0.1-0.15,0.3-0.39,0.15c0.05-0.09,0.09-0.17,0.14-0.24
		c1.74-2.3,2.83-4.88,3.54-7.65c0.59-2.32,0.89-4.68,0.97-7.07c0.06-1.86,0.03-3.71-0.13-5.56C96.2,62.57,96.21,62.47,96.21,62.4z"
		/>
	<path class="st0" d="M53.72,31.23c-1.17,0.01-2.12-0.9-2.14-2.05c-0.02-1.17,0.94-2.13,2.12-2.13c1.16,0,2.12,0.95,2.12,2.08
		C55.83,30.28,54.89,31.22,53.72,31.23z"/>
	<path class="st0" d="M67.45,58.29c-0.17-0.03-0.27-0.04-0.37-0.08c-0.73-0.25-1.45-0.52-2.18-0.76c-0.19-0.07-0.32-0.15-0.4-0.35
		c-0.35-0.87-0.72-1.72-1.09-2.62c0.47-0.72,0.95-1.46,1.53-2.35c0.06,0.15,0.1,0.23,0.14,0.31c0.88,1.83,1.66,3.69,2.35,5.6
		C67.44,58.1,67.43,58.16,67.45,58.29z"/>
	<path class="st0" d="M78.64,33c0-1.06,0.84-1.9,1.92-1.91c1.08-0.01,1.97,0.85,1.97,1.92c0,1.06-0.9,1.92-1.98,1.91
		C79.47,34.9,78.64,34.06,78.64,33z"/>
	<path class="st0" d="M97.94,58.33c0,0.94-0.78,1.7-1.72,1.68c-0.93-0.02-1.68-0.77-1.69-1.68c-0.01-0.94,0.75-1.69,1.71-1.7
		C97.19,56.63,97.95,57.38,97.94,58.33z"/>
</g>
<path class="st0" d="M63.9,0.61c1.54,0.01,3.08,0.15,4.62,0.31c1.99,0.21,3.96,0.53,5.91,0.95c3.47,0.75,6.85,1.81,10.12,3.2
	c2.84,1.2,5.56,2.65,8.15,4.34c2.81,1.82,5.43,3.9,7.85,6.23c1.44,1.39,2.79,2.86,4.06,4.41c3.29,4,5.94,8.39,7.98,13.17
	c1.46,3.43,2.56,6.97,3.28,10.64c0.49,2.5,0.89,5.01,0.97,7.56c0,0.17,0.01,7.37,0,7.57c-0.04,0.53-0.05,1.06-0.1,1.58
	c-0.14,1.69-0.37,3.36-0.67,5.03c-0.84,4.69-2.2,9.23-4.05,13.61c-1.43,3.38-3.11,6.62-5.09,9.71c-1.91,2.98-4.05,5.78-6.42,8.4
	c-1.83,2.03-3.79,3.92-5.88,5.67c-1.77,1.49-3.63,2.87-5.55,4.16c-2.93,1.95-6,3.63-9.21,5.03c-3.62,1.58-7.36,2.76-11.22,3.57
	c-1.92,0.4-3.86,0.71-5.82,0.89c-0.75,0.07-1.5,0.13-2.26,0.2c-0.15,0.01-5.7,0.02-5.87,0c-1.12-0.1-2.24-0.18-3.36-0.3
	c-2.49-0.27-4.94-0.74-7.37-1.37c-4.8-1.25-9.37-3.1-13.71-5.54c-4.26-2.38-8.15-5.28-11.69-8.65c-1.89-1.8-3.65-3.72-5.28-5.77
	c-3.31-4.13-5.97-8.66-8.04-13.55c-1.38-3.26-2.45-6.62-3.21-10.08c-0.72-3.29-1.19-6.62-1.32-9.99c-0.02-0.39-0.02-5.03,0-5.44
	c0.04-0.75,0.07-1.5,0.14-2.25c0.16-1.79,0.4-3.56,0.74-5.33c1.17-6.16,3.32-11.96,6.44-17.37c3.3-5.74,7.48-10.75,12.44-15.08
	c2.33-2.04,4.8-3.89,7.4-5.56c3.99-2.56,8.21-4.63,12.66-6.24C44,3.05,47.56,2.11,51.19,1.49c2.83-0.49,5.68-0.82,8.55-0.87
	C59.94,0.61,63.72,0.61,63.9,0.61z M112.89,60.52c-0.03-0.82-0.07-1.64-0.1-2.46c-0.05-1.62-0.21-3.24-0.42-4.85
	c-0.42-3.23-1.11-6.39-2.07-9.49c-1.28-4.16-2.96-8.13-5.08-11.92c-2.24-3.99-4.87-7.69-7.94-11.07c-2.96-3.26-6.21-6.18-9.79-8.73
	c-3.85-2.75-7.97-4.99-12.37-6.68c-3.01-1.16-6.09-2.02-9.25-2.59c-1.45-0.26-2.92-0.47-4.39-0.56c-1.04-0.06-2.07-0.15-3.11-0.17
	c-1.98-0.05-3.96,0.07-5.93,0.28c-2.14,0.23-4.25,0.59-6.34,1.11c-5.87,1.45-11.29,3.92-16.26,7.4c-3.9,2.73-7.33,5.97-10.31,9.71
	c-2.57,3.23-4.72,6.72-6.5,10.46c-2.15,4.52-3.67,9.24-4.61,14.16c-0.46,2.42-0.8,4.85-0.93,7.31c-0.07,1.31-0.13,2.63-0.16,3.94
	c-0.02,0.7,0.05,1.4,0.06,2.1c0.02,1.78,0.18,3.55,0.41,5.31c0.44,3.36,1.16,6.66,2.19,9.89c1.29,4.05,3.01,7.9,5.16,11.54
	c1.89,3.2,4.06,6.19,6.54,8.94c1.45,1.61,3,3.13,4.64,4.54c3.65,3.14,7.62,5.75,11.95,7.8c3.33,1.57,6.78,2.78,10.35,3.64
	c2.44,0.59,4.9,1,7.39,1.24c1.64,0.16,3.28,0.26,4.92,0.27c1.07,0.01,2.14,0,3.22-0.07c0.97-0.06,1.94-0.11,2.91-0.21
	c2.24-0.23,4.45-0.61,6.65-1.12c4.4-1.04,8.6-2.63,12.6-4.78c3.82-2.05,7.31-4.58,10.49-7.55c2.52-2.37,4.79-4.97,6.79-7.82
	c2.72-3.88,4.88-8.05,6.43-12.54C111.93,72.05,112.84,66.36,112.89,60.52z"/>
</svg>
