<?xml version="1.0" encoding="utf-8"?>
<!-- Generator: Adobe Illustrator 28.1.0, SVG Export Plug-In . SVG Version: 6.00 Build 0)  -->
<svg version="1.1" id="Livello_31" xmlns="http://www.w3.org/2000/svg" xmlns:xlink="http://www.w3.org/1999/xlink" x="0px" y="0px"
	 viewBox="0 0 117.45 113.39" style="enable-background:new 0 0 117.45 113.39;" xml:space="preserve">
<style type="text/css">
	.st0{fill:#FFFFFF;}
	.st1{fill:url(#SVGID_1_);}
	.st2{fill:#B5DCD0;}
	.st3{fill:#5C9EC2;}
	.st4{opacity:0.4;}
	.st5{opacity:0.4;fill:#FFFFFF;}
	.st6{opacity:0.7;}
	.st7{opacity:0.9;}
</style>
<g>
	<path class="st0" d="M114.06,56.42c0,30.72-24,55.63-53.6,55.63c-29.6,0-53.6-24.91-53.6-55.63c0-30.72,24-55.63,53.6-55.63
		C90.06,0.79,114.06,25.7,114.06,56.42z"/>
	<g>
		<g>
			<linearGradient id="SVGID_1_" gradientUnits="userSpaceOnUse" x1="80.0957" y1="113.0415" x2="20.4166" y2="9.6743">
				<stop  offset="0" style="stop-color:#1590BB"/>
				<stop  offset="0.7957" style="stop-color:#52A782"/>
				<stop  offset="1" style="stop-color:#7AB829"/>
			</linearGradient>
			<path class="st1" d="M112.25,72.75c0,0-0.27,0.84-0.77,2.42c-0.26,0.79-0.53,1.76-1.03,2.89c-0.23,0.57-0.48,1.17-0.75,1.82
				c-0.13,0.33-0.27,0.66-0.41,1.01c-0.17,0.33-0.34,0.67-0.51,1.02c-0.72,1.39-1.45,2.98-2.49,4.57c-0.51,0.8-0.98,1.68-1.59,2.5
				c-0.6,0.83-1.23,1.69-1.88,2.58c-2.72,3.45-6.17,7.1-10.53,10.41c-4.34,3.31-9.58,6.27-15.56,8.35
				c-5.98,2.08-12.67,3.23-19.66,3.06c-0.83-0.02-1.66-0.03-2.49-0.05c-0.81,0.02-1.77-0.18-2.65-0.26
				c-1.79-0.25-3.68-0.36-5.4-0.83c-3.54-0.7-7.04-1.82-10.46-3.23c-6.82-2.85-13.21-7.1-18.57-12.43
				c-5.42-5.29-9.77-11.69-12.84-18.58C1.58,71.09-0.09,63.63-0.14,56.4l-0.01-0.34l0-0.08c0-0.13-0.01,0.16,0-0.3l0.01-0.15
				l0.03-0.62l0.06-1.23c0.04-0.82,0.07-1.63,0.11-2.44c0.17-1.79,0.46-3.65,0.73-5.43c0.4-1.7,0.76-3.38,1.2-5.02
				c0.54-1.61,1.04-3.21,1.63-4.76c0.66-1.51,1.26-3.03,1.98-4.46c0.77-1.4,1.49-2.81,2.28-4.13c0.86-1.29,1.69-2.55,2.54-3.77
				c0.92-1.16,1.83-2.3,2.71-3.41c0.95-1.05,1.9-2.07,2.84-3.05c0.94-0.97,1.99-1.8,2.93-2.66c0.94-0.88,1.96-1.6,2.93-2.33
				s1.89-1.45,2.89-2c0.97-0.59,1.9-1.16,2.81-1.71c0.94-0.48,1.85-0.94,2.72-1.38c0.86-0.45,1.71-0.83,2.55-1.13
				c0.83-0.32,1.62-0.62,2.37-0.91c1.49-0.59,2.91-0.87,4.08-1.23c1.17-0.37,2.23-0.51,3.06-0.66c1.67-0.28,2.55-0.43,2.55-0.43
				c0.27-0.05,0.53,0.14,0.58,0.41c0.04,0.22-0.08,0.44-0.27,0.53l-0.04,0.02c0,0-0.79,0.4-2.27,1.14
				c-1.49,0.68-3.58,1.88-6.13,3.45c-1.23,0.87-2.67,1.69-4.04,2.85c-0.71,0.54-1.44,1.11-2.2,1.69c-0.71,0.64-1.45,1.31-2.21,2
				c-0.78,0.66-1.49,1.44-2.24,2.21c-0.75,0.78-1.55,1.53-2.25,2.44c-0.71,0.89-1.5,1.73-2.19,2.7c-0.69,0.95-1.4,1.93-2.12,2.93
				c-0.64,1.04-1.3,2.11-1.97,3.19c-0.58,1.13-1.17,2.28-1.78,3.44c-0.57,1.18-1.05,2.42-1.6,3.65c-0.48,1.26-0.89,2.56-1.36,3.86
				c-0.4,1.32-0.7,2.69-1.08,4.05c-0.29,1.38-0.53,2.79-0.81,4.2c-0.12,1.38-0.28,2.7-0.45,4.14c-0.03,0.81-0.06,1.63-0.09,2.45
				l-0.05,1.23l-0.02,0.62l-0.01,0.15c0.01-0.41,0-0.07,0.01-0.15l0,0.07l0.02,0.28c-0.04,5.99,0.97,12.18,3.07,18.18
				c2.1,5.99,5.52,11.66,9.9,16.52c4.41,4.83,9.79,8.81,15.65,11.6c2.94,1.38,5.98,2.5,9.07,3.32c1.54,0.53,3.05,0.66,4.56,0.99
				l1.13,0.22c0.37,0.08,0.76,0.14,1.19,0.16c0.83,0.07,1.66,0.13,2.48,0.2c6.22,0.53,12.37-0.19,17.95-1.7
				c5.6-1.52,10.64-3.93,14.91-6.74c4.28-2.82,7.78-6.03,10.6-9.14c0.68-0.81,1.33-1.58,1.96-2.34c0.64-0.75,1.14-1.56,1.69-2.29
				c1.11-1.45,1.94-2.91,2.74-4.21c0.2-0.32,0.39-0.64,0.58-0.95c0.16-0.32,0.32-0.63,0.47-0.93c0.3-0.6,0.59-1.16,0.86-1.69
				c0.56-1.03,0.92-1.99,1.24-2.76c0.63-1.53,0.96-2.35,0.96-2.35c0.11-0.26,0.4-0.38,0.65-0.27
				C112.2,72.23,112.33,72.5,112.25,72.75z"/>
			<path class="st2" d="M45.11,2.81c0,0,0.44-0.13,1.27-0.39c0.84-0.23,2.01-0.67,3.62-1c0.8-0.17,1.68-0.42,2.66-0.58
				c0.98-0.15,2.03-0.31,3.16-0.48c1.13-0.13,2.35-0.2,3.63-0.32C59.63,0.03,59.7,0.01,59.98,0l0.48,0c0.32,0,0.65,0,0.98,0
				c0.66,0,1.34,0,2.03,0c0.69,0,1.4,0,2.11,0c0.74,0.08,1.5,0.15,2.26,0.23c0.77,0.08,1.56,0.16,2.36,0.25
				c0.4,0.05,0.81,0.07,1.21,0.14c0.39,0.08,0.79,0.16,1.19,0.24c1.59,0.36,3.27,0.6,4.91,1.12c1.63,0.54,3.34,1.02,5.01,1.66
				c1.64,0.73,3.35,1.4,5.01,2.22c1.61,0.91,3.29,1.78,4.88,2.8c1.54,1.11,3.17,2.12,4.66,3.34l2.21,1.88
				c0.74,0.63,1.49,1.24,2.14,1.96c2.76,2.72,5.35,5.65,7.57,8.81c1.05,1.61,2.26,3.13,3.06,4.85c0.87,1.68,1.81,3.32,2.41,5.08
				c1.37,3.43,2.19,6.94,2.7,10.27c0.19,1.68,0.32,3.31,0.46,4.88c0,1.58-0.05,3.11-0.1,4.57c-0.01,0.36-0.03,0.72-0.04,1.08
				l-0.03,0.64l-0.07,0.49c-0.1,0.66-0.2,1.3-0.29,1.92c-0.09,0.63-0.19,1.24-0.28,1.83c-0.13,0.63-0.27,1.23-0.42,1.82
				c-0.31,1.16-0.51,2.26-0.86,3.21c-0.34,0.95-0.66,1.82-0.94,2.61c-0.26,0.79-0.61,1.46-0.89,2.04c-0.28,0.58-0.52,1.08-0.73,1.47
				c-0.41,0.78-0.63,1.2-0.63,1.2c-0.1,0.19-0.33,0.26-0.52,0.16c-0.14-0.07-0.21-0.21-0.2-0.36l0-0.03c0,0,0.03-0.47,0.08-1.35
				c0.03-0.88,0.23-2.12,0.25-3.72c0.04-1.6,0.16-3.51,0.06-5.63c-0.02-0.53-0.02-1.07-0.02-1.63c-0.04-0.6-0.09-1.21-0.13-1.84
				c-0.04-0.63-0.09-1.28-0.14-1.94l-0.03-0.5l0-0.06c0-0.11,0,0.12,0,0.08l0-0.03l-0.02-0.12l-0.04-0.24
				c-0.05-0.32-0.1-0.64-0.14-0.97c-0.18-1.29-0.37-2.63-0.57-4.02c-0.31-1.37-0.64-2.77-0.93-4.22c-0.78-2.85-1.63-5.82-2.83-8.79
				c-0.44-1.55-1.26-2.96-1.87-4.5c-0.59-1.55-1.48-2.97-2.25-4.49c-1.63-2.97-3.66-5.81-5.96-8.42c-0.53-0.69-1.18-1.28-1.8-1.89
				l-1.87-1.83c-1.26-1.2-2.68-2.2-4-3.31c-1.38-1.03-2.86-1.9-4.25-2.87c-1.45-0.87-2.96-1.61-4.41-2.42
				c-1.49-0.72-3.02-1.28-4.49-1.92c-0.73-0.35-1.5-0.52-2.25-0.76c-0.75-0.23-1.49-0.46-2.22-0.69c-0.37-0.11-0.73-0.23-1.09-0.34
				c-0.36-0.1-0.72-0.15-1.08-0.23c-0.72-0.15-1.43-0.29-2.13-0.44c-0.7-0.15-1.39-0.29-2.07-0.43c-0.71-0.07-1.42-0.14-2.1-0.21
				c-0.69-0.07-1.36-0.14-2.02-0.2c-0.33-0.03-0.65-0.07-0.97-0.1l-0.48-0.05l-0.4-0.01c-1.23-0.01-2.4-0.05-3.51-0.04
				c-1.1,0.06-2.13,0.11-3.09,0.16c-0.95,0.06-1.81,0.19-2.6,0.27c-1.57,0.13-2.83,0.44-3.67,0.58c-0.85,0.16-1.3,0.24-1.3,0.24
				c-0.2,0.04-0.4-0.1-0.44-0.3C44.82,3.04,44.93,2.86,45.11,2.81z"/>
		</g>
		<g>
			<path class="st0" d="M85.99,49.24l1.3-0.84l-1.72-13.34L65.68,24.36c-0.81-0.44-2.07-0.4-2.81,0.08L31.12,45.08L25.4,48.8
				c-0.74,0.48-0.68,1.23,0.14,1.66l7.72,4.15L31.12,56l-5.72,3.72c-0.74,0.48-0.68,1.23,0.14,1.66l7.5,4.03l-1.91,1.25l-5.72,3.71
				c-0.74,0.48-0.68,1.23,0.14,1.66l30.58,16.44c0.81,0.44,2.07,0.4,2.81-0.08l10.67-6.94l17.68-11.5l-1.27-9.84l1.27-0.82
				L85.99,49.24z"/>
			<path class="st3" d="M64.34,24.06c0.48,0,0.96,0.1,1.34,0.31l19.89,10.69l1.72,13.34l-1.3,0.84l1.3,10.08l-1.27,0.82l1.27,9.84
				L69.6,81.47L58.93,88.4c-0.39,0.25-0.93,0.38-1.47,0.38c-0.48,0-0.96-0.1-1.34-0.31L25.54,72.04c-0.81-0.44-0.87-1.18-0.14-1.66
				l5.72-3.71l1.91-1.25l-7.5-4.03c-0.81-0.44-0.87-1.18-0.14-1.66L31.12,56l2.13-1.39l-7.72-4.15c-0.81-0.43-0.87-1.18-0.14-1.66
				l5.72-3.72l31.75-20.64C63.26,24.19,63.8,24.06,64.34,24.06 M64.34,22.07c-0.95,0-1.86,0.25-2.56,0.71L30.04,43.41l-5.72,3.72
				c-0.95,0.62-1.46,1.56-1.42,2.58c0.05,1.04,0.67,1.95,1.7,2.51l4.76,2.55l-5.04,3.27c-0.95,0.62-1.46,1.56-1.42,2.58
				c0.04,1.04,0.66,1.96,1.69,2.51l4.54,2.44l-4.82,3.13c-0.95,0.62-1.46,1.56-1.42,2.58c0.04,1.04,0.66,1.95,1.69,2.51l30.58,16.44
				c0.66,0.35,1.45,0.54,2.28,0.54c0.94,0,1.85-0.25,2.55-0.7l10.68-6.94l17.69-11.5l1.05-0.68l-0.16-1.24l-1.11-8.59l0.22-0.14
				l1.05-0.68l-0.16-1.24l-1.14-8.83l0.25-0.16l1.05-0.68l-0.16-1.24L87.54,34.8l-0.13-1.01l-0.9-0.48L66.62,22.61
				C65.96,22.26,65.17,22.07,64.34,22.07L64.34,22.07z"/>
		</g>
		<g class="st4">
			<g>
				<path class="st2" d="M88.19,69.97L59.83,88.4c-0.74,0.48-2,0.51-2.81,0.08L26.44,72.04c-0.81-0.44-0.87-1.18-0.13-1.66
					l37.46-24.35c0.74-0.48,2-0.51,2.81-0.08l19.88,10.69"/>
				<path class="st3" d="M88.25,70.07c0,0-0.46,0.33-1.31,0.95c-0.85,0.63-2.11,1.51-3.71,2.66c-0.8,0.57-1.69,1.21-2.65,1.89
					c-0.97,0.68-2.02,1.42-3.14,2.2c-2.25,1.57-4.79,3.32-7.57,5.23c-2.78,1.9-5.8,3.95-9.02,6.1l-0.3,0.2l-0.08,0.05l-0.12,0.07
					l-0.08,0.05l-0.15,0.08c-0.11,0.06-0.19,0.09-0.27,0.12c-0.08,0.04-0.17,0.06-0.25,0.09c-0.17,0.05-0.33,0.09-0.5,0.12
					c-0.66,0.11-1.32,0.1-2-0.1c-0.17-0.05-0.34-0.11-0.52-0.2l-0.13-0.06l-0.08-0.04l-0.17-0.09l-0.66-0.35
					c-0.44-0.23-0.89-0.47-1.34-0.7c-1.8-0.94-3.62-1.92-5.48-2.91c-3.7-2.01-7.52-4.1-11.39-6.25c-1.93-1.07-3.88-2.15-5.84-3.24
					c-0.98-0.54-1.96-1.08-2.94-1.62l-1.47-0.82l-0.74-0.41l-0.41-0.23l-0.09-0.05l-0.05-0.03l-0.08-0.05
					c-0.11-0.08-0.21-0.16-0.29-0.24c-0.18-0.17-0.35-0.38-0.47-0.66c-0.12-0.28-0.17-0.63-0.11-0.95c0.06-0.32,0.21-0.59,0.37-0.8
					c0.17-0.2,0.35-0.35,0.53-0.47l1.43-0.91c0.95-0.6,1.89-1.2,2.84-1.8c1.89-1.2,3.77-2.4,5.64-3.58
					c3.73-2.37,7.41-4.71,10.96-6.97c3.56-2.26,6.99-4.44,10.25-6.51c1.63-1.03,3.22-2.03,4.76-3c0.38-0.24,0.76-0.48,1.14-0.72
					c0.19-0.12,0.38-0.24,0.56-0.36l0.14-0.09c0.08-0.05,0.11-0.06,0.16-0.09c0.11-0.06,0.26-0.13,0.37-0.17
					c0.49-0.17,0.98-0.22,1.47-0.18c0.24,0.02,0.48,0.06,0.72,0.13c0.23,0.06,0.49,0.18,0.67,0.29
					c11.79,6.54,19.65,10.91,19.65,10.91c0.06,0.03,0.08,0.1,0.05,0.16c-0.03,0.06-0.1,0.08-0.16,0.05c0,0-7.97-4.15-19.93-10.37
					c-0.33-0.18-0.66-0.26-1.04-0.28c-0.37-0.02-0.76,0.03-1.09,0.16c-0.09,0.04-0.14,0.06-0.22,0.1c-0.04,0.03-0.11,0.07-0.12,0.08
					l-0.14,0.09c-0.18,0.12-0.37,0.25-0.55,0.37c-0.37,0.25-0.74,0.5-1.12,0.75c-1.51,1.01-3.07,2.05-4.68,3.13
					c-3.22,2.14-6.61,4.4-10.11,6.73c-3.51,2.33-7.13,4.74-10.82,7.19c-1.84,1.22-3.7,2.45-5.56,3.7c-0.93,0.62-1.87,1.24-2.8,1.86
					l-1.39,0.93c-0.05,0.04-0.08,0.07-0.1,0.08c0,0.01,0.01,0,0.02-0.05c0.01-0.05,0-0.11-0.01-0.13c-0.01-0.03,0-0.01,0.02,0.01
					c0.02,0.02,0.03,0.02,0.03,0.02c0,0,0,0,0.01,0.01l0.05,0.03l0.09,0.05l0.34,0.17l0.75,0.39l1.49,0.78
					c0.99,0.52,1.99,1.04,2.98,1.56c1.98,1.03,3.96,2.06,5.92,3.08c3.93,2.03,7.77,4.08,11.49,6.05c1.85,1,3.68,1.98,5.45,2.96
					c0.44,0.24,0.89,0.49,1.33,0.73l0.66,0.36l0.16,0.09l0.08,0.04l0.04,0.02c0.05,0.03,0.11,0.05,0.17,0.07
					c0.26,0.09,0.62,0.12,0.92,0.07c0.08-0.01,0.15-0.02,0.22-0.04c0.03-0.01,0.07-0.02,0.1-0.03l0.06-0.02l0.02,0l0.08-0.04
					l0.04-0.02c0.05-0.03-0.03,0.02,0,0l0.08-0.05l0.31-0.19c3.26-2.06,6.37-3.99,9.23-5.76c2.87-1.77,5.51-3.38,7.85-4.8
					c1.17-0.71,2.27-1.37,3.29-1.98c1.02-0.6,1.96-1.16,2.81-1.66c1.7-1,3.02-1.79,3.94-2.32c0.92-0.52,1.4-0.81,1.4-0.81
					c0.06-0.03,0.13-0.01,0.16,0.04C88.32,69.96,88.3,70.03,88.25,70.07z"/>
			</g>
			<path class="st5" d="M32.02,66.66l-5.72,3.71c-0.74,0.48-0.68,1.23,0.13,1.66l30.58,16.44c0.81,0.44,2.07,0.4,2.81-0.08
				l10.67-6.94C70.51,81.46,54.35,66.89,32.02,66.66z"/>
			<g>
				<path class="st3" d="M88.19,69.97l-10.7-5.76c-0.81-0.43-0.87-1.18-0.13-1.66l9.11-5.92"/>
				<path class="st0" d="M88.15,70.04c0,0-1.48-0.57-3.63-1.54c-0.54-0.24-1.12-0.51-1.73-0.79s-1.25-0.59-1.92-0.91
					c-0.67-0.31-1.35-0.66-2.04-1c-0.35-0.17-0.69-0.35-1.04-0.52l-0.52-0.27l-0.29-0.15c-0.03-0.01-0.13-0.08-0.19-0.12
					c-0.07-0.05-0.13-0.1-0.19-0.16c-0.23-0.22-0.47-0.53-0.54-0.95c-0.08-0.42,0.05-0.87,0.27-1.15c0.2-0.29,0.48-0.48,0.68-0.59
					l0.51-0.28c0.68-0.38,1.34-0.75,1.97-1.13c1.27-0.75,2.47-1.43,3.5-2c1.03-0.57,1.89-1.05,2.49-1.39
					c0.61-0.33,0.95-0.52,0.95-0.52c0.04-0.02,0.09-0.01,0.11,0.03c0.02,0.03,0.01,0.08-0.02,0.1c0,0-0.31,0.24-0.86,0.66
					c-0.55,0.41-1.34,1.01-2.28,1.72c-0.95,0.71-2.05,1.53-3.25,2.39c-0.6,0.43-1.21,0.88-1.83,1.35l-0.46,0.35
					c-0.13,0.1-0.16,0.16-0.17,0.19c-0.01,0.04,0.02,0,0.02-0.04c0-0.03-0.01,0,0.05,0.05c0.01,0.01,0.03,0.03,0.04,0.03
					c0.02,0.01-0.01,0.01,0.05,0.05l0.06,0.04l0.03,0.02l0.01,0.01c-0.01-0.01,0.04,0.02-0.02-0.01l0.02,0.01l0.13,0.07l0.51,0.29
					c0.34,0.2,0.68,0.39,1.01,0.58c0.67,0.39,1.33,0.77,1.96,1.15c0.63,0.38,1.25,0.74,1.82,1.1c0.57,0.36,1.12,0.69,1.62,1.01
					c2,1.26,3.29,2.19,3.29,2.19c0.04,0.02,0.04,0.07,0.02,0.11C88.22,70.04,88.18,70.05,88.15,70.04z"/>
			</g>
			<g>
				<path class="st0" d="M54.51,61.76c0.67-0.43,1.8-0.46,2.53-0.07l19.5,10.49c0.73,0.39,0.79,1.06,0.12,1.5l-0.13,0.08
					c-0.67,0.43-1.8,0.46-2.53,0.07L54.5,63.35c-0.73-0.4-0.79-1.06-0.12-1.5L54.51,61.76z"/>
				<path class="st0" d="M52.74,61.15c-0.67,0.43-1.8,0.46-2.53,0.07l-0.48-0.26c-0.73-0.39-0.79-1.06-0.12-1.5l0.43-0.28
					c0.67-0.43,1.8-0.47,2.53-0.07l0.47,0.26c0.73,0.39,0.79,1.06,0.12,1.5L52.74,61.15z"/>
			</g>
			<g>
				<path class="st0" d="M49.6,64.96c0.67-0.43,1.8-0.46,2.53-0.07l19.5,10.48c0.73,0.39,0.79,1.06,0.12,1.5l-0.13,0.08
					c-0.67,0.43-1.8,0.47-2.53,0.07l-19.5-10.48c-0.73-0.4-0.79-1.07-0.12-1.5L49.6,64.96z"/>
				<path class="st0" d="M47.83,64.34c-0.67,0.44-1.8,0.46-2.53,0.07l-0.47-0.25c-0.73-0.39-0.79-1.06-0.12-1.5l0.43-0.28
					c0.67-0.43,1.8-0.46,2.53-0.07l0.47,0.26c0.73,0.39,0.79,1.06,0.12,1.5L47.83,64.34z"/>
			</g>
			<g>
				<path class="st0" d="M44.68,68.16c0.67-0.43,1.8-0.46,2.53-0.07l19.5,10.48c0.73,0.39,0.79,1.06,0.12,1.5l-0.13,0.08
					c-0.67,0.43-1.8,0.46-2.53,0.07l-19.5-10.48c-0.73-0.39-0.79-1.06-0.12-1.5L44.68,68.16z"/>
				<path class="st0" d="M42.91,67.54c-0.67,0.43-1.8,0.46-2.53,0.07l-0.47-0.26c-0.73-0.39-0.79-1.06-0.12-1.5l0.43-0.28
					c0.67-0.43,1.8-0.46,2.53-0.07l0.48,0.25c0.73,0.4,0.79,1.07,0.12,1.5L42.91,67.54z"/>
			</g>
		</g>
		<g class="st6">
			<g>
				<path class="st2" d="M88.19,59.31L59.83,77.74c-0.74,0.48-2,0.51-2.81,0.08L26.44,61.38c-0.81-0.44-0.87-1.18-0.13-1.66
					l37.46-24.35c0.74-0.48,2-0.52,2.81-0.08l19.88,10.69"/>
				<path class="st3" d="M88.25,59.41c0,0-0.46,0.33-1.31,0.95c-0.85,0.63-2.11,1.51-3.71,2.66c-0.8,0.57-1.69,1.21-2.65,1.89
					c-0.97,0.68-2.02,1.42-3.14,2.2c-2.25,1.57-4.79,3.32-7.57,5.23c-2.78,1.9-5.8,3.95-9.02,6.1l-0.3,0.2l-0.08,0.05l-0.12,0.08
					l-0.08,0.05l-0.15,0.08c-0.11,0.06-0.19,0.09-0.27,0.12c-0.08,0.04-0.17,0.06-0.25,0.09c-0.17,0.05-0.33,0.09-0.5,0.12
					c-0.66,0.11-1.32,0.1-2-0.1c-0.17-0.05-0.34-0.11-0.52-0.2l-0.13-0.06l-0.08-0.04l-0.17-0.09l-0.66-0.35
					c-0.44-0.23-0.89-0.47-1.34-0.7c-1.8-0.94-3.62-1.92-5.48-2.91c-3.7-2.01-7.52-4.09-11.39-6.25c-1.93-1.07-3.88-2.15-5.84-3.24
					c-0.98-0.54-1.96-1.09-2.94-1.63l-1.47-0.81l-0.74-0.41l-0.41-0.22l-0.09-0.06l-0.05-0.03l-0.08-0.05
					c-0.11-0.08-0.21-0.16-0.29-0.24c-0.18-0.17-0.35-0.38-0.47-0.66c-0.12-0.28-0.17-0.63-0.11-0.95c0.06-0.32,0.21-0.6,0.37-0.8
					c0.17-0.2,0.35-0.35,0.53-0.47l1.43-0.91c0.95-0.6,1.89-1.2,2.84-1.8c1.89-1.2,3.77-2.4,5.64-3.58
					c3.73-2.37,7.41-4.71,10.96-6.97c3.56-2.26,6.99-4.44,10.25-6.51c1.63-1.03,3.22-2.03,4.76-3c0.38-0.24,0.76-0.48,1.14-0.72
					c0.19-0.12,0.38-0.24,0.56-0.35l0.14-0.09c0.08-0.05,0.11-0.06,0.16-0.09c0.11-0.06,0.26-0.13,0.37-0.17
					c0.49-0.17,0.98-0.22,1.47-0.18c0.24,0.02,0.48,0.06,0.72,0.13c0.23,0.06,0.49,0.18,0.67,0.29
					c11.79,6.54,19.65,10.91,19.65,10.91c0.06,0.03,0.08,0.1,0.05,0.16c-0.03,0.06-0.1,0.08-0.16,0.05c0,0-7.97-4.15-19.93-10.37
					c-0.33-0.18-0.66-0.26-1.04-0.29c-0.37-0.02-0.76,0.03-1.09,0.16c-0.09,0.04-0.14,0.06-0.22,0.1c-0.04,0.03-0.11,0.07-0.12,0.08
					l-0.14,0.09c-0.18,0.12-0.37,0.25-0.55,0.37c-0.37,0.25-0.74,0.5-1.12,0.75c-1.51,1.01-3.07,2.05-4.68,3.13
					c-3.22,2.14-6.61,4.4-10.11,6.73c-3.51,2.33-7.13,4.74-10.82,7.19c-1.84,1.22-3.7,2.46-5.56,3.7c-0.93,0.62-1.87,1.24-2.8,1.86
					l-1.39,0.93c-0.05,0.04-0.08,0.07-0.1,0.08c0,0.01,0.01,0,0.02-0.05c0.01-0.05,0-0.11-0.01-0.13c-0.01-0.03,0-0.01,0.02,0.01
					c0.02,0.02,0.03,0.02,0.03,0.03c0,0,0,0,0.01,0.01l0.05,0.03l0.09,0.05l0.34,0.17l0.75,0.39l1.49,0.78
					c0.99,0.52,1.99,1.04,2.98,1.56c1.98,1.03,3.96,2.06,5.92,3.08c3.93,2.03,7.77,4.08,11.49,6.05c1.85,1,3.68,1.98,5.45,2.96
					c0.44,0.24,0.89,0.49,1.33,0.73l0.66,0.36l0.16,0.09l0.08,0.04l0.04,0.02c0.05,0.03,0.11,0.05,0.17,0.07
					c0.26,0.09,0.62,0.12,0.92,0.07c0.08-0.01,0.15-0.03,0.22-0.04c0.03-0.01,0.07-0.02,0.1-0.03l0.06-0.02l0.02,0l0.08-0.04
					l0.04-0.02c0.05-0.03-0.03,0.02,0,0l0.08-0.05l0.31-0.19c3.26-2.06,6.37-3.99,9.23-5.76c2.87-1.77,5.51-3.38,7.85-4.8
					c1.17-0.7,2.27-1.37,3.29-1.98c1.02-0.6,1.96-1.15,2.81-1.66c1.7-1,3.02-1.79,3.94-2.31c0.92-0.53,1.4-0.81,1.4-0.81
					c0.06-0.03,0.13-0.01,0.16,0.04C88.32,59.31,88.3,59.37,88.25,59.41z"/>
			</g>
			<path class="st5" d="M32.02,56l-5.72,3.72c-0.74,0.48-0.68,1.22,0.13,1.66l30.58,16.44c0.81,0.44,2.07,0.4,2.81-0.08l10.67-6.94
				C70.51,70.8,54.35,56.23,32.02,56z"/>
			<g>
				<path class="st3" d="M88.19,59.31l-10.7-5.75c-0.81-0.44-0.87-1.18-0.13-1.66l9.11-5.92"/>
				<path class="st0" d="M88.15,59.38c0,0-1.48-0.57-3.63-1.54c-0.54-0.23-1.12-0.51-1.73-0.79c-0.62-0.28-1.25-0.59-1.92-0.91
					c-0.67-0.31-1.35-0.66-2.04-1c-0.35-0.17-0.69-0.35-1.04-0.52l-0.52-0.27l-0.29-0.15c-0.03-0.01-0.13-0.08-0.19-0.12
					c-0.07-0.05-0.13-0.1-0.19-0.15c-0.23-0.22-0.47-0.53-0.54-0.95c-0.08-0.42,0.05-0.87,0.27-1.15c0.2-0.29,0.48-0.48,0.68-0.59
					l0.51-0.28c0.68-0.38,1.34-0.76,1.97-1.13c1.27-0.75,2.47-1.42,3.5-2c1.03-0.57,1.89-1.05,2.49-1.39
					c0.61-0.33,0.95-0.52,0.95-0.52c0.04-0.02,0.09-0.01,0.11,0.03c0.02,0.03,0.01,0.08-0.02,0.1c0,0-0.31,0.24-0.86,0.66
					c-0.55,0.41-1.34,1.01-2.28,1.72c-0.95,0.7-2.05,1.53-3.25,2.38c-0.6,0.43-1.21,0.88-1.83,1.35l-0.46,0.36
					c-0.13,0.1-0.16,0.15-0.17,0.19c-0.01,0.04,0.02,0,0.02-0.04c0-0.03-0.01,0,0.05,0.05c0.01,0.01,0.03,0.03,0.04,0.03
					c0.02,0.01-0.01,0.01,0.05,0.05l0.06,0.04l0.03,0.02l0.01,0.01c-0.01-0.01,0.04,0.02-0.02-0.01l0.02,0.01l0.13,0.07l0.51,0.29
					c0.34,0.19,0.68,0.39,1.01,0.58c0.67,0.39,1.33,0.77,1.96,1.15c0.63,0.38,1.25,0.74,1.82,1.1c0.57,0.36,1.12,0.69,1.62,1.01
					c2,1.26,3.29,2.18,3.29,2.18c0.04,0.02,0.04,0.07,0.02,0.11C88.22,59.38,88.18,59.39,88.15,59.38z"/>
			</g>
			<g>
				<path class="st0" d="M54.51,51.1c0.67-0.43,1.8-0.47,2.53-0.07l19.5,10.48c0.73,0.39,0.79,1.07,0.12,1.5l-0.13,0.08
					c-0.67,0.43-1.8,0.47-2.53,0.07L54.5,52.69c-0.73-0.4-0.79-1.06-0.12-1.5L54.51,51.1z"/>
				<path class="st0" d="M52.74,50.49c-0.67,0.43-1.8,0.46-2.53,0.07l-0.48-0.25c-0.73-0.4-0.79-1.07-0.12-1.5l0.43-0.28
					c0.67-0.43,1.8-0.46,2.53-0.07l0.47,0.26c0.73,0.39,0.79,1.06,0.12,1.5L52.74,50.49z"/>
			</g>
			<g>
				<path class="st0" d="M49.6,54.3c0.67-0.43,1.8-0.47,2.53-0.07l19.5,10.48c0.73,0.4,0.79,1.06,0.12,1.5l-0.13,0.09
					c-0.67,0.43-1.8,0.46-2.53,0.07l-19.5-10.48c-0.73-0.39-0.79-1.07-0.12-1.5L49.6,54.3z"/>
				<path class="st0" d="M47.83,53.68c-0.67,0.43-1.8,0.46-2.53,0.07l-0.47-0.26c-0.73-0.39-0.79-1.06-0.12-1.5l0.43-0.28
					c0.67-0.43,1.8-0.46,2.53-0.07l0.47,0.26c0.73,0.39,0.79,1.06,0.12,1.5L47.83,53.68z"/>
			</g>
			<g>
				<path class="st0" d="M44.68,57.5c0.67-0.43,1.8-0.46,2.53-0.07l19.5,10.48c0.73,0.39,0.79,1.06,0.12,1.5l-0.13,0.08
					c-0.67,0.43-1.8,0.46-2.53,0.07l-19.5-10.48c-0.73-0.39-0.79-1.06-0.12-1.5L44.68,57.5z"/>
				<path class="st0" d="M42.91,56.88c-0.67,0.43-1.8,0.47-2.53,0.07L39.9,56.7c-0.73-0.4-0.79-1.06-0.12-1.5l0.43-0.28
					c0.67-0.43,1.8-0.46,2.53-0.07l0.48,0.26c0.73,0.39,0.79,1.06,0.12,1.5L42.91,56.88z"/>
			</g>
		</g>
		<g class="st7">
			<g>
				<path class="st2" d="M88.19,48.39L59.83,66.82c-0.74,0.48-2,0.52-2.81,0.08L26.44,50.46c-0.81-0.44-0.87-1.18-0.13-1.66
					l37.46-24.35c0.74-0.48,2-0.52,2.81-0.08l19.88,10.69"/>
				<path class="st3" d="M88.25,48.49c0,0-0.46,0.33-1.31,0.95c-0.85,0.63-2.11,1.51-3.71,2.66c-0.8,0.57-1.69,1.2-2.65,1.89
					c-0.97,0.68-2.02,1.42-3.14,2.2c-2.25,1.57-4.79,3.33-7.57,5.23c-2.78,1.9-5.8,3.95-9.02,6.1l-0.3,0.2l-0.08,0.05l-0.12,0.07
					l-0.08,0.05l-0.15,0.08c-0.11,0.05-0.19,0.09-0.27,0.12c-0.08,0.03-0.17,0.06-0.25,0.09c-0.17,0.05-0.33,0.09-0.5,0.12
					c-0.66,0.11-1.32,0.1-2-0.1c-0.17-0.05-0.34-0.11-0.52-0.2l-0.13-0.06l-0.08-0.04l-0.17-0.09l-0.66-0.35
					c-0.44-0.23-0.89-0.47-1.34-0.7c-1.8-0.94-3.62-1.92-5.48-2.92c-3.7-2.01-7.52-4.09-11.39-6.25c-1.93-1.07-3.88-2.16-5.84-3.24
					c-0.98-0.54-1.96-1.08-2.94-1.62l-1.47-0.82l-0.74-0.41l-0.41-0.22l-0.09-0.06l-0.05-0.03l-0.08-0.05
					c-0.11-0.08-0.21-0.16-0.29-0.24c-0.18-0.17-0.35-0.38-0.47-0.66c-0.12-0.28-0.17-0.63-0.11-0.95c0.06-0.32,0.21-0.6,0.37-0.8
					c0.17-0.2,0.35-0.35,0.53-0.47l1.43-0.91c0.95-0.6,1.89-1.2,2.84-1.8c1.89-1.2,3.77-2.4,5.64-3.58
					c3.73-2.37,7.41-4.71,10.96-6.97c3.56-2.26,6.99-4.44,10.25-6.51c1.63-1.03,3.22-2.03,4.76-3c0.38-0.24,0.76-0.48,1.14-0.72
					c0.19-0.12,0.38-0.24,0.56-0.36l0.14-0.09c0.08-0.05,0.11-0.06,0.16-0.09c0.11-0.06,0.26-0.13,0.37-0.17
					c0.49-0.17,0.98-0.22,1.47-0.18c0.24,0.02,0.48,0.06,0.72,0.13c0.23,0.06,0.49,0.18,0.67,0.29
					c11.79,6.54,19.65,10.91,19.65,10.91c0.06,0.03,0.08,0.1,0.05,0.16c-0.03,0.06-0.1,0.08-0.16,0.05c0,0-7.97-4.15-19.93-10.37
					c-0.33-0.18-0.66-0.26-1.04-0.28c-0.37-0.02-0.76,0.03-1.09,0.16c-0.09,0.04-0.14,0.06-0.22,0.11
					c-0.04,0.02-0.11,0.06-0.12,0.08l-0.14,0.09c-0.18,0.12-0.37,0.25-0.55,0.37c-0.37,0.25-0.74,0.5-1.12,0.75
					c-1.51,1.01-3.07,2.06-4.68,3.13c-3.22,2.14-6.61,4.4-10.11,6.73c-3.51,2.33-7.13,4.74-10.82,7.19c-1.84,1.22-3.7,2.46-5.56,3.7
					c-0.93,0.62-1.87,1.24-2.8,1.86l-1.39,0.93c-0.05,0.04-0.08,0.07-0.1,0.09c0,0.01,0.01,0,0.02-0.05c0.01-0.05,0-0.11-0.01-0.13
					c-0.01-0.02,0-0.01,0.02,0.01c0.02,0.02,0.03,0.02,0.03,0.02c0,0,0,0,0.01,0.01l0.05,0.03l0.09,0.05l0.34,0.18l0.75,0.39
					l1.49,0.78c0.99,0.52,1.99,1.04,2.98,1.56c1.98,1.03,3.96,2.06,5.92,3.09c3.93,2.03,7.77,4.07,11.49,6.05
					c1.85,1,3.68,1.98,5.45,2.96c0.44,0.24,0.89,0.48,1.33,0.73l0.66,0.36l0.16,0.09l0.08,0.04l0.04,0.02
					c0.05,0.03,0.11,0.05,0.17,0.07c0.26,0.09,0.62,0.12,0.92,0.07c0.08-0.01,0.15-0.02,0.22-0.04c0.03-0.01,0.07-0.02,0.1-0.03
					l0.06-0.02h0.02l0.08-0.05l0.04-0.02c0.05-0.03-0.03,0.02,0,0l0.08-0.05l0.31-0.19c3.26-2.07,6.37-3.99,9.23-5.77
					c2.87-1.77,5.51-3.38,7.85-4.8c1.17-0.71,2.27-1.37,3.29-1.98c1.02-0.6,1.96-1.15,2.81-1.66c1.7-0.99,3.02-1.79,3.94-2.31
					c0.92-0.53,1.4-0.81,1.4-0.81c0.06-0.03,0.13-0.01,0.16,0.04C88.32,48.39,88.3,48.46,88.25,48.49z"/>
			</g>
			<path class="st5" d="M32.02,45.08l-5.72,3.72c-0.74,0.48-0.68,1.23,0.13,1.66L57.02,66.9c0.81,0.44,2.07,0.4,2.81-0.08
				l10.67-6.94C70.51,59.89,54.35,45.32,32.02,45.08z"/>
			<g>
				<path class="st3" d="M88.19,48.39l-10.7-5.75c-0.81-0.44-0.87-1.18-0.13-1.66l9.11-5.92"/>
				<path class="st0" d="M88.15,48.46c0,0-1.48-0.57-3.63-1.54c-0.54-0.24-1.12-0.51-1.73-0.79c-0.62-0.28-1.25-0.59-1.92-0.91
					c-0.67-0.31-1.35-0.66-2.04-1c-0.35-0.17-0.69-0.35-1.04-0.52l-0.52-0.27l-0.29-0.16c-0.03-0.01-0.13-0.08-0.19-0.12
					c-0.07-0.05-0.13-0.1-0.19-0.16c-0.23-0.22-0.47-0.52-0.54-0.95c-0.08-0.42,0.05-0.87,0.27-1.15c0.2-0.29,0.48-0.48,0.68-0.59
					l0.51-0.28c0.68-0.38,1.34-0.75,1.97-1.13c1.27-0.75,2.47-1.42,3.5-2c1.03-0.57,1.89-1.05,2.49-1.38
					c0.61-0.33,0.95-0.52,0.95-0.52c0.04-0.02,0.09,0,0.11,0.03c0.02,0.03,0.01,0.08-0.02,0.1c0,0-0.31,0.24-0.86,0.66
					c-0.55,0.42-1.34,1.01-2.28,1.72c-0.95,0.7-2.05,1.53-3.25,2.39c-0.6,0.43-1.21,0.88-1.83,1.34l-0.46,0.35
					c-0.13,0.1-0.16,0.16-0.17,0.2c-0.01,0.04,0.02,0,0.02-0.04c0-0.03-0.01,0,0.05,0.05c0.01,0.01,0.03,0.03,0.04,0.04
					c0.02,0.01-0.01,0.01,0.05,0.04l0.06,0.04l0.03,0.02l0.01,0.01c-0.01-0.01,0.04,0.02-0.02-0.01l0.02,0.01l0.13,0.07l0.51,0.29
					c0.34,0.19,0.68,0.39,1.01,0.58c0.67,0.39,1.33,0.76,1.96,1.15c0.63,0.38,1.25,0.74,1.82,1.1c0.57,0.36,1.12,0.69,1.62,1.01
					c2,1.26,3.29,2.18,3.29,2.18c0.04,0.03,0.04,0.08,0.02,0.11C88.22,48.46,88.18,48.48,88.15,48.46z"/>
			</g>
			<g>
				<path class="st0" d="M54.51,40.19c0.67-0.43,1.8-0.46,2.53-0.07l19.5,10.48c0.73,0.39,0.79,1.06,0.12,1.5l-0.13,0.09
					c-0.67,0.43-1.8,0.46-2.53,0.07L54.5,41.77c-0.73-0.4-0.79-1.07-0.12-1.5L54.51,40.19z"/>
				<path class="st0" d="M52.74,39.57c-0.67,0.43-1.8,0.46-2.53,0.07l-0.48-0.26c-0.73-0.39-0.79-1.06-0.12-1.5l0.43-0.28
					c0.67-0.44,1.8-0.47,2.53-0.07l0.47,0.26c0.73,0.39,0.79,1.06,0.12,1.5L52.74,39.57z"/>
			</g>
			<g>
				<path class="st0" d="M49.6,43.39c0.67-0.44,1.8-0.46,2.53-0.07l19.5,10.48c0.73,0.39,0.79,1.06,0.12,1.5l-0.13,0.08
					c-0.67,0.43-1.8,0.46-2.53,0.07l-19.5-10.48c-0.73-0.39-0.79-1.06-0.12-1.5L49.6,43.39z"/>
				<path class="st0" d="M47.83,42.77c-0.67,0.44-1.8,0.47-2.53,0.07l-0.47-0.25c-0.73-0.39-0.79-1.06-0.12-1.5l0.43-0.28
					c0.67-0.43,1.8-0.46,2.53-0.07l0.47,0.25c0.73,0.39,0.79,1.07,0.12,1.5L47.83,42.77z"/>
			</g>
			<g>
				<path class="st0" d="M44.68,46.58c0.67-0.43,1.8-0.46,2.53-0.07L66.71,57c0.73,0.39,0.79,1.06,0.12,1.5l-0.13,0.08
					c-0.67,0.43-1.8,0.46-2.53,0.07l-19.5-10.48c-0.73-0.39-0.79-1.06-0.12-1.5L44.68,46.58z"/>
				<path class="st0" d="M42.91,45.96c-0.67,0.43-1.8,0.47-2.53,0.07l-0.47-0.26c-0.73-0.39-0.79-1.06-0.12-1.5L40.21,44
					c0.67-0.43,1.8-0.46,2.53-0.07l0.48,0.26c0.73,0.4,0.79,1.06,0.12,1.5L42.91,45.96z"/>
			</g>
		</g>
	</g>
</g>
</svg>
