<?xml version="1.0" encoding="utf-8"?>
<!-- Generator: Adobe Illustrator 28.1.0, SVG Export Plug-In . SVG Version: 6.00 Build 0)  -->
<svg version="1.1" id="Livello_7" xmlns="http://www.w3.org/2000/svg" xmlns:xlink="http://www.w3.org/1999/xlink" x="0px" y="0px"
	 viewBox="0 0 100 100" style="enable-background:new 0 0 100 100;" xml:space="preserve">
<style type="text/css">
	.st0{fill:#010202;}
</style>
<g>
	<path class="st0" d="M96.27,40.35c-0.4-2.64-1.05-5.42-2.14-8.15c-0.47-1.39-1.22-2.69-1.91-4.03c-0.64-1.37-1.6-2.57-2.43-3.85
		c-1.76-2.5-3.82-4.83-6.01-6.99c-0.52-0.57-1.12-1.06-1.7-1.56l-1.75-1.49c-1.18-0.97-2.48-1.78-3.7-2.66
		c-1.27-0.81-2.6-1.5-3.88-2.22c-1.32-0.65-2.68-1.18-3.98-1.76c-1.33-0.51-2.68-0.89-3.98-1.32c-1.3-0.41-2.63-0.6-3.9-0.89
		c-0.32-0.07-0.63-0.13-0.94-0.2c-0.32-0.06-0.64-0.08-0.96-0.11c-0.63-0.07-1.26-0.13-1.87-0.2c-0.61-0.06-1.21-0.12-1.8-0.18
		c-0.57,0-1.13,0-1.68,0c-0.55,0-1.08,0-1.61,0c-0.26,0-0.52,0-0.78,0h-0.38c-0.22,0.01-0.28,0.02-0.43,0.03
		c-1.02,0.09-1.98,0.15-2.88,0.25c-0.89,0.14-1.73,0.26-2.51,0.38c-0.77,0.13-1.48,0.33-2.11,0.46c-1.28,0.26-2.21,0.61-2.88,0.8
		c-0.66,0.2-1.01,0.3-1.01,0.3c0,0,0,0-0.01,0c0.13,0.05,0.24,0.14,0.27,0.29c0.02,0.1-0.01,0.2-0.07,0.28
		c0.11-0.02,0.44-0.08,0.98-0.18c0.67-0.11,1.67-0.35,2.92-0.46c0.63-0.06,1.31-0.17,2.07-0.22c0.76-0.04,1.58-0.08,2.45-0.13
		c0.88-0.01,1.81,0.02,2.78,0.03l0.32,0l0.38,0.04c0.26,0.02,0.51,0.05,0.77,0.08c0.52,0.05,1.06,0.1,1.6,0.16
		c0.55,0.05,1.1,0.11,1.67,0.17c0.54,0.11,1.08,0.23,1.64,0.34c0.55,0.11,1.12,0.23,1.69,0.35c0.28,0.06,0.57,0.1,0.86,0.19
		c0.29,0.09,0.57,0.18,0.86,0.27c0.58,0.18,1.17,0.36,1.76,0.55c0.59,0.19,1.21,0.33,1.78,0.6c1.17,0.51,2.38,0.95,3.56,1.52
		c1.15,0.64,2.35,1.23,3.5,1.92c1.11,0.77,2.28,1.46,3.38,2.28c1.05,0.88,2.18,1.68,3.18,2.63l1.48,1.45c0.49,0.48,1,0.95,1.43,1.5
		c1.83,2.07,3.44,4.32,4.73,6.68c0.61,1.2,1.32,2.33,1.78,3.56c0.48,1.22,1.13,2.35,1.48,3.57c0.95,2.36,1.62,4.72,2.24,6.98
		c0.23,1.15,0.49,2.26,0.74,3.35c0.16,1.1,0.31,2.17,0.45,3.19c0.04,0.26,0.08,0.51,0.11,0.77l0.03,0.19l0.01,0.1l0,0.02
		c0,0.03,0.01-0.15,0-0.07l0,0.05l0.03,0.4c0.04,0.53,0.07,1.04,0.11,1.54c0.03,0.5,0.07,0.99,0.1,1.46c0,0.44,0,0.87,0.01,1.29
		c0.09,1.68-0.01,3.2-0.04,4.47c-0.02,1.27-0.18,2.25-0.2,2.95c-0.02,0.4-0.04,0.68-0.05,0.86c0.08-0.02,0.17-0.03,0.26,0.01
		c0.18,0.07,0.26,0.26,0.23,0.44c0.02-0.02,0.05-0.03,0.06-0.05c0,0,0.17-0.33,0.5-0.95c0.16-0.31,0.36-0.7,0.58-1.17
		c0.22-0.46,0.5-0.99,0.7-1.62c0.23-0.63,0.48-1.32,0.75-2.07c0.27-0.76,0.44-1.63,0.68-2.55c0.12-0.46,0.23-0.94,0.34-1.44
		c0.07-0.47,0.14-0.95,0.22-1.45c0.07-0.49,0.15-1.01,0.23-1.53l0.06-0.39l0.02-0.51c0.01-0.28,0.02-0.57,0.03-0.85
		c0.04-1.16,0.08-2.37,0.08-3.62C96.52,42.98,96.42,41.69,96.27,40.35z"/>
	<path class="st0" d="M92.03,62.52c-0.11-0.06-0.17-0.17-0.16-0.29l0-0.02c0,0,0-0.08,0.01-0.21c-0.11,0.03-0.21,0.11-0.26,0.23
		c0,0-0.27,0.65-0.76,1.86c-0.25,0.61-0.54,1.37-0.98,2.19c-0.21,0.42-0.44,0.86-0.68,1.34c-0.12,0.24-0.24,0.48-0.37,0.74
		c-0.15,0.24-0.3,0.49-0.46,0.75c-0.63,1.03-1.29,2.19-2.17,3.34c-0.43,0.58-0.83,1.22-1.34,1.82c-0.5,0.6-1.02,1.22-1.55,1.85
		c-2.23,2.47-5.02,5.02-8.42,7.26c-3.39,2.24-7.4,4.14-11.84,5.35c-4.43,1.2-9.32,1.77-14.25,1.35c-0.65-0.05-1.31-0.1-1.97-0.16
		c-0.34-0.02-0.65-0.06-0.94-0.13l-0.9-0.17c-1.2-0.26-2.4-0.36-3.63-0.79c-2.46-0.65-4.87-1.54-7.2-2.63
		c-4.66-2.21-8.93-5.37-12.43-9.2c-3.47-3.86-6.19-8.36-7.86-13.11c-1.66-4.75-2.47-9.67-2.43-14.43l-0.01-0.22l0-0.06
		c0,0.02,0,0,0-0.02c0,0,0-0.01,0-0.01l0.02-0.47l0.04-0.98c0.02-0.65,0.05-1.3,0.07-1.94c0.13-1.14,0.26-2.19,0.36-3.29
		c0.22-1.12,0.41-2.24,0.64-3.34c0.31-1.08,0.54-2.16,0.86-3.21c0.38-1.03,0.69-2.07,1.08-3.06c0.43-0.98,0.82-1.96,1.27-2.9
		c0.48-0.93,0.95-1.84,1.41-2.73c0.53-0.86,1.05-1.7,1.56-2.53c0.57-0.79,1.14-1.57,1.68-2.32c0.54-0.77,1.17-1.44,1.73-2.14
		c0.55-0.72,1.19-1.32,1.78-1.93c0.6-0.61,1.17-1.23,1.78-1.75c0.6-0.55,1.19-1.08,1.75-1.59c0.61-0.46,1.19-0.91,1.75-1.34
		c1.09-0.93,2.23-1.57,3.21-2.26c2.03-1.25,3.69-2.2,4.87-2.74c1.18-0.59,1.8-0.9,1.8-0.9l0.03-0.02c0.06-0.03,0.11-0.09,0.15-0.15
		c-0.03,0.01-0.05,0.01-0.05,0.01c-0.16,0.03-0.32-0.08-0.35-0.24c-0.03-0.15,0.06-0.29,0.2-0.34c-0.04-0.02-0.08-0.05-0.12-0.05
		c-0.02,0-0.04,0-0.07,0.01c0,0-0.71,0.12-2.03,0.34c-0.66,0.12-1.5,0.23-2.43,0.52c-0.93,0.28-2.06,0.51-3.24,0.98
		c-0.6,0.23-1.22,0.47-1.88,0.72c-0.67,0.24-1.34,0.55-2.03,0.9c-0.69,0.35-1.41,0.71-2.16,1.09c-0.72,0.44-1.46,0.89-2.23,1.36
		c-0.79,0.44-1.53,1.01-2.3,1.59c-0.77,0.58-1.58,1.15-2.32,1.85c-0.75,0.69-1.58,1.34-2.33,2.11c-0.75,0.77-1.5,1.58-2.26,2.42
		c-0.7,0.89-1.42,1.79-2.15,2.71c-0.68,0.96-1.34,1.97-2.02,2.99c-0.63,1.05-1.2,2.16-1.81,3.28c-0.57,1.13-1.05,2.34-1.57,3.54
		c-0.47,1.22-0.87,2.49-1.29,3.77c-0.34,1.3-0.63,2.64-0.95,3.99c-0.22,1.41-0.44,2.89-0.58,4.31c-0.03,0.64-0.06,1.29-0.09,1.94
		l-0.05,0.98l-0.02,0.49l-0.01,0.12c-0.01,0.24,0,0.23,0,0.22c0-0.01,0-0.01,0,0.02l0,0.07l0.01,0.27
		c0.04,5.74,1.37,11.67,3.81,17.13c2.43,5.47,5.89,10.55,10.19,14.75c4.26,4.24,9.33,7.61,14.75,9.87c2.71,1.11,5.49,2.01,8.3,2.56
		c1.37,0.37,2.87,0.46,4.29,0.66c0.7,0.06,1.47,0.22,2.11,0.2c0.66,0.01,1.32,0.03,1.98,0.04c5.55,0.13,10.87-0.78,15.61-2.43
		c4.75-1.65,8.91-4,12.36-6.63c3.46-2.63,6.2-5.52,8.36-8.26c0.51-0.71,1.01-1.39,1.49-2.05c0.49-0.65,0.86-1.35,1.27-1.98
		c0.82-1.26,1.41-2.52,1.97-3.63c0.14-0.28,0.28-0.55,0.41-0.81c0.11-0.27,0.22-0.54,0.33-0.8c0.21-0.52,0.41-1,0.59-1.45
		c0.4-0.89,0.62-1.67,0.82-2.29c0.4-1.25,0.61-1.92,0.61-1.92c0.01-0.02,0-0.04,0.01-0.05C92.29,62.54,92.15,62.58,92.03,62.52z"/>
	<path class="st0" d="M38.85,7.32c0.03,0.16,0.18,0.27,0.35,0.24c0,0,0.02,0,0.05-0.01c0.05-0.08,0.08-0.17,0.07-0.28
		c-0.02-0.15-0.14-0.24-0.27-0.29C38.91,7.03,38.82,7.17,38.85,7.32z"/>
	<path class="st0" d="M92.14,62.01c-0.09-0.04-0.18-0.03-0.26-0.01c-0.01,0.13-0.01,0.21-0.01,0.21l0,0.02
		c-0.01,0.12,0.05,0.23,0.16,0.29c0.12,0.06,0.25,0.02,0.35-0.07C92.41,62.26,92.32,62.08,92.14,62.01z"/>
	<path class="st0" d="M69.86,73.08H29.31c-2.21,0-4-1.79-4-4v1.72c0,2.21,1.79,4,4,4h40.55c2.21,0,4-1.79,4-4v-1.72
		C73.86,71.29,72.07,73.08,69.86,73.08z"/>
	<polygon class="st0" points="49.59,42.66 47.69,47.86 51.48,47.86 	"/>
	<path class="st0" d="M63.16,36.57l-2.6-3.54c-0.08,0.02-0.16,0.05-0.26,0.05c-0.1,0-0.2-0.03-0.3-0.06l-4.13,5.18l3.51,9.63
		L63.16,36.57z"/>
	<polygon class="st0" points="37.86,48.42 37.86,53.1 39.56,48.42 	"/>
	<rect x="37.86" y="29.85" class="st0" width="4.13" height="11.7"/>
	<polygon class="st0" points="42.55,29.85 42.55,40.23 46.34,29.85 	"/>
	<polygon class="st0" points="37.86,42.12 37.86,47.86 39.77,47.86 41.86,42.12 	"/>
	<path class="st0" d="M25.31,28.92v40.16c0,2.21,1.79,4,4,4h40.55c2.21,0,4-1.79,4-4V28.92c0-2.21-1.79-4-4-4H29.31
		C27.1,24.92,25.31,26.71,25.31,28.92z M30.37,67.22h2.33l4.46-12.24h-6.8v-0.57h6.92v-5.99h-6.92v-0.57h6.92v-5.74h-6.92v-0.57
		h6.92v-11.7h-6.92v-0.57h16.17h0.2h5.89l0.88,2.42l2.08,5.71l3.86-4.85c-0.09-0.15-0.15-0.31-0.15-0.5c0-0.55,0.45-1,1-1
		c0.55,0,1,0.45,1,1c0,0.2-0.07,0.37-0.17,0.53l2.3,3.14L65,31.06c-0.22-0.18-0.37-0.45-0.37-0.76c0-0.55,0.45-1,1-1s1,0.45,1,1
		c0,0.54-0.43,0.97-0.96,0.99l-1.72,5.15l2.03,2.77c0.08-0.02,0.17-0.05,0.26-0.05c0.04,0,0.08,0.02,0.12,0.02l2.46-4.59
		c-0.15-0.18-0.25-0.4-0.25-0.65c0-0.55,0.45-1,1-1s1,0.45,1,1c0,0.55-0.45,1-1,1c-0.04,0-0.08-0.02-0.12-0.02l-2.46,4.59
		c0.15,0.18,0.25,0.4,0.25,0.65c0,0.55-0.45,1-1,1s-1-0.45-1-1c0-0.2,0.07-0.37,0.17-0.53l-1.74-2.37l-3.88,11.6l-0.02,0.01
		l3.41,9.34l2.86-10.78c-0.25-0.18-0.42-0.46-0.42-0.79c0-0.55,0.45-1,1-1c0.55,0,1,0.45,1,1c0,0.26-0.11,0.5-0.28,0.68l2.13,4.38
		c0.03,0,0.05-0.02,0.08-0.02c0.55,0,1,0.45,1,1c0,0.55-0.45,1-1,1s-1-0.45-1-1c0-0.26,0.11-0.5,0.28-0.68l-2.11-4.35l-3.06,11.51
		l-0.11,0.07l3.12,8.55h-7.92l-4.67-12.81h-8.99l-4.46,12.24h7.12v0.57h-7.33h-0.2H32.9H32.5h-2.13V67.22z"/>
</g>
</svg>
