<?xml version="1.0" encoding="utf-8"?>
<!-- Generator: Adobe Illustrator 28.1.0, SVG Export Plug-In . SVG Version: 6.00 Build 0)  -->
<svg version="1.1" xmlns="http://www.w3.org/2000/svg" xmlns:xlink="http://www.w3.org/1999/xlink" x="0px" y="0px"
	 viewBox="0 0 283.37 101" style="enable-background:new 0 0 283.37 101;" xml:space="preserve">
<style type="text/css">
	.st0{fill:#5C9EC2;}
	.st1{fill:#FFFFFF;}
	.st2{fill:url(#SVGID_1_);}
	.st3{fill:#B5DCD0;}
	.st4{opacity:0.4;}
	.st5{opacity:0.4;fill:#FFFFFF;}
	.st6{opacity:0.7;}
	.st7{opacity:0.9;}
</style>
<g id="Livello_2">
	<g>
		<path class="st0" d="M143.01,59.12l1.14,1.02c-2.61,2.38-5.68,3.56-9.21,3.56c-3.79,0-7.02-1.33-9.69-4.01
			c-2.67-2.67-4-5.9-4-9.69c0-3.78,1.33-7.01,4-9.68s5.9-4.01,9.69-4.01c3.53,0,6.61,1.19,9.21,3.56l-1.14,1.04
			c-2.3-2.04-4.99-3.06-8.08-3.06c-3.36,0-6.22,1.19-8.6,3.56s-3.56,5.24-3.56,8.6c0,3.37,1.19,6.24,3.56,8.61
			c2.38,2.37,5.24,3.56,8.6,3.56C138.02,62.19,140.71,61.17,143.01,59.12z"/>
		<path class="st0" d="M171.34,40.27c2.68,2.68,4.02,5.92,4.02,9.71c0,3.79-1.34,7.03-4.02,9.71s-5.92,4.02-9.71,4.02
			s-7.03-1.34-9.71-4.02s-4.02-5.92-4.02-9.71c0-3.79,1.34-7.03,4.02-9.71s5.92-4.02,9.71-4.02S168.66,37.59,171.34,40.27z
			 M161.64,37.79c-3.37,0-6.24,1.19-8.62,3.57c-2.38,2.38-3.57,5.25-3.57,8.62s1.19,6.24,3.57,8.63c2.38,2.39,5.25,3.58,8.62,3.58
			s6.24-1.19,8.62-3.58c2.38-2.38,3.57-5.26,3.57-8.63s-1.19-6.24-3.57-8.62C167.88,38.98,165,37.79,161.64,37.79z"/>
		<path class="st0" d="M179.97,63.39V36.63h1.5v25.25h10.37v1.5H179.97z"/>
		<path class="st0" d="M195.85,63.39V36.63h1.5v25.25h10.37v1.5H195.85z"/>
		<path class="st0" d="M225.12,36.63v1.5h-11.87v11.12h11.87v1.5h-11.87v11.12h11.87v1.5h-13.38V36.63H225.12z"/>
		<path class="st0" d="M251.07,59.12l1.14,1.02c-2.61,2.38-5.68,3.56-9.21,3.56c-3.79,0-7.02-1.33-9.69-4.01
			c-2.67-2.67-4-5.9-4-9.69c0-3.78,1.33-7.01,4-9.68s5.9-4.01,9.69-4.01c3.53,0,6.61,1.19,9.21,3.56l-1.14,1.04
			c-2.3-2.04-4.99-3.06-8.08-3.06c-3.36,0-6.22,1.19-8.6,3.56s-3.56,5.24-3.56,8.6c0,3.37,1.19,6.24,3.56,8.61
			c2.38,2.37,5.24,3.56,8.6,3.56C246.09,62.19,248.78,61.17,251.07,59.12z"/>
		<path class="st0" d="M263,38.14v25.25h-1.5V38.14h-6.77v-1.5h15.05v1.5H263z"/>
	</g>
	<path class="st1" d="M96.39,49.03c0,23.82-19.32,43.13-43.15,43.13c-23.83,0-43.15-19.31-43.15-43.13
		C10.1,25.21,29.42,5.9,53.25,5.9C77.07,5.9,96.39,25.21,96.39,49.03"/>
</g>
<g id="Livello_31">
	<g>
		<g>
			<g>
				<linearGradient id="SVGID_1_" gradientUnits="userSpaceOnUse" x1="68.818" y1="95.5253" x2="21.1315" y2="12.9298">
					<stop  offset="0" style="stop-color:#1590BB"/>
					<stop  offset="0.7957" style="stop-color:#52A782"/>
					<stop  offset="1" style="stop-color:#7AB829"/>
				</linearGradient>
				<path class="st2" d="M94.51,63.33c0,0-0.22,0.67-0.62,1.93c-0.2,0.63-0.43,1.41-0.82,2.31c-0.19,0.45-0.39,0.94-0.6,1.46
					c-0.11,0.26-0.22,0.53-0.33,0.8c-0.13,0.26-0.27,0.54-0.41,0.82c-0.57,1.11-1.16,2.38-1.99,3.65c-0.41,0.64-0.78,1.34-1.27,2
					c-0.48,0.66-0.98,1.35-1.5,2.06c-2.17,2.76-4.93,5.67-8.41,8.32c-3.47,2.64-7.66,5.01-12.44,6.67C61.34,95,56,95.92,50.41,95.79
					c-0.66-0.01-1.32-0.03-1.99-0.04c-0.65,0.02-1.41-0.14-2.12-0.21c-1.43-0.2-2.94-0.29-4.32-0.66c-2.83-0.56-5.62-1.46-8.35-2.58
					c-5.45-2.27-10.55-5.67-14.84-9.94c-4.33-4.23-7.81-9.34-10.26-14.85C6.08,62.01,4.74,56.05,4.7,50.26l-0.01-0.27l0-0.07
					c0-0.1-0.01,0.13,0-0.24l0.01-0.12l0.02-0.49l0.05-0.98c0.03-0.65,0.06-1.31,0.09-1.95c0.14-1.43,0.36-2.92,0.58-4.34
					c0.32-1.36,0.61-2.7,0.96-4.01c0.43-1.29,0.83-2.57,1.3-3.8c0.53-1.21,1.01-2.42,1.58-3.56c0.62-1.12,1.19-2.24,1.82-3.3
					c0.69-1.03,1.35-2.04,2.03-3.01c0.74-0.93,1.46-1.84,2.17-2.73c0.76-0.84,1.52-1.66,2.27-2.43c0.75-0.78,1.59-1.44,2.34-2.13
					c0.75-0.7,1.57-1.28,2.34-1.86s1.51-1.16,2.31-1.6c0.77-0.47,1.52-0.93,2.24-1.36c0.75-0.38,1.48-0.75,2.17-1.1
					c0.69-0.36,1.37-0.66,2.04-0.9c0.66-0.26,1.29-0.5,1.89-0.73c1.19-0.47,2.32-0.7,3.26-0.98c0.94-0.29,1.78-0.41,2.45-0.53
					c1.33-0.22,2.04-0.34,2.04-0.34c0.22-0.04,0.43,0.11,0.46,0.33c0.03,0.18-0.06,0.35-0.22,0.43l-0.03,0.02
					c0,0-0.63,0.32-1.81,0.91c-1.19,0.54-2.86,1.5-4.9,2.75c-0.99,0.7-2.13,1.35-3.23,2.28c-0.56,0.43-1.15,0.89-1.76,1.35
					c-0.57,0.51-1.16,1.05-1.76,1.6c-0.62,0.53-1.19,1.15-1.79,1.77c-0.6,0.62-1.24,1.23-1.8,1.95c-0.57,0.71-1.2,1.38-1.75,2.16
					c-0.55,0.76-1.12,1.54-1.69,2.34c-0.51,0.83-1.04,1.68-1.58,2.55c-0.46,0.9-0.94,1.82-1.42,2.75c-0.45,0.94-0.84,1.94-1.28,2.92
					c-0.39,1-0.71,2.05-1.09,3.08c-0.32,1.05-0.56,2.15-0.87,3.23c-0.23,1.1-0.42,2.23-0.64,3.36c-0.1,1.1-0.23,2.16-0.36,3.31
					c-0.02,0.65-0.05,1.3-0.07,1.95l-0.04,0.98l-0.02,0.49l0,0.12c0.01-0.33,0-0.06,0.01-0.12l0,0.06l0.01,0.22
					c-0.03,4.79,0.78,9.74,2.45,14.52c1.68,4.79,4.41,9.32,7.91,13.2c3.52,3.86,7.82,7.04,12.51,9.27c2.35,1.1,4.78,2,7.25,2.65
					c1.23,0.42,2.44,0.53,3.65,0.79l0.91,0.17c0.29,0.07,0.61,0.11,0.95,0.13c0.66,0.05,1.32,0.11,1.98,0.16
					c4.97,0.43,9.88-0.15,14.34-1.36c4.47-1.22,8.5-3.14,11.92-5.39c3.42-2.25,6.22-4.82,8.47-7.31c0.54-0.64,1.06-1.27,1.57-1.87
					c0.51-0.6,0.91-1.24,1.35-1.83c0.89-1.16,1.55-2.33,2.19-3.36c0.16-0.26,0.31-0.51,0.46-0.76c0.13-0.25,0.25-0.5,0.38-0.74
					c0.24-0.48,0.47-0.93,0.68-1.35c0.45-0.82,0.74-1.59,0.99-2.2c0.5-1.22,0.77-1.88,0.77-1.88c0.08-0.2,0.32-0.3,0.52-0.22
					C94.47,62.92,94.57,63.13,94.51,63.33z"/>
				<path class="st3" d="M40.86,7.44c0,0,0.35-0.11,1.01-0.31c0.67-0.19,1.61-0.54,2.89-0.8c0.64-0.14,1.35-0.33,2.12-0.47
					c0.78-0.12,1.62-0.25,2.52-0.38c0.91-0.1,1.87-0.16,2.9-0.25c0.15-0.01,0.21-0.02,0.43-0.03l0.38,0c0.26,0,0.52,0,0.78,0
					c0.53,0,1.07,0,1.62,0c0.55,0,1.12,0,1.69,0c0.59,0.06,1.2,0.12,1.81,0.18c0.62,0.06,1.24,0.13,1.88,0.2
					c0.32,0.04,0.65,0.06,0.96,0.11c0.31,0.06,0.63,0.13,0.95,0.2c1.27,0.29,2.61,0.48,3.92,0.89c1.3,0.43,2.67,0.81,4,1.33
					c1.31,0.58,2.67,1.12,4,1.77c1.29,0.73,2.63,1.42,3.9,2.24c1.23,0.88,2.54,1.7,3.72,2.67l1.76,1.5c0.59,0.5,1.19,0.99,1.71,1.57
					c2.21,2.17,4.28,4.52,6.05,7.04c0.84,1.29,1.8,2.5,2.45,3.88c0.69,1.35,1.45,2.65,1.92,4.06c1.1,2.74,1.75,5.54,2.16,8.2
					c0.15,1.34,0.25,2.65,0.37,3.9c0,1.27-0.04,2.49-0.08,3.65c-0.01,0.29-0.02,0.58-0.03,0.86l-0.02,0.51l-0.06,0.4
					c-0.08,0.52-0.16,1.04-0.23,1.54c-0.08,0.5-0.15,0.99-0.22,1.46c-0.1,0.5-0.22,0.99-0.34,1.45c-0.25,0.93-0.41,1.81-0.69,2.57
					c-0.27,0.76-0.53,1.46-0.75,2.08c-0.2,0.63-0.48,1.16-0.71,1.63c-0.22,0.47-0.42,0.86-0.58,1.17c-0.33,0.63-0.5,0.96-0.5,0.96
					c-0.08,0.15-0.26,0.21-0.41,0.13c-0.11-0.06-0.17-0.17-0.16-0.29l0-0.02c0,0,0.02-0.37,0.06-1.07c0.02-0.7,0.18-1.69,0.2-2.97
					c0.03-1.28,0.13-2.81,0.05-4.49c-0.01-0.42-0.02-0.86-0.01-1.3c-0.03-0.48-0.07-0.97-0.1-1.47c-0.04-0.5-0.07-1.02-0.11-1.55
					l-0.03-0.4l0-0.05c0-0.09,0,0.09,0,0.07l0-0.02l-0.01-0.09l-0.03-0.19c-0.04-0.25-0.08-0.51-0.11-0.77
					c-0.15-1.03-0.3-2.1-0.45-3.22c-0.24-1.09-0.51-2.22-0.74-3.37c-0.62-2.28-1.3-4.65-2.26-7.02c-0.35-1.24-1.01-2.37-1.49-3.6
					c-0.47-1.24-1.18-2.38-1.8-3.59c-1.3-2.38-2.92-4.64-4.76-6.73c-0.43-0.55-0.94-1.02-1.44-1.51l-1.49-1.46
					c-1.01-0.96-2.14-1.76-3.2-2.65c-1.1-0.82-2.28-1.52-3.4-2.3c-1.16-0.7-2.37-1.29-3.52-1.93c-1.19-0.58-2.41-1.03-3.59-1.53
					c-0.58-0.28-1.2-0.41-1.8-0.61c-0.6-0.19-1.19-0.37-1.77-0.55c-0.29-0.09-0.58-0.18-0.87-0.27c-0.29-0.08-0.58-0.12-0.86-0.19
					c-0.57-0.12-1.14-0.24-1.7-0.35c-0.56-0.12-1.11-0.23-1.65-0.34c-0.57-0.06-1.13-0.11-1.68-0.17c-0.55-0.05-1.09-0.11-1.61-0.16
					c-0.26-0.03-0.52-0.05-0.78-0.08l-0.38-0.04l-0.32-0.01c-0.98-0.01-1.92-0.04-2.8-0.03c-0.88,0.05-1.7,0.09-2.47,0.13
					c-0.76,0.05-1.45,0.15-2.08,0.22c-1.26,0.11-2.26,0.35-2.94,0.46c-0.68,0.12-1.04,0.19-1.04,0.19
					c-0.16,0.03-0.32-0.08-0.35-0.24C40.63,7.63,40.72,7.48,40.86,7.44z"/>
			</g>
			<g>
				<path class="st1" d="M73.53,44.54l1.04-0.67l-1.37-10.66L57.3,24.67c-0.65-0.35-1.65-0.32-2.25,0.06L29.68,41.22l-4.57,2.97
					c-0.59,0.38-0.54,0.98,0.11,1.33l6.17,3.32l-1.71,1.11l-4.57,2.97c-0.59,0.39-0.54,0.98,0.11,1.33l5.99,3.22l-1.53,1l-4.57,2.97
					c-0.59,0.39-0.54,0.98,0.11,1.33L49.66,75.9c0.65,0.35,1.65,0.32,2.25-0.06l8.53-5.54l14.13-9.19l-1.01-7.86l1.01-0.66
					L73.53,44.54z"/>
				<path class="st0" d="M56.23,24.42c0.38,0,0.76,0.08,1.07,0.25l15.89,8.54l1.37,10.66l-1.04,0.67l1.04,8.05l-1.01,0.66l1.01,7.86
					L60.43,70.3l-8.53,5.54c-0.31,0.2-0.74,0.31-1.18,0.31c-0.38,0-0.77-0.08-1.07-0.25L25.22,62.76c-0.65-0.35-0.7-0.94-0.11-1.33
					l4.57-2.97l1.53-1l-5.99-3.22c-0.65-0.35-0.7-0.94-0.11-1.33l4.57-2.97l1.71-1.11l-6.17-3.32c-0.65-0.35-0.7-0.94-0.11-1.33
					l4.57-2.97l25.37-16.49C55.37,24.53,55.8,24.42,56.23,24.42 M56.23,22.83c-0.76,0-1.49,0.2-2.05,0.57L28.82,39.89l-4.57,2.97
					c-0.76,0.49-1.17,1.25-1.13,2.06c0.04,0.83,0.53,1.56,1.36,2l3.8,2.04l-4.03,2.61c-0.76,0.5-1.17,1.25-1.13,2.06
					c0.04,0.83,0.53,1.56,1.35,2.01l3.63,1.95l-3.85,2.5c-0.76,0.49-1.17,1.24-1.13,2.06c0.04,0.83,0.53,1.56,1.35,2.01L48.91,77.3
					c0.53,0.28,1.16,0.43,1.82,0.43c0.75,0,1.48-0.2,2.04-0.56l8.53-5.54l14.13-9.19l0.84-0.55l-0.13-0.99l-0.89-6.86l0.18-0.11
					l0.84-0.54l-0.13-0.99l-0.91-7.06l0.2-0.13l0.84-0.54l-0.13-0.99l-1.37-10.66l-0.1-0.81l-0.72-0.39l-15.89-8.54
					C57.53,22.98,56.89,22.83,56.23,22.83L56.23,22.83z"/>
			</g>
			<g class="st4">
				<g>
					<path class="st3" d="M75.28,61.11L52.63,75.84c-0.59,0.38-1.6,0.41-2.25,0.06L25.94,62.76c-0.65-0.35-0.7-0.95-0.11-1.33
						l29.94-19.46c0.59-0.38,1.6-0.41,2.25-0.06l15.89,8.54"/>
					<path class="st0" d="M75.34,61.19c0,0-0.36,0.26-1.05,0.76c-0.68,0.5-1.69,1.21-2.97,2.12c-0.64,0.46-1.35,0.96-2.12,1.51
						c-0.78,0.54-1.62,1.13-2.51,1.76c-1.8,1.25-3.83,2.66-6.05,4.18c-2.22,1.52-4.64,3.16-7.2,4.87l-0.24,0.16l-0.06,0.04
						l-0.1,0.06l-0.06,0.04l-0.12,0.06c-0.08,0.04-0.15,0.07-0.22,0.1c-0.07,0.03-0.13,0.05-0.2,0.07c-0.13,0.04-0.27,0.07-0.4,0.1
						c-0.53,0.09-1.05,0.08-1.6-0.08c-0.14-0.04-0.27-0.09-0.41-0.16l-0.1-0.05l-0.07-0.04l-0.13-0.07l-0.53-0.28
						c-0.35-0.19-0.71-0.37-1.07-0.56c-1.44-0.75-2.89-1.53-4.38-2.33c-2.96-1.61-6.01-3.27-9.1-5c-1.55-0.86-3.1-1.72-4.67-2.59
						c-0.78-0.43-1.57-0.87-2.35-1.3l-1.18-0.65l-0.59-0.33l-0.32-0.18l-0.07-0.04l-0.04-0.02l-0.06-0.04
						c-0.09-0.06-0.17-0.13-0.24-0.19c-0.14-0.14-0.28-0.3-0.37-0.53c-0.1-0.22-0.13-0.51-0.08-0.76c0.05-0.26,0.17-0.47,0.3-0.64
						c0.13-0.16,0.28-0.28,0.42-0.38l1.14-0.73c0.76-0.48,1.51-0.96,2.27-1.44c1.51-0.96,3.01-1.91,4.5-2.86
						c2.98-1.9,5.92-3.76,8.76-5.57c2.84-1.8,5.59-3.55,8.19-5.2c1.3-0.83,2.57-1.62,3.8-2.4c0.31-0.19,0.61-0.39,0.91-0.58
						c0.15-0.09,0.3-0.19,0.45-0.29l0.11-0.07c0.06-0.04,0.08-0.05,0.13-0.07c0.09-0.05,0.21-0.1,0.3-0.13
						c0.39-0.14,0.79-0.18,1.17-0.15c0.19,0.01,0.39,0.05,0.57,0.1c0.18,0.05,0.39,0.15,0.53,0.23c9.42,5.23,15.7,8.71,15.7,8.71
						c0.05,0.03,0.06,0.08,0.04,0.13c-0.03,0.04-0.08,0.06-0.13,0.04c0,0-6.37-3.32-15.93-8.29c-0.26-0.15-0.53-0.21-0.83-0.23
						c-0.3-0.02-0.61,0.03-0.87,0.13c-0.07,0.03-0.11,0.05-0.18,0.08c-0.03,0.02-0.09,0.05-0.1,0.06l-0.11,0.07
						c-0.15,0.1-0.29,0.2-0.44,0.3c-0.3,0.2-0.59,0.4-0.9,0.6c-1.21,0.81-2.45,1.64-3.74,2.5c-2.57,1.71-5.28,3.51-8.08,5.38
						c-2.8,1.86-5.7,3.79-8.64,5.74c-1.47,0.98-2.96,1.96-4.45,2.95c-0.74,0.49-1.49,0.99-2.24,1.49l-1.11,0.74
						c-0.04,0.03-0.07,0.06-0.08,0.07c0,0.01,0.01,0,0.02-0.04c0.01-0.04,0-0.09-0.01-0.1c-0.01-0.02,0-0.01,0.02,0.01
						c0.01,0.01,0.02,0.02,0.03,0.02c0,0,0,0,0.01,0.01l0.04,0.02l0.07,0.04l0.27,0.14l0.6,0.31l1.19,0.62
						c0.79,0.42,1.59,0.83,2.38,1.24c1.59,0.83,3.17,1.65,4.73,2.46c3.14,1.62,6.21,3.26,9.18,4.83c1.48,0.8,2.94,1.59,4.36,2.37
						c0.35,0.19,0.71,0.39,1.06,0.58l0.53,0.29l0.13,0.07l0.07,0.04l0.03,0.02c0.04,0.02,0.09,0.04,0.14,0.06
						c0.21,0.07,0.49,0.09,0.74,0.06c0.06-0.01,0.12-0.02,0.17-0.03c0.03-0.01,0.05-0.02,0.08-0.03l0.05-0.02l0.01,0l0.06-0.04
						l0.03-0.02c0.04-0.02-0.02,0.02,0,0l0.06-0.04l0.24-0.16c2.61-1.65,5.09-3.19,7.38-4.61c2.29-1.41,4.4-2.7,6.27-3.83
						c0.94-0.57,1.82-1.09,2.63-1.58c0.82-0.48,1.57-0.92,2.24-1.32c1.36-0.8,2.41-1.43,3.15-1.85c0.73-0.42,1.12-0.64,1.12-0.64
						c0.05-0.03,0.1-0.01,0.13,0.03C75.39,61.1,75.38,61.16,75.34,61.19z"/>
				</g>
				<path class="st5" d="M30.4,58.46l-4.57,2.97c-0.59,0.38-0.54,0.98,0.11,1.33L50.38,75.9c0.65,0.35,1.66,0.32,2.25-0.06
					l8.53-5.54C61.16,70.29,48.25,58.65,30.4,58.46z"/>
				<g>
					<path class="st0" d="M75.28,61.11l-8.55-4.6c-0.65-0.35-0.7-0.94-0.11-1.33l7.28-4.73"/>
					<path class="st1" d="M75.25,61.16c0,0-1.18-0.45-2.9-1.23c-0.43-0.19-0.89-0.41-1.39-0.63c-0.49-0.22-1-0.47-1.53-0.73
						c-0.53-0.25-1.08-0.53-1.63-0.8c-0.28-0.14-0.56-0.28-0.83-0.42l-0.42-0.22l-0.23-0.12c-0.02-0.01-0.1-0.07-0.15-0.1
						c-0.06-0.04-0.1-0.08-0.15-0.12c-0.18-0.17-0.38-0.42-0.43-0.76c-0.06-0.34,0.04-0.7,0.21-0.92c0.16-0.23,0.39-0.38,0.54-0.47
						l0.41-0.23c0.54-0.3,1.07-0.6,1.58-0.9c1.02-0.6,1.97-1.14,2.8-1.6c0.82-0.46,1.51-0.84,1.99-1.11
						c0.48-0.26,0.76-0.41,0.76-0.41c0.03-0.02,0.07,0,0.09,0.03c0.01,0.03,0.01,0.06-0.02,0.08c0,0-0.25,0.19-0.69,0.53
						c-0.44,0.33-1.07,0.81-1.82,1.37c-0.76,0.57-1.64,1.22-2.6,1.91c-0.48,0.34-0.97,0.7-1.46,1.08L67,55.67
						c-0.1,0.08-0.13,0.12-0.14,0.16c-0.01,0.03,0.02,0,0.01-0.03c0-0.03-0.01,0,0.04,0.04c0.01,0.01,0.02,0.02,0.03,0.03
						c0.02,0.01-0.01,0.01,0.04,0.04l0.05,0.03l0.03,0.02l0.01,0c-0.01,0,0.03,0.02-0.02-0.01l0.01,0.01l0.1,0.06l0.41,0.23
						c0.27,0.16,0.54,0.31,0.81,0.47c0.54,0.31,1.06,0.61,1.57,0.92c0.5,0.3,1,0.59,1.45,0.88c0.46,0.29,0.9,0.55,1.29,0.81
						c1.6,1.01,2.63,1.75,2.63,1.75c0.03,0.02,0.04,0.06,0.01,0.09C75.31,61.17,75.28,61.17,75.25,61.16z"/>
				</g>
				<g>
					<path class="st1" d="M48.38,54.55c0.53-0.34,1.44-0.37,2.02-0.06l15.58,8.38c0.58,0.31,0.63,0.85,0.1,1.2l-0.1,0.07
						c-0.53,0.35-1.44,0.37-2.02,0.06l-15.58-8.38c-0.59-0.32-0.63-0.85-0.1-1.2L48.38,54.55z"/>
					<path class="st1" d="M46.96,54.06c-0.53,0.34-1.44,0.37-2.02,0.06l-0.38-0.21c-0.58-0.31-0.63-0.85-0.09-1.2l0.34-0.22
						c0.53-0.35,1.44-0.37,2.02-0.06l0.38,0.21c0.59,0.31,0.63,0.85,0.1,1.19L46.96,54.06z"/>
				</g>
				<g>
					<path class="st1" d="M44.45,57.11c0.53-0.35,1.44-0.37,2.02-0.06l15.58,8.38c0.58,0.31,0.63,0.85,0.1,1.2l-0.1,0.07
						c-0.53,0.35-1.44,0.37-2.02,0.06l-15.58-8.38c-0.59-0.32-0.63-0.85-0.1-1.2L44.45,57.11z"/>
					<path class="st1" d="M43.03,56.61c-0.53,0.35-1.44,0.37-2.02,0.06l-0.38-0.2c-0.59-0.31-0.63-0.85-0.1-1.2l0.35-0.22
						c0.53-0.35,1.44-0.37,2.02-0.06l0.38,0.2c0.59,0.31,0.63,0.85,0.1,1.2L43.03,56.61z"/>
				</g>
				<g>
					<path class="st1" d="M40.52,59.66c0.53-0.35,1.44-0.37,2.02-0.06l15.58,8.38c0.58,0.31,0.63,0.85,0.09,1.2l-0.1,0.07
						c-0.53,0.35-1.44,0.37-2.02,0.06l-15.58-8.38c-0.58-0.31-0.63-0.85-0.1-1.2L40.52,59.66z"/>
					<path class="st1" d="M39.1,59.17c-0.53,0.35-1.44,0.37-2.02,0.06l-0.38-0.21c-0.59-0.31-0.63-0.85-0.1-1.2l0.35-0.22
						c0.53-0.34,1.44-0.37,2.02-0.06l0.38,0.2c0.58,0.32,0.63,0.85,0.1,1.2L39.1,59.17z"/>
				</g>
			</g>
			<g class="st6">
				<g>
					<path class="st3" d="M75.28,52.59L52.63,67.32c-0.59,0.38-1.6,0.41-2.25,0.06L25.94,54.24c-0.65-0.35-0.7-0.94-0.11-1.33
						l29.94-19.46c0.59-0.38,1.6-0.41,2.25-0.06l15.89,8.54"/>
					<path class="st0" d="M75.34,52.67c0,0-0.36,0.26-1.05,0.76c-0.68,0.5-1.69,1.21-2.97,2.13c-0.64,0.46-1.35,0.96-2.12,1.51
						c-0.78,0.54-1.62,1.13-2.51,1.76c-1.8,1.25-3.83,2.66-6.05,4.18c-2.22,1.52-4.64,3.16-7.2,4.87l-0.24,0.16l-0.06,0.04
						l-0.1,0.06l-0.06,0.04l-0.12,0.06c-0.08,0.04-0.15,0.07-0.22,0.1c-0.07,0.03-0.13,0.05-0.2,0.07c-0.13,0.04-0.27,0.07-0.4,0.1
						c-0.53,0.09-1.05,0.08-1.6-0.08c-0.14-0.04-0.27-0.09-0.41-0.16l-0.1-0.05l-0.07-0.03l-0.13-0.07l-0.53-0.28
						c-0.35-0.19-0.71-0.37-1.07-0.56c-1.44-0.75-2.89-1.53-4.38-2.33c-2.96-1.61-6.01-3.27-9.1-5c-1.55-0.86-3.1-1.72-4.67-2.59
						c-0.78-0.43-1.57-0.87-2.35-1.3l-1.18-0.65l-0.59-0.33l-0.32-0.18l-0.07-0.04l-0.04-0.02l-0.06-0.04
						c-0.09-0.06-0.17-0.13-0.24-0.19c-0.14-0.13-0.28-0.3-0.37-0.53c-0.1-0.22-0.13-0.51-0.08-0.76c0.05-0.26,0.17-0.48,0.3-0.64
						c0.13-0.16,0.28-0.28,0.42-0.38l1.14-0.73c0.76-0.48,1.51-0.96,2.27-1.44c1.51-0.96,3.01-1.91,4.5-2.86
						c2.98-1.9,5.92-3.76,8.76-5.57c2.84-1.8,5.59-3.55,8.19-5.2c1.3-0.82,2.57-1.62,3.8-2.4c0.31-0.19,0.61-0.39,0.91-0.58
						c0.15-0.09,0.3-0.19,0.45-0.28l0.11-0.07c0.06-0.04,0.08-0.05,0.13-0.07c0.09-0.05,0.21-0.1,0.3-0.13
						c0.39-0.14,0.79-0.18,1.17-0.15c0.19,0.01,0.39,0.05,0.57,0.1c0.18,0.05,0.39,0.15,0.53,0.23c9.42,5.23,15.7,8.71,15.7,8.71
						c0.05,0.03,0.06,0.08,0.04,0.13c-0.03,0.04-0.08,0.06-0.13,0.04c0,0-6.37-3.32-15.93-8.29c-0.26-0.15-0.53-0.21-0.83-0.23
						c-0.3-0.02-0.61,0.03-0.87,0.13c-0.07,0.03-0.11,0.05-0.18,0.08c-0.03,0.02-0.09,0.05-0.1,0.06l-0.11,0.07
						c-0.15,0.1-0.29,0.2-0.44,0.3c-0.3,0.2-0.59,0.4-0.9,0.6c-1.21,0.81-2.45,1.64-3.74,2.5c-2.57,1.71-5.28,3.51-8.08,5.38
						c-2.8,1.86-5.7,3.79-8.64,5.74c-1.47,0.98-2.96,1.96-4.45,2.95c-0.74,0.49-1.49,0.99-2.24,1.49l-1.11,0.74
						c-0.04,0.03-0.07,0.06-0.08,0.07c0,0.01,0.01,0,0.02-0.04c0.01-0.04,0-0.09-0.01-0.1c-0.01-0.02,0-0.01,0.02,0.01
						c0.01,0.01,0.02,0.02,0.03,0.02c0,0,0,0,0.01,0.01l0.04,0.02l0.07,0.04l0.27,0.14l0.6,0.31l1.19,0.62
						c0.79,0.42,1.59,0.83,2.38,1.25c1.59,0.83,3.17,1.65,4.73,2.46c3.14,1.62,6.21,3.26,9.18,4.84c1.48,0.8,2.94,1.58,4.36,2.37
						c0.35,0.19,0.71,0.39,1.06,0.58l0.53,0.29l0.13,0.07l0.07,0.04l0.03,0.02c0.04,0.02,0.09,0.04,0.14,0.06
						c0.21,0.07,0.49,0.09,0.74,0.06c0.06-0.01,0.12-0.02,0.17-0.04c0.03-0.01,0.05-0.02,0.08-0.02l0.05-0.02l0.01,0l0.06-0.04
						l0.03-0.02c0.04-0.03-0.02,0.01,0,0l0.06-0.04l0.24-0.16c2.61-1.65,5.09-3.19,7.38-4.6c2.29-1.42,4.4-2.7,6.27-3.84
						c0.94-0.56,1.82-1.09,2.63-1.58c0.82-0.48,1.57-0.92,2.24-1.32c1.36-0.8,2.41-1.43,3.15-1.85c0.73-0.42,1.12-0.65,1.12-0.65
						c0.05-0.03,0.1-0.01,0.13,0.03C75.39,52.59,75.38,52.64,75.34,52.67z"/>
				</g>
				<path class="st5" d="M30.4,49.94l-4.57,2.97c-0.59,0.38-0.54,0.98,0.11,1.33l24.44,13.14c0.65,0.35,1.66,0.32,2.25-0.06
					l8.53-5.54C61.16,61.77,48.25,50.13,30.4,49.94z"/>
				<g>
					<path class="st0" d="M75.28,52.59l-8.55-4.6c-0.65-0.35-0.7-0.94-0.11-1.33l7.28-4.73"/>
					<path class="st1" d="M75.25,52.64c0,0-1.18-0.45-2.9-1.23c-0.43-0.19-0.89-0.41-1.39-0.63c-0.49-0.22-1-0.47-1.53-0.73
						c-0.53-0.25-1.08-0.53-1.63-0.8c-0.28-0.14-0.56-0.28-0.83-0.42l-0.42-0.22l-0.23-0.12c-0.02-0.01-0.1-0.07-0.15-0.1
						c-0.06-0.04-0.1-0.08-0.15-0.12c-0.18-0.17-0.38-0.42-0.43-0.76c-0.06-0.34,0.04-0.7,0.21-0.92c0.16-0.23,0.39-0.38,0.54-0.47
						l0.41-0.22c0.54-0.3,1.07-0.6,1.58-0.9c1.02-0.6,1.97-1.14,2.8-1.6c0.82-0.46,1.51-0.84,1.99-1.11
						c0.48-0.26,0.76-0.41,0.76-0.41c0.03-0.02,0.07,0,0.09,0.03c0.01,0.03,0.01,0.06-0.02,0.08c0,0-0.25,0.19-0.69,0.53
						c-0.44,0.33-1.07,0.81-1.82,1.37c-0.76,0.56-1.64,1.22-2.6,1.9c-0.48,0.34-0.97,0.71-1.46,1.08L67,47.15
						c-0.1,0.08-0.13,0.12-0.14,0.15c-0.01,0.03,0.02,0,0.01-0.03c0-0.03-0.01,0,0.04,0.04c0.01,0.01,0.02,0.02,0.03,0.03
						c0.02,0.01-0.01,0.01,0.04,0.04l0.05,0.03l0.03,0.02l0.01,0c-0.01,0,0.03,0.02-0.02-0.01l0.01,0.01l0.1,0.06l0.41,0.23
						c0.27,0.16,0.54,0.31,0.81,0.47c0.54,0.31,1.06,0.61,1.57,0.92c0.5,0.3,1,0.59,1.45,0.88c0.46,0.29,0.9,0.55,1.29,0.81
						c1.6,1.01,2.63,1.75,2.63,1.75c0.03,0.02,0.04,0.06,0.01,0.09C75.31,52.65,75.28,52.66,75.25,52.64z"/>
				</g>
				<g>
					<path class="st1" d="M48.38,46.03c0.53-0.35,1.44-0.37,2.02-0.06l15.58,8.38c0.58,0.31,0.63,0.85,0.1,1.2l-0.1,0.07
						c-0.53,0.35-1.44,0.37-2.02,0.06L48.37,47.3c-0.59-0.32-0.63-0.85-0.1-1.2L48.38,46.03z"/>
					<path class="st1" d="M46.96,45.54c-0.53,0.35-1.44,0.37-2.02,0.06l-0.38-0.2c-0.58-0.32-0.63-0.85-0.09-1.2l0.34-0.23
						c0.53-0.35,1.44-0.37,2.02-0.06l0.38,0.21c0.59,0.31,0.63,0.85,0.1,1.2L46.96,45.54z"/>
				</g>
				<g>
					<path class="st1" d="M44.45,48.59c0.53-0.35,1.44-0.37,2.02-0.06l15.58,8.38c0.58,0.32,0.63,0.85,0.1,1.2l-0.1,0.07
						c-0.53,0.34-1.44,0.37-2.02,0.05l-15.58-8.38c-0.59-0.31-0.63-0.85-0.1-1.2L44.45,48.59z"/>
					<path class="st1" d="M43.03,48.1c-0.53,0.35-1.44,0.37-2.02,0.06l-0.38-0.2c-0.59-0.31-0.63-0.85-0.1-1.2l0.35-0.22
						c0.53-0.35,1.44-0.37,2.02-0.06l0.38,0.2c0.59,0.31,0.63,0.85,0.1,1.2L43.03,48.1z"/>
				</g>
				<g>
					<path class="st1" d="M40.52,51.14c0.53-0.35,1.44-0.37,2.02-0.06l15.58,8.38c0.58,0.31,0.63,0.85,0.09,1.2l-0.1,0.07
						c-0.53,0.35-1.44,0.37-2.02,0.06l-15.58-8.38c-0.58-0.31-0.63-0.85-0.1-1.2L40.52,51.14z"/>
					<path class="st1" d="M39.1,50.65c-0.53,0.35-1.44,0.37-2.02,0.06l-0.38-0.2c-0.59-0.32-0.63-0.85-0.1-1.2l0.35-0.23
						c0.53-0.34,1.44-0.37,2.02-0.06l0.38,0.21c0.58,0.31,0.63,0.85,0.1,1.2L39.1,50.65z"/>
				</g>
			</g>
			<g class="st7">
				<g>
					<path class="st3" d="M75.28,43.87L52.63,58.6c-0.59,0.38-1.6,0.41-2.25,0.06L25.94,45.52c-0.65-0.35-0.7-0.94-0.11-1.33
						l29.94-19.46c0.59-0.38,1.6-0.41,2.25-0.06l15.89,8.54"/>
					<path class="st0" d="M75.34,43.95c0,0-0.36,0.26-1.05,0.76c-0.68,0.5-1.69,1.21-2.97,2.13c-0.64,0.46-1.35,0.96-2.12,1.51
						c-0.78,0.54-1.62,1.13-2.51,1.76c-1.8,1.25-3.83,2.66-6.05,4.18c-2.22,1.52-4.64,3.16-7.2,4.87l-0.24,0.16l-0.06,0.04
						l-0.1,0.06l-0.06,0.04l-0.12,0.06c-0.08,0.04-0.15,0.07-0.22,0.1c-0.07,0.03-0.13,0.05-0.2,0.07c-0.13,0.04-0.27,0.07-0.4,0.1
						c-0.53,0.09-1.05,0.08-1.6-0.08c-0.14-0.04-0.27-0.09-0.41-0.16l-0.1-0.05l-0.07-0.04l-0.13-0.07l-0.53-0.28
						c-0.35-0.19-0.71-0.37-1.07-0.56c-1.44-0.75-2.89-1.53-4.38-2.33c-2.96-1.61-6.01-3.27-9.1-4.99c-1.55-0.86-3.1-1.72-4.67-2.59
						c-0.78-0.43-1.57-0.87-2.35-1.3l-1.18-0.65l-0.59-0.33l-0.32-0.18l-0.07-0.04l-0.04-0.02l-0.06-0.04
						c-0.09-0.06-0.17-0.12-0.24-0.19c-0.14-0.14-0.28-0.3-0.37-0.53c-0.1-0.23-0.13-0.51-0.08-0.76c0.05-0.26,0.17-0.48,0.3-0.64
						c0.13-0.16,0.28-0.28,0.42-0.38l1.14-0.73c0.76-0.48,1.51-0.96,2.27-1.44c1.51-0.96,3.01-1.92,4.5-2.86
						c2.98-1.9,5.92-3.76,8.76-5.57c2.84-1.8,5.59-3.55,8.19-5.2c1.3-0.82,2.57-1.62,3.8-2.4c0.31-0.19,0.61-0.39,0.91-0.57
						c0.15-0.1,0.3-0.19,0.45-0.29l0.11-0.07c0.06-0.04,0.08-0.05,0.13-0.08c0.09-0.05,0.21-0.1,0.3-0.13
						c0.39-0.14,0.79-0.18,1.17-0.15c0.19,0.02,0.39,0.05,0.57,0.1c0.18,0.05,0.39,0.15,0.53,0.23c9.42,5.23,15.7,8.71,15.7,8.71
						c0.05,0.03,0.06,0.08,0.04,0.13c-0.03,0.04-0.08,0.06-0.13,0.04c0,0-6.37-3.32-15.93-8.29c-0.26-0.15-0.53-0.21-0.83-0.23
						c-0.3-0.02-0.61,0.03-0.87,0.13c-0.07,0.03-0.11,0.05-0.18,0.09c-0.03,0.02-0.09,0.05-0.1,0.06l-0.11,0.07
						c-0.15,0.1-0.29,0.2-0.44,0.29c-0.3,0.2-0.59,0.4-0.9,0.6c-1.21,0.81-2.45,1.64-3.74,2.5c-2.57,1.71-5.28,3.51-8.08,5.38
						c-2.8,1.86-5.7,3.79-8.64,5.74c-1.47,0.98-2.96,1.96-4.45,2.95c-0.74,0.49-1.49,0.99-2.24,1.49l-1.11,0.74
						c-0.04,0.03-0.07,0.06-0.08,0.07c0,0.01,0.01,0,0.02-0.04c0.01-0.04,0-0.08-0.01-0.1c-0.01-0.02,0-0.01,0.02,0.01
						c0.01,0.01,0.02,0.02,0.03,0.02c0,0,0,0,0.01,0.01l0.04,0.02l0.07,0.04l0.27,0.14l0.6,0.31l1.19,0.62
						c0.79,0.42,1.59,0.83,2.38,1.24c1.59,0.83,3.17,1.65,4.73,2.47c3.14,1.62,6.21,3.25,9.18,4.83c1.48,0.8,2.94,1.59,4.36,2.37
						c0.35,0.19,0.71,0.39,1.06,0.58l0.53,0.29l0.13,0.07l0.07,0.04l0.03,0.01c0.04,0.02,0.09,0.04,0.14,0.06
						c0.21,0.07,0.49,0.09,0.74,0.05c0.06-0.01,0.12-0.02,0.17-0.03c0.03-0.01,0.05-0.01,0.08-0.03l0.05-0.02h0.01l0.06-0.04
						l0.03-0.02c0.04-0.02-0.02,0.02,0,0l0.06-0.04l0.24-0.15c2.61-1.65,5.09-3.19,7.38-4.61c2.29-1.41,4.4-2.7,6.27-3.83
						c0.94-0.57,1.82-1.09,2.63-1.58c0.82-0.48,1.57-0.92,2.24-1.32c1.36-0.79,2.41-1.43,3.15-1.85c0.73-0.42,1.12-0.64,1.12-0.64
						c0.05-0.03,0.1-0.01,0.13,0.03C75.39,43.86,75.38,43.92,75.34,43.95z"/>
				</g>
				<path class="st5" d="M30.4,41.22l-4.57,2.97c-0.59,0.38-0.54,0.98,0.11,1.33l24.44,13.14c0.65,0.35,1.66,0.32,2.25-0.06
					l8.53-5.54C61.16,53.05,48.25,41.41,30.4,41.22z"/>
				<g>
					<path class="st0" d="M75.28,43.87l-8.55-4.6c-0.65-0.35-0.7-0.94-0.11-1.33l7.28-4.73"/>
					<path class="st1" d="M75.25,43.92c0,0-1.18-0.45-2.9-1.23c-0.43-0.19-0.89-0.41-1.39-0.63c-0.49-0.22-1-0.48-1.53-0.73
						c-0.53-0.25-1.08-0.53-1.63-0.8c-0.28-0.14-0.56-0.28-0.83-0.42l-0.42-0.21l-0.23-0.12c-0.02-0.01-0.1-0.07-0.15-0.1
						c-0.06-0.04-0.1-0.08-0.15-0.12c-0.18-0.17-0.38-0.42-0.43-0.76c-0.06-0.34,0.04-0.7,0.21-0.92c0.16-0.23,0.39-0.39,0.54-0.47
						l0.41-0.22c0.54-0.3,1.07-0.6,1.58-0.9c1.02-0.6,1.97-1.14,2.8-1.6c0.82-0.46,1.51-0.84,1.99-1.11
						c0.48-0.26,0.76-0.41,0.76-0.41c0.03-0.02,0.07,0,0.09,0.03c0.01,0.03,0.01,0.06-0.02,0.08c0,0-0.25,0.19-0.69,0.53
						c-0.44,0.33-1.07,0.81-1.82,1.37c-0.76,0.56-1.64,1.22-2.6,1.91c-0.48,0.34-0.97,0.7-1.46,1.07L67,38.43
						c-0.1,0.08-0.13,0.12-0.14,0.16c-0.01,0.03,0.02,0,0.01-0.03c0-0.03-0.01,0,0.04,0.04c0.01,0.01,0.02,0.02,0.03,0.03
						c0.02,0.01-0.01,0.01,0.04,0.04l0.05,0.03l0.03,0.01l0.01,0c-0.01-0.01,0.03,0.02-0.02-0.01l0.01,0.01l0.1,0.06L67.57,39
						c0.27,0.16,0.54,0.31,0.81,0.47c0.54,0.31,1.06,0.61,1.57,0.92c0.5,0.3,1,0.59,1.45,0.88c0.46,0.29,0.9,0.55,1.29,0.81
						c1.6,1.01,2.63,1.74,2.63,1.74c0.03,0.02,0.04,0.06,0.01,0.09C75.31,43.92,75.28,43.93,75.25,43.92z"/>
				</g>
				<g>
					<path class="st1" d="M48.38,37.31c0.53-0.35,1.44-0.37,2.02-0.06l15.58,8.38c0.58,0.31,0.63,0.85,0.1,1.19l-0.1,0.07
						c-0.53,0.35-1.44,0.37-2.02,0.06l-15.58-8.38c-0.59-0.32-0.63-0.85-0.1-1.2L48.38,37.31z"/>
					<path class="st1" d="M46.96,36.82c-0.53,0.35-1.44,0.37-2.02,0.06l-0.38-0.2c-0.58-0.31-0.63-0.85-0.09-1.2l0.34-0.22
						c0.53-0.35,1.44-0.37,2.02-0.06l0.38,0.2c0.59,0.31,0.63,0.85,0.1,1.2L46.96,36.82z"/>
				</g>
				<g>
					<path class="st1" d="M44.45,39.87c0.53-0.35,1.44-0.37,2.02-0.06l15.58,8.38c0.58,0.31,0.63,0.85,0.1,1.2l-0.1,0.07
						c-0.53,0.34-1.44,0.37-2.02,0.06l-15.58-8.38c-0.59-0.31-0.63-0.85-0.1-1.2L44.45,39.87z"/>
					<path class="st1" d="M43.03,39.37c-0.53,0.35-1.44,0.37-2.02,0.06l-0.38-0.2c-0.59-0.31-0.63-0.85-0.1-1.2l0.35-0.22
						c0.53-0.35,1.44-0.37,2.02-0.06l0.38,0.2c0.59,0.31,0.63,0.85,0.1,1.2L43.03,39.37z"/>
				</g>
				<g>
					<path class="st1" d="M40.52,42.42c0.53-0.34,1.44-0.37,2.02-0.06l15.58,8.38c0.58,0.31,0.63,0.85,0.09,1.2l-0.1,0.07
						c-0.53,0.35-1.44,0.37-2.02,0.06l-15.58-8.38c-0.58-0.31-0.63-0.85-0.1-1.2L40.52,42.42z"/>
					<path class="st1" d="M39.1,41.93c-0.53,0.35-1.44,0.37-2.02,0.06l-0.38-0.21c-0.59-0.31-0.63-0.85-0.1-1.2l0.35-0.23
						c0.53-0.34,1.44-0.37,2.02-0.05l0.38,0.2c0.58,0.32,0.63,0.85,0.1,1.2L39.1,41.93z"/>
				</g>
			</g>
		</g>
	</g>
</g>
</svg>
