<?xml version="1.0" encoding="utf-8"?>
<!-- Generator: Adobe Illustrator 28.1.0, SVG Export Plug-In . SVG Version: 6.00 Build 0)  -->
<svg version="1.1" xmlns="http://www.w3.org/2000/svg" xmlns:xlink="http://www.w3.org/1999/xlink" x="0px" y="0px"
	 viewBox="0 0 355 100" style="enable-background:new 0 0 355 100;" xml:space="preserve">
<style type="text/css">
	.st0{fill:#FFFFFF;}
</style>
<g id="Livello_3">
	<g>
		<path class="st0" d="M132.9,53.27h-9.26l-3.73,10.25h-1.61l9.97-27.38l9.95,27.38h-1.59L132.9,53.27z M132.35,51.77l-4.08-11.22
			l-4.08,11.22H132.35z"/>
		<path class="st0" d="M148.07,54.23c-0.14,0.01-0.29,0.02-0.45,0.02h-4.55v9.28h-1.5V36.77h7.02c2.04,0.28,3.77,1.13,5.2,2.56
			c1.71,1.71,2.56,3.76,2.56,6.17c0,2.42-0.85,4.48-2.56,6.19c-1.18,1.18-2.54,1.96-4.06,2.32l6.17,9.52h-1.86L148.07,54.23z
			 M143.07,38.29v14.43h4.55c1.98,0,3.68-0.7,5.09-2.12c1.41-1.41,2.12-3.11,2.12-5.11c0-2-0.71-3.7-2.12-5.1
			c-1.41-1.4-3.11-2.11-5.09-2.11H143.07z"/>
		<path class="st0" d="M173.16,36.77v1.5h-11.87v11.12h11.87v1.5h-11.87v11.12h11.87v1.5h-13.38V36.77H173.16z"/>
		<path class="st0" d="M177.75,36.77h1.66l13.75,23.8v-23.8h1.5v26.76h-1.5l-13.9-24.03v24.03h-1.5V36.77z"/>
		<path class="st0" d="M212.61,53.27h-9.26l-3.73,10.25h-1.61l9.97-27.38l9.95,27.38h-1.59L212.61,53.27z M212.05,51.77l-4.08-11.22
			l-4.08,11.22H212.05z"/>
		<path class="st0" d="M234.83,36.77l10.05,17.39l10.03-17.39h1.72l-0.07,0.12v26.64h-1.5V39.49l-10.18,17.63l-10.2-17.63v24.03
			h-1.5V36.88l-0.07-0.12H234.83z"/>
		<path class="st0" d="M284.68,40.4c2.68,2.68,4.02,5.92,4.02,9.71s-1.34,7.03-4.02,9.71c-2.68,2.68-5.92,4.02-9.71,4.02
			s-7.03-1.34-9.71-4.02c-2.68-2.68-4.02-5.92-4.02-9.71s1.34-7.03,4.02-9.71c2.68-2.68,5.92-4.02,9.71-4.02S282,37.72,284.68,40.4z
			 M274.97,37.92c-3.37,0-6.24,1.19-8.62,3.57c-2.38,2.38-3.57,5.25-3.57,8.62s1.19,6.24,3.57,8.63c2.38,2.39,5.25,3.58,8.62,3.58
			s6.24-1.19,8.62-3.58c2.38-2.39,3.57-5.26,3.57-8.63s-1.19-6.24-3.57-8.62C281.21,39.11,278.34,37.92,274.97,37.92z"/>
		<path class="st0" d="M298.05,36.77c1.37,0,2.54,0.48,3.52,1.46c0.98,0.97,1.46,2.14,1.46,3.51c0,1.38-0.71,2.67-2.12,3.86
			c1.25,0.26,2.42,0.99,3.53,2.21c1.78,1.8,2.68,3.96,2.68,6.51c0,2.53-0.89,4.72-2.68,6.57c-1.66,1.72-3.65,2.59-5.95,2.63v0.02
			h-5.18V36.77H298.05z M294.8,38.27v6.84h3.63c0.84-0.08,1.55-0.39,2.14-0.94c0.68-0.62,1.02-1.44,1.02-2.44s-0.34-1.83-1.02-2.48
			s-1.52-0.98-2.53-0.98H294.8z M294.8,46.72v15.3h3.68v0.02c1.86-0.12,3.47-0.89,4.82-2.29c1.48-1.53,2.22-3.34,2.22-5.44
			c0-2.1-0.74-3.89-2.22-5.37c-1.48-1.48-3.27-2.22-5.37-2.22H294.8z"/>
		<path class="st0" d="M312.96,36.77v26.76h-1.5V36.77H312.96z"/>
		<path class="st0" d="M318.32,63.52V36.77h1.5v25.25h10.37v1.5H318.32z"/>
		<path class="st0" d="M347.58,36.77v1.5h-11.87v11.12h11.87v1.5h-11.87v11.12h11.87v1.5H334.2V36.77H347.58z"/>
	</g>
</g>
<g id="Livello_4">
	<g>
		<path class="st0" d="M92.03,62.52c-0.11-0.06-0.17-0.17-0.16-0.29l0-0.02c0,0,0-0.08,0.01-0.21c-0.11,0.03-0.21,0.11-0.26,0.23
			c0,0-0.27,0.65-0.76,1.86c-0.25,0.61-0.54,1.37-0.98,2.19c-0.21,0.42-0.44,0.86-0.68,1.34c-0.12,0.24-0.24,0.48-0.37,0.74
			c-0.15,0.24-0.3,0.49-0.46,0.75c-0.63,1.03-1.29,2.19-2.17,3.34c-0.43,0.58-0.83,1.22-1.34,1.82c-0.5,0.6-1.02,1.22-1.55,1.85
			c-2.23,2.47-5.02,5.02-8.42,7.26c-3.39,2.24-7.4,4.14-11.84,5.35c-4.43,1.2-9.32,1.77-14.25,1.35c-0.65-0.05-1.31-0.1-1.97-0.16
			c-0.34-0.02-0.65-0.06-0.94-0.13l-0.9-0.17c-1.2-0.26-2.4-0.36-3.63-0.79c-2.46-0.65-4.87-1.54-7.2-2.63
			c-4.66-2.21-8.93-5.37-12.43-9.2c-3.47-3.86-6.19-8.36-7.86-13.11c-1.66-4.75-2.47-9.67-2.43-14.43l-0.01-0.22l0-0.06
			c0,0.02,0,0,0-0.02c0,0,0-0.01,0-0.01l0.02-0.47l0.04-0.98c0.02-0.65,0.05-1.3,0.07-1.94c0.13-1.14,0.26-2.19,0.36-3.29
			c0.22-1.12,0.41-2.24,0.64-3.34c0.31-1.08,0.54-2.16,0.86-3.21c0.38-1.03,0.69-2.07,1.08-3.06c0.43-0.98,0.82-1.96,1.27-2.9
			c0.48-0.93,0.95-1.84,1.41-2.73c0.53-0.86,1.05-1.7,1.56-2.53c0.57-0.79,1.14-1.57,1.68-2.32c0.54-0.77,1.17-1.44,1.73-2.14
			c0.55-0.72,1.19-1.32,1.78-1.93c0.6-0.61,1.17-1.23,1.78-1.75c0.6-0.55,1.19-1.08,1.75-1.59c0.61-0.46,1.19-0.91,1.75-1.34
			c1.09-0.93,2.23-1.57,3.21-2.26c2.03-1.25,3.69-2.2,4.87-2.74c1.18-0.59,1.8-0.9,1.8-0.9l0.03-0.02c0.06-0.03,0.11-0.09,0.15-0.15
			c-0.03,0.01-0.05,0.01-0.05,0.01c-0.16,0.03-0.32-0.08-0.35-0.24c-0.03-0.15,0.06-0.29,0.2-0.34c-0.04-0.02-0.08-0.05-0.12-0.05
			c-0.02,0-0.04,0-0.07,0.01c0,0-0.71,0.12-2.03,0.34c-0.66,0.12-1.5,0.23-2.43,0.52c-0.93,0.28-2.06,0.51-3.24,0.98
			c-0.6,0.23-1.22,0.47-1.88,0.72c-0.67,0.24-1.34,0.55-2.03,0.9c-0.69,0.35-1.41,0.71-2.16,1.09c-0.72,0.44-1.46,0.89-2.23,1.36
			c-0.79,0.44-1.53,1.01-2.3,1.59c-0.77,0.58-1.58,1.15-2.32,1.85c-0.75,0.69-1.58,1.34-2.33,2.11c-0.75,0.77-1.5,1.58-2.26,2.42
			c-0.7,0.89-1.42,1.79-2.15,2.71c-0.68,0.96-1.34,1.97-2.02,2.99c-0.63,1.05-1.2,2.16-1.81,3.28c-0.57,1.13-1.05,2.34-1.57,3.54
			c-0.47,1.22-0.87,2.49-1.29,3.77c-0.34,1.3-0.63,2.64-0.95,3.99c-0.22,1.41-0.44,2.89-0.58,4.31c-0.03,0.64-0.06,1.29-0.09,1.94
			l-0.05,0.98l-0.02,0.49l-0.01,0.12c-0.01,0.24,0,0.23,0,0.22c0-0.01,0-0.01,0,0.02l0,0.07l0.01,0.27
			c0.04,5.74,1.37,11.67,3.81,17.13c2.43,5.47,5.89,10.55,10.19,14.75c4.26,4.24,9.33,7.61,14.75,9.87c2.71,1.11,5.49,2.01,8.3,2.56
			c1.37,0.37,2.87,0.46,4.29,0.66c0.7,0.06,1.47,0.22,2.11,0.2c0.66,0.01,1.32,0.03,1.98,0.04c5.55,0.13,10.87-0.78,15.61-2.43
			c4.75-1.65,8.91-4,12.36-6.63c3.46-2.63,6.2-5.52,8.36-8.26c0.51-0.71,1.01-1.39,1.49-2.05c0.49-0.65,0.86-1.35,1.27-1.98
			c0.82-1.26,1.41-2.52,1.97-3.63c0.14-0.28,0.28-0.55,0.41-0.81c0.11-0.27,0.22-0.54,0.33-0.8c0.21-0.52,0.41-1,0.59-1.45
			c0.4-0.89,0.62-1.67,0.82-2.29c0.4-1.25,0.61-1.92,0.61-1.92c0.01-0.02,0-0.04,0.01-0.05C92.29,62.54,92.15,62.58,92.03,62.52z"/>
		<path class="st0" d="M96.27,40.35c-0.4-2.64-1.05-5.42-2.14-8.15c-0.47-1.39-1.22-2.69-1.91-4.03c-0.64-1.37-1.6-2.57-2.43-3.85
			c-1.76-2.5-3.82-4.83-6.01-6.99c-0.52-0.57-1.12-1.06-1.7-1.56l-1.75-1.49c-1.18-0.97-2.48-1.78-3.7-2.66
			c-1.27-0.81-2.6-1.5-3.88-2.22c-1.32-0.65-2.68-1.18-3.98-1.76c-1.33-0.51-2.68-0.89-3.98-1.32c-1.3-0.41-2.63-0.6-3.9-0.89
			c-0.32-0.07-0.63-0.13-0.94-0.2c-0.32-0.06-0.64-0.08-0.96-0.11c-0.63-0.07-1.26-0.13-1.87-0.2c-0.61-0.06-1.21-0.12-1.8-0.18
			c-0.57,0-1.13,0-1.68,0c-0.55,0-1.08,0-1.61,0c-0.26,0-0.52,0-0.78,0h-0.38c-0.22,0.01-0.28,0.02-0.43,0.03
			c-1.02,0.09-1.98,0.15-2.88,0.25c-0.89,0.14-1.73,0.26-2.51,0.38c-0.77,0.13-1.48,0.33-2.11,0.46c-1.28,0.26-2.21,0.61-2.88,0.8
			c-0.66,0.2-1.01,0.3-1.01,0.3c0,0,0,0-0.01,0c0.13,0.05,0.24,0.14,0.27,0.29c0.02,0.1-0.01,0.2-0.07,0.28
			c0.11-0.02,0.44-0.08,0.98-0.18c0.67-0.11,1.67-0.35,2.92-0.46c0.63-0.06,1.31-0.17,2.07-0.22c0.76-0.04,1.58-0.08,2.45-0.13
			c0.88-0.01,1.81,0.02,2.78,0.03l0.32,0l0.38,0.04c0.26,0.02,0.51,0.05,0.77,0.08c0.52,0.05,1.06,0.1,1.6,0.16
			c0.55,0.05,1.1,0.11,1.67,0.17c0.54,0.11,1.08,0.23,1.64,0.34c0.55,0.11,1.12,0.23,1.69,0.35c0.28,0.06,0.57,0.1,0.86,0.19
			c0.29,0.09,0.57,0.18,0.86,0.27c0.58,0.18,1.17,0.36,1.76,0.55c0.59,0.19,1.21,0.33,1.78,0.6c1.17,0.51,2.38,0.95,3.56,1.52
			c1.15,0.64,2.35,1.23,3.5,1.92c1.11,0.77,2.28,1.46,3.38,2.28c1.05,0.88,2.18,1.68,3.18,2.63l1.48,1.45c0.49,0.48,1,0.95,1.43,1.5
			c1.83,2.07,3.44,4.32,4.73,6.68c0.61,1.2,1.32,2.33,1.78,3.56c0.48,1.22,1.13,2.35,1.48,3.57c0.95,2.36,1.62,4.72,2.24,6.98
			c0.23,1.15,0.49,2.26,0.74,3.35c0.16,1.1,0.31,2.17,0.45,3.19c0.04,0.26,0.08,0.51,0.11,0.77l0.03,0.19l0.01,0.1l0,0.02
			c0,0.03,0.01-0.15,0-0.07l0,0.05l0.03,0.4c0.04,0.53,0.07,1.04,0.11,1.54c0.03,0.5,0.07,0.99,0.1,1.46c0,0.44,0,0.87,0.01,1.29
			c0.09,1.68-0.01,3.2-0.04,4.47c-0.02,1.27-0.18,2.25-0.2,2.95c-0.02,0.4-0.04,0.68-0.05,0.86c0.08-0.02,0.17-0.03,0.26,0.01
			c0.18,0.07,0.26,0.26,0.23,0.44c0.02-0.02,0.05-0.03,0.06-0.05c0,0,0.17-0.33,0.5-0.95c0.16-0.31,0.36-0.7,0.58-1.17
			c0.22-0.46,0.5-0.99,0.7-1.62c0.23-0.63,0.48-1.32,0.75-2.07c0.27-0.76,0.44-1.63,0.68-2.55c0.12-0.46,0.23-0.94,0.34-1.44
			c0.07-0.47,0.14-0.95,0.22-1.45c0.07-0.49,0.15-1.01,0.23-1.53l0.06-0.39l0.02-0.51c0.01-0.28,0.02-0.57,0.03-0.85
			c0.04-1.16,0.08-2.37,0.08-3.62C96.52,42.98,96.42,41.69,96.27,40.35z"/>
		<path class="st0" d="M38.85,7.32c0.03,0.16,0.18,0.27,0.35,0.24c0,0,0.02,0,0.05-0.01c0.05-0.08,0.08-0.17,0.07-0.28
			c-0.02-0.15-0.14-0.24-0.27-0.29C38.91,7.03,38.82,7.17,38.85,7.32z"/>
		<path class="st0" d="M92.14,62.01c-0.09-0.04-0.18-0.03-0.26-0.01c-0.01,0.13-0.01,0.21-0.01,0.21l0,0.02
			c-0.01,0.12,0.05,0.23,0.16,0.29c0.12,0.06,0.25,0.02,0.35-0.07C92.41,62.26,92.32,62.08,92.14,62.01z"/>
		<path class="st0" d="M66.07,76.51c-6.01,2.26-12.35,3.6-19.05,3.97c-1.13,0.06-2.27-1.11-2.55-2.57
			c-0.06-0.33-0.12-0.66-0.18-0.98c-0.08-0.2-0.15-0.42-0.19-0.64c-3.38-18.11-6.32-36.48-8.74-54.6c-0.04-0.28-0.03-0.55,0-0.81
			c-0.09-1.1,0.32-2.14,1.01-2.66c-0.01,0-0.02,0-0.03,0c-1.1,0.25-3.23,2.39-3.03,3.86c2.55,19,5.56,37.98,9.1,56.85
			c0.27,1.46,1.42,2.63,2.55,2.57c6.69-0.37,13.04-1.7,19.04-3.97c2.94-1.11,3.7-2.04,3.52-3.44c0-0.03-0.01-0.06-0.02-0.09
			C67.44,75.15,66.87,76.21,66.07,76.51z"/>
		<path class="st0" d="M67.51,74.01c0.02-0.24,0.02-0.49-0.02-0.74c-0.04-0.3-0.09-0.59-0.13-0.89c-0.01,0.16-0.03,0.32-0.06,0.47
			C67.38,73.24,67.45,73.62,67.51,74.01z"/>
		<path class="st0" d="M36.38,18.23c3.7-0.82,6.94-1.07,10.23-1.04c1.63-0.12,3.25-0.2,4.87-0.2c1.7,0,3.42,0.07,5.11,0.2
			c0.87,0.07,1.74,0.85,2.19,1.87c-0.33-1.28-1.32-2.37-2.31-2.46c-6.46-0.54-12.95-0.12-19.47,1.33
			C36.78,17.97,36.57,18.09,36.38,18.23z"/>
		<path class="st0" d="M37.1,18.55c3.15-0.68,6.33-1.12,9.51-1.36c-3.29-0.03-6.53,0.22-10.23,1.04c-0.69,0.52-1.1,1.56-1.01,2.66
			C35.49,19.73,36.17,18.75,37.1,18.55z"/>
		<path class="st0" d="M65.84,74.93c-6.04,2.21-12.46,3.52-19.09,3.91c-0.03,0-0.06,0-0.1,0c-0.98,0-1.92-0.8-2.35-1.91
			c0.06,0.33,0.12,0.66,0.18,0.98c0.27,1.46,1.42,2.63,2.55,2.57c6.69-0.37,13.03-1.71,19.05-3.97c0.8-0.31,1.37-1.36,1.44-2.5
			c-0.05-0.39-0.13-0.77-0.2-1.15C67.13,73.83,66.57,74.66,65.84,74.93z"/>
		<path class="st0" d="M61.01,31.41c1.37,7.86,2.64,15.73,3.83,23.61c0.88,5.78,1.73,11.57,2.52,17.37
			c0.01-0.23,0.01-0.46-0.02-0.68c-2.3-17.11-5.09-34.54-8.29-51.83c-0.05-0.29-0.15-0.56-0.27-0.82c0.02,0.09,0.05,0.17,0.07,0.26
			C59.6,23.34,60.31,27.37,61.01,31.41z"/>
		<path class="st0" d="M35.37,20.89c-0.03,0.26-0.03,0.53,0,0.81c2.42,18.12,5.36,36.49,8.74,54.6c0.04,0.22,0.11,0.43,0.19,0.64
			c-3.46-18.55-6.41-37.19-8.92-55.87C35.37,21.01,35.37,20.95,35.37,20.89z"/>
		<path class="st0" d="M56.6,17.19c-1.7-0.13-3.42-0.2-5.11-0.2c-1.62,0-3.25,0.08-4.87,0.2c0.4,0,0.8,0,1.21,0.02
			c2.93-0.16,5.86-0.14,8.77,0.08c1.05,0.08,2.11,1.26,2.36,2.6c0.71,3.83,1.39,7.67,2.06,11.51c-0.7-4.03-1.41-8.07-2.16-12.1
			c-0.02-0.09-0.04-0.17-0.07-0.26C58.34,18.04,57.47,17.26,56.6,17.19z"/>
		<path class="st0" d="M67.24,71.72c0.04,0.26,0.03,0.53,0.01,0.79c0.02,0.12,0.04,0.24,0.06,0.35c0.03-0.15,0.05-0.31,0.06-0.47
			c-0.79-5.8-1.64-11.59-2.52-17.37C65.68,60.58,66.49,66.14,67.24,71.72z"/>
		<path class="st0" d="M35.37,20.89c0.01,0.06,0,0.12,0.01,0.18c2.51,18.68,5.46,37.32,8.92,55.87c0.43,1.11,1.38,1.91,2.35,1.91
			c0.03,0,0.06,0,0.1,0c6.62-0.38,13.04-1.7,19.09-3.91c0.74-0.27,1.29-1.1,1.47-2.08c-0.02-0.12-0.04-0.24-0.06-0.35
			c-0.1,1.07-0.66,2.04-1.45,2.33c-6.02,2.2-12.37,3.51-19.06,3.9c-1.12,0.06-2.26-1.05-2.53-2.46c-3.38-18.12-6.3-36.34-8.74-54.59
			c-0.19-1.41,0.55-2.79,1.65-3.03c3.57-0.78,7.14-1.25,10.69-1.44c-0.4-0.01-0.81-0.01-1.21-0.02c-3.17,0.23-6.36,0.67-9.51,1.36
			C36.17,18.75,35.49,19.73,35.37,20.89z"/>
		<path class="st0" d="M61.01,31.41c1.36,7.86,2.63,15.73,3.83,23.61C63.65,47.14,62.38,39.27,61.01,31.41z"/>
		<path class="st0" d="M51.48,17.2c1.69,0,3.41,0.06,5.1,0.2c1,0.08,2.02,1.21,2.26,2.51c3.21,17.28,6,34.71,8.29,51.81
			c0.01,0.07,0.01,0.14,0.01,0.2c0.04,0.19,0.06,0.38,0.1,0.57c0.02-0.26,0.03-0.52-0.01-0.79c-0.75-5.57-1.56-11.14-2.4-16.7
			c-1.2-7.88-2.47-15.75-3.83-23.61c-0.67-3.84-1.35-7.68-2.06-11.51c-0.25-1.34-1.31-2.52-2.36-2.6c-2.92-0.22-5.84-0.25-8.77-0.08
			c0.47,0.01,0.94,0.03,1.41,0.06C49.98,17.24,50.73,17.2,51.48,17.2z"/>
		<path class="st0" d="M35.48,21.68c2.44,18.25,5.35,36.47,8.74,54.59c0.26,1.4,1.4,2.52,2.53,2.46c6.69-0.39,13.04-1.7,19.06-3.9
			c0.79-0.29,1.35-1.26,1.45-2.33c-0.03-0.19-0.06-0.38-0.1-0.57c0.09,1.25-0.5,2.48-1.39,2.8c-6.02,2.2-12.42,3.51-19.03,3.89
			c-1.07,0.06-2.16-1.03-2.42-2.37C40.94,58.15,38,39.78,35.58,21.67c-0.18-1.35,0.54-2.68,1.57-2.91c4-0.87,8.06-1.35,12.08-1.49
			c-0.47-0.02-0.95-0.04-1.41-0.06c-3.55,0.2-7.11,0.67-10.69,1.44C36.03,18.89,35.29,20.27,35.48,21.68z"/>
		<path class="st0" d="M58.05,27.21c1.66,9.61,3.32,19.13,4.75,28.44c0.11,0.54,0.23,1.08,0.36,1.62
			c-1.36-8.98-2.93-18.12-4.59-27.66l-0.42-2.41c-0.06-0.35-0.17-0.68-0.32-0.98c0.03,0.19,0.07,0.37,0.1,0.56
			C57.99,26.91,58.03,27.06,58.05,27.21z"/>
		<path class="st0" d="M63.16,57.27c-0.13-0.54-0.25-1.08-0.36-1.62c0.51,3.29,0.99,6.56,1.43,9.8c0.18,1.33-0.52,2.65-1.54,2.94
			c-4.99,1.42-9.95,2.58-14.86,3.34c-1.09,0.17-2.18-0.9-2.43-2.35C43.06,55.8,40.71,42.39,39,29.5c-0.18-1.38,0.59-2.69,1.7-2.91
			c5.03-0.97,10.05-1.6,15.05-1.85c0.92-0.04,1.83,0.84,2.19,2.02c-0.03-0.19-0.07-0.37-0.1-0.56c-0.46-0.96-1.27-1.61-2.1-1.57
			c-4.82,0.23-9.89,0.85-15.06,1.85c-1.18,0.23-1.98,1.59-1.79,3.02c1.58,11.95,3.67,24.07,5.88,36.9l0.51,2.98
			c0.25,1.4,1.24,2.46,2.31,2.46c0.08,0,0.17-0.01,0.25-0.02c4.61-0.72,9.48-1.81,14.87-3.35c1.08-0.31,1.81-1.68,1.62-3.05
			C63.97,62.72,63.57,60,63.16,57.27z"/>
		<path class="st0" d="M57.94,26.77c0.31,1.74,0.63,3.48,0.93,5.22c1.27,7.27,2.47,14.55,3.58,21.84c0.09,0.61,0.22,1.21,0.34,1.82
			c-1.43-9.31-3.09-18.83-4.75-28.44C58.03,27.06,57.99,26.91,57.94,26.77z"/>
		<path class="st0" d="M58.88,31.98c-0.3-1.74-0.62-3.48-0.93-5.22c-0.36-1.18-1.28-2.06-2.19-2.02c-5,0.24-10.01,0.88-15.05,1.85
			c-1.12,0.22-1.89,1.52-1.7,2.91c1.71,12.89,4.06,26.3,6.39,39.87c0.25,1.46,1.34,2.52,2.43,2.35c4.91-0.77,9.87-1.93,14.86-3.34
			c1.03-0.29,1.73-1.61,1.54-2.94c-0.44-3.23-0.92-6.5-1.43-9.8c-0.12-0.6-0.25-1.21-0.34-1.82C61.34,46.54,60.15,39.26,58.88,31.98
			z M64.12,65.46c0.18,1.27-0.48,2.54-1.47,2.82c-5.39,1.53-10.24,2.62-14.85,3.34c-0.07,0.01-0.14,0.02-0.21,0.02
			c-0.97,0-1.87-0.98-2.1-2.28l-0.51-2.98c-2.21-12.83-4.3-24.94-5.88-36.89c-0.17-1.33,0.55-2.58,1.62-2.79
			c5.16-0.99,10.22-1.61,15.03-1.84h0.06c0.95,0,1.9,1.06,2.13,2.37l0.42,2.41C60.52,42.09,62.55,53.85,64.12,65.46z"/>
		<polygon class="st0" points="51.52,46.61 54.22,46.21 52.62,42.41 		"/>
		<path class="st0" d="M48.21,70.18c4.75-0.25,9.39-1.12,13.79-2.57c0.87-0.29,1.46-1.6,1.3-2.84c-0.39-2.92-0.81-5.86-1.24-8.79
			l-3.45,0.71l-2.84-6.73l-5.33,0.93l-2.1,7.92l-3.87,0.82c0.48,2.77,0.98,5.53,1.49,8.27C46.21,69.19,47.23,70.23,48.21,70.18z"/>
		<path class="st0" d="M55.33,25.97c-0.78-0.04-1.57-0.05-2.35-0.05c-3.88,0-7.8,0.44-11.65,1.3c-0.94,0.21-1.6,1.49-1.43,2.79
			c1.27,9.56,2.75,19.2,4.42,28.74l6.06-23.7l3.48-0.44l8.02,20.09c-1.31-8.8-2.78-17.62-4.4-26.34
			C57.23,27.09,56.27,26.02,55.33,25.97z"/>
		<path class="st0" d="M55.34,25.76c-4.69-0.21-9.42,0.21-14.06,1.25c-1.06,0.24-1.78,1.6-1.59,3.02c1.29,9.72,2.8,19.51,4.5,29.21
			L44.25,59c-1.68-9.63-3.17-19.3-4.46-28.98c-0.18-1.36,0.5-2.68,1.51-2.91c4.68-1.05,9.35-1.46,14.03-1.25
			c0.99,0.05,1.99,1.17,2.24,2.47c1.66,8.92,3.15,17.85,4.47,26.81l0.17,0.44c-1.34-9.1-2.86-18.24-4.54-27.26
			C57.43,26.96,56.38,25.81,55.34,25.76z"/>
		<path class="st0" d="M63.41,64.75c0.18,1.31-0.44,2.65-1.37,2.96c-4.41,1.45-9.02,2.32-13.82,2.58c-1.05,0.05-2.1-1.03-2.36-2.37
			c-0.52-2.75-1.01-5.51-1.49-8.27l-0.1,0.02c0.48,2.76,0.98,5.52,1.49,8.27c0.25,1.36,1.33,2.46,2.39,2.46h0.08
			c4.77-0.26,9.43-1.12,13.85-2.58c0.98-0.33,1.62-1.71,1.44-3.07c-0.39-2.93-0.81-5.87-1.24-8.81l-0.1,0.02
			C62.6,58.88,63.01,61.82,63.41,64.75z"/>
		<path class="st0" d="M55.34,25.87c-4.68-0.21-9.35,0.2-14.03,1.25c-1.01,0.23-1.69,1.55-1.51,2.91
			c1.29,9.68,2.78,19.35,4.46,28.98l0.06-0.25c-1.66-9.55-3.14-19.18-4.42-28.74c-0.17-1.3,0.49-2.58,1.43-2.79
			c3.85-0.86,7.77-1.3,11.65-1.3c0.78,0,1.57,0.02,2.35,0.05c0.94,0.05,1.9,1.11,2.14,2.38c1.62,8.72,3.09,17.55,4.4,26.34
			l0.18,0.44c-1.32-8.96-2.81-17.89-4.47-26.81C57.33,27.03,56.33,25.92,55.34,25.87z"/>
		<path class="st0" d="M48.22,70.29c4.8-0.26,9.41-1.12,13.82-2.58c0.93-0.31,1.54-1.65,1.37-2.96c-0.39-2.94-0.81-5.87-1.24-8.8
			l-0.11,0.02c0.43,2.94,0.85,5.87,1.24,8.79c0.17,1.25-0.43,2.55-1.3,2.84c-4.4,1.45-9.05,2.32-13.79,2.57
			c-0.98,0.05-2.01-0.99-2.25-2.29c-0.51-2.75-1.01-5.51-1.49-8.27l-0.1,0.02c0.48,2.76,0.98,5.52,1.49,8.27
			C46.11,69.26,47.17,70.34,48.22,70.29z"/>
		<path class="st0" d="M44.3,22.59l0.02,0l6.84-0.55c0.1-0.01,0.16-0.07,0.2-0.11c0.08-0.11,0.12-0.27,0.09-0.44
			c-0.04-0.28-0.25-0.51-0.46-0.51l-6.87,0.53c-0.1,0.01-0.17,0.07-0.21,0.12c-0.09,0.11-0.12,0.28-0.09,0.45
			C43.88,22.36,44.09,22.59,44.3,22.59z"/>
	</g>
</g>
</svg>
