<?xml version="1.0" encoding="utf-8"?>
<!-- Generator: Adobe Illustrator 28.1.0, SVG Export Plug-In . SVG Version: 6.00 Build 0)  -->
<svg version="1.1" id="Livello_2" xmlns="http://www.w3.org/2000/svg" xmlns:xlink="http://www.w3.org/1999/xlink" x="0px" y="0px"
	 viewBox="0 0 100 100" style="enable-background:new 0 0 100 100;" xml:space="preserve">
<style type="text/css">
	.st0{fill:#FFFFFF;}
</style>
<g>
	<path class="st0" d="M21.82,29.93v36.91l18.19,3.92l21.21-4.81l19.45,4.75V48.07l-1.25-1.11c-0.25-0.23-0.37-0.54-0.36-0.86
		c-0.08,0.02-0.17,0.05-0.25,0.05c-0.26,0-0.52-0.09-0.73-0.27l-1.74-1.47c-0.46,0.36-0.92,0.7-1.37,1.07
		c-0.39,0.32-0.8,0.43-1.27,0.23c-0.11-0.05-0.04-0.09-0.04-0.09c0.13-0.31,0.47-0.47,0.54-0.82c0,0-0.09-0.09-0.32-0.13
		c-0.24-0.03-0.48-0.08-0.65,0.25c-0.18,0.36-0.54,0.56-0.98,0.46c-0.04-0.01-0.09,0-0.14,0c-1.07,0-1.14,0.05-1.59,1.13
		c-0.02,0.04,0.05,0.05,0.05,0.05c0.19,0.03,0.38,0.06,0.56,0.09c0.16,0.73-0.12,1.33-0.51,1.91c-0.15,0.21-0.35,0.41-0.44,0.64
		c-0.1,0.26-0.25,0.27-0.47,0.27c-0.37,0.01-0.61,0.39-0.5,0.77c0.06,0.19,0.09,0.38,0.14,0.58c-0.1,0.15-0.26,0.21-0.42,0.3
		c-0.25-0.16-0.34-0.46-0.43-0.7c-0.15-0.4-0.38-0.41-0.7-0.31c-0.09,0.03-0.09,0.09-0.09,0.09c0.04,0.49,0.32,0.9,0.47,1.36
		c0.09,0.28,0.08,0.46-0.16,0.59c-0.38,0.2-0.68,0.5-1.04,0.73c-0.19,0.12-0.37,0.26-0.54,0.41c-0.18,0.15-0.44,0.23-0.52,0.49
		c0.16,0.32,0.31,0.63,0.47,0.95c-0.55,0.36-1.01,0.79-1.56,1.07c-0.65-0.77-1.12-1.64-1.78-2.38l-0.09-0.18
		c0.18,0.24-0.15,0.25-0.19,0.4c-0.15,0.49-0.34,0.98-0.54,1.45c-0.08,0.19-0.13,0.45-0.45,0.41c-0.18-0.03-0.38,0.03-0.56-0.02
		c-0.12-0.03-0.23-0.11-0.32-0.3c-0.26-0.59-0.63-1.14-0.89-1.73c-0.29-0.66-0.67-1.05-1.46-1.01c-0.56,0.02-1.19-0.01-1.55-0.61
		c-0.01-0.02-0.09,0-0.16,0c-0.11,0.08-0.23,0.18-0.25,0.35c0.54,0.49,1.07,0.97,1.63,1.46c-0.19,0.28-0.36,0.55-0.54,0.81
		c-0.51,0.74-0.89,1.6-1.65,2.11c-0.47,0.32-0.53,0.66-0.42,1.11c0.03,0.12,0.06,0.27,0.06,0.37c0.01,0.38,0.17,0.74-0.06,1.14
		c-0.67,1.14-1.28,2.32-1.92,3.48c-0.13,0.24-1.04,0.36-1.21,0.13c-0.29-0.39-0.65-0.74-0.74-1.26c-0.1-0.6-0.24-1.19-0.41-1.77
		c-0.17-0.58-0.33-1.16,0.01-1.72c0.1-0.16,0.02-0.3-0.02-0.41c-0.11-0.25-0.17-0.52-0.26-0.77c-0.43-1.12-0.43-1.1-1.67-0.97
		c-0.41,0.04-0.88,0.15-1.26-0.09c-0.46-0.29-1.04-0.5-1.29-0.96c-0.19-0.36-0.04-0.89-0.04-1.34c0-0.38,0-0.76,0-1.13
		c0-0.11-0.04-0.23,0.09-0.32c0.62-0.46,1.19-1.06,1.88-1.36c0.5-0.22,1.16-0.04,1.75-0.04c0.11,0,0.21,0,0.32,0
		c0.26-0.01,0.46,0.05,0.69,0.22c1,0.71,1.01,0.69,2.35,0.69c0.06,0,0.12,0,0.18,0c0.87,0,0.87,0,0.73-0.91c0-0.01,0-0.03,0-0.1
		c-0.39,0.04-0.78-0.01-1.18,0.05c-0.27,0.04-0.58,0.09-0.81-0.09c-0.57-0.44-1.27-0.69-1.78-1.22c-0.14-0.15-0.3-0.14-0.45,0
		c-0.13,0.11-0.29,0.2-0.4,0.32c-0.57,0.6-1.28,0.55-2.01,0.46c-0.06-0.31-0.06-0.61,0-0.91c0.32-0.11,0.66,0.03,0.96-0.14
		l0.23,0.05c-0.35-0.04-0.39-0.4-0.62-0.56c0.74-0.74,1.46-1.46,2.18-2.18c-0.32-0.44-0.55-0.82-0.85-1.15
		c-0.26-0.28-0.22-0.47,0-0.74c0.93-1.1,1.88-2.18,2.75-3.32c0.26-0.34,0.44-0.28,0.7-0.12c0.7,0.42,1.39,0.85,2.09,1.26
		c0.12,0.07,0.25,0.14,0.46,0.02c0.82-0.45,1.63-0.89,2.45-1.34l-0.44-0.38l-0.61-0.52l-1.01-0.86c-0.25-0.21-0.4-0.53-0.39-0.86
		c0-0.33,0.15-0.64,0.4-0.86c1.38-1.16,2.96-1.64,4.51-1.45c-0.39-1-0.32-2.13,0.25-3.1c0.11-0.19,0.24-0.38,0.39-0.56l-0.19-0.64
		l-0.2-0.18l-1.82-1.6l-19.39,2.61L21.82,29.93z M75.38,62.3v0.05c-0.35,0.53-0.74,1.03-1.22,1.58c-0.03-0.26-0.31-0.29-0.27-0.59
		c0.27-0.24,0.48-0.58,0.71-0.9C74.83,62.13,75.08,62.09,75.38,62.3z M72.56,48.24c0.43-0.44,0.94-0.85,0.87-1.58
		c0-0.04,0.11-0.08,0.07-0.19c0.34,0.06,0.7-0.08,1.06,0.13c-0.21,0.21-0.14,0.49-0.32,0.7c-0.78,0.89-1.62,1.73-2.5,2.53h-0.05
		c-0.19,0.01-0.22-0.17-0.35-0.3C71.82,49.15,72.15,48.66,72.56,48.24z M70.98,50.1c0.16,0.07,0.3,0.15,0.39,0.36
		c-0.42,0.4-0.86,0.82-1.29,1.23c0,0-0.31-0.06-0.24-0.28C70.14,50.91,70.57,50.51,70.98,50.1z M69.8,56.45
		c0.21,0.01,0.46,0.21,0.63-0.01c0.2-0.26,0.38-0.15,0.6-0.09c0.27,0.08,0.49,0.27,0.77,0.33c0.07,0.02,0.26,0.08,0.22,0.21
		c-0.07,0.3,0.22,0.47,0.23,0.73l-0.13,0.01c-0.24,0.04-0.37-0.13-0.55-0.19c-0.46,0.36-0.84,0.34-1.17-0.14
		c-0.18-0.26-0.36-0.39-0.65-0.35c-0.25,0.03-0.4-0.14-0.39-0.32C69.38,56.37,69.64,56.45,69.8,56.45z M68.08,59.03
		c0.63-0.58,1.35-0.89,2.22-0.72c0.09,0.24,0.02,0.49,0.05,0.73c0.61,0.22,0.61,0.22,0.86-0.41c0.03-0.09,0.12-0.15,0.18-0.23
		c0,0,0.12,0.02,0.19,0.11c0.27,0.36,0.59,0.66,0.85,1.02c0.21,0.3,0.43,0.6,0.69,0.86c0.16,0.16,0.13,0.3,0.08,0.46
		c-0.18,0.61-0.38,1.21-0.54,1.82c-0.06,0.24-0.18,0.29-0.41,0.32c-0.76,0.11-1.3-0.24-1.87-0.68c-0.72-0.55-0.74-0.53-1.67-0.37
		c-0.57,0.1-1.13,0.21-1.72,0.33c-0.15-0.67-0.17-1.33-0.19-2.01c0-0.21,0.15-0.25,0.28-0.32c0.24-0.11,0.47-0.25,0.73-0.31
		C68.2,59.54,68.24,59.35,68.08,59.03z M65.59,56.67c0.12,0.11,0.2,0.31,0.35,0.4c0.08,0.05,0.52,0.31,0.69,0.34
		c0.4,0.07,0.81,0.07,1.19,0.26c-0.1,0.13,0,0.32-0.05,0.35c-0.46,0.06-0.81-0.06-1.18-0.07c-0.4-0.01-0.73-0.13-1.01-0.45
		c-0.3-0.35-0.66-0.64-0.99-0.96L64.5,56.5C65.07,56.16,65.07,56.17,65.59,56.67z M56.2,59.27c0.27-0.41,0.2-0.81,0.04-1.23
		l0.09,0.05c0.36-0.26,0.39,0.05,0.45,0.27c0.16,0.63-0.08,1.15-0.46,1.63c-0.11-0.06-0.27-0.04-0.36-0.18
		C56.04,59.62,56.09,59.43,56.2,59.27z M48.34,45.48c0.19-0.17,0.2-0.46,0.46-0.55h0.09c0.39,0.4,0.73,0.83,1.03,1.32
		c-0.42,0.4-0.83,0.8-1.29,1.23c-0.16-0.22-0.32-0.43-0.48-0.65c0.2-0.24,0.43-0.53,0.66-0.82C48.66,45.83,48.5,45.66,48.34,45.48z
		 M43.73,58.81c-0.08,0.26-0.09,0.55-0.27,0.77c-1.14,1.35-2.28,2.71-3.44,4.04c-0.05,0.06-0.1,0.11-0.15,0.17
		c-0.41,0.47-0.68,0.92-0.56,1.6c0.07,0.45,0.16,0.93,0.02,1.4l-0.05,0.05c-0.2,0.05-0.38-0.06-0.54-0.14
		c-0.71-0.34-1.17-1.15-1.09-1.95c0.17-1.6,0.35-3.21,0.55-4.81c0.03-0.21,0.02-0.35-0.08-0.55c-0.36-0.69-0.81-1.32-1.2-1.98
		c-0.18-0.3-0.25-0.52,0-0.83c0.24-0.3,0.4-0.67,0.6-1.01c-0.09-0.17-0.26-0.19-0.41-0.25c-1.41-0.63-2.81-1.27-4.22-1.9
		c-0.15-0.07-0.27-0.16-0.37-0.31c-0.62-0.86-1.26-1.7-1.89-2.55c-0.06-0.08-0.08-0.21-0.09-0.31c-0.05-0.53-0.08-1.06-0.14-1.59
		c-0.04-0.42-0.08-0.8-0.44-1.15c-0.64-0.63-1.2-1.34-1.78-2.03c-0.46-0.55-1.44-0.67-1.95-0.22c-0.44,0.38-0.88,0.75-1.31,1.14
		c-0.42,0.37-0.41,0.38-1.01-0.13c0.32-0.21,0.62-0.4,0.92-0.6c-0.32-0.49-0.54-0.9-0.82-1.26c-0.17-0.21-0.18-0.41-0.17-0.64
		c0.01-0.41,0.02-0.82,0.05-1.22c0.02-0.29-0.05-0.73,0.11-0.84c0.64-0.44,1.13-1.17,2.07-1.09c0.25,0.02,0.54,0.02,0.82-0.01
		c0.52-0.05,1.06-0.06,1.66,0.04c0.79-0.86,1.61-1.75,2.43-2.64c0.13-0.14,0.25-0.28,0.5-0.28c1.94,0.02,3.87,0.01,5.81,0.01
		c0.13,0,0.22-0.01,0.34,0.17c0.31,0.45,0.47,0.98,0.79,1.42c0.11,0.15,0.05,0.31-0.04,0.45c-0.3,0.48-0.61,0.97-0.91,1.45
		c-0.1,0.17-0.14,0.32,0.04,0.5c0.63,0.64,1.24,1.3,1.87,1.94c0.12,0.12,0.22,0.28,0.42,0.32c0.03-0.11,0.14-0.14,0.18-0.27
		c0.02-0.07,0.05-0.12,0.08-0.18c0.16-0.28,0.44-0.36,0.81-0.34c0.32,0.02,0.41,0.1,0.42,0.42c0.02,1.04,0.09,2.09,0.12,3.13
		c0.01,0.19,0.05,0.37-0.13,0.55c-0.41,0.41-0.82,0.83-1.23,1.25c-0.91,0.93-1.82,1.85-2.72,2.78c-0.1,0.1-0.2,0.17-0.36,0.19
		c-0.71,0.06-1.42,0.16-2.15,0.24c-0.02,0.39-0.08,0.75-0.14,1.11c-0.05,0.27,0.07,0.39,0.21,0.45c0.99,0.37,1.93,0.87,2.9,1.29
		c0.18,0.08,0.32,0.09,0.5,0.04c0.54-0.14,1.09-0.27,1.63-0.41c0.05-0.01,0.1-0.02,0.14-0.03c0.13-0.02,0.24,0,0.36,0.12
		c0.36,0.32,0.75,0.61,1.13,0.91c0.89,0.72,1.77,1.43,2.66,2.16C44.01,57.88,43.87,58.34,43.73,58.81z M42.36,43.57l0.23-0.09
		c0.56,0,0.62,0,1.24,0c-0.06,0.58-0.03,1.11-0.16,1.64c-0.24-0.03-0.48,0.09-0.62-0.19C42.81,44.48,42.51,44.06,42.36,43.57z
		 M47.4,43.03c-0.22,0.14-0.4,0.36-0.59,0.54h-0.05c-0.27-0.18-0.55-0.35-0.82-0.53c0.43-0.88,0.64-0.98,1.69-0.78
		C47.7,42.55,47.73,42.82,47.4,43.03z M40.32,36.04c0.1-0.11,0.21-0.09,0.32-0.09c1.83,0,3.66,0,5.49,0c0.12,0,0.22-0.02,0.33,0.13
		c0.43,0.62,0.89,1.22,1.22,1.91v0.05c-0.76,1.51-1.52,3.02-2.26,4.54c-0.11,0.22-0.22,0.32-0.46,0.32
		c-0.85,0.01-1.69,0.02-2.54,0.05c-0.22,0.01-0.37-0.07-0.5-0.23c-0.25-0.32-0.51-0.64-0.77-0.95c-0.4-0.46-0.78-0.93-1.13-1.43
		c-0.34-0.49-0.64-1-0.87-1.57c-0.16-0.4-0.35-0.79-0.53-1.19c0.41-0.47,0.93-0.83,1.4-1.25C40.12,36.23,40.22,36.14,40.32,36.04z"
		/>
	<path class="st0" d="M53.88,15.47c-0.35,0.39-0.7,0.78-1.05,1.17c-0.7,0.78-1.39,1.55-2.07,2.31c-0.34,0.38-0.69,0.77-1.02,1.14
		c0.63,0.56,1.21,1.08,1.77,1.58c0.28,0.25,0.55,0.49,0.82,0.73s0.53,0.47,0.79,0.7c0.69-0.8,1.38-1.6,2.07-2.39
		s1.37-1.59,2.07-2.39c-1.08-0.95-2.17-1.9-3.26-2.85C53.95,15.47,53.92,15.47,53.88,15.47z"/>
	<path class="st0" d="M80.17,46.12c0.16,0.14,0.34,0.3,0.5,0.45c0.91,0.81,1.82,1.62,2.77,2.47c0.05-0.06,0.25-0.29,0.53-0.63
		c0.03-0.03,0.05-0.06,0.08-0.09c0.28-0.33,0.64-0.75,1.03-1.21c0.14-0.16,0.28-0.33,0.42-0.49c0.53-0.62,1.08-1.26,1.53-1.78
		c0.19-0.22,0.35-0.41,0.5-0.58c0-0.02,0-0.04,0-0.06c0-0.02,0-0.04,0-0.06c-0.54-0.49-1.06-0.97-1.6-1.45
		c-0.53-0.48-1.07-0.97-1.6-1.45c-0.38,0.44-0.75,0.87-1.11,1.29c-0.72,0.84-1.41,1.65-2.08,2.43c-0.16,0.19-0.32,0.37-0.48,0.56
		C80.51,45.73,80.34,45.92,80.17,46.12z"/>
	<path class="st0" d="M73.13,28.12c-0.58-0.5-1.17-1-1.76-1.49c-0.33-0.27-0.66-0.4-0.98-0.4c-0.39,0-0.77,0.2-1.12,0.6
		c-1.1,1.28-2.19,2.56-3.28,3.84c-0.89,1.04-1.78,2.09-2.67,3.13c-0.55,0.65-0.49,1.44,0.17,2.01c0.59,0.51,1.18,1.02,1.78,1.52
		c0.23,0.2,0.46,0.39,0.69,0.59c0.45,0.38,0.96,0.48,1.41,0.3c0.22-0.08,0.42-0.22,0.6-0.43c1.27-1.47,2.53-2.95,3.79-4.42
		l1.09-1.27l1.19-1.39c0.29-0.34,0.32-0.69,0.31-0.87c-0.05-0.59-0.22-0.86-0.47-1.06L73.13,28.12z"/>
	<path class="st0" d="M65.13,41.02c-0.02-0.11-0.05-0.21-0.08-0.32c-0.09-0.31-0.22-0.62-0.38-0.92c-0.01-0.02-0.02-0.04-0.03-0.06
		c0,0,0,0,0,0c-0.05-0.09-0.11-0.18-0.17-0.27c-0.12-0.19-0.25-0.37-0.41-0.54c-0.04-0.04-0.08-0.08-0.12-0.13
		c-0.1-0.11-0.21-0.22-0.32-0.32c-0.11-0.1-0.21-0.2-0.33-0.29c-0.22-0.17-0.45-0.32-0.68-0.45c-0.23-0.13-0.46-0.23-0.69-0.32
		c-0.16-0.06-0.32-0.11-0.48-0.15c-0.07-0.02-0.13-0.04-0.2-0.05c0,0-0.01,0-0.01,0c-0.15-0.03-0.29-0.05-0.44-0.07
		c-0.08-0.01-0.16-0.01-0.24-0.02c-0.14-0.01-0.29-0.02-0.43-0.01c-0.21,0.01-0.41,0.03-0.62,0.07c-0.1,0.02-0.2,0.05-0.3,0.08
		c-0.14,0.04-0.28,0.08-0.42,0.13c-0.09,0.03-0.18,0.07-0.28,0.11c-0.15,0.07-0.3,0.14-0.45,0.23c-0.07,0.04-0.15,0.08-0.22,0.13
		c-0.22,0.14-0.43,0.29-0.64,0.47c0.26,0.22,0.52,0.45,0.79,0.67c0.19,0.16,0.39,0.33,0.58,0.49c0.34,0.29,0.68,0.58,1.02,0.87
		c0.55,0.47,1.1,0.94,1.65,1.41c1.09,0.93,2.17,1.86,3.26,2.78c0,0,0,0,0,0c0.14-0.23,0.25-0.47,0.36-0.71
		c0.03-0.08,0.06-0.16,0.09-0.23c0.06-0.17,0.12-0.34,0.16-0.52c0.02-0.09,0.05-0.17,0.06-0.26c0.05-0.23,0.08-0.46,0.09-0.69
		c0-0.11-0.01-0.21-0.01-0.32c0-0.13-0.01-0.27-0.03-0.4C65.18,41.28,65.16,41.15,65.13,41.02z"/>
	<path class="st0" d="M56.44,21.82c-0.67,0.79-1.34,1.56-1.99,2.33c1.09,0.94,2.19,1.89,3.26,2.82c0.67-0.78,1.35-1.57,2.03-2.36
		s1.34-1.56,2-2.33c-1.1-0.95-2.21-1.9-3.28-2.83C57.79,20.25,57.11,21.04,56.44,21.82z"/>
	<path class="st0" d="M58.97,28.04c0.55,0.48,1.09,0.96,1.63,1.43c0.1,0.09,0.19,0.17,0.28,0.25c0.12,0.1,0.23,0.2,0.34,0.3
		c0.32,0.28,0.64,0.56,0.95,0.83c0.24-0.28,0.48-0.56,0.71-0.83c1.13-1.32,2.26-2.64,3.36-3.93c-1.06-0.91-2.17-1.85-3.24-2.77
		C61.65,24.89,60.29,26.49,58.97,28.04z"/>
	<path class="st0" d="M71.05,38.42c1.01,0.89,2.02,1.78,3,2.65c0.07,0.06,0.14,0.12,0.2,0.18c0.04-0.04,0.07-0.08,0.11-0.13
		c1.34-1.58,2.68-3.14,4-4.69c-1.07-0.92-2.18-1.86-3.27-2.79C73.76,35.22,72.4,36.84,71.05,38.42z"/>
	<path class="st0" d="M80.67,38.36c-0.32-0.27-0.64-0.55-0.95-0.82c-0.7,0.81-1.4,1.62-2.09,2.41c-0.44,0.51-0.88,1.01-1.31,1.52
		c-0.24,0.28-0.48,0.56-0.72,0.83c0.61,0.52,1.22,1.04,1.83,1.55c0.47,0.4,0.93,0.79,1.38,1.17c0.61-0.71,1.24-1.43,1.86-2.15
		c0.75-0.86,1.49-1.72,2.24-2.58c-0.53-0.46-1.07-0.93-1.6-1.39C81.09,38.72,80.89,38.54,80.67,38.36z"/>
	<path class="st0" d="M79.3,78.63c-5.6,4.47-12.22,7.56-19.15,8.87c-1.72,0.35-3.48,0.55-5.23,0.67c-0.87,0.07-1.75,0.09-2.63,0.12
		c-0.88-0.01-1.75,0-2.63-0.06c-0.44-0.03-0.87-0.04-1.31-0.08l-1.3-0.14l-0.65-0.07l-0.65-0.09l-1.29-0.19
		c-1.71-0.32-3.41-0.67-5.06-1.2c-6.63-1.97-12.69-5.59-17.48-10.41l-0.9-0.9L20.2,74.2c-0.14-0.16-0.29-0.31-0.42-0.47l-0.4-0.49
		c-0.27-0.33-0.54-0.65-0.8-0.98c-0.49-0.68-1.03-1.34-1.48-2.06c-0.23-0.35-0.48-0.7-0.7-1.06l-0.66-1.08
		c-1.74-2.89-3.03-6.02-3.98-9.25c-0.2-0.81-0.45-1.62-0.6-2.45c-0.08-0.41-0.18-0.82-0.25-1.24l-0.19-1.25l-0.1-0.62l-0.06-0.63
		l-0.14-1.26l-0.08-1.26c-0.02-0.42-0.06-0.84-0.05-1.27c-0.05-1.69,0.06-3.39,0.23-5.08c0.16-1.69,0.47-3.37,0.88-5.03
		c1.6-6.64,4.97-12.97,9.81-18.22c1.19-1.33,2.51-2.56,3.87-3.74c1.37-1.18,2.83-2.28,4.36-3.3c3.06-2.04,6.4-3.73,9.96-5.08
		c-7.56,1.07-14.9,4.44-20.88,9.47c-6,5.02-10.58,11.77-13.04,19.27c-2.48,7.5-2.78,15.68-0.91,23.44c0.49,1.93,1.07,3.85,1.83,5.71
		c0.35,0.94,0.79,1.84,1.2,2.76c0.21,0.46,0.45,0.9,0.68,1.34c0.23,0.45,0.45,0.9,0.71,1.33l0.76,1.3c0.26,0.43,0.55,0.85,0.82,1.27
		c0.54,0.85,1.16,1.65,1.75,2.47c0.31,0.4,0.63,0.79,0.95,1.19l0.48,0.59c0.16,0.19,0.33,0.38,0.5,0.57l1.01,1.14l1.06,1.09
		l0.54,0.54l0.56,0.52l1.13,1.03l1.17,0.98l0.59,0.49l0.61,0.46c0.41,0.31,0.81,0.62,1.22,0.92l1.26,0.86
		c0.42,0.29,0.85,0.56,1.29,0.83c0.44,0.26,0.87,0.54,1.31,0.79c0.9,0.48,1.79,1,2.72,1.42c0.46,0.22,0.92,0.45,1.39,0.66l1.42,0.6
		c0.47,0.21,0.95,0.38,1.43,0.56c0.48,0.17,0.96,0.36,1.45,0.52c0.98,0.31,1.95,0.64,2.96,0.87c1.98,0.54,4.01,0.88,6.04,1.18
		l1.53,0.16l0.76,0.08l0.77,0.04L48,94.91c0.51,0.01,1.02,0,1.53,0.01c4.09,0.01,8.17-0.56,12.08-1.62
		c7.84-2.1,14.95-6.35,20.35-11.96c1.34-1.41,2.59-2.89,3.73-4.45c1.13-1.55,2.14-3.19,3.03-4.87c1.8-3.35,3.02-6.94,3.72-10.56
		c-1.52,3.39-3.37,6.57-5.59,9.45C84.65,73.79,82.1,76.38,79.3,78.63z"/>
	<path class="st0" d="M96.41,41.58c-0.05-0.5-0.09-1-0.15-1.49c-0.07-0.5-0.15-0.99-0.24-1.48c-0.07-0.5-0.18-0.99-0.29-1.48
		c-0.11-0.49-0.21-0.99-0.33-1.47c-0.28-0.97-0.54-1.95-0.89-2.9c-0.63-1.93-1.47-3.79-2.41-5.6c-0.49-0.9-0.98-1.8-1.54-2.65
		c-0.52-0.88-1.14-1.71-1.73-2.55c-1.24-1.64-2.56-3.23-4.04-4.68l-0.55-0.55l-0.57-0.53l-1.15-1.05c-0.81-0.65-1.59-1.34-2.44-1.94
		c-1.66-1.25-3.44-2.35-5.26-3.34c-3.68-1.95-7.63-3.4-11.7-4.18c-4.06-0.82-8.23-0.96-12.26-0.54c-2.02,0.22-4,0.6-5.93,1.14
		c-1.93,0.54-3.79,1.23-5.55,2.11c1.98-0.06,3.91-0.09,5.82-0.01c1.91,0.08,3.78,0.23,5.63,0.49c3.69,0.52,7.26,1.32,10.63,2.56
		c6.77,2.38,12.78,6.23,17.68,11.11c4.91,4.88,8.64,10.85,10.89,17.46c0.59,1.65,1.02,3.35,1.43,5.08c0.36,1.73,0.67,3.49,0.86,5.29
		c0.2,1.79,0.3,3.61,0.31,5.46c0.01,1.85-0.08,3.72-0.21,5.63c0.97-1.67,1.74-3.45,2.36-5.29c0.63-1.84,1.07-3.75,1.38-5.69
		c0.16-0.97,0.23-1.95,0.32-2.94c0.06-0.49,0.06-0.99,0.07-1.48c0.01-0.49,0.03-0.99,0.02-1.49C96.54,43.57,96.53,42.57,96.41,41.58
		z"/>
</g>
</svg>
