<?xml version="1.0" encoding="utf-8"?>
<!-- Generator: Adobe Illustrator 28.1.0, SVG Export Plug-In . SVG Version: 6.00 Build 0)  -->
<svg version="1.1" id="Livello_2" xmlns="http://www.w3.org/2000/svg" xmlns:xlink="http://www.w3.org/1999/xlink" x="0px" y="0px"
	 viewBox="0 0 90.66 90.66" style="enable-background:new 0 0 90.66 90.66;" xml:space="preserve">
<g>
	<path d="M32.96,5.35c5.07-1.69,10.42-2.53,15.82-2.38c2.69,0.07,5.4,0.38,8.07,0.96c2.67,0.58,5.3,1.42,7.83,2.54
		c5.05,2.24,9.71,5.6,13.42,9.87c3.72,4.25,6.5,9.37,8.1,14.8c0.79,2.72,1.31,5.52,1.53,8.33c0.22,2.81,0.16,5.63-0.17,8.41
		c-0.65,5.56-2.35,10.9-4.84,15.79c-2.5,4.89-5.85,9.3-9.88,12.99c-0.51,0.45-1.01,0.92-1.54,1.35c-0.54,0.42-1.06,0.87-1.61,1.27
		c-0.55,0.4-1.09,0.82-1.66,1.21c-0.57,0.37-1.13,0.77-1.72,1.12c-2.33,1.43-4.78,2.68-7.35,3.66c-5.13,1.95-10.69,2.95-16.26,2.69
		c-5.56-0.24-11.09-1.7-16.14-4.18c-2.52-1.24-4.94-2.73-7.18-4.46c-2.24-1.73-4.32-3.69-6.19-5.84c-3.76-4.29-6.6-9.41-8.35-14.87
		c-1.73-5.47-2.39-11.3-1.84-17c0.54-5.7,2.35-11.22,5.11-16.1c1.38-2.44,3.01-4.71,4.81-6.8c1.8-2.09,3.8-3.98,5.92-5.68
		C23.1,9.63,27.89,7.05,32.96,5.35z M33.11,5.82c-5,1.7-9.63,4.54-13.4,8.22c-3.79,3.68-6.71,8.17-8.7,12.95
		c-2,4.79-3.07,9.89-3.3,14.97c-0.11,2.54-0.01,5.09,0.34,7.6c0.36,2.51,0.92,4.98,1.73,7.38c1.59,4.8,4.07,9.27,7.26,13.15
		c3.2,3.88,7.16,7.12,11.59,9.5c4.44,2.37,9.34,3.85,14.36,4.4c0.63,0.05,1.26,0.13,1.89,0.16c0.63,0.02,1.26,0.07,1.9,0.06
		c0.63-0.01,1.27,0.01,1.9-0.02c0.63-0.04,1.27-0.05,1.9-0.11c2.54-0.21,5.07-0.68,7.54-1.39c4.94-1.44,9.65-3.89,13.63-7.3
		c4.01-3.38,7.29-7.66,9.55-12.44c2.27-4.78,3.45-10.05,3.57-15.27c0.06-2.62-0.14-5.22-0.58-7.77c-0.43-2.55-1.09-5.05-1.97-7.46
		c-3.46-9.66-10.21-17.89-19.06-23.15c-4.42-2.61-9.4-4.43-14.6-5.07C43.49,3.56,38.12,4.11,33.11,5.82z"/>
</g>
<g>
	<path d="M45.48,22.5c0.1,0.08,0.2,0.16,0.3,0.24c0.06,0.04,0.11,0.09,0.17,0.13c0.16,0.12,0.31,0.25,0.46,0.38l0.68,0.58l0.66,0.61
		c0.07,0.06,0.14,0.13,0.21,0.19l0.02,0.02l0.03,0c0.56,0,1.12,0.02,1.68,0.05l0,0l0.05,0l0.02-0.04l0.02-0.05l-0.04-0.03
		c-0.54-0.52-1.09-1.01-1.63-1.46c-1.44-1.2-2.77-2.14-4.06-2.87c-1.42-0.8-2.84-1.41-4.22-1.8l-0.01,0l-0.05,0l-0.02,0.03
		l-0.02,0.03l0.01,0.03c0.1,0.51,0.44,0.93,0.92,1.13c0.95,0.4,1.91,0.9,2.85,1.49C44.25,21.6,44.89,22.04,45.48,22.5z"/>
	<path d="M59.44,43.38l0.06,0.17c0.08,0.23,0.16,0.47,0.23,0.7c0.46,1.46,0.86,2.98,1.22,4.64c0.19,0.89,0.35,1.79,0.49,2.68l0,0.03
		l0.02,0.02c0.47,0.42,0.95,0.86,1.4,1.31l0.02,0.02h0.03l0.03,0l0.04-0.05l0-0.03c-0.13-1.39-0.33-2.83-0.61-4.27
		c-0.29-1.52-0.69-3.09-1.21-4.8c-0.09-0.3-0.19-0.6-0.31-0.95l-0.02-0.04l-0.07,0l-0.02,0.01c-0.36,0.25-0.75,0.43-1.18,0.54
		L59.44,43.38z"/>
	<path d="M54.72,30.48c-0.2-0.29-0.42-0.59-0.64-0.9l-0.02-0.03h-0.04l-0.06,0l-0.01,0.06c-0.11,0.59-0.23,1.18-0.36,1.75
		l-0.01,0.03l0.02,0.03c0.89,1.34,1.7,2.68,2.4,3.99c0.22,0.4,0.44,0.83,0.7,1.36l0.02,0.04h0.04l0.02,0l0.02-0.01
		c0.31-0.19,0.65-0.33,1.01-0.42c0.08-0.02,0.17-0.04,0.24-0.05l0.04-0.01l0.03-0.07l-0.02-0.03
		C57.09,34.19,55.95,32.26,54.72,30.48z"/>
	<path d="M42.68,15.26c2.59,0,5.2,0.63,7.56,1.81c1.22,0.6,2.42,1.35,3.57,2.23c1.12,0.86,2.18,1.8,3.15,2.8
		c0.67,0.69,1.34,1.45,1.98,2.23l0.05,0.06l0.06-0.05c0.01-0.01,0.02-0.02,0.03-0.03c0.01-0.01,0.03-0.03,0.05-0.04
		c0.26-0.2,0.56-0.33,0.9-0.4l0.04-0.01l0.02-0.08l-0.02-0.03c-0.74-0.87-1.51-1.7-2.31-2.46c-1.15-1.1-2.26-2.01-3.38-2.78
		c-1.26-0.87-2.54-1.59-3.82-2.13c-0.22-0.09-0.44-0.18-0.66-0.26c-0.12-0.05-0.24-0.09-0.36-0.14c-0.11-0.04-0.23-0.07-0.34-0.11
		c-0.23-0.08-0.46-0.15-0.7-0.22c-0.62-0.17-1.36-0.36-2.13-0.47l-0.54-0.08l-0.54-0.05c-0.3-0.03-0.61-0.04-0.91-0.05l-0.28-0.01
		c-0.05,0-0.1,0-0.16,0h-0.02l-0.81,0.03c-0.25,0.01-0.5,0.04-0.74,0.07c-0.11,0.01-0.22,0.02-0.34,0.04l0.01,0.14
		C42.25,15.26,42.47,15.26,42.68,15.26z"/>
	<path d="M75.02,47.69l-0.01-0.4c0-0.09-0.01-0.17-0.01-0.26l-0.06-0.93c-0.33-4.06-1.36-8.18-3.07-12.23
		c-1.72-4.05-3.95-7.66-6.63-10.73c-1.49-1.68-3.06-3.12-4.66-4.27c-0.88-0.63-1.79-1.18-2.7-1.65c-0.49-0.25-0.98-0.47-1.44-0.65
		c-0.5-0.19-1.01-0.36-1.5-0.49l-0.04,0.14c1.83,0.62,3.65,1.64,5.42,3.02c0.34,0.26,0.68,0.55,1,0.82l0.2,0.17
		c0.13,0.11,0.25,0.22,0.37,0.33c0.07,0.06,0.14,0.13,0.2,0.19c0.18,0.17,0.38,0.35,0.56,0.53l0.55,0.55l0.53,0.57l0.26,0.28
		c0,0,0.38,0.43,0.44,0.5c0.11,0.12,0.22,0.25,0.33,0.37c1.39,1.68,2.6,3.39,3.59,5.07l0.4,0.67l0.57,1.02l0.54,1.03
		c0.38,0.77,0.87,1.79,1.3,2.83c0.36,0.82,0.71,1.75,1.12,2.9c0.05,0.15,0.1,0.3,0.15,0.45c0.11,0.34,0.23,0.68,0.33,1.03l0.22,0.74
		l0.2,0.75c0.52,1.9,0.89,3.89,1.13,6.11c0.21,2.29,0.21,4.32-0.01,6.21c-0.22,2.18-0.75,4.19-1.6,5.99l0.13,0.07
		c0.25-0.45,0.48-0.93,0.69-1.42c0.19-0.47,0.37-0.97,0.54-1.49c0.31-1.01,0.54-2.04,0.69-3.09c0.18-1.14,0.24-2.28,0.27-3.16
		l0.01-0.79c0-0.17,0-0.34-0.01-0.51C75.03,47.87,75.02,47.78,75.02,47.69z"/>
	<path d="M59.28,69.73c0.04-0.05,0.08-0.1,0.12-0.15l0.38-0.5l0.34-0.53c0.03-0.05,0.07-0.11,0.1-0.16
		c0.08-0.12,0.16-0.24,0.22-0.37c0.76-1.35,1.38-2.91,1.84-4.63c0.4-1.5,0.65-3.11,0.79-4.91c0.01-0.14,0.02-0.28,0.02-0.42
		c0.02-0.27,0.03-0.54,0.04-0.82l0.01-0.58l0-0.07l-0.1,0l-0.02,0.02c-0.36,0.36-0.74,0.72-1.13,1.08l-0.02,0.02l0,0.03
		c0,0.22-0.01,0.45-0.02,0.67c-0.01,0.25-0.03,0.51-0.04,0.77c-0.01,0.14-0.02,0.29-0.03,0.43c-0.02,0.25-0.05,0.51-0.07,0.76
		c-0.02,0.14-0.03,0.28-0.05,0.43c-0.13,0.95-0.25,1.68-0.4,2.35c-0.35,1.64-0.87,3.15-1.54,4.49c-0.41,0.85-0.93,1.66-1.54,2.4
		c-0.21,0.25-0.25,0.6-0.11,0.91l0.02,0.04h0.05l0.03,0l0.02-0.02c0.23-0.21,0.44-0.44,0.63-0.67c0.07-0.07,0.13-0.15,0.19-0.22
		C59.1,69.96,59.19,69.84,59.28,69.73z"/>
	<path d="M73.29,53.2c0.01-0.1,0.02-0.21,0.03-0.31l0.03-0.48c0-0.09,0.01-0.18,0.01-0.27c0.01-0.23,0.03-0.46,0.03-0.69l0.01-0.96
		l-0.02-0.96c-0.01-0.34-0.03-0.7-0.06-1.13l-0.01-0.06l-0.08,0l-0.02,0.01c-0.12,0.07-0.24,0.11-0.36,0.13
		c-0.05,0.01-0.11,0.01-0.16,0.01c-0.06,0-0.12-0.01-0.19-0.02l-0.09-0.02l0.02,0.18c0.01,0.1,0.02,0.21,0.03,0.31
		c0.02,0.2,0.04,0.41,0.04,0.62c0.08,1.11,0.08,2.29,0.02,3.73c-0.06,1.26-0.21,2.5-0.46,3.7c-0.24,1.24-0.6,2.44-1.06,3.57
		c-0.24,0.59-0.52,1.15-0.82,1.68c-0.31,0.56-0.66,1.08-1.04,1.56l0.11,0.09c0.41-0.45,0.81-0.96,1.17-1.5
		c0.33-0.51,0.65-1.07,0.95-1.66c0.52-1.08,0.95-2.29,1.29-3.6c0.3-1.19,0.51-2.46,0.62-3.78C73.28,53.31,73.29,53.26,73.29,53.2z"
		/>
	<path d="M66.77,60.49c0.17-0.82,0.28-1.65,0.36-2.35c0.03-0.26,0.05-0.52,0.07-0.77c0.01-0.14,0.02-0.27,0.03-0.41l0.01-0.23
		c0.02-0.32,0.03-0.64,0.04-0.96c0-0.14,0-0.28,0.01-0.41c0.01-0.25,0.01-0.51,0.01-0.77c0-0.14,0-0.28-0.01-0.41
		c0-0.25,0-0.51-0.02-0.77l-0.01-0.12c-0.02-0.35-0.03-0.71-0.06-1.06l-0.01-0.14c-0.03-0.34-0.05-0.69-0.09-1.04
		c-0.16-1.52-0.4-3.1-0.73-4.67c-0.63-2.99-1.57-6.03-2.8-9.01c-0.61-1.46-1.28-2.9-2-4.28c-0.79-1.49-1.57-2.82-2.39-4.08
		c-0.89-1.35-1.83-2.63-2.81-3.81c-0.49-0.6-1.02-1.2-1.56-1.78c-0.18-0.19-0.36-0.37-0.54-0.55c-0.1-0.1-0.19-0.2-0.29-0.3
		c-0.28-0.28-0.57-0.55-0.86-0.82c-1.28-1.16-2.51-2.11-3.76-2.9c-1.39-0.88-2.83-1.57-4.29-2.06c-1.52-0.51-3.1-0.77-4.68-0.78
		c-0.36,0-0.73,0.02-1.11,0.05l-0.04,0l-0.04,0.06l0.01,0.03c0.06,0.21,0.24,0.35,0.45,0.36c0.05,0,0.09,0,0.14,0
		c0.07,0,0.14,0,0.21,0.01c0.12,0,0.24,0.01,0.36,0.02c1.57,0.12,3.06,0.47,4.42,1.03c1.39,0.54,2.73,1.27,3.99,2.16
		c1.23,0.86,2.41,1.84,3.5,2.92c2.09,2.08,4,4.48,5.68,7.16c0.83,1.32,1.6,2.66,2.28,3.98c0.7,1.35,1.34,2.75,1.93,4.17
		c0.58,1.39,1.11,2.84,1.58,4.31c0.45,1.39,0.86,2.88,1.22,4.43c0.71,3.06,1.08,6.11,1.11,9.08c0.01,1.49-0.09,3.02-0.32,4.55
		c-0.24,1.6-0.62,3.08-1.14,4.4l-0.21,0.53l-0.35,0.78l-0.13,0.25c-0.03,0.06-0.06,0.12-0.09,0.18c-0.05,0.11-0.11,0.22-0.17,0.32
		c-0.34,0.63-0.76,1.25-1.26,1.89c-0.93,1.17-2.14,2.18-3.5,2.92l0.06,0.13c0.41-0.18,0.75-0.34,1.06-0.51
		c0.35-0.2,0.69-0.41,1-0.62c0.62-0.43,1.22-0.96,1.78-1.57c1-1.07,1.84-2.37,2.57-3.99C65.96,63.68,66.42,62.19,66.77,60.49z"/>
	<path d="M70.5,57.11c0.19-1.34,0.29-2.76,0.29-4.36l0-0.15c0-0.31,0-0.63-0.02-0.94l0-0.06c-0.01-0.34-0.02-0.69-0.05-1.03
		c-0.03-0.44-0.05-0.77-0.08-1.09l0-0.04c-0.03-0.34-0.06-0.7-0.11-1.04c-0.17-1.41-0.4-2.85-0.71-4.3
		c-0.6-2.78-1.47-5.57-2.58-8.31c-1.05-2.54-2.27-4.94-3.61-7.12l-0.02-0.04l-0.08,0l-0.02,0.04c-0.15,0.25-0.33,0.46-0.56,0.63
		c-0.09,0.06-0.18,0.12-0.31,0.19l-0.06,0.04l0.04,0.06c1.27,2.14,2.39,4.41,3.33,6.73c1.07,2.59,1.94,5.3,2.58,8.07
		c0.33,1.4,0.59,2.8,0.78,4.16c0.05,0.33,0.09,0.67,0.13,1l0.01,0.05c0.03,0.27,0.06,0.55,0.08,0.82l0.02,0.23
		c0.03,0.32,0.06,0.65,0.08,0.97l0.01,0.08c0.02,0.3,0.04,0.61,0.05,0.91l0.01,0.15c0.05,1.4,0.01,2.82-0.12,4.22
		c-0.13,1.42-0.39,2.82-0.77,4.14c-0.2,0.75-0.47,1.46-0.68,1.99c-0.04,0.1-0.09,0.21-0.14,0.31c-0.03,0.06-0.05,0.11-0.08,0.17
		c-0.02,0.05-0.05,0.11-0.07,0.16c-0.05,0.1-0.09,0.21-0.15,0.32c-0.05,0.09-0.09,0.17-0.14,0.26c-0.11,0.22-0.23,0.45-0.37,0.67
		c-0.03,0.05-0.06,0.11-0.1,0.16c-0.06,0.1-0.11,0.2-0.17,0.29l-0.3,0.44c-0.17,0.26-0.37,0.53-0.63,0.85
		c-0.41,0.51-0.9,0.99-1.47,1.49l-0.04,0.04l0.02,0.05l0.02,0.05h0.05l0.02,0l0.02-0.01c0.58-0.41,1.13-0.87,1.63-1.38
		c0.28-0.29,0.51-0.56,0.72-0.82l0.34-0.43c0.07-0.09,0.14-0.19,0.21-0.29c0.04-0.05,0.07-0.1,0.11-0.16
		c0.77-1.11,1.41-2.39,1.94-3.91C69.95,60.03,70.29,58.6,70.5,57.11z"/>
	<path d="M52.13,15.93c0.2,0.08,0.4,0.17,0.59,0.25c0.09,0.04,0.18,0.08,0.26,0.11c0.08,0.04,0.16,0.08,0.24,0.12
		c0.2,0.09,0.4,0.19,0.59,0.3c0.48,0.25,0.99,0.55,1.61,0.94c1.07,0.7,2.07,1.46,2.97,2.26c1.01,0.9,1.89,1.75,2.67,2.61
		c0.14,0.15,0.27,0.3,0.4,0.45c0.07,0.08,0.14,0.17,0.22,0.25l0.3,0.35l0.29,0.36c0.08,0.1,0.15,0.19,0.23,0.28
		c0.12,0.14,0.24,0.29,0.35,0.44l0.57,0.74c0.82,1.11,1.51,2.13,2.1,3.09c1.33,2.16,2.49,4.39,3.42,6.64
		c0.18,0.42,0.35,0.85,0.52,1.27c0.06,0.15,0.12,0.31,0.18,0.46l0.32,0.88l0.16,0.44l0.15,0.45c0.44,1.28,0.79,2.59,1.05,3.59
		l0.18,0.72L71.52,43h0.06l0.02,0l0.02-0.01c0.13-0.07,0.26-0.12,0.38-0.14c0.05-0.01,0.1-0.01,0.15-0.01
		c0.09,0,0.19,0.01,0.28,0.04l0.01,0l0.05,0l0.04-0.06l-0.01-0.03c-0.06-0.27-0.12-0.55-0.18-0.82c-0.3-1.27-0.65-2.51-1.04-3.68
		l-0.15-0.46l-0.16-0.45l-0.32-0.9c-0.06-0.15-0.12-0.31-0.18-0.46c-0.17-0.43-0.34-0.88-0.53-1.31c-0.46-1.1-1-2.23-1.63-3.46
		l-0.45-0.84l-0.47-0.83c-0.12-0.22-0.26-0.44-0.39-0.66l-0.1-0.17c-0.05-0.08-0.1-0.16-0.15-0.24c-0.11-0.19-0.23-0.39-0.36-0.57
		c-0.62-0.98-1.34-2-2.2-3.13c-0.74-0.96-1.58-1.93-2.5-2.9c-1.92-1.98-3.92-3.59-5.96-4.78c-0.65-0.37-1.19-0.65-1.7-0.88
		c-0.21-0.1-0.42-0.19-0.63-0.28c-0.08-0.03-0.17-0.07-0.25-0.11l-0.15-0.06c-0.24-0.09-0.49-0.19-0.75-0.27
		c-1.23-0.42-2.49-0.65-3.75-0.69L48.51,15c0.6,0.07,1.22,0.18,1.84,0.35C50.93,15.48,51.53,15.68,52.13,15.93z"/>
	<path d="M75.85,41.61c-0.2-1.29-0.49-2.62-0.89-4.06c-0.36-1.29-0.82-2.61-1.35-3.93c-0.54-1.3-1.14-2.57-1.78-3.75
		c-0.72-1.31-1.44-2.46-2.21-3.52c-0.81-1.14-1.69-2.22-2.63-3.21c-1.06-1.11-2.06-2.02-3.07-2.79l-0.09,0.11
		c1.09,0.98,2.03,1.93,2.88,2.93c0.86,0.99,1.7,2.09,2.49,3.25c0.79,1.18,1.5,2.36,2.11,3.51c0.65,1.21,1.23,2.46,1.73,3.71
		c0.51,1.23,0.96,2.53,1.35,3.86c0.37,1.25,0.69,2.59,0.95,3.98c0.25,1.39,0.42,2.76,0.5,4.07c0.09,1.3,0.08,2.68-0.03,4.1
		l0.14,0.02C76.34,47.28,76.31,44.5,75.85,41.61z"/>
	<path d="M50.79,43.45c-0.32-0.79-0.68-1.59-1.04-2.36l-0.02-0.04l-0.09,0l-0.02,0.03c-0.32,0.53-0.66,1.05-1,1.56l-0.03,0.04
		l0.02,0.04c0.22,0.48,0.41,0.94,0.59,1.38c0.09,0.22,0.18,0.44,0.26,0.66l0.01,0.04l0.04,0.01c0.65,0.21,1.3,0.44,1.93,0.69
		l0.01,0.01h0.02l0.04,0l0.04-0.06l-0.01-0.03C51.3,44.73,51.05,44.08,50.79,43.45z"/>
	<path d="M52.43,35.56l-0.02-0.03l-0.09,0l-0.02,0.05c-0.24,0.63-0.49,1.24-0.75,1.84l-0.01,0.03l0.01,0.03
		c0.73,1.37,1.41,2.77,2,4.19c0.63,1.47,1.19,3.01,1.67,4.57c0.12,0.39,0.24,0.79,0.36,1.2l0.01,0.03l0.02,0.01
		c0.63,0.35,1.26,0.73,1.87,1.13l0.02,0.01h0.02l0.04,0l0.04-0.06l-0.01-0.03c-0.58-2.5-1.41-5.04-2.46-7.53
		c-0.66-1.55-1.4-3.08-2.2-4.54C52.79,36.18,52.62,35.89,52.43,35.56z"/>
	<path d="M60.73,25.48c-0.75,0.19-1.21,0.95-1.02,1.7c0.19,0.75,0.95,1.21,1.7,1.02c0.75-0.19,1.21-0.95,1.02-1.7
		C62.25,25.75,61.48,25.29,60.73,25.48z"/>
	<path d="M58.25,38.11c-0.97,0.24-1.55,1.22-1.31,2.19c0.24,0.97,1.22,1.55,2.19,1.31c0.97-0.24,1.55-1.22,1.31-2.19
		C60.19,38.45,59.21,37.87,58.25,38.11z"/>
	<path d="M72.15,44.31c-0.66,0.17-1.06,0.84-0.89,1.5c0.17,0.66,0.84,1.06,1.5,0.89c0.66-0.17,1.06-0.84,0.89-1.5
		C73.48,44.55,72.81,44.15,72.15,44.31z"/>
	<path d="M58.54,63.26c-0.33-1.33-1.68-2.14-3.01-1.8c-1.33,0.33-2.14,1.68-1.8,3.01c0.33,1.33,1.68,2.14,3.01,1.8
		C58.07,65.94,58.88,64.59,58.54,63.26z"/>
	<path d="M40.03,23.78c-0.12,0.83,0.46,1.61,1.29,1.73c0.83,0.12,1.61-0.46,1.73-1.29c0.12-0.83-0.46-1.61-1.29-1.73
		C40.93,22.37,40.15,22.94,40.03,23.78z"/>
	<path d="M49.79,62.49c4.42-1.59,8.36-4.1,11.71-7.46l0.2-0.2l-0.2-0.2c-4.95-4.94-11.19-8.05-18.08-9.01
		c4.83-5.01,7.83-11.3,8.68-18.25l0.03-0.29l-0.29-0.03c-1.29-0.16-2.61-0.24-3.9-0.24c-3.38,0-6.71,0.53-9.91,1.59
		c0.51-4.67-0.02-9.31-1.57-13.8l-0.09-0.27l-0.27,0.09c-16.61,5.73-25.47,23.91-19.73,40.53c4.43,12.85,16.54,21.49,30.13,21.49
		c3.53,0,7.03-0.59,10.39-1.75l0.27-0.09l-0.09-0.27C55.51,69.84,53.07,65.86,49.79,62.49z M23.12,62.36
		c-0.89-1.17-1.69-2.41-2.4-3.7c5.35,3.75,11.63,5.72,18.23,5.72c2.75,0,5.48-0.35,8.13-1.05c1.17,1.1,2.25,2.3,3.23,3.58
		c1.42,1.87,2.62,3.91,3.56,6.07c-2.41,0.63-4.89,0.95-7.37,0.95c-3.01,0-6-0.47-8.89-1.38c-2.86-0.91-5.54-2.24-7.99-3.96
		C27.13,66.86,24.94,64.76,23.12,62.36z M45.3,61.2c-2.07,0.46-4.2,0.69-6.35,0.69c-3.81,0-7.53-0.72-11.05-2.15
		c-2.6-1.05-5.02-2.47-7.2-4.2c-0.26-0.21-0.53-0.43-0.81-0.67c0,0-0.01-0.01-0.01-0.01c0.36-0.31,0.73-0.61,1.11-0.9
		c0.25-0.2,0.51-0.39,0.76-0.57c1.9-1.38,3.97-2.53,6.16-3.42c3.17-1.28,6.51-2,9.92-2.13c0.36-0.01,0.75-0.02,1.14-0.02h0
		c0.64,0,1.28,0.02,1.9,0.06c3.15,0.2,6.22,0.9,9.14,2.09c2.92,1.18,5.62,2.82,8.02,4.88c-2.4,2.06-5.1,3.71-8.03,4.89
		c-0.79,0.32-1.62,0.61-2.44,0.87C46.82,60.83,46.05,61.03,45.3,61.2z M46.35,37.38c-1.6,2.99-3.7,5.67-6.24,7.95
		c-0.37-0.01-0.75-0.02-1.14-0.02c-3.54,0-7.03,0.58-10.37,1.73c-3.35,1.15-6.45,2.83-9.24,5.01c0.02-0.08,0.04-0.15,0.05-0.23
		c0.58-2.44,1.48-4.79,2.66-7c1.66-3.09,3.84-5.85,6.49-8.17c2.03-1.78,4.29-3.28,6.71-4.44c0.7-0.34,1.43-0.65,2.15-0.93
		c3.36-1.3,6.9-1.95,10.5-1.95h0c0.43,0,0.87,0.01,1.3,0.03C48.68,32.16,47.71,34.86,46.35,37.38z M26.85,22.7
		c2.35-2.11,5-3.82,7.9-5.07c0.8,3.06,1.09,6.2,0.88,9.35c-0.06,0.81-0.15,1.63-0.27,2.43c-4.34,1.87-8.27,4.74-11.39,8.3
		c-2.95,3.36-5.17,7.37-6.48,11.64c-0.37-2.23-0.48-4.5-0.33-6.77c0.26-3.79,1.24-7.45,2.91-10.88
		C21.75,28.27,24.03,25.24,26.85,22.7z"/>
</g>
</svg>
