<?xml version="1.0" encoding="utf-8"?>
<!-- Generator: Adobe Illustrator 28.1.0, SVG Export Plug-In . SVG Version: 6.00 Build 0)  -->
<svg version="1.1" xmlns="http://www.w3.org/2000/svg" xmlns:xlink="http://www.w3.org/1999/xlink" x="0px" y="0px"
	 viewBox="0 0 283.37 101" style="enable-background:new 0 0 283.37 101;" xml:space="preserve">
<style type="text/css">
	.st0{fill:#FFFFFF;}
</style>
<g id="Livello_2">
	<g>
		<path class="st0" d="M143.01,59.12l1.14,1.02c-2.61,2.38-5.68,3.56-9.21,3.56c-3.79,0-7.02-1.33-9.69-4.01
			c-2.67-2.67-4-5.9-4-9.69c0-3.78,1.33-7.01,4-9.68s5.9-4.01,9.69-4.01c3.53,0,6.61,1.19,9.21,3.56l-1.14,1.04
			c-2.3-2.04-4.99-3.06-8.08-3.06c-3.36,0-6.22,1.19-8.6,3.56s-3.56,5.24-3.56,8.6c0,3.37,1.19,6.24,3.56,8.61
			c2.38,2.37,5.24,3.56,8.6,3.56C138.02,62.19,140.71,61.17,143.01,59.12z"/>
		<path class="st0" d="M171.34,40.27c2.68,2.68,4.02,5.92,4.02,9.71c0,3.79-1.34,7.03-4.02,9.71s-5.92,4.02-9.71,4.02
			s-7.03-1.34-9.71-4.02s-4.02-5.92-4.02-9.71c0-3.79,1.34-7.03,4.02-9.71s5.92-4.02,9.71-4.02S168.66,37.59,171.34,40.27z
			 M161.64,37.79c-3.37,0-6.24,1.19-8.62,3.57c-2.38,2.38-3.57,5.25-3.57,8.62s1.19,6.24,3.57,8.63c2.38,2.39,5.25,3.58,8.62,3.58
			s6.24-1.19,8.62-3.58c2.38-2.38,3.57-5.26,3.57-8.63s-1.19-6.24-3.57-8.62C167.88,38.98,165,37.79,161.64,37.79z"/>
		<path class="st0" d="M179.97,63.39V36.63h1.5v25.25h10.37v1.5H179.97z"/>
		<path class="st0" d="M195.85,63.39V36.63h1.5v25.25h10.37v1.5H195.85z"/>
		<path class="st0" d="M225.12,36.63v1.5h-11.87v11.12h11.87v1.5h-11.87v11.12h11.87v1.5h-13.38V36.63H225.12z"/>
		<path class="st0" d="M251.07,59.12l1.14,1.02c-2.61,2.38-5.68,3.56-9.21,3.56c-3.79,0-7.02-1.33-9.69-4.01
			c-2.67-2.67-4-5.9-4-9.69c0-3.78,1.33-7.01,4-9.68s5.9-4.01,9.69-4.01c3.53,0,6.61,1.19,9.21,3.56l-1.14,1.04
			c-2.3-2.04-4.99-3.06-8.08-3.06c-3.36,0-6.22,1.19-8.6,3.56s-3.56,5.24-3.56,8.6c0,3.37,1.19,6.24,3.56,8.61
			c2.38,2.37,5.24,3.56,8.6,3.56C246.09,62.19,248.78,61.17,251.07,59.12z"/>
		<path class="st0" d="M263,38.14v25.25h-1.5V38.14h-6.77v-1.5h15.05v1.5H263z"/>
	</g>
</g>
<g id="Livello_3">
	<g>
		<path class="st0" d="M44.46,36.49l0.39,0.21c0.59,0.32,1.51,0.29,2.05-0.06l0.35-0.23c0.54-0.35,0.5-0.89-0.1-1.21l-0.38-0.21
			c-0.59-0.32-1.51-0.29-2.05,0.06l-0.35,0.23C43.83,35.62,43.87,36.17,44.46,36.49z"/>
		<path class="st0" d="M62.19,48.16l-8.38-4.5l-0.83-0.45l-6.34-3.41l-0.25-0.13c-0.32-0.17-0.72-0.23-1.11-0.21
			c-0.35,0.02-0.68,0.11-0.94,0.27l-0.1,0.07c-0.25,0.16-0.36,0.36-0.37,0.56c-0.01,0.24,0.15,0.48,0.47,0.65l0.27,0.15l6.28,3.38
			l0.89,0.48l8.34,4.49c0.59,0.32,1.51,0.29,2.05-0.06l0.11-0.07C62.83,49.02,62.78,48.48,62.19,48.16z"/>
		<path class="st0" d="M40.48,39.07l0.38,0.21c0.59,0.32,1.51,0.3,2.05-0.06L43.27,39c0.54-0.35,0.5-0.89-0.1-1.21l-0.38-0.21
			c-0.59-0.32-1.51-0.29-2.05,0.06l-0.35,0.23C39.84,38.21,39.89,38.76,40.48,39.07z"/>
		<path class="st0" d="M58.21,50.75l-8.31-4.47l-0.95-0.51l-6.23-3.35l-0.3-0.16c-0.35-0.19-0.81-0.24-1.24-0.19
			c-0.3,0.03-0.59,0.11-0.82,0.25l-0.1,0.07c-0.22,0.14-0.34,0.32-0.37,0.5c-0.04,0.26,0.11,0.53,0.46,0.71l0.32,0.17l6.18,3.32
			l1,0.54l8.29,4.46c0.59,0.32,1.51,0.29,2.05-0.06l0.1-0.07C58.84,51.61,58.8,51.06,58.21,50.75z"/>
		<path class="st0" d="M39.19,40.37l-0.39-0.21c-0.59-0.32-1.51-0.29-2.05,0.06l-0.35,0.23c-0.54,0.35-0.5,0.89,0.1,1.21l0.38,0.21
			c0.59,0.32,1.51,0.29,2.05-0.06l0.35-0.23C39.82,41.23,39.78,40.69,39.19,40.37z"/>
		<path class="st0" d="M98.43,41.04c-0.41-2.66-1.06-5.46-2.16-8.2c-0.48-1.4-1.23-2.71-1.92-4.06c-0.64-1.38-1.61-2.59-2.45-3.88
			c-1.77-2.52-3.84-4.86-6.05-7.04c-0.52-0.58-1.12-1.06-1.71-1.57l-1.76-1.5c-1.19-0.98-2.5-1.79-3.72-2.67
			c-1.27-0.82-2.61-1.51-3.9-2.24c-1.33-0.65-2.69-1.19-4-1.77c-1.34-0.51-2.7-0.89-4-1.33c-1.31-0.41-2.65-0.61-3.92-0.89
			c-0.32-0.07-0.64-0.13-0.95-0.2c-0.32-0.06-0.65-0.08-0.96-0.11c-0.64-0.07-1.27-0.13-1.88-0.2c-0.61-0.06-1.22-0.12-1.81-0.18
			c-0.57,0-1.14,0-1.69,0c-0.55,0-1.09,0-1.62,0c-0.26,0-0.53,0-0.78,0l-0.38,0c-0.22,0.01-0.29,0.02-0.43,0.03
			c-1.02,0.09-1.99,0.15-2.9,0.25c-0.9,0.14-1.74,0.26-2.52,0.38C46.12,6,45.41,6.19,44.77,6.33c-1.29,0.26-2.23,0.61-2.89,0.8
			c-0.62,0.19-0.95,0.29-1,0.3c-0.07-0.03-0.14-0.04-0.21-0.03c0,0-0.71,0.12-2.04,0.34c-0.67,0.12-1.51,0.23-2.45,0.53
			c-0.94,0.28-2.08,0.51-3.26,0.98c-0.6,0.23-1.23,0.48-1.89,0.73c-0.67,0.24-1.35,0.55-2.04,0.9c-0.7,0.35-1.42,0.72-2.17,1.1
			c-0.72,0.44-1.47,0.89-2.24,1.36c-0.8,0.45-1.54,1.02-2.31,1.6c-0.77,0.58-1.59,1.16-2.34,1.86c-0.76,0.69-1.59,1.35-2.34,2.13
			c-0.75,0.78-1.51,1.59-2.27,2.43c-0.71,0.89-1.43,1.8-2.17,2.73c-0.68,0.97-1.34,1.98-2.03,3.01c-0.63,1.06-1.2,2.18-1.82,3.3
			c-0.57,1.14-1.05,2.35-1.58,3.56c-0.47,1.23-0.87,2.51-1.3,3.8c-0.35,1.31-0.64,2.66-0.96,4.01c-0.22,1.42-0.45,2.91-0.58,4.34
			c-0.03,0.65-0.06,1.3-0.09,1.95l-0.05,0.98L4.7,49.56l-0.01,0.12c-0.01,0.37,0,0.14,0,0.24l0,0.07l0.01,0.27
			c0.04,5.78,1.38,11.74,3.83,17.25c2.45,5.51,5.93,10.62,10.26,14.85c4.29,4.26,9.39,7.66,14.84,9.94
			c2.73,1.12,5.52,2.02,8.35,2.58c1.37,0.38,2.89,0.46,4.32,0.66c0.71,0.07,1.47,0.22,2.12,0.21c0.66,0.01,1.33,0.03,1.99,0.04
			C56,95.92,61.34,95,66.12,93.34c4.78-1.66,8.97-4.03,12.44-6.67c3.48-2.64,6.24-5.55,8.41-8.32c0.52-0.71,1.02-1.4,1.5-2.06
			c0.49-0.66,0.86-1.36,1.27-2c0.83-1.27,1.42-2.54,1.99-3.65c0.14-0.28,0.28-0.55,0.41-0.82c0.11-0.28,0.22-0.54,0.33-0.8
			c0.21-0.52,0.41-1,0.6-1.46c0.4-0.9,0.62-1.68,0.82-2.31c0.4-1.26,0.62-1.93,0.62-1.93c0-0.01,0-0.02,0-0.02
			c0.03-0.02,0.05-0.05,0.07-0.08c0,0,0.17-0.33,0.5-0.96c0.17-0.31,0.36-0.71,0.58-1.17c0.22-0.47,0.5-1,0.71-1.63
			c0.23-0.63,0.48-1.33,0.75-2.08c0.28-0.76,0.44-1.64,0.69-2.57c0.12-0.47,0.23-0.95,0.34-1.45c0.07-0.47,0.15-0.96,0.22-1.46
			c0.07-0.5,0.15-1.01,0.23-1.54l0.06-0.4l0.02-0.51c0.01-0.28,0.02-0.57,0.03-0.86c0.05-1.16,0.08-2.38,0.08-3.65
			C98.68,43.69,98.58,42.38,98.43,41.04z M94.27,59c-0.02,1.28-0.18,2.27-0.2,2.97c-0.02,0.4-0.04,0.68-0.05,0.86
			c-0.11,0.03-0.21,0.11-0.26,0.23c0,0-0.27,0.65-0.77,1.88c-0.25,0.61-0.54,1.38-0.99,2.2c-0.21,0.42-0.44,0.87-0.68,1.35
			c-0.12,0.24-0.25,0.49-0.38,0.74c-0.15,0.25-0.3,0.5-0.46,0.76c-0.64,1.03-1.3,2.2-2.19,3.36c-0.44,0.58-0.83,1.23-1.35,1.83
			c-0.5,0.6-1.03,1.22-1.57,1.87c-2.25,2.49-5.05,5.06-8.47,7.31c-3.41,2.25-7.44,4.17-11.92,5.39c-4.46,1.21-9.38,1.78-14.34,1.36
			c-0.66-0.05-1.32-0.11-1.98-0.16c-0.34-0.02-0.66-0.06-0.95-0.13l-0.91-0.17c-1.21-0.26-2.41-0.37-3.65-0.79
			c-2.47-0.65-4.9-1.55-7.25-2.65c-4.69-2.23-8.99-5.41-12.51-9.27c-3.49-3.88-6.23-8.41-7.91-13.2c-1.67-4.79-2.48-9.73-2.45-14.52
			l-0.01-0.22l0-0.06c0,0.02,0,0.01,0-0.01l0,0l0,0.12c0-0.24,0-0.16,0.01-0.13l0.02-0.49l0.04-0.98c0.03-0.65,0.05-1.31,0.07-1.95
			c0.14-1.15,0.26-2.21,0.36-3.31c0.22-1.13,0.41-2.26,0.64-3.36c0.31-1.08,0.54-2.18,0.87-3.23c0.38-1.03,0.7-2.08,1.09-3.08
			c0.44-0.98,0.83-1.97,1.28-2.92c0.48-0.93,0.96-1.85,1.42-2.75c0.54-0.87,1.06-1.72,1.58-2.55c0.58-0.8,1.14-1.58,1.69-2.34
			c0.55-0.77,1.18-1.45,1.75-2.16c0.56-0.72,1.2-1.33,1.8-1.95c0.61-0.61,1.17-1.24,1.79-1.77c0.61-0.55,1.2-1.08,1.76-1.6
			c0.61-0.47,1.2-0.92,1.76-1.35c1.1-0.93,2.24-1.58,3.23-2.28c2.04-1.26,3.71-2.21,4.9-2.75c1.18-0.59,1.81-0.91,1.81-0.91
			l0.03-0.02c0.07-0.03,0.12-0.09,0.16-0.15c0.13-0.02,0.46-0.08,0.98-0.18c0.68-0.11,1.68-0.35,2.94-0.46
			c0.63-0.06,1.32-0.17,2.08-0.22c0.76-0.04,1.59-0.08,2.47-0.13c0.88-0.01,1.82,0.02,2.8,0.03l0.32,0.01l0.38,0.04
			c0.26,0.03,0.52,0.05,0.78,0.08c0.53,0.05,1.06,0.11,1.61,0.16c0.55,0.06,1.11,0.11,1.68,0.17c0.54,0.11,1.09,0.23,1.65,0.34
			c0.56,0.11,1.12,0.23,1.7,0.35c0.29,0.06,0.58,0.11,0.86,0.19c0.29,0.09,0.58,0.18,0.87,0.27c0.58,0.18,1.17,0.37,1.77,0.55
			c0.59,0.19,1.21,0.33,1.8,0.61c1.17,0.51,2.4,0.96,3.59,1.53c1.16,0.64,2.36,1.23,3.52,1.93c1.11,0.78,2.29,1.47,3.4,2.3
			c1.06,0.89,2.19,1.69,3.2,2.65l1.49,1.46c0.5,0.49,1.01,0.95,1.44,1.51c1.84,2.09,3.46,4.35,4.76,6.73
			c0.62,1.21,1.32,2.35,1.8,3.59c0.48,1.23,1.14,2.36,1.49,3.6c0.96,2.37,1.63,4.75,2.26,7.02c0.23,1.15,0.5,2.28,0.74,3.37
			c0.16,1.11,0.31,2.18,0.45,3.22c0.04,0.26,0.08,0.52,0.11,0.77l0.03,0.19l0.01,0.09l0,0.02c0,0.03,0-0.15,0-0.07l0,0.05l0.03,0.4
			c0.04,0.53,0.07,1.05,0.11,1.55c0.04,0.5,0.07,0.99,0.1,1.47c-0.01,0.44,0,0.88,0.01,1.3C94.4,56.19,94.3,57.72,94.27,59z"/>
		<path class="st0" d="M76.6,44.58l-0.13-1.01l-1.39-10.8l-0.11-0.82l-0.73-0.39l-16.1-8.66c-0.53-0.29-1.17-0.44-1.85-0.44
			c-0.77,0-1.51,0.21-2.07,0.57L28.51,39.75l-4.63,3.01c-0.77,0.5-1.19,1.26-1.15,2.09c0.04,0.84,0.54,1.58,1.38,2.03l3.85,2.07
			l-4.08,2.65c-0.77,0.5-1.18,1.26-1.15,2.09c0.04,0.84,0.54,1.58,1.37,2.03l3.68,1.98l-3.9,2.53c-0.77,0.5-1.18,1.26-1.15,2.09
			c0.04,0.84,0.54,1.58,1.37,2.03l24.77,13.32c0.53,0.29,1.17,0.44,1.85,0.44c0.76,0,1.5-0.2,2.07-0.57l8.65-5.62l14.32-9.31
			l0.85-0.55l-0.13-1.01l-0.9-6.96l0.18-0.11l0.85-0.55l-0.13-1.01l-0.92-7.15l0.2-0.13L76.6,44.58z M75.41,61.25
			c0,0-0.5,0.29-1,0.58c-0.74,0.42-1.82,1.07-3.19,1.87c-0.39,0.23-0.8,0.47-1.23,0.73c-0.33,0.2-0.68,0.4-1.04,0.61
			c-0.82,0.49-1.71,1.03-2.66,1.6c-1.9,1.15-4.03,2.45-6.36,3.89c-2.32,1.43-4.83,3-7.48,4.67l-0.25,0.16l-0.06,0.03
			c0,0,0.01-0.01,0,0l-0.03,0.02l-0.06,0.04l-0.01,0l-0.05,0.02c-0.02,0.01-0.05,0.02-0.08,0.03c-0.05,0.01-0.11,0.03-0.17,0.03
			c-0.24,0.04-0.53,0.02-0.75-0.06c-0.05-0.02-0.1-0.04-0.14-0.06l-0.03-0.02l-0.07-0.04l-0.13-0.07l-0.53-0.29
			c-0.36-0.19-0.71-0.39-1.07-0.59c-1.44-0.79-2.91-1.59-4.41-2.4c-3.01-1.6-6.13-3.25-9.31-4.9c-1.59-0.83-3.19-1.66-4.8-2.5
			c-0.8-0.42-1.61-0.84-2.41-1.26l-1.21-0.63l-0.6-0.32L26,62.25l-0.07-0.04l1.1-0.73c0.76-0.5,1.51-1.01,2.27-1.51
			c0.75-0.5,1.5-0.99,2.24-1.49c0.96,0.53,1.93,1.07,2.89,1.6c3.13,1.75,6.22,3.43,9.22,5.06c1.5,0.81,2.98,1.6,4.44,2.36
			c0.36,0.19,0.72,0.38,1.08,0.57l0.54,0.28l0.13,0.07l0.07,0.03l0.11,0.05c0.14,0.07,0.28,0.12,0.42,0.16
			c0.56,0.16,1.09,0.17,1.62,0.08c0.13-0.02,0.27-0.06,0.4-0.1c0.07-0.02,0.13-0.04,0.2-0.07c0.07-0.03,0.14-0.05,0.22-0.1L53,68.41
			l0.06-0.04l0.1-0.06l0.06-0.04l0.24-0.16c2.6-1.74,5.05-3.4,7.3-4.94c2.25-1.54,4.31-2.96,6.13-4.23
			c0.47-0.33,0.92-0.64,1.36-0.95c0.19-0.14,0.37-0.26,0.56-0.39c0.18-0.13,0.36-0.25,0.54-0.38c0.28,0.16,0.57,0.33,0.84,0.49
			c0.51,0.31,1.01,0.6,1.47,0.89c0.46,0.29,0.91,0.56,1.31,0.82c0.75,0.47,1.36,0.88,1.82,1.19L75.41,61.25z M55.9,24.79l0.11-0.07
			c0.01-0.01,0.07-0.04,0.1-0.06c0.07-0.04,0.11-0.06,0.18-0.09c0.27-0.1,0.58-0.15,0.89-0.13c0.29,0.02,0.55,0.08,0.8,0.21
			l15.5,8.33l0.04,0.3l0.02,0.14l0.02,0.15c0,0,0,0-0.01,0c-0.45,0.34-1.08,0.82-1.85,1.39c-0.77,0.57-1.66,1.24-2.63,1.93
			c-0.49,0.35-0.98,0.71-1.48,1.09l-0.04,0.03l-0.34,0.26c-0.01,0-0.01,0.01-0.01,0.01c-0.07,0.05-0.09,0.09-0.11,0.12
			c0.01,0.01,0.01,0.02,0.03,0.04c0.01,0.01,0.02,0.02,0.03,0.03c0.02,0.01-0.01,0.01,0.04,0.04l0.05,0.03l0.03,0.01l0.01,0
			c0,0,0,0-0.02-0.01l0.01,0.01l0.1,0.06l0.42,0.23c0.27,0.16,0.55,0.32,0.82,0.47c0.54,0.32,1.08,0.62,1.59,0.93
			c0.51,0.31,1.01,0.6,1.47,0.89c0.46,0.29,0.91,0.56,1.31,0.82c0.14,0.09,0.26,0.17,0.39,0.25c0.04,0.03,0.09,0.05,0.13,0.08
			c0.04,0.03,1.76,1.1,1.8,1.13c-0.02,0.02-5.44,3.48-7.01,4.56c-0.21,0.13-0.41,0.25-0.63,0.38c-0.21,0.13-0.43,0.26-0.65,0.39
			c-0.24,0.14-0.47,0.28-0.72,0.43c-1.9,1.15-4.03,2.45-6.36,3.88c-2.32,1.44-4.83,3-7.48,4.67l-0.25,0.16l-0.05,0.03
			c0.01-0.01,0.01-0.01-0.01,0l-0.03,0.02l-0.06,0.04h-0.01l-0.05,0.02c-0.02,0.01-0.05,0.02-0.08,0.03
			c-0.05,0.01-0.11,0.03-0.17,0.03c-0.24,0.04-0.53,0.02-0.75-0.06c-0.05-0.02-0.1-0.04-0.14-0.06l-0.03-0.01l-0.07-0.04l-0.13-0.07
			l-0.53-0.29c-0.36-0.2-0.71-0.39-1.07-0.59c-1.44-0.79-2.91-1.59-4.41-2.4c-1.3-0.69-2.63-1.39-3.96-2.1
			c-0.4-0.21-0.8-0.42-1.2-0.63c-1.37-0.72-2.75-1.45-4.15-2.17c-0.64-0.33-1.28-0.67-1.92-1c-0.46-0.24-0.92-0.48-1.38-0.72
			c-0.5-0.26-0.99-0.52-1.49-0.78c-0.8-0.42-1.61-0.84-2.41-1.26l-1.21-0.63l-0.6-0.32L26,44.78l-0.07-0.04l1.1-0.74
			c0.76-0.5,1.51-1,2.27-1.51c1.51-1,3.01-2,4.51-2.99c2.98-1.98,5.92-3.93,8.76-5.82c2.84-1.89,5.59-3.72,8.19-5.45
			c1.3-0.87,2.56-1.72,3.79-2.53c0.31-0.21,0.61-0.41,0.91-0.61C55.6,24.99,55.75,24.89,55.9,24.79z M75.22,52.24
			c-0.2,0.12-7.17,4.71-7.39,4.84c-0.21,0.13-0.43,0.26-0.65,0.39c-0.3,0.18-0.59,0.36-0.9,0.54c-1.9,1.15-4.03,2.45-6.36,3.89
			c-2.32,1.44-4.83,3-7.48,4.67l-0.25,0.16l-0.06,0.04c-0.02,0.01,0.05-0.03,0,0l-0.03,0.02l-0.06,0.04l-0.01,0l-0.05,0.02
			c-0.02,0.01-0.05,0.02-0.08,0.02c-0.05,0.01-0.11,0.03-0.17,0.04c-0.24,0.04-0.53,0.01-0.75-0.06c-0.05-0.02-0.1-0.04-0.14-0.06
			l-0.03-0.02l-0.07-0.04l-0.13-0.07l-0.53-0.29c-0.36-0.2-0.71-0.39-1.07-0.59c-1.44-0.79-2.91-1.59-4.41-2.4
			c-3.01-1.6-6.13-3.26-9.31-4.9c-0.69-0.36-1.4-0.73-2.09-1.09c-0.46-0.24-0.92-0.48-1.39-0.72c-0.44-0.23-0.87-0.45-1.31-0.68
			c-0.8-0.42-1.61-0.84-2.41-1.26l-1.21-0.63l-0.6-0.32L26,53.62l-0.07-0.04l1.1-0.73c0.76-0.5,1.51-1.01,2.27-1.51
			c0.81-0.54,1.61-1.07,2.41-1.6c0.91,0.5,1.82,1.01,2.72,1.51c1.06,0.59,2.11,1.17,3.16,1.74c0.4,0.22,0.81,0.45,1.22,0.67
			c1.64,0.9,3.26,1.78,4.85,2.65c1.5,0.81,2.98,1.6,4.44,2.36c0.36,0.19,0.72,0.38,1.08,0.57l0.54,0.28l0.13,0.07l0.07,0.04
			l0.11,0.05c0.14,0.07,0.28,0.12,0.42,0.16c0.56,0.16,1.09,0.17,1.62,0.08c0.13-0.02,0.27-0.05,0.4-0.1
			c0.07-0.02,0.13-0.04,0.2-0.07c0.07-0.03,0.14-0.05,0.22-0.1L53,59.58l0.06-0.04l0.1-0.06l0.06-0.04l0.24-0.16
			c2.6-1.74,5.05-3.4,7.3-4.94c2.25-1.54,4.31-2.96,6.13-4.23c0.41-0.29,0.8-0.56,1.19-0.83c0.19-0.14,0.38-0.26,0.56-0.39
			c0.18-0.13,0.37-0.26,0.54-0.38c0.34,0.2,0.68,0.39,1,0.59c0.51,0.31,1.01,0.6,1.47,0.89c0.46,0.29,0.91,0.56,1.31,0.82
			c0.08,0.05,0.14,0.09,0.22,0.14c0.05,0.03,0.09,0.06,0.14,0.09c0.04,0.03,0.92,0.57,0.96,0.6L75.22,52.24z"/>
	</g>
</g>
</svg>
