<?xml version="1.0" encoding="utf-8"?>
<!-- Generator: Adobe Illustrator 28.1.0, SVG Export Plug-In . SVG Version: 6.00 Build 0)  -->
<svg version="1.1" id="Livello_33" xmlns="http://www.w3.org/2000/svg" xmlns:xlink="http://www.w3.org/1999/xlink" x="0px" y="0px"
	 viewBox="0 0 117.45 117.07" style="enable-background:new 0 0 117.45 117.07;" xml:space="preserve">
<style type="text/css">
	.st0{fill:#FFFFFF;}
	.st1{fill:#E8EAA0;}
	.st2{fill:url(#SVGID_1_);}
	.st3{opacity:0.3;}
	.st4{fill:#5C9EC2;}
	.st5{fill:url(#SVGID_00000040548534704122249710000002696419991025829268_);}
</style>
<g>
	<ellipse class="st0" cx="60.34" cy="57.83" rx="50.95" ry="53.37"/>
	<g>
		<g>
			<path class="st1" d="M48.47,81.1c-2.47-1.3,0.46-12.03,6.54-23.98c6.09-11.95,13.03-20.59,15.5-19.29
				c-11.78-6.17-26.27-1.49-32.36,10.46C32.07,60.23,36.69,74.93,48.47,81.1z"/>
			
				<linearGradient id="SVGID_1_" gradientUnits="userSpaceOnUse" x1="106.2217" y1="491.838" x2="137.7036" y2="491.838" gradientTransform="matrix(0.9717 0.2362 -0.2362 0.9717 65.1221 -444.9775)">
				<stop  offset="0" style="stop-color:#1590BB"/>
				<stop  offset="0.9086" style="stop-color:#52A782"/>
			</linearGradient>
			<path class="st2" d="M70.52,37.82C82.3,44,86.91,58.69,80.83,70.64C74.74,82.59,60.25,87.27,48.47,81.1
				c-2.47-1.3,0.46-12.03,6.54-23.98C61.1,45.17,68.04,36.53,70.52,37.82z"/>
		</g>
		<g class="st3">
			<path class="st4" d="M87.16,54.43c0,0,0.22,0.27,0.62,0.76c0.39,0.46,0.95,1.2,1.61,2.08c0.64,0.89,1.35,1.94,2.05,3.12
				c0.33,0.6,0.7,1.2,1,1.85c0.33,0.64,0.62,1.31,0.9,1.98c0.27,0.68,0.52,1.37,0.71,2.06c0.21,0.69,0.36,1.38,0.47,2.06
				c0.09,0.68,0.19,1.34,0.17,1.97c0.03,0.63-0.03,1.22-0.1,1.76c-0.15,1.08-0.45,1.94-0.7,2.51c-0.28,0.56-0.44,0.88-0.44,0.88
				s0.12-0.33,0.34-0.92c0.18-0.59,0.38-1.46,0.42-2.51c0-0.53,0-1.09-0.09-1.69c-0.05-0.6-0.21-1.21-0.36-1.84
				c-0.18-0.63-0.38-1.27-0.65-1.9c-0.25-0.63-0.56-1.26-0.88-1.87c-0.33-0.61-0.67-1.21-1.05-1.78c-0.35-0.58-0.77-1.12-1.13-1.65
				c-0.78-1.04-1.56-1.97-2.25-2.74c-0.7-0.75-1.28-1.37-1.74-1.81c-0.44-0.44-0.69-0.68-0.69-0.68L87.16,54.43z"/>
			<path class="st4" d="M93.58,75.52c0,0-0.46,0.81-1.33,2.31c-0.23,0.37-0.44,0.81-0.75,1.25c-0.31,0.44-0.65,0.91-1.02,1.43
				c-0.38,0.51-0.75,1.08-1.2,1.64c-0.48,0.54-0.99,1.12-1.52,1.73c-2.2,2.37-5.12,5.1-9.05,7.35c-3.9,2.26-8.73,4.15-14.26,4.87
				c-5.51,0.68-11.69,0.14-17.72-2.07c-0.76-0.25-1.48-0.63-2.23-0.95c-0.74-0.36-1.5-0.6-2.24-1.07c-1.4-0.84-2.85-1.57-4.21-2.65
				c-2.83-1.93-5.28-4.41-7.54-7.13c-2.24-2.75-4.02-5.92-5.51-9.26c-1.41-3.38-2.31-7.01-2.8-10.72
				c-0.42-3.73-0.26-7.54,0.34-11.29c0.68-3.75,1.94-7.37,3.58-10.81c1-1.7,1.73-3.28,2.94-4.86c0.57-0.77,1.06-1.62,1.71-2.31
				l1.87-2.15c2.64-2.71,5.6-5.1,8.84-6.97c3.27-1.8,6.73-3.22,10.3-4.06c3.58-0.75,7.2-1.16,10.76-0.92
				c3.54,0.29,7.03,0.89,10.24,2.11c1.65,0.49,3.15,1.29,4.68,1.98c0.21,0.1,0.33,0.14,0.62,0.3l0.52,0.32l1.03,0.63
				c0.68,0.44,1.37,0.79,2.03,1.29c5.43,3.84,9.45,8.67,12.06,13.75c2.6,5.08,3.82,10.25,4.19,14.82c0.4,4.59-0.16,8.6-0.83,11.79
				c-0.19,0.8-0.37,1.55-0.54,2.26c-0.19,0.7-0.45,1.34-0.65,1.94c-0.21,0.6-0.4,1.16-0.58,1.66c-0.18,0.51-0.42,0.94-0.59,1.34
				C93.97,74.67,93.58,75.51,93.58,75.52L93.58,75.52z M93.37,75.4c0,0,0.37-0.85,1.06-2.44c0.16-0.4,0.39-0.83,0.56-1.34
				c0.16-0.51,0.34-1.06,0.53-1.66c0.18-0.6,0.42-1.24,0.59-1.94c0.15-0.71,0.31-1.45,0.48-2.25c0.6-3.16,1.03-7.13,0.4-11.59
				c-0.57-4.44-2-9.38-4.72-14.11c-2.74-4.68-6.76-9.22-11.8-12.58c-0.61-0.44-1.36-0.8-2.04-1.21l-1.05-0.6l-0.53-0.3l-0.48-0.22
				c-1.44-0.63-2.85-1.39-4.4-1.83c-3.01-1.13-6.28-1.66-9.59-1.91c-3.33-0.25-6.72,0.1-10.08,0.77c-3.35,0.76-6.62,2.03-9.73,3.68
				c-3.08,1.72-5.9,3.92-8.44,6.45l-1.79,2.01c-0.64,0.65-1.07,1.42-1.62,2.12c-1.1,1.34-1.98,3.13-2.89,4.61
				c-1.59,3.26-2.84,6.68-3.52,10.25c-0.61,3.57-0.81,7.2-0.45,10.77c0.43,3.56,1.25,7.05,2.56,10.31c1.39,3.22,3.06,6.3,5.19,8.97
				c2.14,2.63,4.5,5.09,7.17,6.94c1.24,1.03,2.73,1.8,4.11,2.65c0.64,0.42,1.42,0.7,2.11,1.06c0.72,0.32,1.41,0.72,2.14,0.97
				c5.81,2.28,11.82,2.97,17.25,2.43c5.45-0.56,10.26-2.33,14.16-4.5c3.95-2.13,6.87-4.84,9.04-7.2c0.53-0.61,1.04-1.18,1.51-1.72
				c0.45-0.56,0.82-1.12,1.19-1.63c0.37-0.51,0.7-0.98,1.01-1.41c0.31-0.43,0.52-0.88,0.75-1.25C92.91,76.2,93.37,75.4,93.37,75.4
				L93.37,75.4z"/>
			<g>
				<path class="st4" d="M93.58,75.52c0,0-0.05,0.1-0.16,0.28c-0.11,0.18-0.23,0.47-0.49,0.81c-0.47,0.71-1.27,1.67-2.57,2.55
					c-1.29,0.88-3.03,1.7-5.14,2.19c-2.1,0.52-4.54,0.75-7.19,0.72c-2.65-0.05-5.52-0.36-8.5-0.97c-2.98-0.58-6.06-1.49-9.19-2.61
					c-6.23-2.28-12.59-5.52-18.41-9.64c-2.91-2.06-5.68-4.33-8.18-6.85c-2.51-2.5-4.73-5.27-6.43-8.29
					c-1.61-3.03-2.82-6.42-2.46-9.85c0.17-1.67,0.77-3.36,1.64-4.61c0.93-1.38,2.12-2.37,3.33-3.11c1.21-0.76,2.48-1.23,3.69-1.55
					c1.21-0.35,2.37-0.51,3.46-0.63c2.18-0.23,4.08-0.14,5.62,0.01c1.54,0.15,2.74,0.34,3.55,0.51c0.81,0.17,1.24,0.25,1.24,0.25
					l-0.04,0.24c0,0-0.44-0.02-1.26-0.07c-0.82-0.04-2.01-0.11-3.53-0.07c-1.51,0.05-3.35,0.14-5.4,0.51
					c-2.02,0.4-4.32,1.05-6.31,2.44c-1,0.68-1.9,1.57-2.52,2.59c-0.71,1.13-1.06,2.34-1.17,3.7c-0.17,2.7,0.79,5.67,2.33,8.41
					c1.5,2.78,3.55,5.44,5.86,7.92c2.31,2.48,4.93,4.77,7.69,6.87c11.12,8.33,24.6,13.41,34.99,13.95c2.59,0.12,4.98-0.02,7.04-0.46
					c2.07-0.4,3.78-1.15,5.05-1.95c1.28-0.81,2.09-1.72,2.56-2.37c0.26-0.31,0.4-0.61,0.51-0.78c0.11-0.18,0.17-0.28,0.17-0.28
					L93.58,75.52z"/>
			</g>
			<path class="st4" d="M43.5,24.96c0,0,0.07-0.11,0.2-0.33c0.13-0.21,0.38-0.55,0.75-0.88c0.75-0.69,2.13-1.32,3.97-1.58
				c3.67-0.53,8.96,0.22,14.93,2.14c5.98,1.92,12.72,4.96,19.34,9.27c3.3,2.17,6.59,4.64,9.55,7.63c1.48,1.5,2.87,3.13,4.01,5.03
				c0.56,0.95,1.04,1.99,1.31,3.16c0.27,1.17,0.31,2.45-0.35,3.8c-0.19,0.38-0.72,1.1-1.18,1.47c-0.49,0.4-1.02,0.74-1.57,0.96
				c-1.09,0.48-2.21,0.7-3.31,0.82c-2.2,0.22-4.35,0.06-6.43-0.25c-4.17-0.62-8.11-1.86-11.81-3.27c-3.67-1.49-7.14-3.15-10.26-5
				c-3.14-1.84-5.99-3.77-8.5-5.72c-2.51-1.95-4.64-3.97-6.38-5.9c-1.74-1.93-3.07-3.81-3.86-5.55c-0.81-1.71-1.07-3.27-0.9-4.3
				c0.07-0.51,0.21-0.89,0.32-1.13C43.44,25.09,43.5,24.96,43.5,24.96l0.21,0.12c0,0-0.04,0.12-0.12,0.35
				c-0.08,0.23-0.16,0.59-0.17,1.06c-0.03,0.94,0.31,2.33,1.23,3.86c0.91,1.54,2.32,3.22,4.1,4.98c1.78,1.76,4.02,3.51,6.52,5.32
				c2.51,1.8,5.36,3.57,8.48,5.23c3.13,1.65,6.47,3.31,10.06,4.69c3.56,1.42,7.35,2.66,11.26,3.37c1.95,0.35,3.95,0.54,5.88,0.4
				c1.9-0.17,3.83-0.66,4.62-2.16c0.1-0.22,0.26-0.69,0.28-1.07c0.02-0.42,0.01-0.85-0.1-1.3c-0.18-0.89-0.57-1.79-1.05-2.65
				c-0.97-1.72-2.25-3.31-3.64-4.77c-2.78-2.93-5.95-5.42-9.14-7.62c-3.19-2.19-6.47-4.06-9.64-5.67c-3.17-1.61-6.27-2.94-9.2-3.97
				c-5.84-2.06-11.04-2.95-14.62-2.54c-1.78,0.19-3.12,0.77-3.83,1.39c-0.37,0.31-0.58,0.58-0.72,0.79c-0.14,0.22-0.2,0.33-0.2,0.33
				L43.5,24.96z"/>
			<g>
				<path class="st4" d="M74.31,82.49c0.99,1.23,1.93,2.57,2.58,4.07c0.16,0.37,0.32,0.75,0.4,1.16c0.05,0.2,0.11,0.4,0.15,0.6
					l0.06,0.63c0.08,0.42-0.03,0.85-0.06,1.27c-0.12,0.41-0.23,0.84-0.45,1.22c-0.9,1.55-2.62,2.24-4.18,2.58
					c-1.61,0.34-3.23,0.37-4.84,0.29c-3.22-0.17-6.36-0.88-9.43-1.75c-3.07-0.89-6.07-2.01-9-3.28c-1.47-0.64-2.9-1.32-4.35-2.04
					c-1.4-0.7-2.84-1.47-4.23-2.26c-2.79-1.59-5.49-3.34-8.05-5.32c-1.29-0.97-2.49-2.07-3.67-3.19c-1.18-1.13-2.29-2.34-3.29-3.67
					c-1.01-1.31-1.92-2.74-2.56-4.36c-0.31-0.81-0.56-1.68-0.6-2.62c-0.05-0.92,0.11-1.93,0.59-2.77l-0.05,0.13
					c0.06-0.18,0.14-0.31,0.21-0.4c0.07-0.11,0.13-0.22,0.21-0.32l0.48-0.52c0.17-0.15,0.36-0.27,0.54-0.4
					c0.18-0.13,0.36-0.27,0.56-0.34c0.39-0.16,0.77-0.38,1.17-0.48c0.4-0.1,0.8-0.18,1.2-0.27c0.4-0.08,0.8-0.06,1.2-0.1
					c0.4-0.01,0.79-0.06,1.18-0.04c0.79,0.06,1.57,0.14,2.33,0.22l-0.01,0.24c-0.77,0.07-1.53,0.14-2.29,0.19
					c-0.38,0.03-0.74,0.14-1.11,0.21c-0.36,0.09-0.74,0.12-1.08,0.26c-0.34,0.13-0.68,0.27-1.02,0.38c-0.34,0.12-0.61,0.34-0.92,0.5
					c-0.16,0.07-0.28,0.2-0.4,0.31c-0.12,0.11-0.25,0.21-0.36,0.33l-0.28,0.37c-0.05,0.1-0.16,0.3-0.14,0.3l0,0l-0.06,0.13
					c-0.49,1.17-0.14,2.58,0.47,3.89c0.64,1.31,1.53,2.54,2.51,3.7c0.99,1.16,2.07,2.25,3.2,3.31c1.12,1.06,2.33,2.03,3.53,3.03
					c2.42,1.95,4.97,3.77,7.62,5.43c1.33,0.83,2.65,1.62,4.05,2.39c1.36,0.74,2.76,1.46,4.17,2.14c2.83,1.34,5.72,2.54,8.69,3.51
					c2.97,0.97,6.01,1.72,9.09,2.05c1.54,0.15,3.09,0.19,4.59-0.06c1.47-0.25,2.99-0.81,3.78-2.06c0.81-1.24,0.57-2.93,0.04-4.36
					c-0.55-1.47-1.4-2.8-2.35-4.09L74.31,82.49z"/>
			</g>
			<path class="st4" d="M51.26,86.73c0,0-0.27,0.3-0.77,0.88c-0.51,0.57-1.27,1.39-2.33,2.35c-0.54,0.47-1.15,0.98-1.89,1.44
				c-0.73,0.44-1.62,0.96-2.77,0.82c-0.14-0.02-0.28-0.05-0.42-0.11c-0.08-0.04-0.11-0.03-0.23-0.1l-0.16-0.1
				c-0.19-0.1-0.48-0.41-0.63-0.64c-0.34-0.49-0.5-1.07-0.61-1.64c-0.21-1.16-0.19-2.37-0.09-3.61c0.22-2.48,0.78-5.11,1.51-7.84
				c0.73-2.73,1.66-5.55,2.72-8.44c2.12-5.77,4.78-11.76,7.72-17.6c2.95-5.85,6.15-11.57,9.65-16.65c1.8-2.5,3.59-4.89,5.55-6.98
				c1.98-2.06,3.88-4.02,6.52-5.07c0.67-0.23,1.47-0.41,2.32-0.13c0.22,0.1,0.37,0.11,0.64,0.31c0.13,0.11,0.19,0.12,0.38,0.32
				c0.15,0.17,0.34,0.37,0.42,0.53l0.26,0.49c0.49,1.3,0.45,2.44,0.4,3.48c-0.13,2.08-0.56,3.78-0.94,5.18
				c-0.39,1.39-0.73,2.46-0.99,3.19c-0.26,0.72-0.41,1.11-0.41,1.11l-0.23-0.07c0,0,0.08-0.4,0.23-1.15
				c0.14-0.75,0.37-1.85,0.57-3.25c0.19-1.4,0.43-3.12,0.4-5.02c-0.02-0.93-0.14-1.97-0.52-2.74l-0.16-0.24
				c-0.05-0.08-0.08-0.07-0.11-0.13c0.02-0.03-0.2-0.14-0.29-0.21c0.04,0.01-0.11-0.02-0.15-0.04c-0.27-0.06-0.69,0.01-1.14,0.21
				c-0.91,0.38-1.86,1.16-2.77,1.99c-0.92,0.84-1.82,1.81-2.7,2.84c-1.76,2.08-3.53,4.38-5.23,6.86
				c-3.48,4.91-6.89,10.42-9.99,16.09c-3.08,5.7-5.87,11.56-8.12,17.2c-1.13,2.82-2.11,5.59-2.93,8.25
				c-0.82,2.66-1.46,5.21-1.76,7.6c-0.14,1.19-0.2,2.35-0.04,3.4c0.13,1.05,0.61,1.98,1.45,2.13c0.84,0.15,1.71-0.26,2.41-0.66
				c0.72-0.42,1.34-0.89,1.88-1.33c1.08-0.9,1.86-1.69,2.39-2.23c0.52-0.55,0.8-0.85,0.8-0.85L51.26,86.73z"/>
			<path class="st4" d="M77.46,24.2c0,0,0.7,0.42,2.01,1.21c1.28,0.83,3.09,2.26,4.99,4.43c1.86,2.22,3.69,5.29,4.96,9.14
				c1.27,3.84,1.96,8.44,1.73,13.43c-0.22,4.99-1.33,10.36-3.49,15.67c-0.61,1.3-1.14,2.63-1.83,3.96c-0.35,0.64-0.7,1.27-1.05,1.92
				c-0.34,0.65-0.71,1.29-1.14,1.91c-0.82,1.27-1.64,2.56-2.61,3.74c-0.48,0.6-0.92,1.23-1.43,1.81c-0.52,0.57-1.04,1.15-1.56,1.73
				c-0.51,0.59-1.07,1.13-1.65,1.67c-0.58,0.54-1.14,1.09-1.73,1.62c-1.25,0.97-2.44,2.05-3.81,2.89c-2.63,1.84-5.58,3.3-8.7,4.34
				c-6.18,2.21-13.45,2.03-19.56-1.04c-2.92-1.53-5.71-3.87-7.77-6.52c-0.49-0.69-1.08-1.32-1.48-2.08l-1.29-2.2l-1.04-2.31
				c-0.38-0.76-0.57-1.59-0.86-2.37c-1.02-3.19-1.62-6.51-1.69-9.78c-0.14-1.64,0.02-3.26,0.06-4.88c0.07-0.8,0.18-1.6,0.27-2.4
				c0.09-0.8,0.18-1.59,0.36-2.36c1.21-6.21,3.56-12.03,6.57-16.86c3.12-4.97,6.82-8.99,10.77-12.1c3.94-3.11,8.13-5.15,12.02-6.3
				c3.89-1.15,7.48-1.36,10.36-1.03c2.88,0.38,5.05,1.08,6.45,1.72C76.72,23.84,77.45,24.2,77.46,24.2l-0.12,0.21
				c0,0-0.75-0.3-2.16-0.86c-1.42-0.51-3.58-1.07-6.37-1.26c-2.79-0.12-6.2,0.26-9.88,1.51c-3.67,1.24-7.55,3.43-11.24,6.48
				c-3.68,3.04-7.18,7.07-9.95,11.74c-2.81,4.84-5.02,10.24-6.12,16.18c-0.18,0.73-0.27,1.48-0.36,2.23
				c-0.09,0.75-0.21,1.5-0.28,2.26c-0.05,1.52-0.22,3.05-0.11,4.59c0.05,3.08,0.54,6.19,1.44,9.17c0.26,0.73,0.41,1.51,0.76,2.22
				l0.93,2.16l1.15,2.04c0.35,0.7,0.89,1.28,1.33,1.93c1.92,2.51,4.18,4.53,7.01,6.1c5.55,2.88,12.26,3.19,18.17,1.17
				c2.97-0.95,5.81-2.3,8.36-4.04c1.33-0.79,2.49-1.82,3.71-2.73c0.58-0.5,1.13-1.03,1.69-1.54c0.57-0.51,1.12-1.02,1.62-1.59
				c0.51-0.55,1.03-1.11,1.54-1.65c0.5-0.56,0.94-1.17,1.41-1.74c0.96-1.14,1.76-2.37,2.57-3.58c0.42-0.59,0.8-1.22,1.15-1.86
				c0.36-0.64,0.72-1.27,1.08-1.9c0.66-1.23,1.23-2.56,1.84-3.8c2.2-5.14,3.38-10.39,3.69-15.27c0.31-4.89-0.27-9.41-1.46-13.2
				c-1.18-3.8-2.92-6.85-4.71-9.07c-1.84-2.18-3.56-3.6-4.83-4.45c-1.3-0.81-1.99-1.24-1.99-1.24L77.46,24.2z"/>
		</g>
		<g>
			<path class="st0" d="M67.18,58.97c-0.47,0.92-1.58,1.28-2.48,0.8c-0.9-0.47-1.26-1.6-0.79-2.52c0.47-0.92,1.58-1.27,2.48-0.8
				C67.3,56.93,67.65,58.06,67.18,58.97z"/>
			<path class="st0" d="M74.4,59.18c-0.47,0.92-1.58,1.28-2.48,0.8c-0.9-0.47-1.26-1.6-0.79-2.52c0.47-0.92,1.58-1.28,2.48-0.8
				C74.52,57.13,74.87,58.26,74.4,59.18z"/>
			<path class="st0" d="M80.69,59.47c-0.47,0.92-1.58,1.28-2.48,0.8c-0.91-0.47-1.26-1.6-0.79-2.52c0.47-0.92,1.58-1.27,2.48-0.8
				C80.8,57.43,81.15,58.56,80.69,59.47z"/>
			<path class="st0" d="M63.94,65.35c-0.47,0.92-1.58,1.28-2.48,0.8c-0.9-0.47-1.26-1.6-0.79-2.52c0.47-0.92,1.58-1.28,2.48-0.8
				C64.05,63.3,64.41,64.43,63.94,65.35z"/>
			<path class="st0" d="M71.16,65.55c-0.47,0.92-1.58,1.28-2.48,0.8c-0.9-0.47-1.26-1.6-0.79-2.52c0.47-0.91,1.58-1.27,2.48-0.8
				C71.27,63.5,71.62,64.63,71.16,65.55z"/>
			<path class="st0" d="M77.44,65.84c-0.47,0.92-1.58,1.28-2.48,0.8c-0.91-0.47-1.26-1.6-0.79-2.52c0.47-0.92,1.58-1.28,2.48-0.8
				C77.55,63.8,77.91,64.93,77.44,65.84z"/>
			<path class="st0" d="M60.63,71.84c-0.47,0.92-1.58,1.28-2.48,0.81c-0.9-0.47-1.26-1.6-0.79-2.52c0.47-0.91,1.58-1.27,2.48-0.8
				C60.74,69.8,61.09,70.93,60.63,71.84z"/>
			<path class="st0" d="M67.85,72.05c-0.47,0.92-1.58,1.28-2.48,0.8c-0.91-0.47-1.26-1.6-0.79-2.52c0.47-0.92,1.58-1.28,2.48-0.8
				C67.96,70,68.31,71.13,67.85,72.05z"/>
			<path class="st0" d="M74.13,72.34c-0.47,0.92-1.58,1.28-2.48,0.8c-0.9-0.48-1.26-1.6-0.79-2.52c0.47-0.92,1.58-1.27,2.48-0.8
				C74.24,70.3,74.6,71.43,74.13,72.34z"/>
		</g>
		<g>
			
				<linearGradient id="SVGID_00000045588400003248454420000001014476419920116634_" gradientUnits="userSpaceOnUse" x1="132.8188" y1="545.34" x2="74.8626" y2="444.957" gradientTransform="matrix(0.9717 0.2362 -0.2362 0.9717 65.1221 -444.9775)">
				<stop  offset="0" style="stop-color:#1590BB"/>
				<stop  offset="0.7957" style="stop-color:#52A782"/>
				<stop  offset="1" style="stop-color:#7AB829"/>
			</linearGradient>
			<path style="fill:url(#SVGID_00000045588400003248454420000001014476419920116634_);" d="M104.33,85.69c0,0-0.44,0.73-1.27,2.1
				c-0.42,0.69-0.89,1.54-1.61,2.49c-0.34,0.48-0.71,1-1.11,1.55c-0.2,0.28-0.4,0.56-0.61,0.86c-0.23,0.28-0.47,0.56-0.71,0.85
				c-0.98,1.15-2.02,2.48-3.35,3.75c-0.66,0.63-1.29,1.36-2.05,1.99c-0.75,0.65-1.53,1.31-2.33,2.01
				c-3.31,2.64-7.36,5.29-12.16,7.41c-4.79,2.13-10.35,3.73-16.39,4.31c-6.04,0.59-12.53,0.14-19.01-1.62
				c-0.76-0.21-1.54-0.41-2.31-0.62c-0.76-0.17-1.61-0.57-2.41-0.85c-1.61-0.65-3.35-1.18-4.84-2.03c-3.14-1.47-6.14-3.34-9.01-5.45
				c-5.71-4.26-10.7-9.74-14.49-16.01C6.81,80.2,4.21,73.15,2.91,65.93c-1.29-7.21-1.17-14.65,0.42-21.5l0.06-0.32l0.01-0.08
				c0.03-0.12-0.04,0.15,0.07-0.29l0.04-0.14l0.17-0.58l0.33-1.15c0.22-0.76,0.44-1.53,0.66-2.28c0.57-1.65,1.25-3.35,1.91-4.96
				c0.76-1.51,1.48-3.02,2.25-4.47c0.87-1.4,1.7-2.8,2.59-4.12c0.96-1.28,1.86-2.57,2.86-3.76c1.04-1.15,2.02-2.31,3.06-3.38
				c1.09-1.02,2.15-2.02,3.22-2.97c1.12-0.88,2.22-1.75,3.3-2.6c1.13-0.78,2.24-1.52,3.34-2.22c1.1-0.7,2.26-1.24,3.34-1.84
				c1.07-0.61,2.19-1.06,3.25-1.53c1.07-0.47,2.09-0.93,3.15-1.23c1.03-0.33,2.04-0.66,3-0.97c0.99-0.23,1.94-0.46,2.85-0.68
				c0.91-0.22,1.78-0.39,2.64-0.48c0.84-0.11,1.65-0.22,2.41-0.32c1.52-0.22,2.91-0.16,4.08-0.22c1.18-0.08,2.19,0.03,3,0.08
				C56.54,4.03,57.4,4.1,57.4,4.1c0.27,0.02,0.47,0.25,0.44,0.52c-0.02,0.22-0.17,0.39-0.37,0.44l-0.04,0.01
				c0,0-0.83,0.19-2.37,0.55c-1.54,0.3-3.76,0.95-6.49,1.85c-1.34,0.54-2.86,0.98-4.41,1.77c-0.78,0.35-1.59,0.72-2.44,1.09
				c-0.81,0.45-1.64,0.91-2.51,1.38c-0.87,0.45-1.71,1.02-2.59,1.57c-0.88,0.56-1.79,1.09-2.64,1.79c-0.86,0.68-1.79,1.29-2.65,2.05
				c-0.86,0.74-1.74,1.5-2.64,2.28c-0.84,0.84-1.69,1.69-2.56,2.56c-0.8,0.93-1.61,1.88-2.43,2.85c-0.8,0.99-1.53,2.05-2.32,3.08
				c-0.74,1.08-1.41,2.22-2.14,3.33c-0.67,1.16-1.26,2.38-1.92,3.57c-0.59,1.24-1.12,2.52-1.7,3.79c-0.43,1.28-0.88,2.49-1.36,3.81
				c-0.21,0.76-0.43,1.52-0.64,2.29l-0.32,1.15l-0.16,0.58l-0.04,0.15c0.1-0.39,0.02-0.07,0.04-0.14l-0.01,0.07l-0.05,0.27
				c-1.39,5.66-1.85,11.74-1.26,17.88c0.6,6.14,2.51,12.28,5.48,17.88c3.01,5.58,7.12,10.57,11.96,14.55c2.43,1.98,5,3.74,7.7,5.22
				c1.32,0.86,2.69,1.33,4.03,1.98l1.01,0.47c0.32,0.16,0.67,0.31,1.07,0.43c0.76,0.25,1.51,0.51,2.27,0.76
				c5.67,1.93,11.56,2.66,17.11,2.52c5.56-0.15,10.8-1.27,15.42-2.95c4.62-1.68,8.62-3.91,11.94-6.21c0.81-0.61,1.6-1.19,2.35-1.76
				c0.77-0.56,1.41-1.21,2.09-1.77c1.37-1.11,2.47-2.31,3.5-3.35c0.26-0.26,0.51-0.52,0.75-0.76c0.22-0.26,0.44-0.52,0.65-0.77
				c0.42-0.5,0.82-0.96,1.18-1.4c0.76-0.84,1.31-1.67,1.78-2.32c0.93-1.3,1.43-2,1.43-2c0.16-0.22,0.46-0.27,0.67-0.11
				C104.4,85.2,104.46,85.48,104.33,85.69z"/>
			<path class="st1" d="M57.63,4.19c0,0,0.44-0.03,1.27-0.07c0.83-0.03,2.03-0.17,3.6-0.11C63.28,4.03,64.16,4,65.1,4.06
				c0.94,0.08,1.96,0.18,3.05,0.27c1.08,0.14,2.23,0.35,3.45,0.53c0.18,0.03,0.25,0.03,0.51,0.09l0.45,0.11
				c0.3,0.07,0.6,0.15,0.91,0.23c0.62,0.15,1.24,0.31,1.89,0.47c0.64,0.16,1.3,0.32,1.97,0.49C78,6.5,78.69,6.74,79.39,6.99
				c0.7,0.25,1.42,0.51,2.14,0.77c0.36,0.14,0.74,0.25,1.09,0.41c0.35,0.17,0.7,0.34,1.05,0.5c1.4,0.7,2.91,1.32,4.32,2.18
				c1.4,0.89,2.88,1.73,4.29,2.72c1.36,1.06,2.8,2.09,4.16,3.24c1.29,1.23,2.66,2.43,3.91,3.77c1.18,1.4,2.48,2.74,3.59,4.23
				l1.63,2.28c0.54,0.76,1.11,1.51,1.55,2.34c1.96,3.2,3.71,6.57,5.06,10.06c0.61,1.76,1.39,3.48,1.75,5.29
				c0.43,1.79,0.94,3.56,1.09,5.35c0.5,3.56,0.47,7.06,0.19,10.32c-0.2,1.63-0.45,3.2-0.68,4.72c-0.36,1.5-0.75,2.93-1.13,4.29
				c-0.09,0.34-0.19,0.68-0.28,1.01l-0.17,0.59l-0.18,0.45c-0.24,0.6-0.48,1.18-0.7,1.75c-0.23,0.57-0.45,1.12-0.67,1.66
				c-0.26,0.56-0.53,1.1-0.8,1.62c-0.55,1.02-0.99,2.02-1.53,2.84c-0.54,0.82-1.03,1.57-1.47,2.25c-0.42,0.69-0.9,1.24-1.29,1.72
				c-0.39,0.49-0.73,0.9-1.01,1.22c-0.56,0.64-0.86,0.99-0.86,0.99c-0.14,0.15-0.37,0.17-0.52,0.03c-0.11-0.1-0.15-0.25-0.11-0.39
				l0.01-0.03c0,0,0.13-0.44,0.38-1.25c0.22-0.82,0.69-1.95,1.08-3.45c0.4-1.5,0.95-3.28,1.33-5.3c0.1-0.5,0.22-1.02,0.35-1.54
				c0.1-0.57,0.19-1.16,0.3-1.77c0.1-0.61,0.2-1.23,0.31-1.86l0.08-0.48l0.01-0.06c0.03-0.1-0.03,0.11-0.02,0.08l0-0.03l0.01-0.12
				l0.02-0.23c0.03-0.31,0.06-0.63,0.09-0.94c0.12-1.26,0.25-2.57,0.38-3.93c0.02-1.36,0.03-2.77,0.09-4.2
				c-0.08-2.87-0.2-5.87-0.64-8.95c-0.06-1.56-0.5-3.09-0.72-4.68c-0.2-1.6-0.7-3.15-1.08-4.76c-0.84-3.18-2.09-6.33-3.65-9.32
				c-0.34-0.78-0.8-1.48-1.25-2.2l-1.32-2.15c-0.91-1.42-2-2.7-2.98-4.05c-1.05-1.29-2.23-2.45-3.31-3.69
				c-1.16-1.16-2.39-2.2-3.56-3.3c-1.22-1.02-2.52-1.9-3.75-2.84c-0.6-0.49-1.28-0.84-1.92-1.23c-0.64-0.39-1.28-0.78-1.91-1.16
				c-0.31-0.19-0.63-0.38-0.94-0.57c-0.31-0.18-0.64-0.31-0.96-0.47c-0.64-0.31-1.26-0.61-1.88-0.9c-0.62-0.3-1.23-0.59-1.83-0.88
				c-0.65-0.23-1.29-0.46-1.91-0.68C74,8.04,73.39,7.82,72.8,7.61c-0.3-0.11-0.6-0.21-0.89-0.32l-0.43-0.15l-0.38-0.1
				c-1.14-0.29-2.23-0.6-3.26-0.84C66.8,6,65.83,5.81,64.93,5.64c-0.9-0.16-1.73-0.23-2.48-0.34c-1.5-0.24-2.73-0.23-3.55-0.3
				c-0.83-0.05-1.27-0.07-1.27-0.07c-0.2-0.01-0.35-0.18-0.34-0.39C57.3,4.35,57.44,4.2,57.63,4.19z"/>
		</g>
	</g>
</g>
</svg>
