<?xml version="1.0" encoding="utf-8"?>
<!-- Generator: Adobe Illustrator 28.1.0, SVG Export Plug-In . SVG Version: 6.00 Build 0)  -->
<svg version="1.1" id="Livello_3" xmlns="http://www.w3.org/2000/svg" xmlns:xlink="http://www.w3.org/1999/xlink" x="0px" y="0px"
	 viewBox="0 0 90.71 90.71" style="enable-background:new 0 0 90.71 90.71;" xml:space="preserve">
<style type="text/css">
	.st0{fill:#83BB26;}
	.st1{fill:#00A538;}
	.st2{fill:#64C5DE;}
	.st3{fill:#2897D5;}
	.st4{fill:#19628F;}
	.st5{fill:#055285;}
	.st6{fill:#009ED2;}
	.st7{fill:#009CC1;}
	.st8{fill:#0084BE;}
	.st9{fill:#0084AF;}
	.st10{fill:#00517C;}
	
		.st11{clip-path:url(#SVGID_00000156572515769810260030000004418381522153595779_);fill:url(#SVGID_00000161593325187695670260000013823574775182867610_);}
	.st12{fill:#2092B7;}
</style>
<g>
	<g>
		<g>
			<path class="st0" d="M29.98,42.51c0.86,0.7,1.67,1.39,2.44,2.08c-0.07-0.07-0.14-0.14-0.21-0.21c-0.34-0.35-0.68-0.71-1.01-1.07
				c-0.33-0.36-0.66-0.72-0.98-1.09c-0.47-0.53-0.92-1.08-1.36-1.62c-0.16-0.2-0.33-0.4-0.49-0.6c-0.16-0.21-0.32-0.42-0.48-0.63
				c-0.99-1.31-1.9-2.66-2.67-4.08c-0.99-1.84-1.7-3.8-2.13-5.83c-0.11-0.55-0.21-1.1-0.28-1.65c-0.13-1.08-0.2-2.17-0.16-3.28
				c0.02-0.46,0.05-0.91,0.1-1.37c0.11-1.12,0.31-2.25,0.59-3.37c0.08-0.34,0.16-0.68,0.26-1.01c0.18-0.62,0.4-1.25,0.62-1.87
				c0.22-0.61,0.47-1.21,0.73-1.81c0.2-0.46,0.41-0.91,0.64-1.36c0.11-0.21,0.21-0.43,0.32-0.64c1.96-3.72,4.58-7.31,7.83-10.51
				c-1.91,1.37-3.62,2.94-5.23,4.58c-1.6,1.65-3.08,3.4-4.35,5.27c-1.29,1.85-2.39,3.81-3.25,5.84c-0.87,2.03-1.5,4.15-1.82,6.28
				c-0.08,0.55-0.15,1.1-0.19,1.65c-0.1,1.17-0.1,2.35-0.02,3.51c0.03,0.42,0.06,0.84,0.11,1.26c0.1,0.8,0.26,1.6,0.45,2.39
				C20.11,35.64,27.69,40.66,29.98,42.51"/>
			<path class="st0" d="M50.31,75.7c0.09-4.13-0.92-8.19-2.59-11.94l0,0c-0.4-0.9-0.85-1.78-1.33-2.65
				c-0.31-0.56-0.65-1.11-0.99-1.65c-0.17-0.28-0.33-0.56-0.51-0.84c-0.47-0.73-0.97-1.45-1.49-2.16c-0.05-0.07-0.1-0.14-0.15-0.21
				c-0.57-0.77-1.16-1.54-1.77-2.28c-0.3,0.06-2.34-2.76-5.98-6.43l-1.15-1.07c-0.34-0.31-0.67-0.62-1-0.93
				c-0.32-0.31-0.64-0.62-0.95-0.94c-0.77-0.69-1.58-1.38-2.44-2.08c-2.29-1.85-9.87-6.87-10.53-9.14c0.3,1.28,0.7,2.55,1.2,3.77
				c0.01,0.02,0.02,0.05,0.03,0.07c0.8,1.95,1.84,3.8,3.1,5.52c1.27,1.74,2.78,3.32,4.41,4.77c0.81,0.72,1.67,1.43,2.51,2.09
				l1.23,0.96l1.2,0.97c1.19,0.98,2.32,2,3.42,3.05c0.37,0.35,0.75,0.69,1.1,1.04c0.36,0.36,0.71,0.72,1.06,1.08
				c2.43,2.54,4.58,5.28,6.31,8.23v0c0.1,0.17,0.18,0.35,0.28,0.53l0.02,0c1.82,3.22,3.09,6.72,3.42,10.41
				c0.18,1.94,0.11,3.93-0.27,5.92c-0.2,0.99-0.47,1.99-0.83,2.96c-0.36,0.98-0.79,1.95-1.39,2.87c1.41-1.74,2.35-3.73,3-5.74
				C49.91,79.84,50.25,77.77,50.31,75.7"/>
			<path class="st0" d="M32.42,44.59L32.42,44.59c0.31,0.32,0.63,0.63,0.95,0.94c0.32,0.31,0.65,0.62,1,0.93l1.15,1.07
				c3.59,3.63,5.63,6.43,5.96,6.43c0,0,0.01,0,0.01,0c0.61,0.75,1.2,1.51,1.77,2.29c0.05,0.07,0.1,0.14,0.14,0.21
				c0.52,0.71,1.01,1.43,1.49,2.16c0.18,0.28,0.34,0.56,0.51,0.84c0.34,0.55,0.68,1.09,0.99,1.65c0.48,0.87,0.92,1.75,1.33,2.65l0,0
				c1.6,3.6,2.6,7.47,2.6,11.42c0-3.95-1-7.83-2.6-11.42l0,0c-0.4-0.9-0.85-1.78-1.33-2.65c-0.31-0.56-0.65-1.11-0.99-1.65
				c-0.17-0.28-0.33-0.56-0.51-0.84c-0.47-0.73-0.97-1.45-1.49-2.16c-0.05-0.07-0.1-0.14-0.14-0.21c-0.57-0.77-1.16-1.54-1.77-2.29
				c-0.36-0.46-2.22-2.81-5.98-6.43l-1.15-1.07c-0.34-0.31-0.67-0.62-1-0.93C33.05,45.22,32.73,44.91,32.42,44.59"/>
			<path class="st1" d="M19.45,33.37c0.3,1.29,0.7,2.55,1.2,3.77c0.01,0.02,0.02,0.05,0.03,0.07c0.8,1.95,1.84,3.8,3.1,5.52
				c1.27,1.74,2.78,3.32,4.41,4.77c0.81,0.72,1.67,1.43,2.51,2.09l1.23,0.96l1.2,0.97c1.19,0.98,2.32,2,3.42,3.05
				c0.37,0.35,0.75,0.69,1.1,1.04c0.36,0.36,0.71,0.72,1.06,1.08c2.43,2.55,4.58,5.28,6.31,8.23v0c0.1,0.17,0.18,0.35,0.28,0.53
				h0.02c1.82,3.22,3.09,6.72,3.42,10.41c0.06,0.68,0.1,1.36,0.1,2.05c0,1.28-0.12,2.57-0.37,3.87c-0.2,0.99-0.46,1.98-0.83,2.96
				c-0.36,0.98-0.79,1.95-1.39,2.87c1.41-1.74,2.35-3.73,3-5.74c0.65-2.03,1-4.11,1.06-6.17c0-0.17,0.01-0.35,0.01-0.52
				c0-3.95-1-7.83-2.6-11.42l0,0c-0.4-0.9-0.85-1.78-1.33-2.65c-0.31-0.56-0.65-1.11-0.99-1.65c-0.17-0.28-0.33-0.56-0.51-0.84
				c-0.47-0.73-0.97-1.45-1.49-2.16c-0.05-0.07-0.1-0.14-0.15-0.21c-0.57-0.77-1.16-1.54-1.77-2.29c0,0-0.01,0-0.01,0
				c-0.34,0-2.37-2.8-5.96-6.43l-1.15-1.07c-0.34-0.31-0.67-0.62-1-0.93c-0.32-0.31-0.64-0.62-0.95-0.94
				c-0.77-0.69-1.58-1.39-2.44-2.08C27.69,40.66,20.11,35.64,19.45,33.37"/>
			<path class="st2" d="M42.12,2.88c-11.89,3.55-18.65,16.07-15.1,27.96c1.1-9.16,7.57-16.37,15.89-18.86
				C43.26,9.02,43.03,5.93,42.12,2.88"/>
			<path class="st3" d="M44.43,25.52c-2.38,2.07-5.2,3.63-8.26,4.55c5.53,0.67,10.63,3.39,14.28,7.59c2.96-0.88,5.79-2.4,8.28-4.56
				C54.91,28.71,49.78,26.16,44.43,25.52"/>
			<path class="st4" d="M27.02,30.85C29.93,40.6,38.87,46.9,48.54,46.9c2.13,0,4.29-0.3,6.44-0.95c-0.94-3.16-2.52-5.95-4.54-8.29
				c-2.1,0.63-4.27,0.94-6.43,0.94C37.72,38.6,31.46,35.97,27.02,30.85"/>
			<path class="st5" d="M36.16,30.07c-2.05,0.62-4.21,0.94-6.43,0.94c-0.89,0-1.8-0.05-2.71-0.16c4.44,5.12,10.7,7.75,16.99,7.75
				c2.16,0,4.33-0.31,6.43-0.94C46.8,33.46,41.69,30.74,36.16,30.07"/>
			<path class="st6" d="M49.3,11.06c-2.21,0-4.36,0.33-6.4,0.93c-0.66,5.53-3.38,10.64-7.57,14.29c2.09-0.62,4.25-0.93,6.4-0.93
				c0.9,0,1.8,0.05,2.69,0.16c4.07-3.53,6.89-8.52,7.59-14.3C51.1,11.11,50.2,11.06,49.3,11.06"/>
			<path class="st7" d="M42.91,11.99c-8.31,2.48-14.78,9.69-15.89,18.86c2.5-2.17,5.34-3.68,8.31-4.57
				C39.53,22.63,42.24,17.52,42.91,11.99"/>
			<path class="st8" d="M41.73,25.35c-2.15,0-4.31,0.31-6.4,0.93c-2.34,2.04-5.15,3.62-8.31,4.57c2.15-0.64,4.31-0.95,6.44-0.95
				c0.91,0,1.81,0.06,2.7,0.16c3.06-0.92,5.88-2.48,8.26-4.55C43.53,25.41,42.63,25.35,41.73,25.35"/>
			<path class="st9" d="M35.33,26.28c-2.98,0.88-5.82,2.4-8.31,4.57C30.19,29.9,32.99,28.32,35.33,26.28"/>
			<path class="st10" d="M33.46,29.9c-2.13,0-4.29,0.31-6.44,0.95c0.91,0.11,1.82,0.16,2.71,0.16c2.22,0,4.38-0.33,6.43-0.94
				C35.27,29.96,34.37,29.9,33.46,29.9"/>
		</g>
		<g>
			<defs>
				<path id="SVGID_1_" d="M59.67,42.38c0.01,0,0.01-0.01,0.01-0.01L59.67,42.38z M59.68,42.37c0.01,0,0.01-0.01,0.02-0.01
					L59.68,42.37z M59.7,42.36c0.01-0.01,0.02-0.01,0.03-0.02L59.7,42.36z M63.25,39.61c0.1-0.1,0.21-0.21,0.31-0.32L63.25,39.61z
					 M66.25,35.95c0.1-0.15,0.19-0.31,0.29-0.47L66.25,35.95z M58.53,35.8c-0.04,0.29-0.08,0.58-0.13,0.87
					c-0.45,2.03-1.14,4.26-2.53,5.98c0.07,0.17,0.14,0.34,0.21,0.51c1.29-1.26,2.53-3.3,3.17-6.68c0.08-0.46,0.15-0.93,0.21-1.4
					C59.16,35.32,58.85,35.57,58.53,35.8 M68.47,31.46c0.06-0.17,0.11-0.34,0.17-0.52C68.57,31.13,68.52,31.3,68.47,31.46
					 M66.85,28.53c-0.06,0-0.11-0.01-0.16-0.01c0.05,1.58-0.05,3.11-0.32,4.56l0,0c-0.49,2.69-1.48,4.77-2.81,6.22l0.58-0.6
					c1.29-1.42,2.24-3.46,2.72-6.07l0,0c0.24-1.32,0.34-2.7,0.32-4.13C67.07,28.51,66.96,28.53,66.85,28.53 M69.64,25.7l0.01-0.12
					C69.64,25.62,69.64,25.66,69.64,25.7 M69.64,25.58l0.01-0.17c0-0.01,0-0.02,0-0.02c0-0.03,0-0.06,0-0.1
					C69.65,25.39,69.65,25.49,69.64,25.58 M57.82,24.47c-0.09,0.02-0.19,0.03-0.28,0.04c0.52,1.85,0.88,3.73,1.06,5.58
					c0.33,0.32,0.66,0.64,0.97,0.98c-0.11-2.23-0.51-4.54-1.13-6.82C58.24,24.35,58.04,24.43,57.82,24.47 M49.57,22.77
					c0.31,0.72,0.59,1.46,0.84,2.21c0.39,0.15,0.77,0.3,1.15,0.47c-0.38-1.23-0.84-2.44-1.36-3.61C50,22.15,49.78,22.46,49.57,22.77
					 M51.75,19.09c1.3,2.51,2.3,5.24,2.93,7.99c0.37,0.23,0.74,0.48,1.11,0.73c-0.65-3.37-1.88-6.75-3.54-9.78
					C52.08,18.38,51.92,18.73,51.75,19.09 M60.32,14.79c3.37,6.17,5.01,13.7,3.89,19.8c-0.69,3.75-2.31,6.38-4.48,7.75l0.12-0.07
					l0.86-0.57c2-1.41,3.49-3.94,4.14-7.48c1.12-6.1-0.55-13.66-3.96-19.81C60.72,14.56,60.53,14.69,60.32,14.79 M53.35,15.03
					c0.9,1.43,1.72,2.97,2.43,4.58c0.26-0.17,0.54-0.3,0.85-0.37c-0.84-1.89-1.84-3.69-2.96-5.34
					C53.57,14.28,53.46,14.65,53.35,15.03 M69.66,24.56c0,0.26-0.01,0.51-0.01,0.74C69.66,25.05,69.67,24.81,69.66,24.56
					c0-0.04,0-0.08,0-0.13c-0.01-1.34-0.14-2.65-0.38-3.92c-0.69-3.44-2.27-6.9-4.41-9.51l-0.73-0.84l-0.23-0.24
					C67.37,13.65,69.63,19.46,69.66,24.56 M63.91,9.92c-0.14-0.15-0.29-0.31-0.43-0.45L63.91,9.92z M46.46,7.69
					c0.64,0.41,1.27,0.88,1.88,1.41c0.33-0.01,0.66-0.02,1-0.02c0.04,0,0.09,0,0.14,0c-0.12-0.1-0.24-0.21-0.35-0.31
					c-0.79-0.67-1.58-1.23-2.37-1.7C46.69,7.29,46.59,7.5,46.46,7.69 M60.93,7.44c5.78,4.88,9.39,14.74,8.06,22.02
					c-0.1,0.52-0.22,1.02-0.36,1.49c0.1-0.31,0.2-0.63,0.28-0.9c0.1-0.36,0.18-0.73,0.25-1.12c1.28-7.01-2.19-16.51-7.76-21.21
					c-0.49-0.42-0.98-0.78-1.47-1.09l-0.32-0.2l-0.49-0.28C59.72,6.5,60.33,6.93,60.93,7.44 M59.13,6.13
					c-0.14-0.08-0.27-0.16-0.41-0.24L59.13,6.13z M58.95,6.74c6.47,5.46,10.5,16.49,9.01,24.63c-0.29,1.61-0.78,2.98-1.42,4.11
					l0.4-0.65c0.61-1.09,1.08-2.41,1.36-3.95c1.45-7.93-2.48-18.67-8.78-23.99c-1.41-1.19-2.82-2.01-4.17-2.47l-0.78-0.24
					C55.99,4.64,57.47,5.49,58.95,6.74 M44.54,4.44c2.12,0.31,4.41,1.4,6.7,3.33c0.57,0.48,1.12,1,1.65,1.54l0.02,0l0.28,0.31
					c0.32,0.35,0.64,0.71,0.95,1.08l0.11,0.12l0,0.01c5.55,6.71,8.7,17.04,7.25,24.97c-0.81,3.66-2.02,6.46-5.11,8.12
					c0.01,0.02,0.02,0.05,0.03,0.08l0.24-0.1c2.74-1.14,4.81-4,5.62-8.4c1.7-9.27-2.9-21.82-10.26-28.03
					c-2.61-2.2-5.21-3.31-7.56-3.42C44.49,4.19,44.52,4.32,44.54,4.44 M54.57,4.17c-0.15-0.05-0.3-0.1-0.44-0.14L54.57,4.17z
					 M44.92,3.61l0.36-0.05C45.16,3.57,45.04,3.59,44.92,3.61 M46.14,3.43l-0.86,0.13c0.31-0.04,0.63-0.06,0.95-0.06
					c2.42,0,5.13,1.1,7.84,3.39c1.31,1.11,2.53,2.42,3.65,3.88c0.17-0.14,0.35-0.25,0.56-0.35c-1.07-1.38-2.23-2.63-3.48-3.68
					c-2.69-2.27-5.38-3.36-7.78-3.36C46.72,3.38,46.43,3.39,46.14,3.43 M56.66,6.55c4.87,4.11,8.46,11.16,9.63,18.03
					c0.05-0.01,0.1-0.03,0.15-0.04c0.12-0.03,0.25-0.04,0.37-0.04c-1.11-6.82-4.66-13.86-9.51-17.95c-2.25-1.9-4.5-2.93-6.56-3.15
					l-0.81-0.06C52.05,3.55,54.35,4.6,56.66,6.55"/>
			</defs>
			<clipPath id="SVGID_00000140000938163037102260000003784550363993990053_">
				<use xlink:href="#SVGID_1_"  style="overflow:visible;"/>
			</clipPath>
			
				<linearGradient id="SVGID_00000126293247256859178860000010037432890763601065_" gradientUnits="userSpaceOnUse" x1="927.9329" y1="-360.7097" x2="929.239" y2="-360.7097" gradientTransform="matrix(19.2979 0 0 -19.2979 -17862.7031 -6937.2651)">
				<stop  offset="0" style="stop-color:#83BB26"/>
				<stop  offset="0.1605" style="stop-color:#83BB26"/>
				<stop  offset="0.3429" style="stop-color:#7EB928"/>
				<stop  offset="0.5242" style="stop-color:#70B32C"/>
				<stop  offset="0.7052" style="stop-color:#54AA32"/>
				<stop  offset="0.8849" style="stop-color:#1D9D39"/>
				<stop  offset="0.9276" style="stop-color:#009A3A"/>
				<stop  offset="1" style="stop-color:#00983A"/>
				<stop  offset="1" style="stop-color:#00983A"/>
			</linearGradient>
			
				<rect x="44.46" y="3.34" style="clip-path:url(#SVGID_00000140000938163037102260000003784550363993990053_);fill:url(#SVGID_00000126293247256859178860000010037432890763601065_);" width="25.98" height="40.67"/>
		</g>
		<g>
			<path class="st4" d="M45.94,6.78c-0.1,0.56-0.65,0.93-1.21,0.83C44.17,7.5,43.8,6.96,43.9,6.4c0.1-0.56,0.65-0.93,1.21-0.83
				C45.67,5.67,46.04,6.21,45.94,6.78"/>
			<path class="st12" d="M59.26,11.06c-0.11,0-0.21,0.01-0.32,0.03c-0.85,0.18-1.39,1.01-1.21,1.85c0.16,0.74,0.81,1.25,1.53,1.25
				c0.11,0,0.21-0.01,0.32-0.03c0.85-0.18,1.39-1.01,1.21-1.86C60.64,11.56,59.98,11.06,59.26,11.06"/>
			<path class="st6" d="M57.27,20.4c-0.1,0-0.2,0.01-0.3,0.03c-0.78,0.16-1.28,0.93-1.12,1.71c0.14,0.68,0.74,1.15,1.42,1.15
				c0.1,0,0.2-0.01,0.3-0.03c0.78-0.16,1.29-0.93,1.12-1.71C58.54,20.87,57.94,20.4,57.27,20.4"/>
			<path class="st3" d="M66.85,25.35c-0.08,0-0.16,0.01-0.24,0.02c-0.62,0.13-1.02,0.74-0.89,1.37c0.11,0.54,0.59,0.92,1.13,0.92
				c0.08,0,0.16-0.01,0.24-0.02c0.62-0.13,1.02-0.74,0.89-1.37C67.87,25.73,67.39,25.35,66.85,25.35"/>
			<path class="st2" d="M55.36,40.71c-0.99,0.21-1.95-0.43-2.16-1.41c-0.21-0.99,0.43-1.95,1.41-2.16c0.99-0.21,1.95,0.43,2.16,1.41
				C56.98,39.54,56.34,40.5,55.36,40.71"/>
		</g>
	</g>
</g>
</svg>
