<?xml version="1.0" encoding="utf-8"?>
<!-- Generator: Adobe Illustrator 28.1.0, SVG Export Plug-In . SVG Version: 6.00 Build 0)  -->
<svg version="1.1" id="Livello_7" xmlns="http://www.w3.org/2000/svg" xmlns:xlink="http://www.w3.org/1999/xlink" x="0px" y="0px"
	 viewBox="0 0 100 100" style="enable-background:new 0 0 100 100;" xml:space="preserve">
<g>
	<path d="M96.4,40.35c-0.4-2.64-1.05-5.42-2.14-8.15c-0.47-1.39-1.22-2.69-1.91-4.03c-0.64-1.37-1.6-2.57-2.43-3.85
		c-1.76-2.5-3.82-4.83-6.01-6.99c-0.52-0.57-1.12-1.06-1.7-1.56l-1.75-1.49c-1.18-0.97-2.48-1.78-3.7-2.66
		c-1.27-0.81-2.6-1.5-3.88-2.22c-1.32-0.65-2.68-1.18-3.98-1.76c-1.33-0.51-2.68-0.89-3.98-1.32c-1.3-0.41-2.63-0.6-3.9-0.89
		c-0.32-0.07-0.63-0.13-0.94-0.2c-0.32-0.06-0.64-0.08-0.96-0.11c-0.63-0.07-1.26-0.13-1.87-0.2c-0.61-0.06-1.21-0.12-1.8-0.18
		c-0.57,0-1.13,0-1.68,0c-0.55,0-1.08,0-1.61,0c-0.26,0-0.52,0-0.78,0H51c-0.22,0.01-0.28,0.02-0.43,0.03
		c-1.02,0.09-1.98,0.15-2.88,0.25c-0.89,0.14-1.73,0.26-2.51,0.38c-0.77,0.13-1.48,0.33-2.11,0.46c-1.28,0.26-2.21,0.61-2.88,0.8
		c-0.66,0.2-1.01,0.3-1.01,0.3c0,0,0,0-0.01,0c-0.04-0.02-0.08-0.05-0.12-0.05c-0.02,0-0.04,0-0.07,0.01c0,0-0.71,0.12-2.03,0.34
		c-0.66,0.12-1.5,0.23-2.43,0.52c-0.93,0.28-2.06,0.51-3.24,0.98c-0.6,0.23-1.22,0.47-1.88,0.72c-0.67,0.24-1.34,0.55-2.03,0.9
		c-0.69,0.35-1.41,0.71-2.16,1.09c-0.72,0.44-1.46,0.89-2.23,1.36c-0.79,0.44-1.53,1.01-2.3,1.59c-0.77,0.58-1.58,1.15-2.33,1.85
		c-0.75,0.69-1.58,1.34-2.33,2.11c-0.75,0.77-1.5,1.58-2.26,2.42c-0.7,0.89-1.42,1.79-2.15,2.71c-0.68,0.96-1.34,1.97-2.02,2.99
		c-0.63,1.05-1.2,2.16-1.81,3.28c-0.57,1.13-1.05,2.34-1.57,3.54c-0.47,1.22-0.87,2.49-1.29,3.77c-0.34,1.3-0.63,2.64-0.95,3.99
		c-0.22,1.41-0.44,2.89-0.58,4.31c-0.03,0.64-0.06,1.29-0.09,1.94l-0.04,0.98l-0.02,0.49l-0.01,0.12c-0.01,0.24,0,0.23,0,0.22
		c0-0.01,0-0.01,0,0.02l0,0.07l0.01,0.27c0.04,5.74,1.37,11.67,3.81,17.13c2.43,5.47,5.89,10.55,10.19,14.75
		c4.26,4.24,9.33,7.61,14.75,9.87c2.71,1.11,5.49,2.01,8.3,2.56c1.36,0.37,2.87,0.46,4.29,0.66c0.7,0.06,1.47,0.22,2.11,0.2
		c0.66,0.01,1.32,0.03,1.98,0.04c5.55,0.13,10.86-0.78,15.61-2.43c4.75-1.65,8.91-4,12.36-6.63c3.46-2.63,6.2-5.52,8.36-8.26
		c0.51-0.71,1.01-1.39,1.49-2.05c0.49-0.65,0.86-1.35,1.27-1.98c0.82-1.26,1.41-2.52,1.97-3.63c0.14-0.28,0.28-0.55,0.41-0.81
		c0.11-0.27,0.22-0.54,0.33-0.8c0.21-0.52,0.41-1,0.59-1.45c0.4-0.89,0.62-1.67,0.82-2.29c0.4-1.25,0.61-1.92,0.61-1.92
		c0.01-0.02,0-0.04,0.01-0.05c0.02-0.02,0.05-0.03,0.06-0.05c0,0,0.17-0.33,0.5-0.95c0.16-0.31,0.36-0.7,0.58-1.17
		c0.22-0.46,0.5-0.99,0.7-1.62c0.23-0.63,0.48-1.32,0.75-2.07c0.27-0.76,0.44-1.63,0.68-2.55c0.12-0.46,0.23-0.94,0.34-1.44
		c0.07-0.47,0.14-0.95,0.22-1.45c0.07-0.49,0.15-1.01,0.23-1.53l0.06-0.39l0.02-0.51c0.01-0.28,0.02-0.57,0.03-0.85
		c0.04-1.16,0.08-2.37,0.08-3.62C96.65,42.98,96.55,41.69,96.4,40.35z M91.75,62.22c0,0-0.27,0.65-0.76,1.86
		c-0.25,0.61-0.54,1.37-0.98,2.19c-0.21,0.42-0.44,0.86-0.68,1.34c-0.12,0.24-0.24,0.48-0.37,0.74c-0.15,0.24-0.3,0.49-0.46,0.75
		c-0.63,1.03-1.29,2.19-2.17,3.34c-0.43,0.58-0.83,1.22-1.34,1.82c-0.5,0.6-1.02,1.22-1.55,1.85c-2.23,2.47-5.02,5.02-8.42,7.26
		c-3.39,2.24-7.4,4.14-11.84,5.35c-4.43,1.2-9.32,1.77-14.25,1.35c-0.65-0.05-1.31-0.1-1.97-0.16c-0.34-0.02-0.65-0.06-0.94-0.13
		l-0.9-0.17c-1.2-0.26-2.4-0.36-3.63-0.79c-2.46-0.65-4.87-1.54-7.2-2.63c-4.66-2.21-8.93-5.37-12.43-9.2
		c-3.47-3.86-6.19-8.36-7.86-13.11c-1.66-4.75-2.47-9.67-2.43-14.43l-0.01-0.22l0-0.06c0,0.02,0,0,0-0.02c0,0,0-0.01,0-0.01
		l0.02-0.47l0.04-0.98c0.02-0.65,0.05-1.3,0.07-1.94c0.14-1.14,0.26-2.19,0.36-3.29c0.22-1.12,0.41-2.24,0.64-3.34
		c0.31-1.08,0.54-2.16,0.86-3.21c0.38-1.03,0.69-2.07,1.08-3.06c0.43-0.98,0.82-1.96,1.27-2.9c0.48-0.93,0.95-1.84,1.41-2.73
		c0.53-0.86,1.05-1.7,1.56-2.53c0.57-0.79,1.14-1.57,1.68-2.32c0.54-0.77,1.17-1.44,1.73-2.14c0.55-0.72,1.19-1.32,1.78-1.93
		c0.6-0.61,1.17-1.23,1.78-1.75c0.6-0.55,1.19-1.08,1.75-1.59c0.61-0.46,1.19-0.91,1.75-1.34c1.09-0.93,2.23-1.57,3.21-2.26
		c2.03-1.25,3.69-2.2,4.87-2.74c1.18-0.59,1.8-0.9,1.8-0.9l0.03-0.02c0.06-0.03,0.11-0.09,0.15-0.15c0.11-0.02,0.44-0.08,0.98-0.18
		c0.67-0.11,1.67-0.35,2.92-0.46c0.63-0.06,1.31-0.17,2.07-0.22c0.76-0.04,1.58-0.08,2.45-0.13c0.88-0.01,1.81,0.02,2.78,0.03
		l0.32,0l0.38,0.04c0.26,0.02,0.51,0.05,0.77,0.08c0.52,0.05,1.06,0.1,1.6,0.16c0.55,0.05,1.1,0.11,1.67,0.17
		c0.54,0.11,1.08,0.23,1.64,0.34c0.55,0.11,1.12,0.23,1.69,0.35c0.28,0.06,0.57,0.1,0.86,0.19c0.29,0.09,0.57,0.18,0.86,0.27
		c0.58,0.18,1.17,0.36,1.76,0.55c0.59,0.19,1.21,0.33,1.78,0.6c1.17,0.51,2.38,0.95,3.56,1.52c1.15,0.64,2.35,1.23,3.5,1.92
		c1.11,0.77,2.28,1.46,3.38,2.28c1.05,0.88,2.18,1.68,3.18,2.63l1.48,1.45c0.49,0.48,1,0.95,1.43,1.5c1.83,2.07,3.44,4.32,4.73,6.68
		c0.61,1.2,1.32,2.33,1.78,3.56c0.48,1.22,1.13,2.35,1.48,3.57c0.95,2.36,1.62,4.72,2.24,6.98c0.23,1.15,0.49,2.26,0.74,3.35
		c0.16,1.1,0.31,2.17,0.45,3.19c0.04,0.26,0.07,0.51,0.11,0.77l0.03,0.19l0.01,0.1l0,0.02c0,0.03,0.01-0.15,0-0.07l0,0.05l0.03,0.4
		c0.04,0.53,0.07,1.04,0.11,1.54c0.03,0.5,0.07,0.99,0.1,1.46c0,0.44,0,0.87,0.01,1.29c0.09,1.68-0.01,3.2-0.04,4.47
		c-0.02,1.27-0.18,2.25-0.2,2.95c-0.02,0.4-0.04,0.68-0.05,0.86C91.9,62.03,91.8,62.11,91.75,62.22z"/>
	<path d="M39.56,54.17c1.52,0,2.95-0.35,4.23-0.98c0.34-0.17,0.67-0.36,0.99-0.56c0.72-0.47,1.37-1.03,1.94-1.67
		c1.52-1.7,2.45-3.94,2.45-6.39c0-1.2-0.22-2.35-0.62-3.4c-1.38-3.62-4.88-6.21-8.99-6.21c-1.14,0-2.23,0.2-3.24,0.56
		c-1.16,0.42-2.21,1.05-3.12,1.85c-1.99,1.76-3.25,4.34-3.25,7.2C29.95,49.86,34.26,54.17,39.56,54.17z"/>
	<path d="M30.65,36.07c0.27-0.18,0.52-0.39,0.74-0.64c0.58-0.65,0.93-1.5,0.93-2.43c0-0.46-0.08-0.89-0.24-1.3
		c-0.52-1.38-1.86-2.36-3.42-2.36c-0.43,0-0.85,0.08-1.23,0.21c-0.44,0.16-0.84,0.4-1.19,0.7C25.48,30.93,25,31.91,25,33
		c0,2.02,1.64,3.66,3.66,3.66c0.58,0,1.12-0.13,1.61-0.37C30.4,36.22,30.52,36.15,30.65,36.07z"/>
	<path d="M64.38,27.59c0.78,0,1.52-0.18,2.18-0.51c0.18-0.09,0.35-0.18,0.51-0.29c0.37-0.24,0.71-0.53,1-0.86
		c0.78-0.88,1.26-2.03,1.26-3.29c0-0.62-0.11-1.21-0.32-1.75c-0.71-1.87-2.52-3.2-4.63-3.2c-0.59,0-1.15,0.1-1.67,0.29
		c-0.6,0.21-1.14,0.54-1.61,0.95c-1.03,0.91-1.68,2.23-1.68,3.71C59.43,25.37,61.65,27.59,64.38,27.59z"/>
	<path d="M74.48,41.32c0-0.38-0.02-0.75-0.06-1.11c-0.01-0.15-0.04-0.29-0.06-0.43c-0.03-0.22-0.06-0.44-0.1-0.65
		c-0.03-0.18-0.08-0.35-0.12-0.52c-0.04-0.18-0.08-0.35-0.14-0.53c-0.05-0.18-0.12-0.36-0.18-0.54c-0.03-0.1-0.06-0.2-0.1-0.3
		c-0.02-0.07-0.06-0.13-0.08-0.19c-0.06-0.14-0.12-0.28-0.18-0.42c-0.08-0.18-0.17-0.35-0.26-0.53c-0.06-0.13-0.13-0.25-0.2-0.38
		c-0.15-0.27-0.31-0.54-0.49-0.8c-0.07-0.1-0.14-0.19-0.21-0.29c-0.12-0.17-0.25-0.35-0.39-0.52c-0.09-0.11-0.18-0.22-0.28-0.33
		c-0.13-0.15-0.26-0.3-0.4-0.44c-0.1-0.1-0.19-0.2-0.29-0.3c-0.17-0.17-0.35-0.33-0.53-0.48c-0.07-0.06-0.14-0.13-0.21-0.19
		c-0.25-0.2-0.5-0.39-0.77-0.57c-0.1-0.07-0.2-0.13-0.31-0.2c-0.18-0.12-0.37-0.23-0.56-0.34c-0.11-0.06-0.22-0.13-0.34-0.18
		c-0.21-0.11-0.42-0.21-0.64-0.31c-0.09-0.04-0.19-0.09-0.28-0.13c-0.31-0.13-0.62-0.24-0.94-0.35c-0.08-0.03-0.17-0.05-0.25-0.07
		c-0.25-0.07-0.5-0.14-0.76-0.2c-0.12-0.03-0.23-0.05-0.35-0.07c-0.24-0.05-0.49-0.08-0.74-0.11c-0.11-0.01-0.22-0.03-0.33-0.04
		c-0.35-0.03-0.71-0.05-1.07-0.05c0,0,0,0,0,0c0,0,0,0,0,0c0,0,0,0,0,0c-0.38,0-0.76,0.02-1.13,0.06c-0.12,0.01-0.23,0.03-0.35,0.05
		c-0.25,0.03-0.51,0.07-0.76,0.12c-0.13,0.03-0.26,0.06-0.38,0.09c-0.24,0.05-0.47,0.12-0.7,0.18c-0.12,0.04-0.24,0.07-0.36,0.11
		c-0.08,0.03-0.16,0.05-0.24,0.07c-0.14,0.05-0.26,0.11-0.4,0.16c-0.1,0.04-0.2,0.07-0.3,0.11c-0.04,0.02-0.07,0.04-0.11,0.06
		c-0.43,0.19-0.84,0.4-1.24,0.64c-0.04,0.02-0.07,0.05-0.11,0.07c-0.36,0.22-0.71,0.47-1.04,0.73c-0.09,0.07-0.18,0.14-0.27,0.21
		c-0.1,0.08-0.2,0.16-0.3,0.24c0.01,0,0.02,0,0.03,0c-2.17,1.91-3.64,4.61-3.91,7.65c-0.03,0.34-0.05,0.68-0.05,1.03
		c0,5.38,3.68,9.91,8.65,11.22c0.24,0.06,0.48,0.11,0.72,0.16l-2.04,2.04H51.9v-4.03l-1.25-3.32l-1.24,3.32v10.07h-9.36l-1.34-1.34
		c0.14-0.35,0.21-0.74,0.21-1.14c0-0.39-0.07-0.77-0.21-1.12c-0.45-1.19-1.6-2.04-2.95-2.04c-0.37,0-0.73,0.07-1.06,0.18
		c-0.38,0.14-0.73,0.34-1.02,0.61c-0.65,0.58-1.07,1.42-1.07,2.36c0,1.74,1.41,3.15,3.15,3.15c0.42,0,0.82-0.1,1.18-0.25l2.07,2.07
		h10.39v7.71H39.19c-0.69,0-1.24,0.56-1.24,1.24s0.56,1.24,1.24,1.24h23c0.69,0,1.24-0.56,1.24-1.24s-0.56-1.24-1.24-1.24H51.9
		V57.24h7.76l4.36-4.36c2.97-0.29,5.61-1.72,7.5-3.83c0,0,0,0.01,0,0.01c0.03-0.03,0.05-0.07,0.08-0.1
		c0.16-0.18,0.32-0.38,0.47-0.57c0.07-0.09,0.14-0.18,0.2-0.27c0.14-0.19,0.27-0.39,0.4-0.58c0.07-0.11,0.13-0.22,0.2-0.33
		c0.11-0.19,0.22-0.39,0.33-0.58c0.07-0.13,0.13-0.26,0.19-0.39c0.09-0.19,0.18-0.38,0.25-0.57c0.06-0.15,0.12-0.31,0.17-0.47
		c0.06-0.18,0.13-0.36,0.18-0.54c0.06-0.19,0.1-0.38,0.15-0.57c0.04-0.17,0.09-0.33,0.12-0.5c0.05-0.23,0.08-0.47,0.11-0.71
		c0.02-0.13,0.04-0.26,0.06-0.4c0.04-0.38,0.06-0.76,0.06-1.14c0,0,0,0,0,0c0,0,0,0,0,0C74.48,41.33,74.48,41.33,74.48,41.32z"/>
	<path d="M39.56,32.84c4.19,0,7.87,2.21,9.94,5.52c0.65-2.91,2.23-5.48,4.41-7.37c1.26-1.09,2.72-1.96,4.32-2.54
		c0.02-0.01,0.03-0.01,0.05-0.02c-0.55-6.02-5.61-10.74-11.77-10.74c-3.04,0-5.8,1.15-7.9,3.03c-2.41,2.16-3.93,5.3-3.93,8.8
		c0,1.44,0.26,2.81,0.73,4.09C36.7,33.11,38.1,32.84,39.56,32.84z"/>
	<path d="M57.73,76.36H43.68c-0.69,0-1.24,0.56-1.24,1.24s0.56,1.24,1.24,1.24h14.05c0.69,0,1.24-0.56,1.24-1.24
		S58.42,76.36,57.73,76.36z"/>
	<path d="M53.68,81.73h-6.1c-0.69,0-1.24,0.56-1.24,1.24s0.56,1.24,1.24,1.24h6.1c0.69,0,1.24-0.56,1.24-1.24
		S54.37,81.73,53.68,81.73z"/>
</g>
</svg>
