<?xml version="1.0" encoding="utf-8"?>
<!-- Generator: Adobe Illustrator 28.1.0, SVG Export Plug-In . SVG Version: 6.00 Build 0)  -->
<svg version="1.1" id="SEPAL_LOGO_BLACK_01" xmlns="http://www.w3.org/2000/svg" xmlns:xlink="http://www.w3.org/1999/xlink"
	 x="0px" y="0px" viewBox="0 0 1538.55 600" style="enable-background:new 0 0 1538.55 600;" xml:space="preserve">
<style type="text/css">
	.st0{fill:#1D1D1B;}
</style>
<g>
	<g>
		<path class="st0" d="M398.31,489.57c9.88-5.34,18.66-12.65,25.39-21.15c3.66-4.64,6.66-9.13,9.15-13.71
			c0.45-0.77,0.85-1.57,1.24-2.34c0.22-0.44,0.45-0.89,0.68-1.32l0.94-1.84l2.54-5.65l1.49-3.84c3.74-9.56,6.52-20.29,8.27-31.9
			c1.65-11.12,2.44-22.22,2.34-32.98c-0.24-21.52-2.95-43.66-8.07-65.8c-2.59-11.24-5.55-22.03-8.81-32.07
			c-3.42-10.67-7.27-21.18-11.46-31.24c-4.24-10.27-8.94-20.43-13.98-30.19c-4.9-9.57-10.44-19.29-16.49-28.87
			c-12.16-19.37-26.01-36.82-41.16-51.87c-7.9-7.76-16.44-14.87-25.36-21.12c-9.14-6.45-18.86-11.73-28.91-15.68
			c-9.9-4.04-20.67-6.55-32.03-7.45c-0.88-0.09-1.78-0.12-2.64-0.13c-0.5-0.01-1-0.02-1.5-0.05c-0.31,0-0.65-0.01-0.98-0.03
			c-1.55-0.06-2.86-1.1-3.26-2.59l-0.07-0.25l0.31-0.42l0.27,0c2.71-0.24,5.42-0.36,8.01-0.36c11.49,0.05,22.91,1.96,33.93,5.65
			c10.59,3.54,21.05,8.56,31.09,14.93c9.07,5.72,17.99,12.6,27.27,21.04c2.09,1.97,4.18,3.93,6.23,5.93
			c0.71,0.72,1.41,1.43,2.12,2.14c1.29,1.3,2.63,2.64,3.9,4.01c3.97,4.24,7.79,8.59,11.34,12.91c7.05,8.55,13.89,17.84,20.34,27.61
			c5.98,9.08,11.65,18.74,17.35,29.54c5.22,9.99,10.1,20.43,14.49,31.01c8.92,21.65,15.75,43.62,20.31,65.31
			c2.38,11.42,4.16,22.81,5.29,33.86c0.29,2.49,0.49,5.05,0.68,7.51l0.08,1.03c0.23,2.56,0.34,5.17,0.45,7.69l0.04,0.88
			c0.11,1.86,0.13,3.75,0.14,5.58c0.01,1,0.02,2,0.04,3c0.03,1.87-0.01,3.76-0.05,5.59c-0.02,1-0.04,2-0.05,3
			c-0.08,2.32-0.19,4.62-0.31,6.92l-0.08,1.67c-0.09,1.01-0.17,2.01-0.24,3.01c-0.14,1.83-0.29,3.72-0.5,5.58
			c-0.57,5.09-1.32,11.1-2.57,17.04c-2.48,12.36-5.84,23.12-10.26,32.87c-5.34,11.72-11.44,21.17-18.65,28.9
			c-4.09,4.39-8.43,8.21-12.9,11.36c-2.26,1.58-4.71,3.1-7.27,4.52c-2.24,1.23-4.67,2.41-7.66,3.72L398.31,489.57z M392.53,485.14
			l-0.15-0.32c-0.99-2.24-0.67-4.76,0.83-6.59c4.39-5.37,8.14-11.23,11.14-17.39c4.86-9.68,8.62-20.62,11.16-32.51
			c1.06-4.87,1.95-10.13,2.86-17.05c0.1-1.02,0.21-2.05,0.33-3.08c0.2-1.81,0.41-3.68,0.54-5.52c0.06-1.03,0.13-2.06,0.2-3.1
			c0.12-1.82,0.25-3.7,0.31-5.55c0.06-1.63,0.1-3.25,0.13-4.88l0-0.21l0.15-0.16c2.86-2.61,5.62-5.25,8.21-7.84l0.15-0.15l0.75,0
			l0.01,0.53l-0.07,4.2c-0.08,1.98-0.19,3.95-0.31,5.91c-0.06,1.03-0.12,2.05-0.17,3.08c-0.96,13.05-2.82,24.68-5.69,35.58
			c-3.29,12.5-7.77,23.79-13.31,33.56c-0.46,0.92-1.05,1.82-1.61,2.69c-0.26,0.39-0.51,0.79-0.76,1.18l-2.44,3.8l-2.73,3.65
			c-0.29,0.37-0.56,0.74-0.83,1.11c-0.62,0.83-1.26,1.69-2,2.48c-0.47,0.52-0.94,1.06-1.41,1.6c-1.44,1.64-2.93,3.34-4.6,4.85
			l-0.15,0.14l-0.21,0H392.53z M438.83,466.28l-0.14-0.34l-0.13-0.33l0.27-0.25c4.18-3.61,7.66-7.15,10.67-10.81
			c1.87-2.27,3.32-4.22,4.58-6.14l2.15-3.2c0.44-0.68,0.85-1.39,1.26-2.09c0.23-0.4,0.46-0.8,0.7-1.19
			c0.97-1.56,1.83-3.23,2.66-4.85c0.32-0.63,0.65-1.26,0.98-1.89c0.41-0.74,0.76-1.52,1.09-2.29c0.17-0.39,0.35-0.78,0.53-1.17
			c0.18-0.4,0.37-0.81,0.55-1.23c0.34-0.75,0.68-1.49,0.99-2.25c1.55-3.88,3.51-9.04,4.96-14.43c2.75-9.59,4.63-19.69,5.6-30.01
			c0.97-10.17,1.27-20.46,0.9-30.58l-0.04-1.08c-0.08-2.16-0.16-4.38-0.34-6.57l-0.04-0.58c-0.15-2.32-0.31-4.71-0.56-7.06
			l-0.15-1.68c-0.18-1.95-0.36-3.98-0.61-5.95l-0.04-0.37c-0.27-2.38-0.55-4.84-0.91-7.24c-1.37-9.89-3.27-20.03-5.65-30.17
			c-4.63-20.05-10.91-39.72-18.66-58.46c-6.81-16.85-14.93-33.25-24.12-48.77l-0.26-0.45l0.45-0.28c0.91-0.47,1.61-0.91,2.23-1.38
			c1.6-1.21,2.96-2.75,4.03-4.56l0.15-0.26l0.61-0.01l0.16,0.27c9.74,15.78,18.55,33.14,26.19,51.57
			c8.03,19.81,14.32,40.06,18.71,60.19c2.23,10.47,3.97,20.95,5.16,31.14c0.33,2.51,0.56,5.07,0.79,7.55l0.03,0.3
			c0.23,2.27,0.42,4.7,0.6,7.88c0.18,2.49,0.26,5.03,0.33,7.48l0.01,0.42c0.1,2.27,0.11,4.58,0.12,6.81l0,1.09
			c-0.02,11.55-0.7,21.87-2.1,31.57c-1.55,10.82-4.01,21.19-7.32,30.82c-3.85,11.01-8.44,20.29-14.03,28.36
			c-0.27,0.38-0.53,0.76-0.79,1.14c-0.48,0.71-0.97,1.42-1.49,2.1l-2.43,3.1c-1.49,1.94-3.19,3.9-5.19,5.97
			c-3.64,3.71-7.62,7.09-11.81,10.03l-0.13,0.09l-0.17,0H438.83z M472.72,433.32c2.7-3.46,5.23-7.26,7.51-11.31
			c2.17-3.82,4.17-7.91,5.94-12.17c3.35-8.2,5.94-16.91,7.7-25.88c1.75-8.67,2.86-17.69,3.3-26.81c0.48-10.42,0.45-19.01-0.12-27.03
			c-0.05-1.5-0.19-3.02-0.32-4.48c-0.07-0.76-0.14-1.51-0.2-2.27l-0.12-1.34l0.66,0.11c0.45,0.08,0.91,0.12,1.35,0.12
			c0.39,0,0.78-0.03,1.16-0.09c0.88-0.13,1.77-0.44,2.64-0.91l0.12-0.06l0.6,0l0.07,0.47c0.2,3.07,0.33,5.73,0.41,8.16l0.15,6.93
			l-0.1,6.94c0,1.66-0.09,3.35-0.18,4.98c-0.04,0.65-0.07,1.3-0.1,1.96l-0.2,3.46c-0.04,0.76-0.12,1.51-0.2,2.26
			c-0.04,0.4-0.08,0.8-0.12,1.21c-0.86,9.55-2.37,18.76-4.52,27.37c-2.4,9.52-5.53,18.31-9.31,26.12
			c-2.12,4.32-4.43,8.38-6.85,12.05c-2.63,3.94-5.48,7.61-8.48,10.9L472.72,433.32z M498.56,393.69c6.11-13.01,10-27.61,11.56-43.39
			c1.58-13.7,1.59-28.41,0.04-44.97c-1.76-16.03-4.44-30.51-8.21-44.25l-1.48-5.44l-1.61-5.4c-0.72-2.51-1.56-5.03-2.37-7.47
			c-0.36-1.09-0.73-2.17-1.08-3.26c-2.93-8.36-5.51-15.04-8.09-21.02c-3.11-7.53-6.68-14.9-9.44-20.47l-3.92-7.49l-4.13-7.38
			l-2.87-4.84c-7.18-12.19-15.95-24.54-26.04-36.72c-0.77-0.91-1.56-1.81-2.36-2.71c-0.45-0.51-3.2-3.65-3.2-3.65l-1.92-2.05
			l-3.87-4.11l-3.99-3.96c-1.34-1.37-2.75-2.67-4.07-3.87c-0.5-0.45-0.99-0.91-1.48-1.37c-0.87-0.81-1.77-1.64-2.68-2.42l-1.45-1.23
			c-2.34-1.99-4.76-4.05-7.24-5.94c-12.76-9.98-25.97-17.34-39.24-21.86l0.3-1c3.58,0.96,7.23,2.17,10.87,3.57
			c3.38,1.33,6.89,2.92,10.45,4.72c6.6,3.36,13.18,7.37,19.58,11.92c11.62,8.36,22.99,18.77,33.8,30.94
			c19.46,22.19,35.64,48.33,48.07,77.71c12.39,29.39,19.88,59.21,22.26,88.63l0.41,6.72c0.04,0.63,0.08,1.25,0.1,1.88l0.07,2.87
			c0.01,0.68,0.03,1.35,0.05,2.02c0.03,1.24,0.07,2.48,0.07,3.72l-0.09,5.73c-0.23,6.32-0.66,14.62-1.97,22.87
			c-1.08,7.55-2.77,15.07-5.01,22.36c-1.17,3.78-2.48,7.41-3.88,10.78c-1.51,3.58-3.19,7.04-4.99,10.3L498.56,393.69z
			 M427.35,354.51l-0.16-0.16c-3.31-3.26-6.73-6.45-10.16-9.48l-0.18-0.16l0-0.24c-0.96-6.41-2.14-12.96-3.52-19.4
			c-2.59-12.07-5.47-23.07-8.81-33.63c-0.54-1.7-1.11-3.38-1.68-5.07l-0.41-1.2l0.88-0.21c3.08-0.77,5.95-2.08,8.55-3.89l0.13-0.09
			l0.51,0l0.15,0.32c0.86,2.58,1.56,4.72,2.24,6.9c3.79,12.42,6.66,23.8,8.77,34.78c2.01,10.44,3.5,20.85,4.43,30.95l0.02,0.23
			l-0.31,0.35l-0.24,0H427.35z M521.08,332.15c0.77-10.28,0.84-20.28,0.2-29.73c-0.56-9.45-1.77-19.36-3.6-29.46
			c-1.87-10.08-4.18-19.79-6.88-28.84c-2.84-9.64-6.14-19.05-9.81-27.97c-3.65-9.03-7.88-18.06-12.56-26.85
			c-4.38-8.32-9.52-16.87-15.26-25.42c-5.74-8.46-11.81-16.39-18.03-23.57c-6.13-7.2-12.95-14.14-20.86-21.22l0.66-0.8
			c7.27,5.56,14.53,12.16,22.21,20.19c6.79,7.22,13.2,15.05,19.07,23.27c5.53,7.68,10.76,16.03,15.99,25.51
			c4.69,8.6,9.04,17.75,12.92,27.2c3.86,9.55,7.15,19.13,9.78,28.48c2.89,10.41,4.99,20.03,6.43,29.41
			c3.29,20.97,3.55,41.13,0.78,59.92L521.08,332.15z M388.41,323.09l-0.13-0.07c-4.45-2.89-9-5.65-13.57-8.21l-0.18-0.1l-0.07-0.2
			c-0.83-2.95-1.7-5.86-2.59-8.68c-3.51-11.29-7.59-22.43-12.12-33.12c-4.31-10.25-9.19-20.46-14.51-30.35l-0.11-0.2l0.07-0.23
			c1.92-4.31,3.76-8.77,5.47-13.31l0.13-0.34l0.66-0.01l0.16,0.25c1.37,2.36,2.57,4.46,3.68,6.45
			c5.82,10.57,11.18,21.63,15.95,32.87c7.59,18.08,13.58,36.44,17.81,54.57l0.06,0.25l-0.32,0.4l-0.26,0.01H388.41z M344.5,300.51
			l-0.1-0.05c-4.53-1.77-9.23-3.44-13.95-4.96l-0.25-0.08l-0.09-0.26c-0.61-1.57-1.25-3.16-1.9-4.75
			c-1.31-3.24-2.71-6.52-4.27-10.02l-0.13-0.28l0.19-0.26c2.49-3.65,4.94-7.45,7.26-11.29l0.15-0.25l0.63-0.01l0.15,0.29
			c2.67,5.6,5.21,11.35,7.57,17.1c1.85,4.55,3.65,9.3,5.35,14.1l0.09,0.24l-0.3,0.46l-0.29,0.01H344.5z M489.95,282.42l-0.07-0.46
			l-1.28-5.23c-1.85-7.21-4.39-16.69-7.58-25.99l-1.07-3.22l-1.15-3.18l-2.32-6.37c-0.44-1.1-0.88-2.23-1.32-3.35
			c-1.19-3.03-2.42-6.17-3.76-9.19c-6.78-16.3-15.12-32.48-24.79-48.11c-4.27-6.99-9.25-14.32-15.2-22.4l-4.12-5.37
			c-0.82-1.09-1.71-2.16-2.57-3.2c-0.57-0.68-1.13-1.37-1.69-2.06l-2.13-2.63l-2.21-2.55c-0.53-0.6-1.05-1.2-1.57-1.81
			c-0.94-1.08-1.91-2.2-2.89-3.27c-5.64-6.23-11.96-12.42-19.31-18.93c-6.5-5.78-13.74-11.27-21.51-16.34
			c-4.48-2.88-8.18-5.05-11.65-6.84c-1.41-0.78-2.89-1.48-4.31-2.17c-0.59-0.28-1.17-0.56-1.76-0.85c-0.62-0.27-1.25-0.55-1.89-0.83
			c-1.4-0.62-2.86-1.27-4.31-1.82c-4.38-1.76-8.7-3.19-12.86-4.24c-4.52-1.18-9.01-2.03-13.36-2.5l0.08-1.04
			c9.08,0.31,18.21,2,27.14,5.01c1.82,0.57,3.65,1.26,5.41,1.93l1.11,0.42c0.62,0.26,1.22,0.51,1.82,0.76
			c1.51,0.63,3.07,1.28,4.57,2.01c3.66,1.66,7.58,3.69,12.31,6.4c14.78,8.66,29.3,20.32,43.18,34.65
			c6.68,6.99,12.78,14.05,18.14,20.98c6.23,8.14,11.46,15.55,15.97,22.65c0.91,1.35,1.77,2.77,2.6,4.15
			c0.35,0.58,0.7,1.16,1.05,1.74l0.74,1.23c0.94,1.54,1.9,3.14,2.79,4.75l3.41,6.02l3.25,6.12c4.63,8.88,8.5,17.08,11.84,25.05
			c1.36,3.14,2.62,6.38,3.83,9.52c0.43,1.11,0.86,2.23,1.3,3.34l2.34,6.53l1.15,3.26l1.07,3.3c2.82,8.45,5.36,17.42,7.55,26.66
			c0.46,1.98,0.89,3.96,1.32,5.95l0.05,0.24l-0.31,0.4l-0.33,0l-0.07-0.02c-0.7-0.17-1.38-0.26-2.04-0.26
			c-0.36,0-0.73,0.03-1.08,0.08c-0.93,0.14-1.87,0.48-2.79,1l-0.12,0.07l-0.14,0H489.95z M382.69,237.56l-0.15-0.29
			c-1.9-3.82-3.51-6.95-5.07-9.85c-5.08-9.46-10.94-19.18-17.4-28.91l-0.14-0.21l0.08-0.25c0.96-4.12,1.85-8.39,2.62-12.64
			l0.08-0.43l0.45-0.01h0.26l0.17,0.21c1.63,2.22,3.2,4.41,4.67,6.52c8.92,12.91,17.17,26.89,24.54,41.58l0.12,0.23l-0.24,0.49
			l-0.29,0.04c-0.57,0.1-1.17,0.22-1.77,0.37c-2.59,0.65-5.05,1.69-7.31,3.08l-0.13,0.08l-0.15,0H382.69z M331.79,149.78
			c-4.01-0.21-8.1-0.32-12.16-0.33l-0.22,0l-0.16-0.15c-0.49-0.46-0.99-0.92-1.5-1.39l-4.79-4.42l-4.95-4.2
			c-1.06-0.91-2.18-1.86-3.33-2.74c-0.41-0.32-0.8-0.63-1.2-0.95c-0.73-0.58-1.46-1.16-2.21-1.71c-4.31-3.31-8.96-6.54-14.21-9.85
			c-6.83-4.29-13.78-7.92-20.65-10.81c-3.47-1.45-5.97-4.51-6.69-8.17l-0.05-0.23l0.14-0.23l0.16-0.2l0.33,0l0.06,0.02
			c10.04,2.87,20.33,7.27,30.61,13.07c9.38,5.26,19,12.06,29.42,20.79c3.9,3.26,7.86,6.83,11.77,10.61l0.26,0.25l-0.13,0.34
			l-0.13,0.32l-0.36,0.01L331.79,149.78z M398.81,147.11c-4.68-5.7-9.51-11.14-14.37-16.18c-7.03-7.24-14.71-14.06-22.83-20.27
			c-8.3-6.34-17-11.77-25.86-16.14c-17.1-8.57-36.05-13.1-54.8-13.1c-1.52,0-3.06,0.03-4.58,0.09l-0.07-1.04
			c0.81-0.08,1.62-0.17,2.43-0.26c1.75-0.19,3.56-0.39,5.35-0.5l5.87-0.24h0.16c0.37,0,0.75,0.01,1.12,0.02l2,0.04
			c2.16,0.05,4.39,0.1,6.59,0.34l3.9,0.34l3.92,0.57c5.59,0.75,10.95,2.14,15.46,3.39c1.71,0.49,3.42,1.06,5.08,1.61
			c0.82,0.27,1.64,0.54,2.46,0.81c0.88,0.35,1.74,0.68,2.6,1c1.58,0.6,3.22,1.23,4.8,1.91c9.25,3.98,18.56,9.18,27.68,15.47
			c8.12,5.59,16.12,12.18,24.46,20.16c5.75,5.51,11.38,11.5,16.72,17.8l0.18,0.21l-0.16,0.58l-0.31,0.08
			c-2.43,0.49-4.61,1.45-6.49,2.87c-0.12,0.09-0.22,0.18-0.33,0.28c-0.08,0.07-0.16,0.15-0.25,0.22l-0.4,0.34L398.81,147.11z"/>
		<path class="st0" d="M399.21,146.78c-4.59-5.59-9.38-11.01-14.4-16.21c-7.11-7.33-14.77-14.12-22.88-20.32
			c-8.11-6.19-16.78-11.67-25.94-16.19c-18.26-9.15-38.84-13.87-59.63-13.06c2.58-0.26,5.17-0.6,7.76-0.76l3.91-0.16l1.96-0.08
			c0.65,0,1.3,0.02,1.96,0.03c2.61,0.07,5.23,0.08,7.83,0.37l3.92,0.34c0,0,0,0,0,0l3.89,0.56c5.21,0.7,10.32,1.97,15.39,3.38
			c2.53,0.73,5.01,1.61,7.52,2.42c0,0,0,0,0,0c2.45,0.97,4.94,1.85,7.36,2.89c9.69,4.17,18.9,9.43,27.58,15.42
			c8.7,5.99,16.78,12.82,24.39,20.1c5.87,5.62,11.43,11.57,16.68,17.76c0.01,0.01,0,0.02-0.01,0.02c-2.4,0.48-4.68,1.45-6.69,2.97
			C399.6,146.43,399.41,146.61,399.21,146.78z M484.01,345.2c-0.08-2.63-0.16-5.26-0.35-7.88c-0.15-2.63-0.34-5.25-0.6-7.86
			c-0.24-2.62-0.48-5.24-0.82-7.84c-1.22-10.44-2.96-20.81-5.15-31.09c-4.47-20.53-10.79-40.64-18.68-60.1
			c-7.38-17.8-16.03-35.09-26.16-51.51c0-0.01-0.02-0.01-0.02,0c-1.06,1.8-2.44,3.41-4.16,4.71c-0.72,0.55-1.49,1-2.28,1.41
			c-0.01,0-0.01,0.01,0,0.02c9.26,15.63,17.34,31.98,24.16,48.84c7.84,18.95,14.08,38.57,18.69,58.54
			c2.34,9.98,4.25,20.06,5.66,30.21c0.38,2.53,0.67,5.08,0.96,7.62c0.32,2.54,0.53,5.09,0.77,7.64c0.27,2.55,0.43,5.1,0.6,7.65
			c0.2,2.55,0.28,5.11,0.38,7.67c0.37,10.23,0.06,20.47-0.91,30.65c-0.96,10.18-2.81,20.27-5.62,30.09
			c-1.33,4.94-3.09,9.74-4.98,14.5c-0.48,1.18-1.04,2.33-1.56,3.5c-0.54,1.16-1.01,2.36-1.63,3.47c-1.2,2.26-2.3,4.58-3.65,6.76
			c-0.66,1.1-1.27,2.23-1.97,3.3l-2.15,3.2c-1.41,2.16-2.98,4.2-4.61,6.18c-3.21,3.93-6.85,7.52-10.72,10.87
			c-0.01,0.01,0,0.03,0.01,0.02c4.19-2.94,8.12-6.28,11.74-9.96c1.82-1.89,3.56-3.86,5.15-5.93l2.43-3.1
			c0.8-1.04,1.51-2.15,2.26-3.22c5.99-8.65,10.49-18.29,13.97-28.24c3.42-9.97,5.8-20.3,7.29-30.73c1.5-10.43,2.08-20.97,2.09-31.49
			C484.12,350.46,484.13,347.83,484.01,345.2z M502.5,321.72c0-0.01-0.01-0.01-0.02-0.01c-0.88,0.48-1.82,0.82-2.81,0.97
			c-0.9,0.14-1.79,0.12-2.68-0.03c0.02,0.22,0.04,0.45,0.06,0.67c0.17,2.25,0.45,4.5,0.52,6.76c0.63,9.02,0.54,18.07,0.12,27.09
			c-0.43,9.03-1.52,18.03-3.31,26.89c-1.74,8.87-4.3,17.59-7.73,25.98c-1.74,4.18-3.72,8.27-5.97,12.22
			c-2.23,3.96-4.74,7.78-7.55,11.38c3.08-3.38,5.89-7.02,8.43-10.84c2.53-3.83,4.78-7.85,6.81-11.99c4.01-8.3,7.02-17.07,9.27-26.02
			c2.23-8.96,3.68-18.1,4.5-27.3c0.1-1.15,0.25-2.3,0.32-3.45l0.2-3.46c0.11-2.3,0.29-4.61,0.29-6.92l0.1-6.92l-0.15-6.92
			C502.82,327.13,502.68,324.43,502.5,321.72z M479.29,244.16l1.15,3.19l1.07,3.22c2.94,8.56,5.35,17.28,7.6,26.03l1.3,5.29
			c0,0.01,0.01,0.01,0.02,0.01c0.93-0.53,1.91-0.91,2.97-1.07c1.11-0.17,2.22-0.08,3.32,0.19c0.01,0,0.02-0.01,0.01-0.01
			c-0.42-1.98-0.86-3.96-1.32-5.94c-2.12-8.98-4.62-17.87-7.54-26.62l-1.07-3.29l-1.15-3.26l-2.33-6.51
			c-1.68-4.29-3.28-8.62-5.12-12.85c-3.57-8.51-7.56-16.83-11.82-25.01l-3.24-6.11l-3.41-6.02c-1.11-2.02-2.33-3.98-3.52-5.95
			c-1.21-1.96-2.35-3.97-3.65-5.88c-4.95-7.79-10.34-15.29-15.94-22.62c-5.64-7.31-11.72-14.27-18.1-20.94
			c-12.84-13.25-27.12-25.21-43.07-34.56c-4.01-2.29-8.07-4.48-12.28-6.38c-2.08-1-4.23-1.85-6.34-2.75
			c-2.16-0.81-4.3-1.66-6.5-2.34c-8.73-2.94-17.86-4.67-26.99-4.98c4.54,0.5,9.03,1.36,13.42,2.51c4.41,1.11,8.72,2.56,12.92,4.26
			c2.12,0.81,4.17,1.78,6.24,2.67c2.03,1,4.09,1.93,6.08,3.02c4.02,2.08,7.89,4.43,11.69,6.87c7.57,4.93,14.81,10.38,21.57,16.39
			c6.77,5.99,13.28,12.26,19.35,18.96c1.53,1.66,2.98,3.4,4.48,5.09l2.22,2.56l2.14,2.63c1.41,1.77,2.9,3.46,4.26,5.27l4.13,5.38
			c5.36,7.28,10.51,14.72,15.23,22.43c9.51,15.37,17.88,31.48,24.83,48.18c1.83,4.14,3.42,8.37,5.09,12.57L479.29,244.16z
			 M504,383.67c1.46-3.51,2.74-7.1,3.87-10.74c2.24-7.28,3.91-14.75,4.99-22.29c1.2-7.54,1.69-15.17,1.97-22.79l0.09-5.73
			c0-1.91-0.08-3.81-0.11-5.72l-0.07-2.86c-0.03-0.95-0.11-1.9-0.16-2.86l-0.34-5.72c-2.46-30.46-10.37-60.35-22.22-88.47
			c-11.9-28.1-27.83-54.6-47.98-77.57c-10.14-11.41-21.32-21.94-33.71-30.86c-6.21-4.42-12.73-8.43-19.51-11.88
			c-3.4-1.72-6.86-3.31-10.4-4.7c-3.55-1.37-7.16-2.57-10.82-3.56c14.37,4.9,27.53,12.67,39.39,21.94c2.99,2.29,5.84,4.76,8.71,7.19
			c1.43,1.22,2.78,2.53,4.18,3.8c1.39,1.27,2.77,2.54,4.09,3.89l4.01,3.97l3.87,4.11l1.93,2.06l1.86,2.12
			c1.23,1.42,2.49,2.82,3.71,4.25c9.6,11.58,18.44,23.81,26.09,36.78l2.88,4.85l2.75,4.93l1.38,2.46l1.31,2.5l2.61,5
			c3.34,6.74,6.58,13.54,9.45,20.5c2.99,6.91,5.62,13.96,8.11,21.06c1.16,3.58,2.42,7.13,3.45,10.74l1.61,5.41l1.48,5.44
			c3.98,14.52,6.59,29.38,8.23,44.34c1.4,14.97,1.69,30.1-0.04,45.08c-1.49,14.99-5.16,29.82-11.61,43.56
			C500.87,390.59,502.52,387.17,504,383.67z M520.82,272.42c-1.51-9.9-3.73-19.69-6.41-29.35c-2.72-9.65-6.01-19.13-9.77-28.42
			c-3.81-9.27-8.1-18.35-12.9-27.15c-4.84-8.77-10.1-17.32-15.95-25.46c-5.82-8.16-12.17-15.93-19.02-23.22
			c-6.91-7.23-14.23-14.08-22.15-20.14c7.42,6.65,14.46,13.7,20.9,21.26c6.5,7.5,12.51,15.42,18.07,23.62
			c5.53,8.23,10.68,16.7,15.29,25.47c4.66,8.74,8.87,17.72,12.58,26.9c3.77,9.16,7.03,18.52,9.83,28.02
			c2.83,9.49,5.09,19.15,6.9,28.89c1.76,9.75,3.01,19.6,3.61,29.51c0.67,9.91,0.55,19.87-0.2,29.81
			C524.51,312.45,523.92,292.2,520.82,272.42z M328.69,290.21c0.65,1.59,1.28,3.19,1.91,4.79c0,0,0,0.01,0.01,0.01
			c4.72,1.52,9.39,3.18,14,4.98c0.01,0,0.02-0.01,0.02-0.01c-1.67-4.73-3.45-9.43-5.34-14.08c-2.36-5.75-4.87-11.45-7.55-17.06
			c0-0.01-0.02-0.01-0.02,0c-2.32,3.84-4.75,7.62-7.29,11.33c0,0,0,0.01,0,0.01C325.9,283.5,327.33,286.84,328.69,290.21z
			 M290.73,117.92c-9.62-5.43-19.82-9.96-30.47-13.01c-0.01,0-0.02,0-0.01,0.01l0.01,0.03c0.69,3.5,3.09,6.41,6.38,7.79
			c7.19,3.01,14.11,6.69,20.73,10.85c4.88,3.09,9.65,6.35,14.24,9.87c1.16,0.86,2.28,1.78,3.42,2.67c1.15,0.88,2.25,1.82,3.35,2.76
			l3.31,2.81l1.65,1.4l1.6,1.47l3.19,2.94c0.51,0.47,1.02,0.93,1.52,1.4c0,0,0,0,0.01,0c4.05,0.01,8.12,0.12,12.19,0.33
			c0.01,0,0.02-0.01,0.01-0.02c-3.79-3.66-7.7-7.19-11.75-10.58C310.9,130.97,301.22,123.8,290.73,117.92z M392.3,233.51
			c0.01,0,0.01-0.01,0.01-0.02c-7.21-14.37-15.35-28.27-24.5-41.51c-1.53-2.18-3.08-4.35-4.66-6.5c-0.01-0.01-0.02-0.01-0.02,0
			c-0.77,4.28-1.65,8.52-2.64,12.72c0,0,0,0.01,0,0.01c6.23,9.38,12.09,19.02,17.43,28.95c1.75,3.26,3.43,6.55,5.07,9.87
			c0,0.01,0.01,0.01,0.02,0c2.25-1.39,4.75-2.46,7.46-3.14C391.08,233.74,391.69,233.62,392.3,233.51z M403.11,285.54
			c0.64,1.91,1.29,3.82,1.91,5.74c3.5,11.08,6.39,22.34,8.82,33.68c1.38,6.46,2.56,12.97,3.53,19.51c0,0,0,0.01,0,0.01
			c3.47,3.06,6.86,6.23,10.18,9.5c0.01,0.01,0.02,0,0.02-0.01c-0.95-10.37-2.45-20.69-4.42-30.9c-2.26-11.73-5.27-23.31-8.76-34.72
			c-0.71-2.29-1.47-4.57-2.22-6.85c0-0.01-0.01-0.01-0.02-0.01c-2.57,1.79-5.5,3.16-8.72,3.97
			C403.33,285.49,403.22,285.51,403.11,285.54z M420.4,389.14C420.4,389.15,420.4,389.15,420.4,389.14
			c-0.03,1.64-0.07,3.27-0.13,4.9c-0.1,2.89-0.35,5.77-0.51,8.66c-0.2,2.89-0.58,5.75-0.87,8.63c-0.76,5.73-1.64,11.45-2.87,17.09
			c-2.41,11.29-6.03,22.33-11.2,32.63c-3.04,6.24-6.81,12.12-11.2,17.49c-1.38,1.69-1.65,4.03-0.77,6.02l0.02,0.03
			c0,0.01,0.01,0.01,0.02,0c2.17-1.97,4.02-4.24,5.98-6.42c1.04-1.1,1.87-2.35,2.79-3.54l2.71-3.62c0,0,0,0,0,0l2.44-3.8
			c0.79-1.28,1.68-2.51,2.36-3.85c5.94-10.48,10.2-21.83,13.26-33.44c3.06-11.62,4.8-23.53,5.68-35.48
			c0.16-2.99,0.36-5.98,0.48-8.97l0.07-4.19c0-0.01-0.01-0.02-0.02-0.01C425.93,383.99,423.19,386.6,420.4,389.14z M351.18,228.82
			c-1.69,4.49-3.51,8.92-5.46,13.29c0,0,0,0.01,0,0.01c5.32,9.89,10.18,20.03,14.53,30.39c4.6,10.84,8.64,21.92,12.14,33.17
			c0.9,2.88,1.76,5.77,2.59,8.67c0,0,0,0.01,0.01,0.01c4.61,2.58,9.13,5.32,13.57,8.21c0.01,0.01,0.02,0,0.02-0.01
			c-4.35-18.64-10.38-36.86-17.78-54.49c-4.74-11.2-10.05-22.16-15.92-32.83c-1.2-2.16-2.42-4.3-3.66-6.43
			C351.19,228.81,351.18,228.81,351.18,228.82z M458.61,357.77c-0.13-2.85-0.24-5.71-0.49-8.55c-0.22-2.85-0.42-5.7-0.75-8.53
			c-1.17-11.36-2.96-22.64-5.28-33.81c-4.69-22.33-11.6-44.15-20.28-65.22c-4.37-10.52-9.2-20.86-14.47-30.97
			C412,200.61,406.28,190.74,400,181.2c-6.28-9.53-13.03-18.75-20.31-27.57c-3.63-4.41-7.41-8.71-11.32-12.88
			c-1.95-2.09-4.01-4.09-6-6.13c-2.05-1.99-4.14-3.96-6.22-5.92c-8.47-7.71-17.48-14.86-27.2-20.98
			c-9.69-6.15-20.08-11.24-30.98-14.88c-10.89-3.65-22.35-5.57-33.76-5.62c-2.68,0-5.35,0.13-8.01,0.36c-0.01,0-0.01,0.01-0.01,0.01
			l0,0c0.34,1.26,1.47,2.16,2.78,2.21c0.33,0.01,0.66,0.02,0.99,0.03c1.39,0.07,2.78,0.03,4.16,0.18
			c11.06,0.88,21.96,3.31,32.18,7.49c10.27,4.04,20,9.37,29.01,15.73c9.04,6.33,17.54,13.43,25.43,21.18
			c15.7,15.59,29.44,33.17,41.24,51.96c5.92,9.39,11.45,19.02,16.51,28.91c5.1,9.87,9.76,19.96,14,30.23
			c4.27,10.26,8.09,20.7,11.48,31.28c3.42,10.57,6.32,21.3,8.82,32.12c5,21.63,7.84,43.76,8.08,65.91
			c0.1,11.08-0.72,22.14-2.34,33.07c-1.64,10.92-4.27,21.72-8.3,32.01l-1.51,3.86l-1.7,3.78l-0.85,1.89l-0.94,1.84
			c-0.64,1.22-1.23,2.48-1.92,3.67c-2.65,4.86-5.77,9.44-9.2,13.79c-6.88,8.69-15.63,15.93-25.56,21.29
			c2.58-1.13,5.13-2.34,7.61-3.7c2.47-1.37,4.89-2.87,7.22-4.49c4.65-3.27,8.92-7.1,12.82-11.29c7.82-8.38,13.81-18.34,18.56-28.76
			c4.74-10.46,7.97-21.54,10.23-32.77c1.19-5.61,1.93-11.3,2.56-16.98c0.32-2.85,0.49-5.7,0.74-8.55c0.14-2.85,0.3-5.71,0.4-8.57
			c0.03-2.86,0.14-5.72,0.09-8.58C458.72,363.49,458.77,360.62,458.61,357.77z"/>
		<circle id="SAT_02_00000039846064895016146070000008020914338221770899_" class="st0" cx="414.24" cy="165.34" r="10.17"/>
		<circle id="SAT_03_00000029007329347742890400000007213948781334866354_" class="st0" cx="396.95" cy="259.68" r="13.06"/>
		<circle id="SAT_04_00000123419616940689178690000016056547746359796871_" class="st0" cx="496.71" cy="300.62" r="8.93"/>
		<circle id="SAT_05_00000117650343160726345810000012372954344972724628_" class="st0" cx="378.45" cy="433.65" r="17.99"/>
		<circle id="SAT_01_00000153694201586551717650000011769930270299865990_" class="st0" cx="272.75" cy="144.74" r="11.05"/>
		<circle class="st0" cx="272.75" cy="144.74" r="11.05"/>
		<path class="st0" d="M308.57,524.73c-98.46,0-186.2-62.56-218.32-155.68C48.71,248.67,112.85,116.95,233.23,75.41l1.97-0.68
			l0.68,1.97c11.21,32.5,15.03,66.11,11.36,99.97c23.2-7.65,47.35-11.52,71.84-11.52c9.41,0,18.92,0.58,28.29,1.72l2.07,0.25
			l-0.25,2.07c-6.15,50.31-27.87,95.92-62.89,132.2c49.93,6.95,95.16,29.47,131.03,65.29l1.48,1.47l-1.47,1.48
			c-24.31,24.33-52.85,42.5-84.87,54.03c23.76,24.39,41.49,53.22,52.7,85.72l0.68,1.97l-1.97,0.68
			C359.48,520.46,334.14,524.73,308.57,524.73z M121.86,395.94c5.11,9.36,10.93,18.34,17.37,26.79
			c13.23,17.37,29.06,32.57,47.03,45.17c17.74,12.43,37.23,22.08,57.91,28.67c20.9,6.65,42.57,10.02,64.39,10.02
			c17.98,0,35.93-2.31,53.41-6.86c-6.82-15.69-15.49-30.49-25.78-44.02c-7.05-9.26-14.91-17.98-23.37-25.93
			c-19.18,5.04-38.98,7.59-58.88,7.59C206.12,437.38,160.65,423.09,121.86,395.94z M115.89,368.41c1.98,1.69,3.94,3.31,5.85,4.82
			c15.82,12.59,33.37,22.83,52.18,30.46c25.48,10.32,52.4,15.55,80.03,15.55c15.52,0,31-1.68,45.99-4.98
			c5.48-1.21,11.02-2.66,16.45-4.33c6-1.84,11.95-3.96,17.7-6.29c21.22-8.61,40.78-20.54,58.18-35.46
			c-17.36-14.86-36.9-26.74-58.09-35.33c-21.17-8.58-43.46-13.67-66.25-15.12c-4.51-0.29-9.15-0.44-13.77-0.44h-0.02
			c-2.84,0-5.61,0.05-8.25,0.16c-24.76,0.94-48.95,6.14-71.91,15.45c-15.85,6.43-30.86,14.76-44.62,24.76
			c-1.83,1.33-3.69,2.72-5.53,4.14c-2.74,2.13-5.43,4.33-8.02,6.55C115.84,368.38,115.86,368.39,115.89,368.41z M319.1,183.29
			c-26.09,0.01-51.68,4.77-76.05,14.15c-5.25,2.02-10.5,4.28-15.59,6.73c-17.57,8.42-33.94,19.25-48.65,32.18
			c-19.2,16.88-35.03,36.81-47.06,59.23c-8.59,16.01-15.08,33.09-19.3,50.75c-0.13,0.56-0.26,1.11-0.39,1.68
			c20.18-15.8,42.67-28.01,66.93-36.33c24.19-8.31,49.48-12.52,75.15-12.52c2.83,0,5.59,0.05,8.24,0.15
			c18.37-16.52,33.57-35.89,45.2-57.57c9.8-18.28,16.85-37.86,20.95-58.24c-3.15-0.14-6.32-0.21-9.43-0.21H319.1z M223.58,98.6
			c-21.01,9.11-40.27,21.48-57.27,36.77c-20.46,18.4-36.97,40.33-49.07,65.19c-12.11,24.86-19.2,51.38-21.06,78.83
			c-1.12,16.42-0.32,32.88,2.37,49.04c9.47-30.94,25.59-59.93,46.94-84.31c22.58-25.79,51.1-46.56,82.53-60.14
			c0.88-5.79,1.53-11.71,1.93-17.62C231.5,143.54,229.36,120.75,223.58,98.6z"/>
		<path class="st0" d="M415.87,368.17c-37.6-37.55-85.01-59.3-133.98-65.24c34.88-34.88,58.79-81.23,65.24-133.98
			c-9.42-1.15-18.76-1.71-28.02-1.71v13.96c3.96,0,7.95,0.11,11.94,0.34c-4.07,21.45-11.32,41.98-21.62,61.19
			c-11.88,22.15-27.45,41.9-46.28,58.71c-2.99-0.12-5.99-0.18-8.99-0.18v7.78v6.19c4.65,0,9.29,0.15,13.9,0.44
			c23.02,1.46,45.47,6.58,66.9,15.27c22.18,8.99,42.47,21.49,60.49,37.26c-18.04,15.82-38.36,28.38-60.58,37.4
			c-5.88,2.39-11.85,4.51-17.87,6.36c-5.49,1.68-11.02,3.14-16.61,4.37c-15.17,3.35-30.69,5.03-46.44,5.03
			c-27.89,0-55.09-5.28-80.81-15.71c-19.04-7.72-36.68-18.02-52.69-30.75c-1.99-1.58-3.96-3.21-5.9-4.87
			c-0.64-0.54-1.28-1.09-1.91-1.65c3.23-2.84,6.55-5.57,9.93-8.21c1.84-1.42,3.7-2.82,5.58-4.18c13.93-10.12,29-18.48,45.07-25
			c23.2-9.41,47.58-14.65,72.61-15.6c2.77-0.11,5.55-0.16,8.33-0.16l0.01-6.18l0.01-7.79h-0.02c-25.19,0-50.38,4.13-74.47,12.41
			c-25.28,8.67-49.33,21.89-70.89,39.66c0.5-2.5,1.05-4.99,1.64-7.47c4.27-17.87,10.79-35.03,19.49-51.25
			c12.14-22.64,28.12-42.76,47.52-59.81c14.95-13.14,31.49-24.04,49.12-32.49c5.16-2.48,10.41-4.75,15.75-6.8
			c24.34-9.37,50.34-14.29,76.8-14.29l0.01-13.96h-0.02c-25.82,0-50.85,4.36-74.29,12.46c4.1-33.45,0.84-68.32-10.89-102.32
			C114.45,118.6,50.99,248.91,92.22,368.37c32.69,94.76,121.42,154.27,216.35,154.27c24.74,0,49.93-4.05,74.64-12.57
			c-11.74-34-30.68-63.46-54.53-87.27C360.54,411.83,390.45,393.61,415.87,368.17z M94.1,279.25c1.88-27.72,9.04-54.51,21.26-79.6
			c12.22-25.1,28.89-47.25,49.55-65.83c17.81-16.03,37.97-28.79,60.06-38.08c6.31,23.12,8.69,46.86,7.06,70.77
			c-0.44,6.36-1.15,12.68-2.13,18.94c-63.6,27.08-113.39,82.37-131.77,152.06C94.12,318.36,92.76,298.86,94.1,279.25z
			 M337.85,454.45c10.92,14.34,19.96,29.99,26.99,46.67c-18.4,5.02-37.27,7.55-56.28,7.55c-22.05,0-43.92-3.41-65.02-10.12
			c-20.87-6.65-40.55-16.38-58.48-28.95c-18.15-12.72-34.13-28.06-47.49-45.61c-8.33-10.93-15.56-22.62-21.64-34.96
			c40.7,30.84,89.35,46.26,138.01,46.26c20,0,40-2.6,59.46-7.82C322.3,435.75,330.47,444.76,337.85,454.45z"/>
	</g>
	<g>
		<path class="st0" d="M707.26,471.8c-39.2,0-65.54-26.71-65.54-66.45v-21.89c0-3.54,1.8-5.34,5.34-5.34h10.49
			c3.29,0,5.34,2.05,5.34,5.34v14.14c0,34.79,15.76,53.95,44.37,53.95c28.2,0,44.37-19.66,44.37-53.95v-14.14
			c0-24.86-23.31-47.52-45.85-69.42c-2.07-2.01-4.11-4-6.14-5.98c-2.88-2.88-5.91-5.84-8.84-8.69l-0.17-0.16
			c-24.05-23.44-48.92-47.69-48.92-82.65v-21.89c0-19.69,6.24-36.4,18.04-48.31c11.75-11.87,28.18-18.14,47.5-18.14
			c39.47,0,65.99,26.7,65.99,66.45v21.89c0,3.29-2.05,5.34-5.34,5.34h-10.95c-3.29,0-5.34-2.05-5.34-5.34v-14.14
			c0-34.28-16.17-53.95-44.37-53.95s-44.37,19.66-44.37,53.95v14.14c0,24.79,20.76,45.36,44.8,69.18l0.37,0.37
			c2.1,2.08,4.22,4.18,6.34,6.3c3.51,3.58,7.23,7.17,11.16,10.98c22.36,21.63,47.68,46.13,47.68,80.08v21.89
			C773.25,445.09,746.73,471.8,707.26,471.8z"/>
		<path class="st0" d="M847.72,469.52c-3.29,0-5.34-2.05-5.34-5.34V135.82c0-3.54,1.8-5.34,5.34-5.34h87.1
			c3.29,0,5.34,2.05,5.34,5.34v8.67c0,3.29-2.05,5.34-5.34,5.34h-62.93c-4.91,0-8.34,3.43-8.34,8.34v121.76
			c0,4.91,3.43,8.34,8.34,8.34h62.93c3.29,0,5.34,2.05,5.34,5.34v8.67c0,3.29-2.05,5.34-5.34,5.34h-62.93
			c-4.91,0-8.34,3.43-8.34,8.34v125.87c0,4.91,3.43,8.34,8.34,8.34h62.93c3.29,0,5.34,2.05,5.34,5.34v8.67
			c0,3.29-2.05,5.34-5.34,5.34H847.72z"/>
		<path class="st0" d="M1018.73,469.52c-3.29,0-5.34-2.05-5.34-5.34V135.82c0-3.54,1.8-5.34,5.34-5.34h60.2
			c39.47,0,65.99,26.7,65.99,66.45v72.97c0,19.83-6.31,36.59-18.26,48.47c-11.82,11.76-28.32,17.98-47.74,17.98h-36.03
			c-4.91,0-8.34,3.43-8.34,8.34v119.48c0,3.54-1.8,5.34-5.34,5.34H1018.73z M1042.9,150.74c-4.91,0-8.34,3.43-8.34,8.34v148.67
			c0,4.91,3.43,8.34,8.34,8.34h36.03c28.2,0,44.37-19.66,44.37-53.94v-57.46c0-34.28-16.17-53.95-44.37-53.95H1042.9z"/>
		<path class="st0" d="M1286.88,469.52c-3.08,0-4.52-0.53-5.36-5.59l-7.3-42.87c-0.4-2.42-1.35-8.09-8.32-8.09h-63.85
			c-6.97,0-7.92,5.67-8.32,8.09l-7.3,42.86c-0.84,5.06-2.28,5.59-5.36,5.59h-10.49c-1.84,0-3.13-0.42-3.83-1.24
			c-0.77-0.91-0.99-2.56-0.62-4.77l57.46-326.06c1.29-6.45,2.27-6.97,7.19-6.97h6.84c4.53,0,5.44,0.52,6.74,7l57.46,326.04
			c0.37,2.19,0.15,3.84-0.62,4.75c-0.7,0.82-1.98,1.24-3.83,1.24H1286.88z M1233.98,201.59c-1.55,0-3.38,1.03-3.76,3.31
			l-30.56,181.5c-0.33,2.34-0.01,4.03,1,5.19c0.92,1.06,2.27,1.57,4.13,1.57h58.83c1.86,0,3.21-0.51,4.13-1.57
			c1.01-1.16,1.33-2.85,1-5.16l-31.02-181.55C1237.36,202.62,1235.52,201.59,1233.98,201.59z"/>
		<path class="st0" d="M1368.51,469.52c-3.29,0-5.34-2.05-5.34-5.34V135.82c0-3.54,1.8-5.34,5.34-5.34H1379
			c3.29,0,5.34,2.05,5.34,5.34v306c0,4.91,3.43,8.34,8.34,8.34h62.93c3.29,0,5.34,2.05,5.34,5.34v8.67c0,3.29-2.05,5.34-5.34,5.34
			H1368.51z"/>
	</g>
</g>
</svg>
