<?xml version="1.0" encoding="utf-8"?>
<!-- Generator: Adobe Illustrator 28.1.0, SVG Export Plug-In . SVG Version: 6.00 Build 0)  -->
<svg version="1.1" id="Livello_36" xmlns="http://www.w3.org/2000/svg" xmlns:xlink="http://www.w3.org/1999/xlink" x="0px" y="0px"
	 viewBox="0 0 90.71 90.71" style="enable-background:new 0 0 90.71 90.71;" xml:space="preserve">
<style type="text/css">
	.st0{fill:#1F9BC2;}
	.st1{fill:url(#SVGID_1_);}
	.st2{fill:#0095C8;}
	.st3{fill:#3AA3DC;}
	.st4{fill:#76CAE8;}
	.st5{fill:#1D6B9B;}
	.st6{fill:#FFFFFF;}
	.st7{opacity:0.9;fill:#76CAE8;}
	.st8{opacity:0.9;fill:#46C0EC;}
	.st9{opacity:0.9;fill:#2FA8E0;}
	.st10{opacity:0.95;fill:#236B8D;}
	.st11{fill:url(#SVGID_00000062186055667564479040000011961804198725773741_);}
</style>
<g>
	<g>
		<circle id="SAT_02_00000060713683076682255490000018365669464512563876_" class="st0" cx="60.95" cy="26.72" r="1.58"/>
		<g>
			<linearGradient id="SVGID_1_" gradientUnits="userSpaceOnUse" x1="42.7171" y1="64.2042" x2="64.2773" y2="19.9283">
				<stop  offset="0" style="stop-color:#8DBF33"/>
				<stop  offset="0.2358" style="stop-color:#79B635"/>
				<stop  offset="0.6962" style="stop-color:#3EA138"/>
				<stop  offset="0.8853" style="stop-color:#049839"/>
				<stop  offset="1" style="stop-color:#009739"/>
			</linearGradient>
			<path class="st1" d="M58.87,24.15c-0.63-0.77-1.3-1.52-1.99-2.24c-0.98-1.02-2.04-1.95-3.17-2.81c-1.12-0.86-2.32-1.61-3.59-2.24
				c-2.53-1.27-5.38-1.92-8.25-1.81c0.36-0.04,0.71-0.08,1.07-0.1l0.54-0.02l0.27-0.01c0.09,0,0.18,0,0.27,0
				c0.36,0.01,0.72,0.01,1.08,0.05l0.54,0.05l0.54,0.08c0.72,0.1,1.43,0.27,2.13,0.47c0.35,0.1,0.69,0.22,1.04,0.33
				c0.34,0.13,0.68,0.26,1.02,0.4c1.34,0.58,2.62,1.31,3.82,2.13c1.2,0.83,2.32,1.77,3.38,2.78c0.81,0.78,1.58,1.6,2.31,2.46
				c-0.33,0.07-0.65,0.2-0.93,0.41C58.92,24.1,58.9,24.12,58.87,24.15z M70.61,51.61c-0.01-0.36-0.02-0.73-0.05-1.09
				c-0.02-0.36-0.05-0.73-0.08-1.09c-0.03-0.36-0.07-0.72-0.11-1.09c-0.17-1.45-0.41-2.88-0.71-4.3c-0.62-2.84-1.49-5.62-2.59-8.32
				c-1.02-2.46-2.22-4.86-3.62-7.13c-0.15,0.25-0.34,0.47-0.58,0.65c-0.1,0.08-0.21,0.14-0.32,0.2c1.28,2.16,2.4,4.43,3.34,6.76
				c1.09,2.62,1.95,5.34,2.59,8.1c0.32,1.38,0.59,2.78,0.78,4.18c0.05,0.35,0.09,0.7,0.13,1.05c0.04,0.35,0.07,0.7,0.11,1.06
				c0.04,0.35,0.06,0.71,0.08,1.06c0.03,0.35,0.04,0.71,0.05,1.06c0.05,1.42,0.01,2.83-0.13,4.24c-0.13,1.41-0.39,2.81-0.78,4.17
				c-0.18,0.68-0.43,1.35-0.69,2.01c-0.07,0.16-0.14,0.32-0.22,0.49c-0.08,0.16-0.14,0.33-0.23,0.48c-0.17,0.31-0.32,0.63-0.51,0.94
				c-0.09,0.15-0.18,0.31-0.27,0.46l-0.3,0.44c-0.2,0.3-0.41,0.58-0.64,0.86c-0.45,0.55-0.96,1.06-1.51,1.53
				c0.59-0.41,1.14-0.88,1.65-1.4c0.25-0.26,0.49-0.53,0.71-0.82l0.34-0.43c0.11-0.14,0.21-0.3,0.31-0.45
				c0.83-1.2,1.45-2.53,1.93-3.91c0.47-1.38,0.8-2.81,1.01-4.25c0.21-1.44,0.29-2.9,0.29-4.36C70.62,52.34,70.62,51.97,70.61,51.61z
				 M73.16,48.36c-0.12,0.07-0.25,0.11-0.39,0.14c-0.12,0.02-0.25,0.02-0.37,0c0,0.03,0.01,0.06,0.01,0.09
				c0.02,0.31,0.06,0.62,0.07,0.94c0.09,1.25,0.07,2.5,0.02,3.75c-0.06,1.25-0.21,2.49-0.46,3.72c-0.24,1.23-0.6,2.43-1.07,3.6
				c-0.24,0.58-0.51,1.15-0.83,1.69c-0.31,0.55-0.66,1.08-1.05,1.57c0.43-0.47,0.81-0.97,1.17-1.5c0.35-0.53,0.66-1.09,0.94-1.66
				c0.56-1.15,0.97-2.36,1.28-3.6c0.31-1.24,0.51-2.51,0.62-3.78c0.01-0.16,0.03-0.32,0.04-0.48l0.03-0.48
				c0.02-0.32,0.04-0.64,0.04-0.96l0.01-0.96l-0.02-0.96C73.21,49.11,73.19,48.73,73.16,48.36z M69.95,37.62l0.16,0.44l0.15,0.45
				c0.41,1.18,0.74,2.39,1.05,3.6l0.18,0.73c0.13-0.07,0.27-0.13,0.41-0.15c0.15-0.02,0.31-0.01,0.46,0.03
				c-0.06-0.28-0.12-0.55-0.18-0.82c-0.29-1.24-0.64-2.47-1.04-3.68l-0.15-0.46l-0.16-0.45l-0.32-0.9
				c-0.23-0.59-0.45-1.19-0.71-1.78c-0.49-1.18-1.05-2.33-1.64-3.46l-0.45-0.85l-0.47-0.83c-0.15-0.28-0.32-0.55-0.49-0.82
				c-0.17-0.27-0.33-0.55-0.5-0.81c-0.69-1.08-1.43-2.12-2.21-3.13c-0.78-1.01-1.62-1.97-2.5-2.9c-1.78-1.83-3.75-3.49-5.96-4.78
				c-0.55-0.32-1.12-0.62-1.7-0.88c-0.29-0.14-0.58-0.26-0.88-0.38c-0.3-0.11-0.6-0.23-0.9-0.32c-1.21-0.41-2.47-0.65-3.74-0.69
				c0.63,0.07,1.25,0.19,1.86,0.35c0.61,0.15,1.21,0.35,1.79,0.59c0.29,0.11,0.58,0.25,0.86,0.37c0.28,0.14,0.57,0.27,0.84,0.42
				c0.56,0.29,1.09,0.61,1.62,0.95c1.05,0.68,2.05,1.44,2.99,2.27c0.94,0.83,1.84,1.7,2.68,2.62c0.21,0.23,0.41,0.47,0.62,0.7
				l0.31,0.35l0.3,0.36c0.19,0.24,0.4,0.48,0.59,0.73l0.57,0.74c0.74,1.01,1.45,2.04,2.11,3.1c1.32,2.13,2.47,4.36,3.44,6.67
				c0.25,0.57,0.47,1.16,0.7,1.74L69.95,37.62z M73.37,56.93c0.2-0.49,0.38-0.98,0.54-1.49c0.31-1.01,0.54-2.04,0.69-3.09
				c0.17-1.04,0.23-2.1,0.27-3.15l0.01-0.79c0-0.26-0.01-0.53-0.02-0.79l-0.01-0.4c0-0.13-0.01-0.26-0.02-0.4l-0.05-0.79
				c-0.34-4.22-1.43-8.35-3.07-12.24c-1.65-3.89-3.85-7.56-6.64-10.74c-1.4-1.58-2.95-3.04-4.67-4.27c-0.86-0.61-1.76-1.17-2.7-1.64
				c-0.47-0.24-0.95-0.46-1.44-0.65c-0.49-0.19-0.99-0.36-1.5-0.49c1.99,0.68,3.81,1.75,5.45,3.04c0.41,0.32,0.81,0.66,1.21,0.99
				c0.2,0.17,0.39,0.35,0.58,0.53c0.19,0.18,0.38,0.35,0.57,0.54l0.55,0.55l0.54,0.57l0.27,0.29l0.26,0.29
				c0.17,0.2,0.34,0.39,0.51,0.59c1.33,1.6,2.55,3.3,3.61,5.09l0.4,0.67l0.38,0.68l0.19,0.34l0.18,0.35l0.36,0.69
				c0.46,0.93,0.91,1.87,1.31,2.84c0.41,0.96,0.78,1.93,1.12,2.92c0.16,0.5,0.34,0.99,0.48,1.49l0.22,0.75l0.21,0.75
				c0.55,2.01,0.91,4.07,1.14,6.14c0.19,2.07,0.23,4.17-0.01,6.24c-0.21,2.07-0.71,4.13-1.61,6.03
				C72.94,57.89,73.17,57.42,73.37,56.93z M75.7,41.54c-0.21-1.37-0.52-2.73-0.89-4.06c-0.38-1.34-0.83-2.65-1.35-3.93
				c-0.53-1.28-1.12-2.54-1.79-3.76c-0.67-1.21-1.4-2.4-2.21-3.52c-0.8-1.13-1.68-2.2-2.63-3.21c-0.96-1-1.97-1.95-3.07-2.79
				c1.03,0.92,2,1.9,2.89,2.94c0.9,1.04,1.73,2.13,2.5,3.27c0.77,1.14,1.48,2.31,2.12,3.53c0.64,1.21,1.23,2.45,1.74,3.72
				c0.52,1.27,0.97,2.56,1.36,3.88c0.39,1.31,0.7,2.65,0.95,4c0.24,1.35,0.42,2.71,0.5,4.08c0.09,1.37,0.08,2.75-0.03,4.13
				C76.21,47.08,76.13,44.27,75.7,41.54z M49.11,44c0.09,0.22,0.18,0.44,0.26,0.66c0.66,0.21,1.3,0.44,1.94,0.69
				c-0.23-0.66-0.48-1.31-0.74-1.95c-0.33-0.8-0.68-1.59-1.05-2.36c-0.32,0.53-0.66,1.06-1.01,1.57
				C48.72,43.07,48.92,43.53,49.11,44z M43.85,20.15c-1.33-0.75-2.74-1.38-4.22-1.8c0.05,0.27,0.1,0.53,0.15,0.8
				c1.26,0.46,2.47,1.08,3.61,1.79c0.68,0.43,1.34,0.88,1.97,1.37c0.16,0.12,0.32,0.25,0.47,0.37c0.16,0.12,0.31,0.25,0.46,0.38
				l0.46,0.39l0.23,0.19l0.22,0.2l0.44,0.41c0.07,0.06,0.14,0.13,0.21,0.19c0.56,0,1.13,0.02,1.69,0.05c-0.53-0.51-1.07-1-1.63-1.47
				C46.65,21.96,45.31,20.97,43.85,20.15z M57.91,36.15c-1-1.99-2.12-3.91-3.39-5.75c-0.21-0.3-0.43-0.6-0.65-0.9
				c-0.11,0.59-0.23,1.18-0.37,1.77c0.86,1.3,1.67,2.63,2.41,4.01c0.24,0.45,0.48,0.91,0.7,1.37c0.31-0.19,0.66-0.34,1.03-0.44
				C57.74,36.18,57.83,36.16,57.91,36.15z M59.41,43.35c0.09,0.26,0.18,0.53,0.26,0.79c0.48,1.53,0.88,3.09,1.22,4.66
				c0.19,0.89,0.35,1.8,0.49,2.7c0.48,0.42,0.95,0.86,1.41,1.32c-0.13-1.44-0.34-2.87-0.61-4.28c-0.31-1.62-0.73-3.23-1.21-4.81
				c-0.1-0.32-0.2-0.63-0.31-0.95c-0.36,0.25-0.76,0.44-1.21,0.55C59.44,43.34,59.42,43.35,59.41,43.35z M61.8,57.69
				c0,0.23-0.01,0.45-0.02,0.68c-0.01,0.4-0.05,0.8-0.07,1.2c-0.03,0.4-0.08,0.8-0.12,1.19c-0.11,0.79-0.23,1.58-0.4,2.37
				c-0.33,1.56-0.83,3.09-1.55,4.52c-0.49,1.01-1.12,1.95-1.87,2.79c0.07,0.16,0.14,0.31,0.21,0.47c0.3-0.27,0.56-0.59,0.83-0.89
				c0.14-0.15,0.26-0.33,0.39-0.49l0.37-0.5l0.34-0.53c0.11-0.18,0.23-0.35,0.33-0.53c0.82-1.45,1.41-3.02,1.84-4.63
				c0.42-1.61,0.66-3.26,0.79-4.91c0.02-0.41,0.05-0.83,0.07-1.24l0.01-0.58C62.57,56.98,62.19,57.34,61.8,57.69z M52.22,35.5
				c-0.23,0.62-0.49,1.24-0.76,1.84c0.74,1.37,1.41,2.77,2.01,4.21c0.64,1.5,1.2,3.03,1.68,4.59c0.13,0.4,0.24,0.8,0.36,1.2
				c0.64,0.36,1.27,0.74,1.88,1.14c-0.6-2.58-1.44-5.1-2.46-7.55c-0.66-1.55-1.39-3.07-2.2-4.54C52.56,36.09,52.39,35.79,52.22,35.5
				z M67.09,53.35c-0.02-0.39-0.03-0.79-0.07-1.18c-0.03-0.39-0.06-0.79-0.1-1.18c-0.16-1.57-0.41-3.13-0.73-4.68
				c-0.65-3.09-1.61-6.11-2.81-9.03c-0.61-1.46-1.27-2.89-2-4.29c-0.74-1.4-1.53-2.76-2.4-4.08c-0.87-1.32-1.8-2.6-2.81-3.82
				c-0.5-0.61-1.03-1.2-1.57-1.78c-0.27-0.29-0.55-0.57-0.83-0.85c-0.28-0.28-0.57-0.55-0.86-0.82c-1.17-1.07-2.42-2.06-3.76-2.9
				c-1.34-0.85-2.78-1.56-4.29-2.06c-1.51-0.51-3.09-0.77-4.67-0.78c-0.37,0-0.74,0.02-1.11,0.05c0.03,0.1,0.05,0.2,0.08,0.3
				c0.15,0,0.3,0.01,0.44,0.01c0.19,0.01,0.38,0,0.58,0.03c1.53,0.12,3.04,0.46,4.45,1.04c1.42,0.56,2.77,1.3,4.02,2.18
				c1.25,0.88,2.43,1.86,3.52,2.93c2.17,2.16,4.07,4.59,5.71,7.19c0.82,1.3,1.58,2.63,2.28,4c0.71,1.37,1.35,2.76,1.94,4.18
				c0.59,1.42,1.12,2.87,1.59,4.33c0.47,1.46,0.88,2.95,1.22,4.45c0.69,2.99,1.08,6.06,1.12,9.12c0.01,1.53-0.1,3.06-0.32,4.58
				c-0.23,1.51-0.59,3.01-1.15,4.43l-0.21,0.53l-0.23,0.52l-0.12,0.26l-0.13,0.26c-0.09,0.17-0.17,0.34-0.27,0.51
				c-0.37,0.67-0.8,1.31-1.27,1.91c-0.95,1.2-2.16,2.2-3.54,2.95c0.36-0.16,0.71-0.32,1.05-0.51c0.34-0.19,0.68-0.4,1-0.62
				c0.64-0.45,1.24-0.98,1.77-1.56c1.08-1.16,1.91-2.54,2.57-3.98c0.66-1.45,1.1-2.98,1.42-4.54c0.16-0.78,0.27-1.56,0.35-2.35
				c0.04-0.39,0.07-0.79,0.1-1.18c0.02-0.4,0.04-0.79,0.05-1.19c0-0.4,0.02-0.79,0.01-1.19C67.11,54.14,67.11,53.74,67.09,53.35z"/>
			<circle id="SAT_03_00000118360097543248941230000003984923366269276068_" class="st2" cx="58.56" cy="39.77" r="2.22"/>
			<circle id="SAT_04_00000163030544215508535680000006244480810811592836_" class="st3" cx="72.05" cy="45.44" r="1.43"/>
			<circle id="SAT_05_00000171705072538131389790000013305939293605011644_" class="st4" cx="56" cy="63.85" r="2.9"/>
			<circle class="st5" cx="41.37" cy="23.86" r="1.53"/>
			<path class="st6" d="M49.1,62.35c4.41-1.52,8.55-4.04,12.07-7.56c-5.2-5.2-11.77-8.21-18.54-9.03
				c4.83-4.83,8.14-11.24,9.03-18.54c-4.94-0.6-9.76-0.03-14.16,1.49c0.57-4.63,0.12-9.46-1.51-14.16
				c-16.53,5.7-25.32,23.74-19.61,40.27c5.7,16.53,23.74,25.32,40.27,19.61C55.03,69.72,52.41,65.64,49.1,62.35z"/>
			<path id="PETALO_01_00000108994785123976475070000007771790466692966289_" class="st6" d="M35.99,14.54
				c5.7,16.53-3.07,34.57-19.61,40.27C10.67,38.28,19.46,20.25,35.99,14.54z"/>
			<path id="PETALO_02_00000049190932305380017730000015726514192336515513_" class="st6" d="M16.38,54.82
				c2.12-17.36,17.91-29.72,35.28-27.6C49.54,44.58,33.74,56.94,16.38,54.82z"/>
			<path id="PETALO_03_00000067238633809873170780000005961291203614113716_" class="st6" d="M16.38,54.82
				c12.36-12.38,32.42-12.39,44.8-0.03C48.81,67.17,28.75,67.18,16.38,54.82z"/>
			<path id="PETALO_04_00000067940259095350795560000011403834795799514047_" class="st6" d="M56.65,74.43
				c-16.53,5.7-34.57-3.08-40.27-19.61C32.92,49.11,50.95,57.89,56.65,74.43z"/>
			<path id="PETALO_01_00000063605560033394623770000015735213438465890745_" class="st7" d="M35.99,14.54
				c5.7,16.53-3.07,34.57-19.61,40.27C10.67,38.28,19.46,20.25,35.99,14.54z"/>
			<path id="PETALO_02_00000003082676748231976470000014727280869969950653_" class="st8" d="M16.38,54.82
				c2.12-17.36,17.91-29.72,35.28-27.6C49.54,44.58,33.74,56.94,16.38,54.82z"/>
			<path id="PETALO_03_00000105396735108742828760000009575035188466887867_" class="st9" d="M16.38,54.82
				c12.36-12.38,32.42-12.39,44.8-0.03C48.81,67.17,28.75,67.18,16.38,54.82z"/>
			<path id="PETALO_04_00000067226791351508602070000013303081093384365469_" class="st10" d="M56.65,74.43
				c-16.53,5.7-34.57-3.08-40.27-19.61C32.92,49.11,50.95,57.89,56.65,74.43z"/>
		</g>
	</g>
	
		<linearGradient id="SVGID_00000029003534561561856830000008168455431929226131_" gradientUnits="userSpaceOnUse" x1="-45.4761" y1="-52.764" x2="15.9991" y2="-114.2392" gradientTransform="matrix(0.9911 -0.1333 0.1333 0.9911 71.364 125.3143)">
		<stop  offset="0.2714" style="stop-color:#1F9BC2"/>
		<stop  offset="0.7516" style="stop-color:#009739"/>
		<stop  offset="1" style="stop-color:#8DBF33"/>
	</linearGradient>
	<path style="fill:url(#SVGID_00000029003534561561856830000008168455431929226131_);" d="M32.97,5.23
		c5.07-1.69,10.42-2.53,15.82-2.38c2.69,0.07,5.4,0.38,8.07,0.96c2.67,0.58,5.3,1.42,7.83,2.54c5.05,2.24,9.71,5.6,13.42,9.87
		c3.72,4.25,6.5,9.37,8.1,14.8c0.79,2.72,1.31,5.52,1.53,8.33c0.22,2.81,0.16,5.63-0.17,8.41c-0.65,5.56-2.35,10.9-4.84,15.79
		c-2.5,4.89-5.85,9.3-9.88,12.99c-0.51,0.45-1.01,0.92-1.54,1.35c-0.54,0.42-1.06,0.87-1.61,1.27c-0.55,0.4-1.09,0.82-1.66,1.21
		c-0.57,0.37-1.13,0.77-1.72,1.12c-2.33,1.43-4.78,2.68-7.35,3.66c-5.13,1.95-10.69,2.95-16.26,2.69
		c-5.56-0.24-11.09-1.7-16.14-4.18c-2.52-1.24-4.94-2.73-7.18-4.46c-2.24-1.73-4.32-3.69-6.19-5.84c-3.76-4.29-6.6-9.41-8.35-14.87
		c-1.73-5.47-2.39-11.3-1.84-17c0.54-5.7,2.35-11.22,5.11-16.1c1.38-2.44,3.01-4.71,4.81-6.8c1.8-2.09,3.8-3.98,5.92-5.68
		C23.11,9.52,27.91,6.94,32.97,5.23z M33.13,5.7c-5,1.7-9.63,4.54-13.4,8.22c-3.79,3.68-6.71,8.17-8.7,12.95
		c-2,4.79-3.07,9.89-3.3,14.97c-0.11,2.54-0.01,5.09,0.34,7.6c0.36,2.51,0.92,4.98,1.73,7.38c1.59,4.8,4.07,9.27,7.26,13.15
		c3.2,3.88,7.16,7.12,11.59,9.5c4.44,2.37,9.34,3.85,14.36,4.4c0.63,0.05,1.26,0.13,1.89,0.16c0.63,0.02,1.26,0.07,1.9,0.06
		c0.63-0.01,1.27,0.01,1.9-0.02c0.63-0.04,1.27-0.05,1.9-0.11c2.54-0.21,5.07-0.68,7.54-1.39c4.94-1.44,9.65-3.89,13.63-7.3
		c4.01-3.38,7.29-7.66,9.55-12.44c2.27-4.78,3.45-10.05,3.57-15.27c0.06-2.62-0.14-5.22-0.58-7.77c-0.43-2.55-1.09-5.05-1.97-7.46
		C78.89,22.66,72.14,14.43,63.3,9.17c-4.42-2.61-9.4-4.43-14.6-5.07C43.51,3.45,38.13,4,33.13,5.7z"/>
</g>
</svg>
