<?xml version="1.0" encoding="utf-8"?>
<!-- Generator: Adobe Illustrator 28.1.0, SVG Export Plug-In . SVG Version: 6.00 Build 0)  -->
<svg version="1.1" xmlns="http://www.w3.org/2000/svg" xmlns:xlink="http://www.w3.org/1999/xlink" x="0px" y="0px"
	 viewBox="0 0 382.72 101" style="enable-background:new 0 0 382.72 101;" xml:space="preserve">
<style type="text/css">
	.st0{fill:#FFFFFF;}
</style>
<g id="Livello_3">
	<g>
		<path class="st0" d="M143.1,59.7l1.14,1.02c-2.61,2.37-5.68,3.56-9.21,3.56c-3.79,0-7.02-1.33-9.69-4s-4-5.9-4-9.69
			c0-3.78,1.33-7.01,4-9.68s5.9-4.01,9.69-4.01c3.53,0,6.61,1.19,9.21,3.56l-1.14,1.04c-2.3-2.04-4.99-3.06-8.08-3.06
			c-3.36,0-6.22,1.19-8.6,3.56c-2.38,2.37-3.56,5.24-3.56,8.6c0,3.37,1.19,6.24,3.56,8.61s5.24,3.56,8.6,3.56
			C138.12,62.77,140.81,61.74,143.1,59.7z"/>
		<path class="st0" d="M171.44,40.85c2.68,2.68,4.02,5.92,4.02,9.71c0,3.79-1.34,7.03-4.02,9.71c-2.68,2.68-5.92,4.02-9.71,4.02
			s-7.03-1.34-9.71-4.02c-2.68-2.68-4.02-5.92-4.02-9.71c0-3.79,1.34-7.03,4.02-9.71c2.68-2.68,5.92-4.02,9.71-4.02
			S168.76,38.17,171.44,40.85z M161.73,38.36c-3.37,0-6.24,1.19-8.62,3.57c-2.38,2.38-3.57,5.25-3.57,8.62s1.19,6.24,3.57,8.63
			c2.38,2.39,5.25,3.58,8.62,3.58s6.24-1.19,8.62-3.58c2.38-2.39,3.57-5.26,3.57-8.63s-1.19-6.24-3.57-8.62
			C167.98,39.56,165.1,38.36,161.73,38.36z"/>
		<path class="st0" d="M180.06,63.97V37.21h1.5v25.25h10.37v1.5H180.06z"/>
		<path class="st0" d="M195.95,63.97V37.21h1.5v25.25h10.37v1.5H195.95z"/>
		<path class="st0" d="M225.22,37.21v1.5h-11.87v11.12h11.87v1.5h-11.87v11.12h11.87v1.5h-13.38V37.21H225.22z"/>
		<path class="st0" d="M251.17,59.7l1.14,1.02c-2.61,2.37-5.68,3.56-9.21,3.56c-3.79,0-7.02-1.33-9.69-4s-4-5.9-4-9.69
			c0-3.78,1.33-7.01,4-9.68s5.9-4.01,9.69-4.01c3.53,0,6.61,1.19,9.21,3.56l-1.14,1.04c-2.3-2.04-4.99-3.06-8.08-3.06
			c-3.36,0-6.22,1.19-8.6,3.56c-2.38,2.37-3.56,5.24-3.56,8.6c0,3.37,1.19,6.24,3.56,8.61s5.24,3.56,8.6,3.56
			C246.18,62.77,248.88,61.74,251.17,59.7z"/>
		<path class="st0" d="M263.1,38.72v25.25h-1.5V38.72h-6.77v-1.5h15.05v1.5H263.1z"/>
		<path class="st0" d="M298.43,37.21v1.5h-11.87v11.12h11.87v1.5h-11.87v11.12h11.87v1.5h-13.38V37.21H298.43z"/>
		<path class="st0" d="M315.96,53.72h-9.26l-3.73,10.25h-1.61l9.97-27.38l9.95,27.38h-1.59L315.96,53.72z M315.41,52.21l-4.08-11.22
			l-4.08,11.22H315.41z"/>
		<path class="st0" d="M331.13,54.67c-0.14,0.01-0.29,0.02-0.45,0.02h-4.55v9.28h-1.5V37.21h7.02c2.04,0.28,3.77,1.13,5.2,2.56
			c1.71,1.71,2.56,3.76,2.56,6.17c0,2.42-0.85,4.48-2.56,6.19c-1.18,1.18-2.54,1.96-4.06,2.33l6.17,9.52h-1.86L331.13,54.67z
			 M326.13,38.73v14.43h4.55c1.98,0,3.68-0.71,5.09-2.12c1.41-1.41,2.12-3.11,2.12-5.11c0-2-0.71-3.7-2.12-5.1
			c-1.41-1.41-3.11-2.11-5.09-2.11H326.13z"/>
		<path class="st0" d="M349.69,38.72v25.25h-1.5V38.72h-6.77v-1.5h15.05v1.5H349.69z"/>
		<path class="st0" d="M361.31,51.98v11.99h-1.5V37.21h1.5v13.26h11.21V37.21h1.5v26.76h-1.5V51.98H361.31z"/>
	</g>
</g>
<g id="Livello_4">
	<g>
		<g>
			<path class="st0" d="M44.18,69.2c-2.05-1.07,0.38-9.97,5.42-19.87c5.04-9.9,10.79-17.06,12.84-15.99
				C52.69,28.22,40.68,32.1,35.64,42C30.59,51.91,34.42,64.08,44.18,69.2z"/>
			<g>
				<path class="st0" d="M76.24,47.1c0,0,0.19,0.23,0.51,0.63c0.33,0.38,0.79,0.99,1.34,1.72c0.53,0.74,1.12,1.61,1.7,2.58
					c0.27,0.5,0.58,0.99,0.83,1.54c0.27,0.53,0.52,1.08,0.75,1.64c0.22,0.56,0.43,1.13,0.59,1.71c0.17,0.57,0.3,1.15,0.39,1.71
					c0.07,0.56,0.16,1.11,0.14,1.63c0.02,0.52-0.03,1.01-0.08,1.46c-0.13,0.9-0.37,1.61-0.58,2.08c-0.23,0.46-0.36,0.73-0.36,0.73
					s0.1-0.28,0.28-0.76c0.15-0.49,0.32-1.21,0.35-2.08c0-0.44,0-0.91-0.07-1.4c-0.04-0.49-0.18-1-0.3-1.53
					c-0.15-0.52-0.32-1.05-0.54-1.57c-0.21-0.52-0.46-1.04-0.73-1.55c-0.27-0.51-0.56-1-0.87-1.48c-0.29-0.48-0.63-0.92-0.94-1.37
					c-0.64-0.86-1.29-1.63-1.86-2.27c-0.58-0.62-1.06-1.14-1.44-1.5c-0.37-0.36-0.57-0.57-0.57-0.57L76.24,47.1z"/>
				<path class="st0" d="M81.56,64.57c0,0-0.38,0.67-1.1,1.92c-0.19,0.31-0.36,0.67-0.62,1.04c-0.26,0.36-0.54,0.76-0.85,1.18
					c-0.31,0.42-0.62,0.9-1,1.36c-0.4,0.45-0.82,0.93-1.26,1.43c-1.83,1.96-4.24,4.22-7.5,6.09c-3.23,1.87-7.23,3.44-11.82,4.03
					c-4.57,0.56-9.68,0.12-14.69-1.72c-0.63-0.2-1.23-0.53-1.85-0.79c-0.61-0.3-1.24-0.5-1.85-0.88c-1.16-0.7-2.36-1.3-3.49-2.19
					c-2.35-1.6-4.37-3.65-6.25-5.91c-1.86-2.28-3.33-4.9-4.56-7.67c-1.16-2.8-1.92-5.81-2.32-8.89c-0.35-3.09-0.22-6.25,0.28-9.35
					c0.56-3.1,1.61-6.1,2.96-8.96c0.83-1.41,1.43-2.72,2.43-4.03c0.48-0.63,0.88-1.35,1.42-1.92l1.55-1.78
					c2.19-2.25,4.64-4.23,7.33-5.78c2.71-1.49,5.58-2.67,8.53-3.36c2.96-0.62,5.97-0.96,8.92-0.77c2.93,0.24,5.82,0.74,8.48,1.75
					c1.37,0.41,2.61,1.07,3.88,1.64c0.18,0.09,0.27,0.12,0.51,0.25l0.43,0.26l0.86,0.52c0.57,0.36,1.14,0.65,1.69,1.07
					c4.5,3.18,7.83,7.18,10,11.39c2.16,4.21,3.16,8.49,3.47,12.28c0.33,3.8-0.13,7.12-0.69,9.77c-0.16,0.66-0.31,1.29-0.45,1.87
					c-0.16,0.58-0.37,1.11-0.54,1.61c-0.17,0.5-0.33,0.96-0.48,1.38c-0.15,0.42-0.35,0.78-0.49,1.11
					C81.89,63.87,81.56,64.57,81.56,64.57L81.56,64.57z M81.39,64.48c0,0,0.3-0.7,0.88-2.03c0.14-0.33,0.32-0.69,0.46-1.11
					c0.13-0.42,0.28-0.88,0.44-1.38c0.15-0.5,0.35-1.02,0.49-1.6c0.12-0.58,0.26-1.21,0.4-1.86c0.5-2.62,0.86-5.91,0.33-9.61
					c-0.47-3.68-1.66-7.77-3.91-11.69c-2.27-3.87-5.6-7.64-9.78-10.42c-0.51-0.37-1.13-0.67-1.69-1.01l-0.87-0.5l-0.44-0.25
					l-0.4-0.18c-1.19-0.52-2.36-1.15-3.65-1.52c-2.5-0.94-5.2-1.38-7.94-1.59c-2.76-0.21-5.57,0.08-8.36,0.64
					c-2.78,0.63-5.48,1.68-8.06,3.05c-2.55,1.42-4.89,3.25-6.99,5.34l-1.49,1.66c-0.53,0.54-0.89,1.17-1.35,1.76
					c-0.91,1.11-1.64,2.59-2.4,3.82c-1.31,2.7-2.35,5.54-2.92,8.49c-0.51,2.96-0.67,5.97-0.37,8.93c0.35,2.95,1.04,5.84,2.13,8.55
					c1.15,2.67,2.53,5.22,4.3,7.43c1.77,2.18,3.73,4.22,5.94,5.75c1.03,0.85,2.26,1.5,3.4,2.2c0.53,0.34,1.17,0.58,1.75,0.88
					c0.6,0.27,1.17,0.59,1.78,0.81c4.81,1.89,9.8,2.46,14.3,2.01c4.51-0.46,8.5-1.93,11.73-3.73c3.27-1.77,5.69-4.01,7.5-5.97
					c0.44-0.5,0.86-0.98,1.25-1.43c0.38-0.46,0.68-0.93,0.99-1.35c0.3-0.42,0.58-0.81,0.84-1.17c0.25-0.36,0.43-0.73,0.62-1.03
					C81.01,65.14,81.39,64.47,81.39,64.48L81.39,64.48z"/>
				<g>
					<path class="st0" d="M81.56,64.57c0,0-0.04,0.08-0.13,0.24c-0.09,0.15-0.19,0.39-0.41,0.67c-0.39,0.59-1.05,1.38-2.13,2.12
						c-1.07,0.73-2.51,1.41-4.26,1.82c-1.74,0.43-3.77,0.63-5.96,0.6c-2.2-0.05-4.57-0.3-7.04-0.8c-2.47-0.48-5.03-1.24-7.61-2.16
						c-5.16-1.89-10.43-4.57-15.25-7.99c-2.41-1.71-4.71-3.59-6.78-5.67c-2.08-2.07-3.92-4.37-5.33-6.87
						c-1.34-2.51-2.34-5.32-2.03-8.17c0.14-1.39,0.64-2.79,1.36-3.82c0.77-1.14,1.76-1.97,2.76-2.58c1-0.63,2.05-1.02,3.06-1.28
						c1-0.29,1.97-0.42,2.87-0.52c1.81-0.19,3.38-0.11,4.66,0.01c1.28,0.12,2.27,0.28,2.94,0.42c0.67,0.14,1.03,0.21,1.03,0.21
						l-0.03,0.2c0,0-0.36-0.02-1.04-0.06c-0.68-0.03-1.67-0.09-2.92-0.06c-1.25,0.04-2.78,0.11-4.47,0.42
						c-1.67,0.33-3.58,0.87-5.23,2.02c-0.83,0.57-1.57,1.3-2.09,2.15c-0.59,0.94-0.88,1.94-0.97,3.07c-0.14,2.24,0.65,4.7,1.93,6.97
						c1.24,2.31,2.94,4.51,4.86,6.56c1.92,2.06,4.08,3.96,6.37,5.69c9.22,6.9,20.38,11.11,28.99,11.56c2.15,0.1,4.13-0.02,5.83-0.38
						c1.71-0.34,3.13-0.95,4.18-1.62c1.06-0.67,1.74-1.42,2.12-1.96c0.21-0.26,0.33-0.5,0.43-0.65c0.09-0.15,0.14-0.23,0.14-0.23
						L81.56,64.57z"/>
				</g>
				<path class="st0" d="M40.06,22.67c0,0,0.05-0.09,0.16-0.28c0.11-0.18,0.31-0.45,0.62-0.73c0.62-0.57,1.77-1.1,3.29-1.31
					c3.04-0.44,7.43,0.19,12.38,1.77c4.95,1.59,10.54,4.11,16.03,7.68c2.73,1.8,5.46,3.84,7.91,6.32c1.23,1.24,2.38,2.6,3.32,4.17
					c0.46,0.79,0.87,1.65,1.09,2.61c0.22,0.97,0.26,2.03-0.29,3.15c-0.15,0.32-0.59,0.91-0.98,1.22c-0.41,0.33-0.85,0.61-1.3,0.8
					c-0.91,0.4-1.83,0.58-2.74,0.68c-1.82,0.18-3.6,0.05-5.33-0.21c-3.46-0.51-6.72-1.54-9.79-2.71c-3.05-1.23-5.92-2.61-8.5-4.14
					c-2.6-1.53-4.96-3.12-7.04-4.74c-2.08-1.61-3.84-3.29-5.29-4.89c-1.44-1.6-2.54-3.16-3.2-4.6c-0.67-1.42-0.89-2.71-0.75-3.56
					c0.06-0.43,0.17-0.74,0.27-0.94C40.01,22.78,40.06,22.68,40.06,22.67l0.17,0.1c0,0-0.04,0.1-0.1,0.29
					c-0.06,0.19-0.13,0.49-0.14,0.88c-0.03,0.78,0.26,1.93,1.02,3.2c0.75,1.27,1.92,2.67,3.4,4.12c1.48,1.46,3.33,2.91,5.41,4.41
					c2.08,1.49,4.45,2.96,7.02,4.33c2.59,1.37,5.36,2.74,8.34,3.88c2.95,1.18,6.09,2.2,9.33,2.79c1.62,0.29,3.27,0.45,4.87,0.33
					c1.58-0.14,3.17-0.55,3.83-1.79c0.08-0.19,0.21-0.57,0.23-0.89c0.01-0.34,0-0.71-0.08-1.08c-0.15-0.74-0.47-1.49-0.87-2.2
					c-0.8-1.42-1.87-2.74-3.02-3.95c-2.3-2.43-4.93-4.49-7.57-6.32c-2.65-1.82-5.36-3.37-7.99-4.7c-2.63-1.33-5.2-2.44-7.62-3.29
					c-4.84-1.71-9.15-2.45-12.11-2.1c-1.48,0.16-2.58,0.63-3.18,1.15c-0.3,0.26-0.48,0.48-0.6,0.66c-0.11,0.18-0.17,0.27-0.17,0.27
					L40.06,22.67z"/>
				<g>
					<path class="st0" d="M65.6,70.35c0.82,1.02,1.6,2.13,2.14,3.37c0.14,0.31,0.26,0.63,0.34,0.96c0.04,0.17,0.09,0.33,0.13,0.5
						l0.05,0.52c0.07,0.35-0.02,0.7-0.05,1.06c-0.1,0.34-0.19,0.7-0.38,1.01c-0.74,1.29-2.17,1.86-3.47,2.14
						c-1.33,0.28-2.68,0.31-4.01,0.24c-2.66-0.14-5.27-0.73-7.81-1.45c-2.54-0.74-5.03-1.67-7.46-2.72c-1.21-0.53-2.4-1.09-3.6-1.69
						c-1.16-0.58-2.36-1.22-3.51-1.87c-2.31-1.32-4.55-2.76-6.67-4.41c-1.07-0.81-2.07-1.72-3.04-2.65
						c-0.98-0.93-1.9-1.94-2.73-3.04c-0.84-1.09-1.59-2.27-2.12-3.62c-0.25-0.67-0.46-1.4-0.5-2.17c-0.04-0.77,0.09-1.6,0.49-2.3
						l-0.04,0.11c0.05-0.15,0.12-0.26,0.17-0.33c0.06-0.09,0.11-0.18,0.18-0.26l0.4-0.43c0.14-0.12,0.3-0.22,0.45-0.33
						c0.15-0.11,0.3-0.22,0.46-0.28c0.33-0.13,0.64-0.32,0.97-0.4c0.33-0.08,0.66-0.15,0.99-0.22c0.33-0.07,0.66-0.05,0.99-0.08
						c0.33-0.01,0.65-0.05,0.98-0.03c0.65,0.05,1.3,0.11,1.93,0.18l-0.01,0.2c-0.64,0.06-1.27,0.12-1.89,0.16
						c-0.31,0.03-0.61,0.12-0.92,0.17c-0.3,0.07-0.61,0.1-0.9,0.21c-0.28,0.11-0.56,0.22-0.85,0.32c-0.28,0.1-0.51,0.28-0.76,0.42
						c-0.13,0.06-0.23,0.16-0.33,0.25c-0.1,0.09-0.21,0.18-0.3,0.27l-0.23,0.3c-0.04,0.08-0.13,0.24-0.12,0.25l0,0l-0.05,0.11
						c-0.41,0.97-0.12,2.14,0.39,3.22c0.53,1.08,1.27,2.11,2.08,3.07c0.82,0.96,1.72,1.87,2.65,2.75c0.93,0.88,1.93,1.69,2.92,2.51
						c2.01,1.61,4.12,3.12,6.31,4.5c1.1,0.69,2.2,1.34,3.35,1.98c1.13,0.62,2.29,1.21,3.46,1.77c2.34,1.11,4.74,2.11,7.2,2.91
						c2.46,0.8,4.98,1.43,7.53,1.69c1.27,0.12,2.56,0.16,3.81-0.05c1.22-0.21,2.48-0.67,3.13-1.71c0.67-1.03,0.47-2.42,0.03-3.61
						c-0.46-1.22-1.16-2.32-1.94-3.39L65.6,70.35z"/>
				</g>
				<path class="st0" d="M46.49,73.87c0,0-0.22,0.25-0.64,0.73c-0.42,0.47-1.05,1.15-1.93,1.95c-0.45,0.39-0.95,0.81-1.57,1.2
					c-0.61,0.36-1.34,0.8-2.29,0.68c-0.12-0.01-0.23-0.04-0.34-0.09c-0.07-0.03-0.09-0.03-0.19-0.08l-0.13-0.09
					c-0.16-0.08-0.4-0.34-0.52-0.53c-0.28-0.41-0.42-0.89-0.51-1.36c-0.18-0.96-0.16-1.96-0.08-2.99c0.18-2.06,0.64-4.23,1.25-6.49
					c0.6-2.26,1.38-4.6,2.26-6.99c1.76-4.78,3.96-9.75,6.4-14.58c2.44-4.85,5.1-9.59,8-13.8c1.49-2.07,2.98-4.06,4.6-5.78
					c1.64-1.71,3.22-3.33,5.4-4.21c0.55-0.19,1.22-0.34,1.92-0.11c0.18,0.09,0.31,0.09,0.53,0.26c0.11,0.09,0.16,0.1,0.31,0.26
					c0.12,0.14,0.28,0.3,0.35,0.44l0.21,0.4c0.4,1.08,0.37,2.02,0.33,2.88c-0.11,1.72-0.47,3.14-0.78,4.29
					c-0.32,1.15-0.61,2.04-0.82,2.64c-0.22,0.6-0.34,0.92-0.34,0.92l-0.19-0.06c0,0,0.07-0.33,0.19-0.95
					c0.12-0.62,0.31-1.53,0.47-2.69c0.15-1.16,0.35-2.58,0.33-4.16c-0.02-0.77-0.12-1.63-0.43-2.27l-0.13-0.2
					c-0.04-0.07-0.07-0.06-0.09-0.1c0.02-0.03-0.17-0.12-0.24-0.17c0.03,0.01-0.09-0.01-0.12-0.03c-0.22-0.05-0.57,0.01-0.95,0.17
					c-0.76,0.31-1.54,0.96-2.29,1.65c-0.76,0.7-1.51,1.5-2.24,2.35c-1.46,1.72-2.93,3.63-4.34,5.69c-2.88,4.07-5.71,8.63-8.28,13.33
					c-2.55,4.73-4.86,9.58-6.73,14.26c-0.94,2.34-1.75,4.63-2.43,6.83c-0.68,2.2-1.21,4.32-1.46,6.3c-0.12,0.99-0.16,1.95-0.04,2.81
					c0.11,0.87,0.51,1.64,1.2,1.76c0.69,0.12,1.42-0.22,2-0.55c0.59-0.34,1.11-0.73,1.56-1.1c0.89-0.75,1.54-1.4,1.98-1.85
					c0.43-0.46,0.66-0.7,0.66-0.7L46.49,73.87z"/>
				<path class="st0" d="M68.21,22.05c0,0,0.58,0.35,1.67,1c1.06,0.68,2.56,1.87,4.14,3.67c1.54,1.84,3.06,4.39,4.11,7.58
					c1.06,3.18,1.62,7,1.43,11.13c-0.18,4.13-1.11,8.59-2.89,12.98c-0.5,1.08-0.95,2.18-1.52,3.28c-0.29,0.53-0.58,1.06-0.87,1.59
					c-0.28,0.54-0.59,1.07-0.94,1.59c-0.68,1.05-1.36,2.12-2.16,3.1c-0.4,0.5-0.76,1.02-1.18,1.5c-0.43,0.48-0.86,0.95-1.29,1.43
					c-0.42,0.49-0.89,0.94-1.37,1.38c-0.48,0.44-0.94,0.9-1.43,1.34c-1.04,0.8-2.02,1.7-3.16,2.39c-2.18,1.53-4.62,2.74-7.21,3.6
					c-5.12,1.83-11.14,1.69-16.21-0.86c-2.42-1.27-4.73-3.21-6.44-5.41c-0.4-0.58-0.9-1.1-1.23-1.72l-1.07-1.82l-0.87-1.92
					c-0.31-0.63-0.47-1.31-0.71-1.97c-0.85-2.65-1.34-5.39-1.4-8.11c-0.11-1.36,0.02-2.71,0.05-4.05c0.06-0.67,0.15-1.33,0.23-1.99
					c0.07-0.66,0.15-1.32,0.3-1.96c1.01-5.15,2.95-9.97,5.45-13.97c2.58-4.12,5.65-7.45,8.93-10.03c3.26-2.58,6.74-4.27,9.96-5.22
					c3.22-0.95,6.2-1.13,8.58-0.85c2.38,0.32,4.19,0.9,5.35,1.43C67.59,21.75,68.2,22.04,68.21,22.05l-0.1,0.18
					c0,0-0.62-0.25-1.79-0.71c-1.18-0.42-2.97-0.89-5.28-1.05c-2.31-0.1-5.14,0.22-8.19,1.25c-3.05,1.03-6.25,2.84-9.32,5.37
					c-3.05,2.52-5.95,5.86-8.25,9.73c-2.33,4.01-4.16,8.49-5.07,13.4c-0.15,0.61-0.23,1.23-0.3,1.85c-0.08,0.62-0.17,1.25-0.23,1.87
					c-0.04,1.26-0.18,2.53-0.09,3.81c0.04,2.56,0.45,5.13,1.2,7.6c0.21,0.61,0.34,1.25,0.63,1.84l0.77,1.79l0.95,1.69
					c0.29,0.58,0.74,1.06,1.1,1.6c1.59,2.08,3.46,3.75,5.81,5.05c4.6,2.39,10.16,2.65,15.06,0.97c2.46-0.78,4.81-1.9,6.93-3.34
					c1.1-0.65,2.06-1.51,3.08-2.26c0.48-0.41,0.94-0.85,1.4-1.28c0.47-0.42,0.93-0.85,1.34-1.32c0.43-0.46,0.85-0.92,1.27-1.37
					c0.42-0.46,0.78-0.97,1.17-1.44c0.8-0.95,1.46-1.97,2.13-2.97c0.35-0.49,0.66-1.01,0.95-1.54c0.3-0.53,0.6-1.05,0.89-1.58
					c0.55-1.02,1.02-2.12,1.53-3.15c1.82-4.26,2.8-8.61,3.06-12.65c0.26-4.05-0.23-7.8-1.21-10.94c-0.98-3.15-2.42-5.68-3.9-7.51
					c-1.52-1.8-2.95-2.98-4-3.69c-1.08-0.67-1.65-1.03-1.65-1.03L68.21,22.05z"/>
			</g>
			<g>
				<path class="st0" d="M62.45,33.34c-2.05-1.07-7.8,6.09-12.84,15.99c-5.04,9.9-7.47,18.8-5.42,19.87
					c9.76,5.12,21.77,1.24,26.81-8.67C76.04,50.63,72.21,38.45,62.45,33.34z M62.96,49.61c0.39-0.76,1.31-1.06,2.06-0.67
					c0.75,0.39,1.04,1.33,0.66,2.09c-0.39,0.76-1.31,1.06-2.06,0.66C62.86,51.31,62.57,50.37,62.96,49.61z M56.97,49.44
					c0.39-0.76,1.31-1.06,2.06-0.66c0.75,0.39,1.04,1.33,0.66,2.09c-0.39,0.76-1.31,1.06-2.06,0.67
					C56.88,51.14,56.59,50.2,56.97,49.44z M54.26,61.53c-0.39,0.76-1.31,1.06-2.06,0.67c-0.75-0.39-1.04-1.33-0.66-2.09
					c0.39-0.76,1.31-1.06,2.06-0.66C54.35,59.84,54.64,60.77,54.26,61.53z M57,56.14c-0.39,0.76-1.31,1.06-2.06,0.67
					c-0.75-0.39-1.04-1.33-0.66-2.09c0.39-0.76,1.31-1.06,2.06-0.67C57.09,54.45,57.39,55.38,57,56.14z M60.24,61.7
					c-0.39,0.76-1.31,1.06-2.06,0.67c-0.75-0.39-1.04-1.33-0.66-2.09c0.39-0.76,1.31-1.06,2.06-0.67
					C60.33,60,60.62,60.94,60.24,61.7z M60.92,56.98c-0.75-0.39-1.04-1.33-0.65-2.09c0.39-0.76,1.31-1.06,2.06-0.66
					c0.75,0.39,1.04,1.33,0.66,2.09C62.59,57.07,61.67,57.37,60.92,56.98z M65.44,61.94c-0.39,0.76-1.31,1.06-2.06,0.67
					c-0.75-0.39-1.04-1.33-0.66-2.09c0.39-0.76,1.31-1.06,2.06-0.66C65.54,60.25,65.83,61.18,65.44,61.94z M68.19,56.56
					c-0.39,0.76-1.31,1.06-2.06,0.67c-0.75-0.39-1.04-1.33-0.66-2.09c0.39-0.76,1.31-1.06,2.06-0.67
					C68.28,54.86,68.57,55.8,68.19,56.56z M70.88,51.28c-0.39,0.76-1.31,1.06-2.06,0.67c-0.75-0.39-1.04-1.33-0.66-2.09
					c0.39-0.76,1.31-1.06,2.06-0.66C70.97,49.58,71.26,50.52,70.88,51.28z"/>
			</g>
			<g>
				<path class="st0" d="M90.47,73.01c0,0-0.37,0.61-1.05,1.74c-0.34,0.57-0.74,1.28-1.34,2.06c-0.29,0.4-0.59,0.83-0.92,1.28
					c-0.16,0.23-0.33,0.47-0.51,0.71c-0.19,0.23-0.39,0.46-0.59,0.7c-0.81,0.96-1.68,2.06-2.78,3.1c-0.55,0.53-1.07,1.13-1.7,1.65
					c-0.62,0.54-1.27,1.09-1.93,1.66c-2.74,2.19-6.1,4.38-10.08,6.14C65.61,93.84,61,95.16,56,95.65
					c-5.01,0.49-10.39,0.12-15.75-1.34c-0.63-0.17-1.27-0.34-1.91-0.51c-0.63-0.14-1.33-0.47-2-0.71c-1.33-0.54-2.77-0.98-4.01-1.68
					c-2.6-1.22-5.09-2.77-7.46-4.51c-4.73-3.53-8.87-8.07-12.01-13.27C9.66,68.45,7.5,62.61,6.43,56.63
					c-1.07-5.98-0.97-12.14,0.35-17.81l0.05-0.27l0.01-0.07c0.03-0.1-0.04,0.13,0.06-0.24l0.03-0.12l0.14-0.48l0.27-0.95
					c0.18-0.63,0.37-1.26,0.55-1.89c0.47-1.37,1.04-2.77,1.58-4.11c0.63-1.25,1.23-2.5,1.87-3.7c0.72-1.16,1.41-2.32,2.15-3.41
					c0.8-1.06,1.54-2.13,2.37-3.11c0.86-0.95,1.67-1.91,2.53-2.8c0.91-0.84,1.78-1.68,2.67-2.46c0.93-0.73,1.84-1.45,2.73-2.16
					c0.93-0.64,1.86-1.26,2.76-1.84c0.91-0.58,1.87-1.03,2.76-1.53c0.89-0.51,1.82-0.88,2.7-1.27c0.88-0.39,1.73-0.77,2.61-1.02
					c0.86-0.28,1.69-0.54,2.49-0.8c0.82-0.19,1.6-0.38,2.36-0.56c0.75-0.18,1.48-0.32,2.19-0.4c0.7-0.09,1.37-0.18,2-0.27
					c1.26-0.18,2.41-0.13,3.38-0.19c0.98-0.06,1.81,0.03,2.49,0.07c1.34,0.1,2.05,0.15,2.05,0.15c0.22,0.02,0.39,0.21,0.37,0.43
					C51.94,6,51.81,6.15,51.65,6.19l-0.03,0.01c0,0-0.68,0.16-1.97,0.46c-1.28,0.25-3.12,0.79-5.38,1.53
					C43.15,8.63,41.89,9,40.61,9.65c-0.65,0.29-1.32,0.59-2.02,0.91c-0.67,0.37-1.36,0.75-2.08,1.15c-0.72,0.37-1.42,0.85-2.15,1.3
					c-0.73,0.46-1.48,0.91-2.19,1.48c-0.71,0.56-1.48,1.07-2.19,1.7c-0.71,0.62-1.44,1.25-2.19,1.89c-0.69,0.69-1.4,1.4-2.12,2.12
					c-0.66,0.77-1.33,1.56-2.02,2.36c-0.66,0.82-1.27,1.7-1.92,2.55c-0.61,0.89-1.16,1.84-1.77,2.76c-0.56,0.96-1.04,1.97-1.59,2.96
					c-0.49,1.03-0.93,2.08-1.41,3.14c-0.36,1.06-0.73,2.06-1.13,3.16c-0.17,0.63-0.35,1.26-0.53,1.9l-0.26,0.96l-0.13,0.48
					l-0.03,0.12c0.08-0.32,0.02-0.06,0.03-0.11l-0.01,0.06l-0.04,0.22c-1.15,4.69-1.53,9.73-1.04,14.81
					c0.5,5.09,2.08,10.18,4.54,14.82c2.5,4.62,5.9,8.76,9.91,12.06c2.01,1.64,4.15,3.1,6.38,4.32c1.09,0.71,2.23,1.1,3.34,1.64
					l0.84,0.39c0.27,0.14,0.56,0.26,0.89,0.35c0.63,0.21,1.25,0.42,1.88,0.63c4.7,1.6,9.58,2.2,14.18,2.09
					c4.61-0.13,8.95-1.05,12.78-2.44c3.83-1.39,7.14-3.24,9.9-5.14c0.67-0.5,1.32-0.99,1.95-1.46c0.64-0.46,1.17-1,1.73-1.47
					c1.13-0.92,2.04-1.91,2.9-2.77c0.21-0.22,0.42-0.43,0.62-0.63c0.18-0.22,0.36-0.43,0.54-0.64c0.35-0.41,0.68-0.8,0.98-1.16
					c0.63-0.7,1.09-1.38,1.48-1.92c0.77-1.08,1.18-1.65,1.18-1.65c0.13-0.18,0.38-0.22,0.56-0.09
					C90.53,72.59,90.57,72.83,90.47,73.01z"/>
				<path class="st0" d="M51.77,5.47c0,0,0.37-0.02,1.05-0.06c0.69-0.02,1.68-0.14,2.99-0.09c0.65,0.02,1.38,0,2.16,0.05
					c0.78,0.07,1.63,0.15,2.53,0.23c0.9,0.12,1.85,0.29,2.86,0.44c0.15,0.03,0.21,0.03,0.43,0.07l0.37,0.09
					c0.25,0.06,0.5,0.12,0.76,0.19c0.51,0.13,1.03,0.26,1.56,0.39C67,6.9,67.54,7.04,68.1,7.18c0.56,0.2,1.13,0.4,1.7,0.61
					c0.58,0.21,1.17,0.42,1.77,0.64c0.3,0.11,0.61,0.21,0.9,0.34c0.29,0.14,0.58,0.28,0.87,0.42c1.16,0.58,2.41,1.1,3.58,1.81
					c1.16,0.74,2.38,1.43,3.56,2.25c1.13,0.88,2.32,1.73,3.45,2.69c1.07,1.02,2.21,2.02,3.24,3.12c0.98,1.16,2.05,2.27,2.97,3.51
					l1.35,1.89c0.45,0.63,0.92,1.25,1.29,1.94c1.62,2.66,3.07,5.44,4.19,8.34c0.51,1.46,1.16,2.88,1.45,4.38
					c0.35,1.48,0.78,2.95,0.91,4.43c0.42,2.95,0.39,5.85,0.16,8.55c-0.17,1.35-0.38,2.66-0.56,3.91c-0.3,1.24-0.62,2.43-0.94,3.56
					c-0.08,0.28-0.16,0.56-0.23,0.84l-0.14,0.49l-0.15,0.37c-0.2,0.5-0.39,0.98-0.58,1.45c-0.19,0.47-0.38,0.93-0.56,1.38
					c-0.22,0.47-0.44,0.91-0.67,1.34c-0.46,0.85-0.82,1.67-1.26,2.35c-0.44,0.68-0.85,1.3-1.22,1.86c-0.35,0.57-0.74,1.02-1.07,1.43
					c-0.33,0.4-0.6,0.74-0.84,1.01c-0.47,0.53-0.71,0.82-0.71,0.82c-0.11,0.13-0.3,0.14-0.43,0.03c-0.09-0.08-0.12-0.21-0.09-0.32
					l0.01-0.02c0,0,0.11-0.36,0.31-1.04c0.19-0.68,0.57-1.61,0.89-2.86c0.33-1.24,0.79-2.72,1.1-4.39c0.09-0.42,0.18-0.84,0.29-1.28
					c0.08-0.47,0.16-0.96,0.25-1.47c0.08-0.5,0.17-1.02,0.26-1.54l0.07-0.4l0.01-0.05c0.02-0.09-0.02,0.09-0.02,0.06l0-0.02
					l0.01-0.1l0.02-0.19c0.02-0.26,0.05-0.52,0.07-0.78c0.1-1.05,0.21-2.13,0.32-3.26c0.02-1.13,0.03-2.29,0.08-3.48
					c-0.07-2.38-0.17-4.87-0.53-7.42c-0.05-1.3-0.42-2.56-0.6-3.88c-0.17-1.33-0.58-2.61-0.89-3.94c-0.7-2.64-1.73-5.24-3.02-7.72
					c-0.28-0.64-0.67-1.23-1.03-1.82l-1.1-1.78c-0.75-1.18-1.66-2.23-2.47-3.36c-0.87-1.07-1.85-2.03-2.74-3.06
					c-0.96-0.96-1.98-1.83-2.95-2.73c-1.01-0.85-2.09-1.58-3.1-2.36c-0.5-0.41-1.06-0.69-1.59-1.02c-0.53-0.32-1.06-0.65-1.58-0.96
					c-0.26-0.16-0.52-0.32-0.78-0.47c-0.26-0.15-0.53-0.26-0.79-0.39c-0.53-0.25-1.05-0.5-1.56-0.75c-0.51-0.25-1.02-0.49-1.52-0.73
					c-0.54-0.19-1.07-0.38-1.58-0.57c-0.52-0.18-1.02-0.36-1.52-0.54c-0.25-0.09-0.49-0.18-0.74-0.26l-0.36-0.13l-0.31-0.08
					c-0.95-0.24-1.84-0.5-2.7-0.7c-0.86-0.16-1.67-0.32-2.41-0.46c-0.75-0.13-1.43-0.19-2.06-0.28c-1.24-0.2-2.26-0.19-2.94-0.25
					c-0.68-0.04-1.05-0.06-1.05-0.06c-0.16-0.01-0.29-0.15-0.28-0.32C51.49,5.6,51.62,5.48,51.77,5.47z"/>
			</g>
		</g>
	</g>
</g>
</svg>
