<svg width="273" height="160" viewBox="0 0 273 160" fill="none" xmlns="http://www.w3.org/2000/svg">
<mask id="mask0_80_208" style="mask-type:alpha" maskUnits="userSpaceOnUse" x="16" y="16" width="128" height="128">
<circle cx="80" cy="80" r="64" fill="#D9D9D9"/>
</mask>
<g mask="url(#mask0_80_208)">
<path d="M47 48H80V80H47V48Z" fill="#4B7ABD" stroke="white" stroke-width="2"/>
<rect x="113" y="80" width="32" height="32" fill="#599609" stroke="white" stroke-width="2"/>
<path d="M80 14H145V80H112.5L80 48V14Z" fill="#599609" stroke="white" stroke-width="2"/>
<path d="M47 80H113V113V146H80V113H47V80Z" fill="#72AE23" stroke="white" stroke-width="2"/>
<path d="M14.5 80L14.5 14L47 14L80 14L80 49L47.5 49L47 80L14.5 80Z" fill="#72AE23" stroke="white" stroke-width="2"/>
<path d="M80 48L113 80H80V48Z" fill="#5EA4E4" stroke="white" stroke-width="2"/>
<path d="M80 146L15 143.875V112L80 112V146Z" fill="#4C7E0B" stroke="white" stroke-width="2"/>
<path d="M47 112L14 112V80H47V112Z" fill="#72AE23" stroke="white" stroke-width="2"/>
<path d="M113 146L145 112H113V146Z" fill="#599609" stroke="white" stroke-width="2"/>
</g>
<path d="M149.928 50.8L156.768 50.728L160.764 67.72L165.012 50.8H170.772L174.912 67.72L179.052 50.8H185.712L178.908 76H171.348L167.748 60.988L164.292 76H156.732L149.928 50.8ZM204.044 59.224C205.448 60.592 206.168 62.86 206.168 66.064V76H199.94V66.316C199.94 64.948 199.688 63.94 199.184 63.22C198.68 62.536 197.924 62.176 196.88 62.176C195.8 62.176 194.936 62.536 194.36 63.256C193.784 63.976 193.496 65.02 193.496 66.316V76H187.268V50.8H193.496V59.332C194.108 58.648 194.828 58.108 195.656 57.748C196.484 57.388 197.492 57.208 198.68 57.208C200.84 57.208 202.604 57.892 204.044 59.224ZM214.681 50.332C215.329 50.98 215.689 51.808 215.689 52.744C215.689 53.716 215.329 54.508 214.681 55.156C213.997 55.804 213.169 56.128 212.197 56.128C211.189 56.128 210.361 55.804 209.713 55.156C209.029 54.508 208.705 53.716 208.705 52.744C208.705 51.808 209.029 50.98 209.713 50.332C210.361 49.684 211.189 49.36 212.197 49.36C213.169 49.36 213.997 49.684 214.681 50.332ZM209.065 57.424H215.293V76H209.065V57.424ZM223.634 69.772C223.742 70.456 224.102 70.996 224.714 71.392C225.326 71.824 226.082 72.004 227.018 72.004C227.954 72.004 228.71 71.896 229.25 71.608C229.754 71.356 230.042 70.96 230.042 70.384C230.042 70.06 229.898 69.808 229.682 69.628C229.466 69.484 229.106 69.34 228.602 69.268C228.098 69.196 227.27 69.052 226.046 68.872C223.454 68.584 221.51 68.044 220.178 67.252C218.846 66.496 218.198 65.236 218.198 63.472C218.198 61.564 218.954 60.016 220.466 58.864C221.978 57.712 224.03 57.136 226.586 57.136C229.286 57.136 231.482 57.712 233.174 58.792C234.83 59.872 235.73 61.348 235.838 63.22H230.006C229.934 62.68 229.646 62.248 229.07 61.888C228.494 61.528 227.738 61.348 226.838 61.348C225.974 61.348 225.326 61.492 224.858 61.744C224.354 62.032 224.138 62.392 224.138 62.896C224.138 63.328 224.354 63.616 224.858 63.76C225.326 63.904 226.19 64.048 227.486 64.156L228.206 64.228C230.69 64.516 232.634 65.056 234.002 65.848C235.37 66.64 236.09 68.008 236.09 69.952C236.09 71.248 235.694 72.328 234.974 73.264C234.218 74.2 233.174 74.956 231.806 75.46C230.438 75.964 228.89 76.216 227.09 76.216C224.39 76.216 222.194 75.64 220.538 74.488C218.846 73.336 217.946 71.752 217.838 69.772H223.634ZM254.541 58.396C255.801 59.188 256.809 60.34 257.529 61.78C258.249 63.22 258.609 64.876 258.609 66.748C258.609 68.656 258.249 70.312 257.529 71.752C256.809 73.192 255.801 74.308 254.505 75.064C253.209 75.856 251.769 76.216 250.185 76.216C248.025 76.216 246.261 75.46 244.965 73.876V83.2H238.737V57.424H244.209L244.713 59.764C246.045 58.072 247.881 57.208 250.185 57.208C251.805 57.208 253.245 57.604 254.541 58.396ZM251.265 70.024C251.913 69.16 252.273 68.044 252.273 66.676C252.273 65.308 251.913 64.228 251.265 63.4C250.617 62.572 249.717 62.14 248.565 62.14C247.413 62.14 246.513 62.572 245.865 63.4C245.217 64.228 244.893 65.308 244.893 66.676C244.893 68.044 245.217 69.16 245.865 70.024C246.513 70.888 247.413 71.284 248.565 71.284C249.681 71.284 250.581 70.888 251.265 70.024Z" fill="white"/>
</svg>
