<?xml version="1.0" encoding="UTF-8"?>
<svg xmlns="http://www.w3.org/2000/svg" xmlns:xlink="http://www.w3.org/1999/xlink" version="1.1" viewBox="0 0 483 160">
  <defs>
    <style>
      .cls-1 {
        mask: url(#mask);
      }

      .cls-2 {
        fill: #d2d6d1;
      }

      .cls-2, .cls-3, .cls-4, .cls-5, .cls-6, .cls-7 {
        stroke: #fff;
      }

      .cls-2, .cls-3, .cls-4, .cls-5, .cls-7 {
        stroke-width: 2px;
      }

      .cls-3 {
        fill: #88a07e;
      }

      .cls-8 {
        fill: #d9d9d9;
      }

      .cls-4 {
        fill: #818080;
      }

      .cls-5 {
        fill: #a3a599;
      }

      .cls-6 {
        fill: none;
        stroke-width: 3px;
      }

      .cls-9 {
        fill: #fff;
      }

      .cls-7 {
        fill: #b7b6b6;
      }
    </style>
    <mask id="mask" x="13" y="13" width="134.3" height="135.5" maskUnits="userSpaceOnUse">
      <g id="mask0_80_149">
        <circle class="cls-8" cx="80" cy="80" r="64"/>
      </g>
    </mask>
  </defs>
  <!-- Generator: Adobe Illustrator 28.7.1, SVG Export Plug-In . SVG Version: 1.2.0 Build 142)  -->
  <g>
    <g id="Capa_1">
      <g class="cls-1">
        <g>
          <path class="cls-7" d="M47,48h33v32h-33v-32Z"/>
          <rect class="cls-3" x="113" y="80" width="32" height="32"/>
          <path class="cls-3" d="M80,14h65v66h-32.5l-32.5-32V14Z"/>
          <path class="cls-5" d="M47,80h66v66h-33v-33h-33v-33Z"/>
          <path class="cls-5" d="M14.5,80V14h65.5v35h-32.5l-.5,31H14.5Z"/>
          <path class="cls-2" d="M80,48l33,32h-33v-32Z"/>
          <path class="cls-4" d="M80,146l-65-2.1v-31.9h65v34Z"/>
          <path class="cls-5" d="M47,112H14v-32h33v32Z"/>
          <path class="cls-3" d="M113,146l32-34h-32v34Z"/>
          <circle class="cls-6" cx="80" cy="80" r="62.5"/>
        </g>
      </g>
      <path class="cls-9" d="M152,42.3l20.2-.2,11.8,50.2,12.6-50h17l12.2,50,12.2-50h19.7l-20.1,74.5h-22.3l-10.6-44.4-10.2,44.4h-22.3l-20.1-74.5ZM311.9,67.1c4.1,4,6.3,10.7,6.3,20.2v29.4h-18.4v-28.6c0-4-.7-7-2.2-9.1-1.5-2-3.7-3.1-6.8-3.1s-5.7,1.1-7.4,3.2-2.6,5.2-2.6,9v28.6h-18.4V42.3h18.4v25.2c1.8-2,3.9-3.6,6.4-4.7,2.4-1.1,5.4-1.6,8.9-1.6,6.4,0,11.6,2,15.9,6ZM343.4,40.9c1.9,1.9,3,4.4,3,7.1s-1.1,5.2-3,7.1c-2,1.9-4.5,2.9-7.3,2.9s-5.4-1-7.3-2.9c-2-1.9-3-4.3-3-7.1s1-5.2,3-7.1c1.9-1.9,4.4-2.9,7.3-2.9s5.3,1,7.3,2.9ZM326.8,61.8h18.4v54.9h-18.4v-54.9ZM369.8,98.3c.3,2,1.4,3.6,3.2,4.8,1.8,1.3,4,1.8,6.8,1.8s5-.3,6.6-1.2c1.5-.7,2.3-1.9,2.3-3.6s-.4-1.7-1.1-2.2c-.6-.4-1.7-.9-3.2-1.1s-3.9-.6-7.6-1.2c-7.7-.9-13.4-2.4-17.3-4.8-3.9-2.2-5.9-6-5.9-11.2s2.2-10.2,6.7-13.6c4.5-3.4,10.5-5.1,18.1-5.1s14.5,1.7,19.5,4.9c4.9,3.2,7.6,7.6,7.9,13.1h-17.2c-.2-1.6-1.1-2.9-2.8-3.9-1.7-1.1-3.9-1.6-6.6-1.6s-4.5.4-5.9,1.2c-1.5.9-2.1,1.9-2.1,3.4s.6,2.1,2.1,2.6c1.4.4,3.9.9,7.8,1.2l2.1.2c7.3.9,13.1,2.4,17.1,4.8s6.2,6.4,6.2,12.1-1.2,7-3.3,9.8c-2.2,2.8-5.3,5-9.4,6.5s-8.6,2.2-13.9,2.2c-8,0-14.5-1.7-19.4-5.1-5-3.4-7.7-8.1-8-13.9h17.1ZM461.1,64.7c3.7,2.3,6.7,5.7,8.8,10,2.1,4.3,3.2,9.1,3.2,14.7s-1.1,10.5-3.2,14.8c-2.1,4.3-5.1,7.6-8.9,9.8-3.8,2.3-8.1,3.4-12.8,3.4s-11.6-2.2-15.4-6.9v27.6h-18.4V61.8h16.2l1.5,6.9c3.9-5,9.4-7.6,16.2-7.6s9,1.2,12.9,3.5ZM451.5,99.1c1.9-2.6,3-5.9,3-9.9s-1.1-7.2-3-9.7c-1.9-2.4-4.6-3.7-8-3.7s-6.1,1.3-8,3.7c-1.9,2.4-2.9,5.6-2.9,9.7s1,7.3,2.9,9.9c1.9,2.6,4.6,3.7,8,3.7s6-1.2,8-3.7Z"/>
    </g>
  </g>
</svg>