<?xml version="1.0" encoding="utf-8"?>
<!-- Generator: Adobe Illustrator 27.9.6, SVG Export Plug-In . SVG Version: 9.03 Build 54986)  -->
<svg version="1.1" id="Capa_1" xmlns="http://www.w3.org/2000/svg" xmlns:xlink="http://www.w3.org/1999/xlink" x="0px" y="0px"
	 viewBox="0 0 494 190.9" style="enable-background:new 0 0 494 190.9;" xml:space="preserve">
<style type="text/css">
	.st0{fill:#D9D9D9;filter:url(#Adobe_OpacityMaskFilter);}
	.st1{mask:url(#mask0_80_208_00000080923286534732774390000010975767438532306864_);}
	.st2{fill:#717D83;stroke:#FFFFFF;stroke-width:2;}
	.st3{fill:#87887D;stroke:#FFFFFF;stroke-width:2;}
	.st4{fill:#95A092;stroke:#FFFFFF;stroke-width:2;}
	.st5{fill:#A9C3D0;stroke:#FFFFFF;stroke-width:2;}
	.st6{fill:#6B6B60;stroke:#FFFFFF;stroke-width:2;}
	.st7{fill:#FFFFFF;}
</style>
<defs>
	<filter id="Adobe_OpacityMaskFilter" filterUnits="userSpaceOnUse" x="13" y="13" width="134.3" height="135.5">
		<feColorMatrix  type="matrix" values="1 0 0 0 0  0 1 0 0 0  0 0 1 0 0  0 0 0 1 0"/>
	</filter>
</defs>
<mask maskUnits="userSpaceOnUse" x="13" y="13" width="134.3" height="135.5" id="mask0_80_208_00000080923286534732774390000010975767438532306864_">
	<circle class="st0" cx="80" cy="80" r="64"/>
</mask>
<g class="st1">
	<path class="st2" d="M47,48h33v32H47V48z"/>
	<rect x="113" y="80" class="st3" width="32" height="32"/>
	<path class="st3" d="M80,14h65v66h-32.5L80,48V14z"/>
	<path class="st4" d="M47,80h66v33v33H80v-33H47V80z"/>
	<path class="st4" d="M14.5,80V14H47h33v35H47.5L47,80H14.5z"/>
	<path class="st5" d="M80,48l33,32H80V48z"/>
	<path class="st6" d="M80,146l-65-2.1V112h65V146z"/>
	<path class="st4" d="M47,112H14V80h33V112z"/>
	<path class="st3" d="M113,146l32-34h-32V146z"/>
</g>
<path class="st7" d="M162.2,46.7l20.2-0.2l11.8,50.2l12.6-50h17l12.2,50l12.2-50h19.7l-20.1,74.5h-22.3l-10.6-44.4l-10.2,44.4h-22.3
	L162.2,46.7z M322.1,71.6c4.1,4,6.3,10.7,6.3,20.2v29.4H310V92.6c0-4-0.7-7-2.2-9.1c-1.5-2-3.7-3.1-6.8-3.1c-3.2,0-5.7,1.1-7.4,3.2
	c-1.7,2.1-2.6,5.2-2.6,9v28.6h-18.4V46.7h18.4V72c1.8-2,3.9-3.6,6.4-4.7c2.4-1.1,5.4-1.6,8.9-1.6C312.6,65.7,317.8,67.7,322.1,71.6z
	 M353.5,45.4c1.9,1.9,3,4.4,3,7.1c0,2.9-1.1,5.2-3,7.1c-2,1.9-4.5,2.9-7.3,2.9c-3,0-5.4-1-7.3-2.9c-2-1.9-3-4.3-3-7.1
	c0-2.8,1-5.2,3-7.1c1.9-1.9,4.4-2.9,7.3-2.9C349.1,42.5,351.5,43.5,353.5,45.4z M336.9,66.3h18.4v54.9h-18.4V66.3z M380,102.8
	c0.3,2,1.4,3.6,3.2,4.8c1.8,1.3,4,1.8,6.8,1.8c2.8,0,5-0.3,6.6-1.2c1.5-0.7,2.3-1.9,2.3-3.6c0-1-0.4-1.7-1.1-2.2
	c-0.6-0.4-1.7-0.9-3.2-1.1s-3.9-0.6-7.6-1.2c-7.7-0.9-13.4-2.4-17.3-4.8c-3.9-2.2-5.9-6-5.9-11.2c0-5.6,2.2-10.2,6.7-13.6
	c4.5-3.4,10.5-5.1,18.1-5.1c8,0,14.5,1.7,19.5,4.9c4.9,3.2,7.6,7.6,7.9,13.1h-17.2c-0.2-1.6-1.1-2.9-2.8-3.9
	c-1.7-1.1-3.9-1.6-6.6-1.6c-2.6,0-4.5,0.4-5.9,1.2c-1.5,0.9-2.1,1.9-2.1,3.4c0,1.3,0.6,2.1,2.1,2.6c1.4,0.4,3.9,0.9,7.8,1.2l2.1,0.2
	c7.3,0.9,13.1,2.4,17.1,4.8s6.2,6.4,6.2,12.1c0,3.8-1.2,7-3.3,9.8c-2.2,2.8-5.3,5-9.4,6.5c-4,1.5-8.6,2.2-13.9,2.2
	c-8,0-14.5-1.7-19.4-5.1c-5-3.4-7.7-8.1-8-13.9H380z M471.3,69.2c3.7,2.3,6.7,5.7,8.8,10c2.1,4.3,3.2,9.1,3.2,14.7
	c0,5.6-1.1,10.5-3.2,14.8c-2.1,4.3-5.1,7.6-8.9,9.8c-3.8,2.3-8.1,3.4-12.8,3.4c-6.4,0-11.6-2.2-15.4-6.9v27.6h-18.4V66.3h16.2
	l1.5,6.9c3.9-5,9.4-7.6,16.2-7.6C463.2,65.7,467.5,66.9,471.3,69.2z M461.6,103.6c1.9-2.6,3-5.9,3-9.9c0-4-1.1-7.2-3-9.7
	c-1.9-2.4-4.6-3.7-8-3.7c-3.4,0-6.1,1.3-8,3.7c-1.9,2.4-2.9,5.6-2.9,9.7c0,4,1,7.3,2.9,9.9c1.9,2.6,4.6,3.7,8,3.7
	C456.9,107.3,459.6,106.1,461.6,103.6z"/>
</svg>
