<?xml version="1.0" encoding="utf-8"?>
<!-- Generator: Adobe Illustrator 28.1.0, SVG Export Plug-In . SVG Version: 6.00 Build 0)  -->
<svg version="1.1" id="SEPAL_LOGO_WHITE_02" xmlns="http://www.w3.org/2000/svg" xmlns:xlink="http://www.w3.org/1999/xlink"
	 x="0px" y="0px" viewBox="0 0 1538.55 600" style="enable-background:new 0 0 1538.55 600;" xml:space="preserve">
<style type="text/css">
	.st0{fill:#FFFFFF;}
</style>
<g>
	<g>
		<g>
			<path class="st0" d="M400.57,145.13c-4.64-5.65-9.48-11.13-14.55-16.38c-7.19-7.41-14.93-14.27-23.13-20.53
				c-8.2-6.26-16.96-11.79-26.22-16.36c-18.46-9.25-39.26-14.02-60.27-13.2c2.61-0.26,5.22-0.61,7.85-0.76l3.95-0.16l1.98-0.08
				c0.66,0,1.32,0.02,1.98,0.03c2.64,0.07,5.29,0.08,7.92,0.38l3.96,0.34c0,0,0,0,0,0l3.93,0.57c5.26,0.71,10.43,1.99,15.55,3.41
				c2.56,0.73,5.06,1.63,7.6,2.44c0,0,0,0,0,0c2.47,0.98,4.99,1.87,7.44,2.92c9.79,4.22,19.1,9.53,27.88,15.58
				c8.79,6.05,16.95,12.96,24.65,20.32c5.93,5.68,11.55,11.69,16.86,17.95c0.01,0.01,0,0.02-0.01,0.02c-2.43,0.48-4.73,1.46-6.76,3
				C400.96,144.78,400.77,144.97,400.57,145.13z M486.27,345.67c-0.08-2.66-0.16-5.32-0.35-7.97c-0.16-2.65-0.34-5.31-0.61-7.95
				c-0.24-2.65-0.48-5.29-0.83-7.93c-1.24-10.55-3-21.04-5.21-31.42c-4.52-20.75-10.9-41.07-18.88-60.74
				c-7.46-17.99-16.2-35.47-26.44-52.06c0-0.01-0.02-0.01-0.02,0c-1.08,1.82-2.47,3.45-4.21,4.76c-0.73,0.55-1.51,1.01-2.3,1.43
				c-0.01,0-0.01,0.01,0,0.02c9.36,15.8,17.52,32.32,24.41,49.36c7.92,19.15,14.23,38.98,18.89,59.16
				c2.37,10.08,4.3,20.27,5.72,30.53c0.39,2.56,0.67,5.13,0.97,7.7c0.33,2.57,0.53,5.15,0.77,7.72c0.27,2.57,0.44,5.15,0.61,7.74
				c0.21,2.58,0.28,5.16,0.38,7.75c0.37,10.34,0.06,20.69-0.92,30.98c-0.97,10.29-2.84,20.49-5.68,30.41
				c-1.34,4.99-3.12,9.85-5.04,14.65c-0.49,1.2-1.05,2.36-1.57,3.54c-0.55,1.17-1.02,2.38-1.65,3.51c-1.21,2.28-2.32,4.63-3.69,6.83
				c-0.67,1.11-1.29,2.25-2,3.34l-2.17,3.23c-1.43,2.18-3.01,4.24-4.66,6.25c-3.25,3.97-6.92,7.6-10.83,10.98
				c-0.01,0.01,0,0.03,0.01,0.02c4.24-2.97,8.21-6.34,11.86-10.07c1.84-1.91,3.6-3.9,5.21-5.99l2.46-3.13
				c0.81-1.05,1.52-2.17,2.29-3.26c6.06-8.75,10.6-18.49,14.12-28.54c3.46-10.08,5.86-20.51,7.37-31.05
				c1.52-10.54,2.1-21.2,2.12-31.83C486.38,350.98,486.39,348.32,486.27,345.67z M504.96,321.94c0-0.01-0.01-0.01-0.02-0.01
				c-0.89,0.48-1.83,0.83-2.84,0.98c-0.91,0.14-1.81,0.12-2.71-0.03c0.02,0.23,0.04,0.45,0.06,0.68c0.18,2.28,0.45,4.55,0.53,6.83
				c0.64,9.12,0.54,18.26,0.12,27.38c-0.44,9.12-1.53,18.22-3.34,27.17c-1.76,8.97-4.34,17.78-7.81,26.26
				c-1.76,4.23-3.76,8.36-6.03,12.35c-2.25,4-4.79,7.86-7.63,11.5c3.11-3.41,5.95-7.09,8.52-10.95c2.55-3.88,4.83-7.94,6.89-12.12
				c4.05-8.38,7.09-17.25,9.37-26.29c2.25-9.05,3.72-18.3,4.55-27.59c0.11-1.16,0.26-2.32,0.33-3.49l0.2-3.49
				c0.11-2.33,0.3-4.66,0.29-6.99l0.1-7l-0.15-6.99C505.28,327.41,505.13,324.67,504.96,321.94z M481.49,243.55l1.16,3.22l1.08,3.25
				c2.97,8.65,5.41,17.46,7.68,26.31l1.31,5.35c0,0.01,0.01,0.01,0.02,0.01c0.94-0.54,1.93-0.92,3-1.08
				c1.12-0.17,2.25-0.08,3.35,0.19c0.01,0,0.02-0.01,0.01-0.01c-0.43-2-0.87-4-1.33-6c-2.15-9.07-4.66-18.06-7.62-26.9l-1.08-3.32
				l-1.17-3.29l-2.36-6.58c-1.7-4.34-3.32-8.71-5.17-12.99c-3.6-8.6-7.64-17.01-11.95-25.27l-3.28-6.17l-3.45-6.08
				c-1.12-2.04-2.35-4.02-3.56-6.02c-1.22-1.99-2.38-4.01-3.69-5.94c-5-7.87-10.45-15.45-16.11-22.86
				c-5.7-7.38-11.85-14.42-18.29-21.16c-12.97-13.39-27.41-25.48-43.53-34.93c-4.05-2.31-8.16-4.53-12.41-6.45
				c-2.1-1.02-4.27-1.87-6.41-2.78c-2.18-0.82-4.35-1.68-6.57-2.37c-8.82-2.97-18.05-4.72-27.28-5.03c4.59,0.5,9.13,1.38,13.57,2.54
				c4.45,1.12,8.81,2.59,13.06,4.3c2.14,0.81,4.21,1.79,6.31,2.7c2.06,1.01,4.14,1.95,6.14,3.05c4.06,2.1,7.97,4.47,11.82,6.94
				c7.65,4.99,14.97,10.49,21.8,16.56c6.84,6.05,13.42,12.39,19.55,19.16c1.55,1.67,3.01,3.43,4.52,5.14l2.24,2.59l2.16,2.66
				c1.42,1.79,2.93,3.5,4.31,5.32l4.17,5.43c5.42,7.35,10.62,14.87,15.39,22.67c9.61,15.54,18.07,31.81,25.09,48.69
				c1.85,4.18,3.45,8.46,5.15,12.71L481.49,243.55z M506.47,384.55c1.48-3.55,2.77-7.17,3.91-10.85c2.26-7.35,3.95-14.9,5.04-22.53
				c1.22-7.62,1.71-15.33,1.99-23.04l0.09-5.79c0-1.93-0.08-3.86-0.12-5.78l-0.07-2.89c-0.03-0.96-0.11-1.93-0.16-2.89l-0.35-5.78
				c-2.49-30.78-10.48-60.99-22.45-89.41c-12.02-28.39-28.13-55.18-48.5-78.4c-10.24-11.53-21.55-22.18-34.07-31.19
				c-6.28-4.47-12.86-8.52-19.72-12.01c-3.43-1.74-6.93-3.34-10.51-4.75c-3.58-1.39-7.23-2.6-10.93-3.59
				c14.52,4.95,27.82,12.8,39.81,22.17c3.02,2.31,5.9,4.81,8.8,7.26c1.45,1.23,2.81,2.56,4.22,3.84c1.41,1.28,2.8,2.57,4.13,3.93
				l4.05,4.02l3.91,4.15l1.95,2.08l1.88,2.15c1.25,1.43,2.52,2.85,3.75,4.3c9.7,11.7,18.64,24.07,26.36,37.17l2.91,4.9l2.78,4.98
				l1.39,2.49l1.32,2.53l2.64,5.05c3.38,6.81,6.65,13.68,9.55,20.71c3.02,6.98,5.68,14.11,8.2,21.29c1.17,3.62,2.45,7.2,3.49,10.86
				l1.63,5.47l1.5,5.5c4.02,14.67,6.66,29.7,8.31,44.81c1.42,15.13,1.71,30.42-0.04,45.55c-1.5,15.15-5.22,30.14-11.73,44.03
				C503.3,391.55,504.97,388.08,506.47,384.55z M523.47,272.12c-1.53-10.01-3.77-19.9-6.48-29.66c-2.75-9.75-6.08-19.33-9.87-28.72
				c-3.85-9.37-8.18-18.54-13.03-27.43c-4.89-8.87-10.21-17.51-16.12-25.73c-5.88-8.24-12.3-16.1-19.22-23.46
				c-6.98-7.31-14.38-14.23-22.39-20.35c7.5,6.72,14.61,13.85,21.12,21.49c6.57,7.58,12.64,15.58,18.26,23.87
				c5.59,8.31,10.79,16.88,15.45,25.74c4.7,8.83,8.96,17.91,12.72,27.19c3.81,9.25,7.11,18.72,9.93,28.32
				c2.86,9.59,5.14,19.35,6.97,29.2c1.78,9.86,3.05,19.81,3.64,29.83c0.68,10.01,0.55,20.08-0.2,30.13
				C527.2,312.57,526.6,292.1,523.47,272.12z M329.3,290.09c0.66,1.61,1.3,3.22,1.93,4.84c0,0,0,0.01,0.01,0.01
				c4.77,1.54,9.49,3.22,14.15,5.04c0.01,0,0.02-0.01,0.02-0.01c-1.69-4.78-3.49-9.53-5.39-14.23c-2.38-5.82-4.92-11.57-7.63-17.24
				c0-0.01-0.02-0.01-0.02,0c-2.35,3.88-4.81,7.7-7.37,11.45c0,0,0,0.01,0,0.01C326.47,283.31,327.92,286.69,329.3,290.09z
				 M290.93,115.97c-9.73-5.49-20.03-10.07-30.8-13.15c-0.01,0-0.02,0-0.01,0.01l0.01,0.03c0.69,3.54,3.12,6.48,6.44,7.88
				c7.27,3.05,14.26,6.76,20.95,10.96c4.93,3.12,9.75,6.42,14.39,9.98c1.18,0.86,2.3,1.8,3.45,2.7c1.16,0.89,2.27,1.84,3.38,2.79
				l3.34,2.84l1.67,1.42l1.61,1.49l3.23,2.97c0.51,0.47,1.03,0.94,1.53,1.42c0,0,0,0,0.01,0c4.1,0.01,8.2,0.12,12.31,0.34
				c0.01,0,0.02-0.01,0.01-0.02c-3.83-3.7-7.78-7.27-11.87-10.7C311.31,129.16,301.53,121.92,290.93,115.97z M393.58,232.79
				c0.01,0,0.01-0.01,0.01-0.02c-7.28-14.52-15.51-28.57-24.76-41.95c-1.54-2.21-3.11-4.4-4.71-6.57c-0.01-0.01-0.02-0.01-0.02,0
				c-0.78,4.32-1.67,8.61-2.67,12.86c0,0,0,0.01,0,0.01c6.3,9.48,12.22,19.22,17.61,29.26c1.77,3.29,3.47,6.62,5.13,9.97
				c0,0.01,0.01,0.01,0.02,0c2.28-1.4,4.8-2.49,7.53-3.17C392.35,233.02,392.97,232.9,393.58,232.79z M404.5,285.37
				c0.65,1.93,1.31,3.86,1.93,5.8c3.54,11.2,6.46,22.57,8.91,34.04c1.4,6.53,2.59,13.11,3.57,19.72c0,0,0,0.01,0,0.01
				c3.5,3.09,6.94,6.3,10.29,9.6c0.01,0.01,0.02,0,0.02-0.01c-0.96-10.48-2.48-20.91-4.47-31.23c-2.28-11.86-5.33-23.55-8.85-35.09
				c-0.72-2.32-1.48-4.62-2.25-6.92c0-0.01-0.01-0.01-0.02-0.01c-2.6,1.81-5.56,3.19-8.81,4.01
				C404.73,285.33,404.62,285.35,404.5,285.37z M421.98,390.08C421.98,390.08,421.98,390.09,421.98,390.08
				c-0.03,1.65-0.07,3.3-0.13,4.95c-0.1,2.92-0.35,5.83-0.52,8.76c-0.2,2.92-0.59,5.81-0.88,8.72c-0.77,5.79-1.66,11.57-2.9,17.27
				c-2.44,11.41-6.09,22.57-11.32,32.98c-3.07,6.31-6.88,12.24-11.32,17.68c-1.4,1.71-1.67,4.07-0.78,6.09l0.02,0.03
				c0,0.01,0.01,0.01,0.02,0c2.19-1.99,4.06-4.29,6.04-6.49c1.05-1.11,1.89-2.38,2.82-3.58l2.74-3.65c0,0,0,0,0,0l2.46-3.84
				c0.8-1.29,1.7-2.53,2.38-3.89c6-10.59,10.31-22.07,13.4-33.79c3.09-11.74,4.85-23.78,5.74-35.85c0.16-3.02,0.36-6.04,0.48-9.07
				l0.07-4.24c0-0.01-0.01-0.02-0.02-0.01C427.57,384.87,424.8,387.51,421.98,390.08z M352.02,228.05
				c-1.71,4.54-3.55,9.02-5.52,13.44c0,0,0,0.01,0,0.01c5.38,10,10.29,20.25,14.68,30.72c4.65,10.96,8.74,22.16,12.27,33.52
				c0.91,2.91,1.78,5.83,2.61,8.76c0,0,0,0.01,0.01,0.01c4.66,2.61,9.23,5.38,13.72,8.3c0.01,0.01,0.02,0,0.02-0.01
				c-4.39-18.84-10.49-37.25-17.97-55.07c-4.8-11.32-10.16-22.4-16.09-33.17c-1.21-2.18-2.45-4.34-3.7-6.49
				C352.04,228.04,352.02,228.04,352.02,228.05z M460.59,358.38c-0.13-2.88-0.24-5.77-0.49-8.65c-0.22-2.88-0.43-5.76-0.76-8.62
				c-1.18-11.48-2.99-22.88-5.34-34.17c-4.74-22.57-11.72-44.62-20.5-65.91c-4.42-10.64-9.29-21.08-14.63-31.3
				c-5.38-10.19-11.16-20.17-17.5-29.81c-6.35-9.63-13.17-18.95-20.52-27.86c-3.67-4.46-7.49-8.8-11.44-13.02
				c-1.97-2.11-4.05-4.13-6.07-6.2c-2.08-2.01-4.18-4-6.29-5.98c-8.56-7.79-17.67-15.02-27.49-21.21
				c-9.79-6.21-20.3-11.36-31.31-15.04c-11-3.69-22.59-5.63-34.12-5.68c-2.71,0-5.41,0.13-8.1,0.36c-0.01,0-0.01,0.01-0.01,0.01l0,0
				c0.35,1.28,1.49,2.18,2.81,2.23c0.33,0.01,0.66,0.02,1,0.03c1.4,0.07,2.81,0.03,4.2,0.18c11.18,0.89,22.19,3.34,32.52,7.57
				c10.37,4.08,20.21,9.47,29.32,15.9c9.13,6.4,17.73,13.57,25.7,21.41c15.87,15.76,29.75,33.52,41.68,52.51
				c5.98,9.49,11.57,19.23,16.68,29.22c5.15,9.97,9.87,20.17,14.15,30.55c4.32,10.37,8.18,20.92,11.6,31.61
				c3.46,10.68,6.39,21.53,8.91,32.46c5.05,21.86,7.92,44.23,8.16,66.61c0.1,11.19-0.73,22.37-2.37,33.42
				c-1.66,11.04-4.31,21.95-8.38,32.35l-1.52,3.9l-1.72,3.82l-0.86,1.91l-0.95,1.86c-0.65,1.23-1.24,2.51-1.94,3.71
				c-2.67,4.91-5.83,9.54-9.3,13.93c-6.96,8.79-15.8,16.1-25.83,21.52c2.61-1.14,5.19-2.36,7.7-3.74c2.5-1.39,4.94-2.9,7.3-4.54
				c4.7-3.31,9.02-7.18,12.95-11.41c7.91-8.47,13.96-18.53,18.76-29.06c4.79-10.57,8.06-21.77,10.34-33.12
				c1.2-5.67,1.95-11.42,2.59-17.17c0.32-2.88,0.49-5.76,0.75-8.64c0.14-2.89,0.3-5.77,0.4-8.66c0.03-2.89,0.14-5.78,0.1-8.67
				C460.71,364.15,460.76,361.26,460.59,358.38z"/>
			<circle id="SAT_02_00000173857164960014182300000013652214526876064641_" class="st0" cx="415.76" cy="163.9" r="11.52"/>
			<circle id="SAT_03_00000151519798351765721210000004981622795693979050_" class="st0" cx="398.28" cy="259.24" r="13.2"/>
			<circle id="SAT_04_00000052073426224197768360000003273985436674243754_" class="st0" cx="496.85" cy="300.61" r="9.03"/>
			<circle id="SAT_05_00000016766226644929385740000007254233447558419386_" class="st0" cx="379.59" cy="435.06" r="18.19"/>
			<circle id="SAT_01_00000148647167372540536500000010440234201274067336_" class="st0" cx="272.76" cy="143.08" r="11.17"/>
			<circle class="st0" cx="272.76" cy="143.08" r="11.17"/>
			<path class="st0" d="M417.4,368.88c-38-37.95-85.92-59.93-135.4-65.93c35.25-35.25,59.42-82.1,65.93-135.4
				c-9.52-1.16-18.96-1.73-28.32-1.73v14.11c4,0,8.03,0.11,12.07,0.34c-4.12,21.68-11.44,42.42-21.85,61.84
				c-12.01,22.39-27.74,42.34-46.77,59.33c-3.03-0.12-6.06-0.18-9.08-0.18v7.86v6.25c4.7,0,9.39,0.15,14.05,0.45
				c23.27,1.48,45.96,6.65,67.61,15.43c22.42,9.08,42.93,21.72,61.13,37.66c-18.23,15.99-38.77,28.68-61.23,37.79
				c-5.94,2.42-11.97,4.56-18.06,6.42c-5.54,1.7-11.14,3.17-16.79,4.41c-15.33,3.38-31.01,5.09-46.93,5.09
				c-28.19,0-55.67-5.34-81.67-15.87c-19.24-7.8-37.07-18.21-53.25-31.08c-2.02-1.6-4-3.24-5.96-4.92
				c-0.65-0.55-1.29-1.11-1.93-1.67c3.27-2.87,6.62-5.63,10.03-8.29c1.86-1.44,3.74-2.85,5.64-4.23
				c14.08-10.22,29.3-18.67,45.54-25.27c23.44-9.51,48.09-14.8,73.38-15.76c2.8-0.11,5.61-0.16,8.42-0.16l0.01-6.24l0.01-7.87h-0.02
				c-25.46,0-50.92,4.18-75.27,12.54c-25.54,8.76-49.86,22.12-71.64,40.09c0.51-2.53,1.06-5.05,1.66-7.55
				c4.31-18.06,10.91-35.41,19.7-51.8c12.27-22.88,28.42-43.22,48.02-60.45c15.11-13.28,31.83-24.3,49.64-32.84
				c5.22-2.51,10.52-4.8,15.91-6.87c24.6-9.47,50.88-14.44,77.61-14.45l0.01-14.11h-0.02c-26.09,0-51.39,4.41-75.08,12.59
				c4.14-33.8,0.85-69.05-11-103.41C112.77,116.66,48.64,248.35,90.31,369.09C123.35,464.86,213.02,525,308.96,525
				c25.01,0,50.46-4.09,75.43-12.71c-11.86-34.36-31-64.14-55.11-88.2C361.48,413.01,391.71,394.6,417.4,368.88z M92.21,279.02
				c1.9-28.02,9.13-55.09,21.49-80.45c12.35-25.37,29.2-47.75,50.08-66.53c18-16.2,38.37-29.1,60.7-38.49
				c6.38,23.37,8.78,47.36,7.14,71.52c-0.44,6.43-1.16,12.81-2.15,19.14c-64.28,27.37-114.6,83.25-133.17,153.68
				C92.22,318.55,90.85,298.84,92.21,279.02z M338.55,456.08c11.04,14.49,20.18,30.31,27.28,47.17c-18.6,5.07-37.67,7.63-56.87,7.63
				c-22.28,0-44.39-3.44-65.71-10.23c-21.09-6.72-40.98-16.56-59.1-29.26c-18.34-12.85-34.49-28.36-48-46.1
				c-8.42-11.05-15.73-22.86-21.87-35.33c41.13,31.17,90.3,46.75,139.48,46.75c20.22,0,40.43-2.63,60.09-7.9
				C322.84,437.18,331.1,446.29,338.55,456.08z"/>
		</g>
	</g>
	<g>
		<path class="st0" d="M707.26,471.8c-39.2,0-65.54-26.71-65.54-66.45v-21.89c0-3.54,1.8-5.34,5.34-5.34h10.49
			c3.29,0,5.34,2.05,5.34,5.34v14.14c0,34.79,15.76,53.95,44.37,53.95c28.2,0,44.37-19.66,44.37-53.95v-14.14
			c0-24.86-23.31-47.52-45.85-69.42c-2.07-2.01-4.11-4-6.14-5.98c-2.88-2.88-5.91-5.84-8.84-8.69l-0.17-0.16
			c-24.05-23.44-48.92-47.69-48.92-82.65v-21.89c0-19.69,6.24-36.4,18.04-48.31c11.75-11.87,28.18-18.14,47.5-18.14
			c39.47,0,65.99,26.7,65.99,66.45v21.89c0,3.29-2.05,5.34-5.34,5.34h-10.95c-3.29,0-5.34-2.05-5.34-5.34v-14.14
			c0-34.28-16.17-53.95-44.37-53.95s-44.37,19.66-44.37,53.95v14.14c0,24.79,20.76,45.36,44.8,69.18l0.37,0.37
			c2.1,2.08,4.22,4.18,6.34,6.3c3.51,3.58,7.23,7.17,11.16,10.98c22.36,21.63,47.68,46.13,47.68,80.08v21.89
			C773.25,445.09,746.73,471.8,707.26,471.8z"/>
		<path class="st0" d="M847.72,469.52c-3.29,0-5.34-2.05-5.34-5.34V135.82c0-3.54,1.8-5.34,5.34-5.34h87.1
			c3.29,0,5.34,2.05,5.34,5.34v8.67c0,3.29-2.05,5.34-5.34,5.34h-62.93c-4.91,0-8.34,3.43-8.34,8.34v121.76
			c0,4.91,3.43,8.34,8.34,8.34h62.93c3.29,0,5.34,2.05,5.34,5.34v8.67c0,3.29-2.05,5.34-5.34,5.34h-62.93
			c-4.91,0-8.34,3.43-8.34,8.34v125.87c0,4.91,3.43,8.34,8.34,8.34h62.93c3.29,0,5.34,2.05,5.34,5.34v8.67
			c0,3.29-2.05,5.34-5.34,5.34H847.72z"/>
		<path class="st0" d="M1018.73,469.52c-3.29,0-5.34-2.05-5.34-5.34V135.82c0-3.54,1.8-5.34,5.34-5.34h60.2
			c39.47,0,65.99,26.7,65.99,66.45v72.97c0,19.83-6.31,36.59-18.26,48.47c-11.82,11.76-28.32,17.98-47.74,17.98h-36.03
			c-4.91,0-8.34,3.43-8.34,8.34v119.48c0,3.54-1.8,5.34-5.34,5.34H1018.73z M1042.9,150.74c-4.91,0-8.34,3.43-8.34,8.34v148.67
			c0,4.91,3.43,8.34,8.34,8.34h36.03c28.2,0,44.37-19.66,44.37-53.94v-57.46c0-34.28-16.17-53.95-44.37-53.95H1042.9z"/>
		<path class="st0" d="M1286.88,469.52c-3.08,0-4.52-0.53-5.36-5.59l-7.3-42.87c-0.4-2.42-1.35-8.09-8.32-8.09h-63.85
			c-6.97,0-7.92,5.67-8.32,8.09l-7.3,42.86c-0.84,5.06-2.28,5.59-5.36,5.59h-10.49c-1.84,0-3.13-0.42-3.83-1.24
			c-0.77-0.91-0.99-2.56-0.62-4.77l57.46-326.06c1.29-6.45,2.27-6.97,7.19-6.97h6.84c4.53,0,5.44,0.52,6.74,7l57.46,326.04
			c0.37,2.19,0.15,3.84-0.62,4.75c-0.7,0.82-1.98,1.24-3.83,1.24H1286.88z M1233.98,201.59c-1.55,0-3.38,1.03-3.76,3.31
			l-30.56,181.5c-0.33,2.34-0.01,4.03,1,5.19c0.92,1.06,2.27,1.57,4.13,1.57h58.83c1.86,0,3.21-0.51,4.13-1.57
			c1.01-1.16,1.33-2.85,1-5.16l-31.02-181.55C1237.36,202.62,1235.52,201.59,1233.98,201.59z"/>
		<path class="st0" d="M1368.51,469.52c-3.29,0-5.34-2.05-5.34-5.34V135.82c0-3.54,1.8-5.34,5.34-5.34H1379
			c3.29,0,5.34,2.05,5.34,5.34v306c0,4.91,3.43,8.34,8.34,8.34h62.93c3.29,0,5.34,2.05,5.34,5.34v8.67c0,3.29-2.05,5.34-5.34,5.34
			H1368.51z"/>
	</g>
</g>
</svg>
