<?xml version="1.0" encoding="utf-8"?>
<!-- Generator: Adobe Illustrator 28.1.0, SVG Export Plug-In . SVG Version: 6.00 Build 0)  -->
<svg version="1.1" xmlns="http://www.w3.org/2000/svg" xmlns:xlink="http://www.w3.org/1999/xlink" x="0px" y="0px"
	 viewBox="0 0 225.01 100" style="enable-background:new 0 0 225.01 100;" xml:space="preserve">
<style type="text/css">
	.st0{fill:#FFFFFF;}
	.st1{fill:#84AC67;}
	.st2{fill:#5D7948;}
	.st3{opacity:0.5;fill:none;stroke:#FFFFFF;stroke-width:0.7087;stroke-miterlimit:10;}
	.st4{opacity:0.66;fill:#FFFFFF;}
	.st5{fill:none;stroke:#FFFFFF;stroke-width:0.5669;stroke-miterlimit:10;}
	.st6{opacity:0.33;}
</style>
<g id="Livello_7">
	<path class="st0" d="M94.31,48.67C94.31,72.49,75,91.8,51.17,91.8c-23.83,0-43.15-19.31-43.15-43.13
		c0-23.82,19.32-43.13,43.15-43.13C75,5.54,94.31,24.85,94.31,48.67"/>
	<g>
		<g>
			<g>
				<defs>
					<path id="SVGID_1_" d="M38.86,6.94c0,0-0.71,0.12-2.03,0.34c-0.66,0.12-1.5,0.23-2.43,0.52c-0.93,0.28-2.06,0.51-3.24,0.98
						c-0.6,0.23-1.22,0.47-1.88,0.72c-0.67,0.24-1.34,0.55-2.03,0.9c-0.69,0.35-1.41,0.71-2.16,1.09c-0.72,0.44-1.46,0.89-2.23,1.36
						c-0.79,0.44-1.53,1.01-2.3,1.59c-0.77,0.58-1.58,1.15-2.33,1.85c-0.75,0.69-1.58,1.34-2.33,2.11c-0.75,0.77-1.5,1.58-2.26,2.42
						c-0.7,0.89-1.42,1.79-2.15,2.71c-0.68,0.96-1.34,1.97-2.02,2.99c-0.63,1.05-1.2,2.16-1.81,3.28c-0.57,1.13-1.05,2.34-1.57,3.54
						c-0.47,1.22-0.87,2.49-1.29,3.77c-0.34,1.3-0.63,2.64-0.95,3.99c-0.22,1.41-0.44,2.89-0.58,4.31
						c-0.03,0.64-0.06,1.29-0.09,1.94l-0.05,0.98l-0.02,0.49l-0.01,0.12c-0.01,0.24,0,0.23,0,0.22c0-0.01,0-0.01,0,0.02l0,0.07
						l0.01,0.27c0.04,5.74,1.37,11.67,3.81,17.13c2.43,5.47,5.89,10.55,10.19,14.75c4.26,4.24,9.33,7.61,14.75,9.87
						c2.71,1.11,5.49,2.01,8.3,2.56c1.37,0.37,2.87,0.46,4.29,0.66c0.7,0.06,1.47,0.22,2.11,0.2c0.66,0.01,1.32,0.03,1.98,0.04
						c5.55,0.13,10.87-0.78,15.61-2.43c4.75-1.65,8.91-4,12.36-6.63c3.46-2.63,6.2-5.52,8.36-8.26c0.51-0.71,1.01-1.39,1.49-2.05
						c0.49-0.65,0.86-1.35,1.27-1.98c0.82-1.26,1.41-2.52,1.97-3.63c0.14-0.28,0.28-0.55,0.41-0.81c0.11-0.27,0.22-0.54,0.33-0.8
						c0.21-0.52,0.41-1,0.6-1.45c0.4-0.89,0.62-1.67,0.82-2.29c0.4-1.25,0.61-1.92,0.61-1.92c0.06-0.2-0.04-0.41-0.23-0.49
						c-0.2-0.08-0.44,0.01-0.52,0.22c0,0-0.27,0.65-0.76,1.86c-0.25,0.61-0.54,1.37-0.98,2.19c-0.21,0.42-0.44,0.86-0.68,1.34
						c-0.12,0.24-0.24,0.48-0.37,0.74c-0.15,0.24-0.3,0.49-0.46,0.75c-0.63,1.03-1.29,2.19-2.17,3.34
						c-0.43,0.58-0.83,1.22-1.34,1.82c-0.5,0.6-1.02,1.22-1.55,1.85c-2.23,2.47-5.02,5.02-8.42,7.26c-3.39,2.24-7.4,4.14-11.84,5.35
						c-4.43,1.2-9.32,1.77-14.25,1.35c-0.65-0.05-1.31-0.1-1.97-0.16c-0.34-0.02-0.65-0.06-0.94-0.13l-0.9-0.17
						c-1.2-0.26-2.4-0.36-3.63-0.79c-2.46-0.65-4.87-1.54-7.2-2.63c-4.66-2.21-8.93-5.37-12.43-9.2c-3.47-3.86-6.19-8.36-7.86-13.11
						c-1.66-4.75-2.47-9.67-2.43-14.43l-0.01-0.22l0-0.06c0,0.02,0,0,0-0.02c0,0,0-0.01,0-0.01l0.02-0.47l0.04-0.98
						c0.02-0.65,0.05-1.3,0.07-1.94c0.14-1.14,0.26-2.19,0.36-3.29c0.22-1.12,0.41-2.24,0.64-3.34c0.31-1.08,0.54-2.16,0.86-3.21
						c0.38-1.03,0.69-2.07,1.08-3.06c0.43-0.98,0.82-1.96,1.27-2.9c0.48-0.93,0.95-1.84,1.41-2.73c0.53-0.86,1.05-1.7,1.56-2.53
						c0.57-0.79,1.14-1.57,1.68-2.32c0.54-0.77,1.17-1.44,1.73-2.14c0.55-0.72,1.19-1.32,1.78-1.93c0.6-0.61,1.17-1.23,1.78-1.75
						c0.6-0.55,1.19-1.08,1.75-1.59c0.61-0.46,1.19-0.91,1.75-1.34c1.09-0.93,2.23-1.57,3.21-2.26c2.03-1.25,3.69-2.2,4.87-2.74
						c1.18-0.59,1.8-0.9,1.8-0.9l0.03-0.02c0.15-0.08,0.24-0.25,0.22-0.42c-0.03-0.2-0.2-0.33-0.39-0.33
						C38.91,6.94,38.88,6.94,38.86,6.94"/>
				</defs>
				<use xlink:href="#SVGID_1_"  style="overflow:visible;fill:#1D92B3;"/>
				<clipPath id="SVGID_00000176737454547738344300000014573852354148012973_">
					<use xlink:href="#SVGID_1_"  style="overflow:visible;"/>
				</clipPath>
			</g>
			<g>
				<path class="st1" d="M39.06,6.98c0,0,0.35-0.11,1.01-0.3c0.66-0.19,1.6-0.53,2.88-0.8c0.63-0.14,1.34-0.33,2.11-0.46
					c0.77-0.12,1.61-0.25,2.51-0.38c0.9-0.1,1.86-0.16,2.88-0.25c0.15-0.01,0.21-0.02,0.43-0.03h0.38c0.26,0,0.52,0,0.78,0
					c0.52,0,1.06,0,1.61,0c0.55,0,1.11,0,1.68,0c0.59,0.06,1.19,0.12,1.8,0.18c0.61,0.06,1.24,0.13,1.87,0.2
					c0.32,0.04,0.64,0.06,0.96,0.11c0.31,0.06,0.63,0.13,0.94,0.2c1.26,0.28,2.6,0.48,3.9,0.89c1.29,0.43,2.65,0.81,3.98,1.32
					c1.3,0.58,2.66,1.11,3.98,1.76c1.28,0.72,2.61,1.41,3.88,2.22c1.22,0.88,2.52,1.69,3.7,2.66l1.75,1.49
					c0.58,0.5,1.19,0.98,1.7,1.56c2.19,2.16,4.25,4.49,6.01,6.99c0.83,1.28,1.79,2.49,2.43,3.85c0.69,1.34,1.44,2.64,1.91,4.03
					c1.09,2.73,1.74,5.51,2.14,8.15c0.15,1.33,0.25,2.63,0.37,3.88c0,1.26-0.04,2.47-0.08,3.62c-0.01,0.29-0.02,0.57-0.03,0.85
					l-0.02,0.51l-0.06,0.39c-0.08,0.52-0.15,1.03-0.23,1.53c-0.08,0.5-0.15,0.98-0.22,1.45c-0.11,0.5-0.22,0.98-0.34,1.44
					c-0.25,0.92-0.41,1.79-0.68,2.55c-0.27,0.75-0.52,1.45-0.75,2.07c-0.2,0.63-0.48,1.16-0.7,1.62c-0.22,0.46-0.41,0.85-0.58,1.17
					c-0.33,0.62-0.5,0.95-0.5,0.95c-0.08,0.15-0.26,0.21-0.41,0.13c-0.11-0.06-0.17-0.17-0.16-0.29l0-0.02c0,0,0.02-0.37,0.06-1.07
					c0.02-0.7,0.18-1.68,0.2-2.95c0.03-1.27,0.13-2.79,0.04-4.47c-0.01-0.42-0.02-0.85-0.01-1.29c-0.03-0.47-0.07-0.96-0.1-1.46
					c-0.04-0.5-0.07-1.01-0.11-1.54l-0.03-0.4l0-0.05c0-0.09,0,0.09,0,0.07l0-0.02l-0.01-0.1l-0.03-0.19
					c-0.04-0.25-0.08-0.51-0.11-0.77c-0.14-1.02-0.29-2.09-0.45-3.19c-0.24-1.09-0.51-2.2-0.74-3.35c-0.62-2.26-1.29-4.62-2.24-6.98
					c-0.35-1.23-1-2.35-1.48-3.57c-0.47-1.23-1.17-2.36-1.78-3.56c-1.29-2.36-2.9-4.61-4.73-6.68c-0.43-0.55-0.93-1.02-1.43-1.5
					l-1.48-1.45c-1-0.95-2.13-1.75-3.18-2.63c-1.1-0.82-2.27-1.51-3.38-2.28c-1.15-0.69-2.35-1.28-3.5-1.92
					c-1.18-0.57-2.4-1.02-3.56-1.52c-0.58-0.27-1.19-0.41-1.78-0.6c-0.59-0.18-1.18-0.37-1.76-0.55c-0.29-0.09-0.58-0.18-0.86-0.27
					c-0.29-0.08-0.58-0.12-0.86-0.19c-0.57-0.12-1.13-0.23-1.69-0.35c-0.56-0.12-1.1-0.23-1.64-0.34c-0.57-0.06-1.12-0.11-1.67-0.17
					c-0.55-0.05-1.08-0.11-1.6-0.16c-0.26-0.03-0.52-0.05-0.77-0.08L50.77,6.6l-0.32,0c-0.98-0.01-1.91-0.04-2.78-0.03
					c-0.87,0.05-1.69,0.09-2.45,0.13c-0.76,0.05-1.44,0.15-2.07,0.22c-1.25,0.1-2.24,0.35-2.92,0.46c-0.67,0.13-1.03,0.19-1.03,0.19
					c-0.16,0.03-0.32-0.08-0.35-0.24C38.82,7.17,38.92,7.02,39.06,6.98"/>
			</g>
		</g>
		<path class="st2" d="M69.86,74.8H29.31c-2.21,0-4-1.79-4-4V28.92c0-2.21,1.79-4,4-4h40.55c2.21,0,4,1.79,4,4V70.8
			C73.86,73.01,72.07,74.8,69.86,74.8z"/>
		<path class="st1" d="M69.86,73.08H29.31c-2.21,0-4-1.79-4-4V28.92c0-2.21,1.79-4,4-4h40.55c2.21,0,4,1.79,4,4v40.16
			C73.86,71.29,72.07,73.08,69.86,73.08z"/>
		<circle class="st0" cx="60.3" cy="32.07" r="1"/>
		<circle class="st0" cx="65.62" cy="30.3" r="1"/>
		<circle class="st0" cx="69.56" cy="33.96" r="1"/>
		<circle class="st0" cx="66.23" cy="40.16" r="1"/>
		<circle class="st0" cx="66.62" cy="46.65" r="1"/>
		<circle class="st0" cx="69.56" cy="52.69" r="1"/>
		<line class="st3" x1="69.56" y1="33.96" x2="66.23" y2="40.16"/>
		<line class="st3" x1="66.62" y1="46.65" x2="69.56" y2="52.69"/>
		<polyline class="st3" points="66.62,46.65 63.36,58.95 63.19,59.06 		"/>
		<polyline class="st3" points="65.62,30.3 59.5,48.62 59.4,48.67 		"/>
		<line class="st3" x1="60.3" y1="32.07" x2="66.23" y2="40.16"/>
		<line class="st3" x1="60.3" y1="32.07" x2="55.53" y2="38.07"/>
		<path class="st4" d="M53.25,31.8l-0.82-2.23h-5.69l-0.82,2.23L32.9,67.51h7.32l4.67-12.81h9.39l4.67,12.81h7.32L53.25,31.8z
			 M47.29,48.14l2.3-6.31l2.3,6.31H47.29z"/>
		<path class="st5" d="M53.25,31.8l-0.82-2.23h-5.69l-0.82,2.23L32.9,67.51h7.32l4.67-12.81h9.39l4.67,12.81h7.32L53.25,31.8z
			 M47.29,48.14l2.3-6.31l2.3,6.31H47.29z"/>
		<g class="st6">
			<rect x="30.37" y="67.22" class="st0" width="2.53" height="0.57"/>
			<rect x="40.22" y="67.22" class="st0" width="7.53" height="0.57"/>
			<path class="st0" d="M37.86,42.12h4.41v-0.28h0.28V29.85h4.19v-0.57H30.37v0.57h6.92v11.7h-6.92v0.57h6.92v5.74h-6.92v0.57h6.92
				v5.99h-6.92v0.57h6.92v0.09h0.57v-6.65h2.11v-0.57h-2.11V42.12z M37.86,29.85h4.13v11.7h-4.13V29.85z"/>
		</g>
	</g>
</g>
<g id="Livello_3">
	<g>
		<path class="st1" d="M132.51,52.3h-9.26l-3.73,10.25h-1.61l9.97-27.38l9.95,27.38h-1.59L132.51,52.3z M131.95,50.8l-4.08-11.22
			l-4.08,11.22H131.95z"/>
		<path class="st1" d="M147.67,53.25c-0.14,0.01-0.29,0.02-0.45,0.02h-4.55v9.28h-1.5V35.8h7.02c2.04,0.28,3.77,1.13,5.2,2.56
			c1.71,1.71,2.56,3.76,2.56,6.17c0,2.42-0.85,4.48-2.56,6.19c-1.18,1.18-2.54,1.96-4.06,2.32l6.17,9.52h-1.86L147.67,53.25z
			 M142.67,37.32v14.43h4.55c1.98,0,3.68-0.7,5.09-2.12c1.41-1.41,2.12-3.11,2.12-5.11c0-2-0.71-3.7-2.12-5.1
			c-1.41-1.4-3.11-2.11-5.09-2.11H142.67z"/>
		<path class="st1" d="M172.76,35.8v1.5h-11.87v11.12h11.87v1.5h-11.87v11.12h11.87v1.5h-13.38V35.8H172.76z"/>
		<path class="st1" d="M177.36,35.8h1.66l13.75,23.8V35.8h1.5v26.76h-1.5l-13.9-24.03v24.03h-1.5V35.8z"/>
		<path class="st1" d="M212.21,52.3h-9.26l-3.73,10.25h-1.61l9.97-27.38l9.95,27.38h-1.59L212.21,52.3z M211.66,50.8l-4.08-11.22
			L203.5,50.8H211.66z"/>
	</g>
</g>
</svg>
