<?xml version="1.0" encoding="utf-8"?>
<!-- Generator: Adobe Illustrator 28.1.0, SVG Export Plug-In . SVG Version: 6.00 Build 0)  -->
<svg version="1.1" xmlns="http://www.w3.org/2000/svg" xmlns:xlink="http://www.w3.org/1999/xlink" x="0px" y="0px"
	 viewBox="0 0 90.71 90.71" style="enable-background:new 0 0 90.71 90.71;" xml:space="preserve">
<g id="Livello_3">
</g>
<g id="Livello_2">
	<g>
		<path d="M48.01,8.74c0.07,0.05,0.14,0.11,0.22,0.17C48.27,8.94,48.3,8.97,48.34,9c0.11,0.09,0.22,0.18,0.33,0.27l0.48,0.41
			l0.47,0.43c0.05,0.05,0.1,0.09,0.15,0.14l0.02,0.02l0.02,0c0.4,0,0.8,0.01,1.19,0.03l0,0l0.04,0l0.01-0.03l0.01-0.03l-0.02-0.02
			c-0.38-0.37-0.77-0.72-1.15-1.04c-1.02-0.85-1.96-1.52-2.87-2.03c-1-0.57-2.01-1-2.99-1.28l-0.01,0l-0.03,0l-0.02,0.02l-0.01,0.02
			l0,0.02c0.07,0.36,0.31,0.66,0.65,0.8c0.67,0.28,1.35,0.64,2.02,1.05C47.14,8.11,47.59,8.42,48.01,8.74z"/>
		<path d="M57.89,23.51l0.04,0.12c0.06,0.16,0.11,0.33,0.16,0.5c0.33,1.03,0.61,2.11,0.86,3.28c0.13,0.63,0.25,1.27,0.34,1.89
			l0,0.02l0.02,0.02c0.33,0.3,0.67,0.61,0.99,0.93l0.02,0.02h0.02l0.02,0l0.03-0.03l0-0.02c-0.09-0.99-0.24-2-0.43-3.02
			c-0.21-1.07-0.49-2.18-0.86-3.4c-0.07-0.21-0.13-0.42-0.22-0.67l-0.01-0.03l-0.05,0l-0.01,0.01c-0.25,0.18-0.53,0.3-0.83,0.38
			L57.89,23.51z"/>
		<path d="M54.55,14.39c-0.14-0.21-0.3-0.42-0.46-0.64l-0.02-0.02h-0.03l-0.04,0L54,13.77c-0.07,0.42-0.16,0.83-0.26,1.23
			l-0.01,0.02l0.01,0.02c0.63,0.95,1.2,1.9,1.7,2.82c0.15,0.28,0.31,0.59,0.49,0.96l0.02,0.03h0.03l0.02,0l0.01-0.01
			c0.22-0.14,0.46-0.24,0.71-0.3c0.06-0.01,0.12-0.03,0.17-0.04l0.03,0l0.02-0.05l-0.01-0.02C56.23,17.01,55.42,15.65,54.55,14.39z"
			/>
		<path d="M46.03,3.62c1.83,0,3.68,0.44,5.35,1.28c0.86,0.43,1.71,0.96,2.52,1.58c0.79,0.61,1.54,1.27,2.23,1.98
			c0.47,0.49,0.95,1.02,1.4,1.58l0.03,0.04l0.04-0.03c0.01-0.01,0.02-0.01,0.02-0.02c0.01-0.01,0.02-0.02,0.03-0.03
			c0.18-0.14,0.4-0.23,0.63-0.28l0.03-0.01l0.02-0.06l-0.02-0.02c-0.52-0.62-1.07-1.2-1.63-1.74c-0.81-0.78-1.6-1.42-2.39-1.97
			c-0.89-0.61-1.8-1.12-2.7-1.51c-0.15-0.07-0.31-0.13-0.47-0.19c-0.08-0.03-0.17-0.06-0.25-0.1c-0.08-0.03-0.16-0.05-0.24-0.08
			c-0.16-0.05-0.33-0.11-0.5-0.16c-0.44-0.12-0.96-0.26-1.51-0.33l-0.38-0.06l-0.38-0.03c-0.21-0.02-0.43-0.03-0.64-0.03l-0.19,0
			c-0.04,0-0.07,0-0.11,0h-0.02l-0.57,0.02c-0.18,0.01-0.35,0.03-0.52,0.05c-0.08,0.01-0.16,0.02-0.24,0.03l0.01,0.1
			C45.73,3.63,45.88,3.62,46.03,3.62z"/>
		<path d="M68.91,26.56l-0.01-0.28c0-0.06-0.01-0.12-0.01-0.18l-0.04-0.66c-0.23-2.87-0.96-5.78-2.17-8.65
			c-1.21-2.87-2.79-5.42-4.69-7.59c-1.06-1.19-2.17-2.2-3.3-3.02c-0.62-0.44-1.27-0.84-1.91-1.16c-0.35-0.18-0.69-0.33-1.02-0.46
			c-0.36-0.14-0.71-0.25-1.06-0.35l-0.03,0.1c1.3,0.44,2.58,1.16,3.83,2.13c0.24,0.18,0.48,0.39,0.71,0.58l0.14,0.12
			c0.09,0.08,0.18,0.16,0.26,0.24c0.05,0.04,0.1,0.09,0.14,0.13c0.13,0.12,0.27,0.24,0.4,0.38l0.39,0.39l0.38,0.4l0.19,0.2
			c0,0,0.27,0.31,0.31,0.36c0.08,0.09,0.15,0.18,0.23,0.26c0.99,1.19,1.84,2.39,2.54,3.58l0.28,0.47l0.4,0.72l0.38,0.73
			c0.27,0.54,0.62,1.26,0.92,2c0.25,0.58,0.5,1.24,0.79,2.05c0.03,0.11,0.07,0.21,0.11,0.32c0.08,0.24,0.16,0.48,0.23,0.73
			l0.16,0.53l0.14,0.53c0.37,1.34,0.63,2.76,0.8,4.32c0.15,1.62,0.15,3.05,0,4.39c-0.15,1.54-0.53,2.97-1.13,4.24l0.09,0.05
			c0.18-0.32,0.34-0.66,0.49-1.01c0.14-0.33,0.26-0.68,0.38-1.05c0.22-0.71,0.38-1.45,0.49-2.18c0.13-0.81,0.17-1.62,0.19-2.23
			l0.01-0.56c0-0.12,0-0.24-0.01-0.36C68.91,26.69,68.91,26.63,68.91,26.56z"/>
		<path d="M57.77,42.15c0.03-0.04,0.05-0.07,0.08-0.11l0.27-0.36l0.24-0.37c0.02-0.04,0.05-0.08,0.07-0.12
			c0.05-0.08,0.11-0.17,0.16-0.26c0.54-0.95,0.98-2.06,1.3-3.28c0.28-1.06,0.46-2.2,0.56-3.47c0.01-0.1,0.01-0.2,0.02-0.3
			c0.01-0.19,0.02-0.38,0.03-0.58l0.01-0.41l0-0.05l-0.07,0l-0.01,0.01c-0.25,0.25-0.52,0.51-0.8,0.77l-0.02,0.02l0,0.02
			c0,0.16-0.01,0.32-0.01,0.48c-0.01,0.18-0.02,0.36-0.03,0.54c-0.01,0.1-0.01,0.2-0.02,0.3c-0.01,0.18-0.03,0.36-0.05,0.54
			c-0.01,0.1-0.02,0.2-0.03,0.3c-0.09,0.68-0.18,1.19-0.28,1.66c-0.25,1.16-0.61,2.23-1.09,3.17c-0.29,0.6-0.66,1.17-1.09,1.7
			c-0.15,0.18-0.18,0.42-0.08,0.64l0.01,0.03h0.03l0.02,0l0.01-0.01c0.16-0.15,0.31-0.31,0.45-0.47c0.05-0.05,0.09-0.1,0.14-0.16
			C57.65,42.32,57.71,42.24,57.77,42.15z"/>
		<path d="M67.69,30.46c0.01-0.07,0.02-0.15,0.02-0.22l0.02-0.34c0-0.06,0.01-0.13,0.01-0.19c0.01-0.16,0.02-0.32,0.02-0.49
			l0.01-0.68l-0.01-0.68c-0.01-0.24-0.02-0.5-0.04-0.8l-0.01-0.05l-0.06,0l-0.01,0.01c-0.09,0.05-0.17,0.08-0.26,0.09
			c-0.04,0.01-0.08,0.01-0.11,0.01c-0.04,0-0.09,0-0.13-0.01l-0.06-0.01l0.01,0.13c0.01,0.07,0.01,0.15,0.02,0.22
			c0.01,0.14,0.03,0.29,0.03,0.44c0.06,0.78,0.06,1.62,0.01,2.64c-0.04,0.89-0.15,1.77-0.32,2.62c-0.17,0.88-0.42,1.73-0.75,2.53
			c-0.17,0.42-0.37,0.82-0.58,1.19c-0.22,0.4-0.47,0.77-0.73,1.1l0.08,0.07c0.29-0.32,0.57-0.68,0.83-1.06
			c0.24-0.36,0.46-0.75,0.67-1.18c0.37-0.76,0.67-1.62,0.91-2.55c0.21-0.84,0.36-1.74,0.44-2.67C67.68,30.54,67.68,30.5,67.69,30.46
			z"/>
		<path d="M63.07,35.62c0.12-0.58,0.2-1.17,0.25-1.66c0.02-0.18,0.03-0.37,0.05-0.54c0.01-0.1,0.02-0.19,0.02-0.29l0.01-0.16
			c0.01-0.22,0.02-0.45,0.03-0.68c0-0.1,0-0.2,0-0.29c0-0.18,0.01-0.36,0-0.55c0-0.1,0-0.2,0-0.29c0-0.18,0-0.36-0.01-0.54l0-0.09
			c-0.01-0.25-0.02-0.5-0.04-0.75l-0.01-0.1c-0.02-0.24-0.04-0.49-0.07-0.73c-0.11-1.08-0.28-2.19-0.52-3.31
			c-0.44-2.12-1.11-4.26-1.98-6.38c-0.43-1.03-0.91-2.05-1.42-3.03c-0.56-1.05-1.11-2-1.69-2.88c-0.63-0.95-1.3-1.86-1.99-2.7
			c-0.35-0.42-0.72-0.85-1.11-1.26c-0.12-0.13-0.25-0.26-0.38-0.39c-0.07-0.07-0.14-0.14-0.21-0.21c-0.2-0.19-0.4-0.39-0.61-0.58
			c-0.91-0.82-1.78-1.5-2.66-2.05c-0.98-0.62-2-1.11-3.04-1.46c-1.08-0.36-2.19-0.55-3.31-0.55c-0.25,0-0.52,0.01-0.78,0.04l-0.03,0
			l-0.03,0.04l0.01,0.02c0.04,0.15,0.17,0.25,0.32,0.25c0.03,0,0.07,0,0.1,0c0.05,0,0.1,0,0.15,0c0.08,0,0.17,0,0.26,0.01
			c1.11,0.09,2.16,0.33,3.13,0.73c0.98,0.39,1.93,0.9,2.82,1.53c0.87,0.61,1.7,1.3,2.48,2.06c1.48,1.47,2.83,3.17,4.02,5.06
			c0.59,0.94,1.13,1.88,1.61,2.82c0.49,0.95,0.95,1.94,1.37,2.95c0.41,0.98,0.79,2.01,1.12,3.05c0.32,0.98,0.61,2.03,0.86,3.13
			c0.5,2.16,0.76,4.32,0.79,6.42c0.01,1.05-0.07,2.13-0.23,3.22c-0.17,1.13-0.44,2.18-0.81,3.11l-0.15,0.37l-0.25,0.55l-0.09,0.18
			c-0.02,0.04-0.04,0.09-0.07,0.13c-0.04,0.08-0.08,0.15-0.12,0.23c-0.24,0.45-0.54,0.89-0.89,1.34c-0.66,0.83-1.51,1.54-2.48,2.07
			l0.04,0.09c0.29-0.13,0.53-0.24,0.75-0.36c0.25-0.14,0.49-0.29,0.71-0.44c0.44-0.31,0.86-0.68,1.26-1.11
			c0.7-0.75,1.3-1.68,1.82-2.82C62.5,37.88,62.83,36.83,63.07,35.62z"/>
		<path d="M65.71,33.23c0.14-0.95,0.2-1.96,0.2-3.08l0-0.11c0-0.22,0-0.44-0.01-0.67l0-0.04c-0.01-0.24-0.02-0.49-0.03-0.73
			c-0.02-0.31-0.04-0.55-0.06-0.77l0-0.03c-0.02-0.24-0.05-0.49-0.08-0.74c-0.12-0.99-0.29-2.02-0.5-3.04
			c-0.43-1.97-1.04-3.94-1.83-5.88c-0.75-1.8-1.61-3.49-2.56-5.04l-0.02-0.03l-0.06,0l-0.01,0.03c-0.1,0.18-0.24,0.33-0.39,0.45
			c-0.06,0.05-0.13,0.09-0.22,0.13l-0.04,0.03l0.03,0.04c0.9,1.52,1.69,3.12,2.36,4.76c0.76,1.83,1.37,3.75,1.82,5.71
			c0.23,0.99,0.42,1.98,0.55,2.95c0.04,0.23,0.06,0.47,0.09,0.71l0,0.04c0.02,0.19,0.04,0.39,0.06,0.58l0.01,0.16
			c0.02,0.23,0.04,0.46,0.05,0.69l0,0.06c0.02,0.21,0.03,0.43,0.03,0.64l0,0.11c0.04,0.99,0.01,1.99-0.09,2.99
			c-0.09,1.01-0.28,1.99-0.55,2.93c-0.14,0.53-0.33,1.03-0.48,1.41c-0.03,0.07-0.06,0.15-0.1,0.22c-0.02,0.04-0.04,0.08-0.05,0.12
			c-0.02,0.04-0.03,0.08-0.05,0.11c-0.03,0.07-0.07,0.15-0.11,0.22c-0.03,0.06-0.06,0.12-0.1,0.18c-0.08,0.16-0.16,0.32-0.26,0.47
			c-0.02,0.04-0.05,0.08-0.07,0.12c-0.04,0.07-0.08,0.14-0.12,0.2l-0.21,0.31c-0.12,0.19-0.26,0.38-0.45,0.6
			c-0.29,0.36-0.63,0.7-1.04,1.06l-0.03,0.02l0.01,0.03l0.01,0.03h0.03l0.02,0l0.01-0.01c0.41-0.29,0.8-0.62,1.15-0.98
			c0.19-0.2,0.36-0.39,0.51-0.58l0.24-0.3c0.05-0.07,0.1-0.14,0.15-0.21c0.03-0.04,0.05-0.07,0.08-0.11
			c0.55-0.79,0.99-1.69,1.37-2.77C65.32,35.3,65.56,34.29,65.71,33.23z"/>
		<path d="M52.72,4.09c0.14,0.05,0.28,0.12,0.42,0.18c0.06,0.03,0.12,0.06,0.18,0.08c0.06,0.03,0.11,0.06,0.17,0.08
			c0.14,0.07,0.28,0.14,0.42,0.21c0.34,0.17,0.7,0.39,1.14,0.67c0.76,0.49,1.47,1.03,2.1,1.6c0.72,0.63,1.33,1.24,1.89,1.85
			c0.1,0.1,0.19,0.21,0.28,0.32c0.05,0.06,0.1,0.12,0.15,0.18l0.22,0.25l0.21,0.26c0.05,0.07,0.11,0.13,0.16,0.2
			c0.08,0.1,0.17,0.21,0.25,0.31l0.4,0.52c0.58,0.79,1.07,1.5,1.48,2.19c0.94,1.53,1.76,3.11,2.42,4.7c0.13,0.3,0.25,0.6,0.37,0.9
			c0.04,0.11,0.09,0.22,0.13,0.33l0.23,0.62l0.11,0.31l0.1,0.31c0.31,0.91,0.56,1.83,0.74,2.54l0.13,0.51l0.01,0.05h0.04l0.01,0
			l0.01-0.01c0.09-0.05,0.18-0.08,0.27-0.1c0.03-0.01,0.07-0.01,0.11-0.01c0.06,0,0.13,0.01,0.2,0.03l0.01,0l0.03,0l0.03-0.04
			l0-0.02c-0.04-0.19-0.08-0.39-0.13-0.58c-0.21-0.9-0.46-1.78-0.74-2.6l-0.1-0.32l-0.11-0.32l-0.23-0.64
			c-0.04-0.11-0.08-0.22-0.13-0.33c-0.12-0.31-0.24-0.62-0.37-0.93c-0.33-0.78-0.7-1.58-1.16-2.45l-0.32-0.6l-0.33-0.59
			c-0.09-0.16-0.18-0.31-0.27-0.46l-0.07-0.12c-0.03-0.06-0.07-0.11-0.1-0.17c-0.08-0.13-0.16-0.27-0.25-0.4
			c-0.44-0.69-0.95-1.42-1.56-2.21c-0.52-0.68-1.12-1.37-1.77-2.05c-1.36-1.4-2.77-2.54-4.22-3.38c-0.46-0.26-0.84-0.46-1.2-0.62
			c-0.15-0.07-0.3-0.13-0.45-0.2c-0.06-0.02-0.12-0.05-0.18-0.07l-0.11-0.04c-0.17-0.07-0.35-0.13-0.53-0.19
			c-0.87-0.29-1.76-0.46-2.65-0.49l-0.01,0.1c0.42,0.05,0.86,0.13,1.3,0.24C51.87,3.78,52.29,3.92,52.72,4.09z"/>
		<path d="M69.5,22.26c-0.14-0.92-0.35-1.86-0.63-2.87c-0.26-0.91-0.58-1.85-0.96-2.78c-0.38-0.92-0.8-1.82-1.26-2.66
			c-0.51-0.93-1.02-1.74-1.56-2.49c-0.57-0.8-1.2-1.57-1.86-2.27c-0.75-0.78-1.46-1.43-2.17-1.97L61,7.3
			c0.77,0.69,1.44,1.37,2.04,2.07c0.61,0.7,1.2,1.48,1.76,2.3c0.56,0.83,1.06,1.67,1.49,2.48c0.46,0.86,0.87,1.74,1.23,2.62
			c0.36,0.87,0.68,1.79,0.96,2.73c0.26,0.88,0.49,1.83,0.67,2.82c0.18,0.99,0.3,1.95,0.35,2.88c0.06,0.92,0.06,1.9-0.02,2.9
			l0.1,0.01C69.84,26.28,69.82,24.31,69.5,22.26z"/>
		<path d="M51.77,23.57c-0.23-0.56-0.48-1.12-0.74-1.67l-0.02-0.03l-0.06,0l-0.01,0.02c-0.23,0.37-0.47,0.75-0.71,1.1l-0.02,0.03
			l0.01,0.03c0.15,0.34,0.29,0.66,0.42,0.98c0.06,0.15,0.13,0.31,0.19,0.46l0.01,0.03l0.02,0.01c0.46,0.15,0.92,0.31,1.36,0.48
			l0.01,0h0.01l0.03,0l0.03-0.05l-0.01-0.02C52.13,24.47,51.95,24.01,51.77,23.57z"/>
		<path d="M52.93,17.99l-0.02-0.02l-0.06,0L52.84,18c-0.17,0.44-0.35,0.88-0.53,1.3l-0.01,0.02l0.01,0.02
			c0.52,0.97,1,1.96,1.42,2.96c0.44,1.04,0.84,2.13,1.18,3.23c0.09,0.28,0.17,0.56,0.25,0.85l0.01,0.02l0.02,0.01
			c0.45,0.25,0.89,0.52,1.33,0.8l0.01,0.01h0.01l0.03,0l0.03-0.04l-0.01-0.02c-0.41-1.77-1-3.56-1.74-5.33
			c-0.47-1.1-0.99-2.18-1.56-3.21C53.18,18.42,53.06,18.22,52.93,17.99z"/>
		<path d="M58.8,10.85c-0.53,0.13-0.85,0.67-0.72,1.21c0.13,0.53,0.67,0.85,1.21,0.72c0.53-0.13,0.85-0.67,0.72-1.21
			C59.87,11.04,59.33,10.72,58.8,10.85z"/>
		<path d="M57.04,19.79c-0.68,0.17-1.1,0.86-0.93,1.55c0.17,0.68,0.86,1.1,1.55,0.93c0.68-0.17,1.1-0.86,0.93-1.55
			C58.42,20.03,57.72,19.62,57.04,19.79z"/>
		<path d="M66.88,24.18c-0.47,0.12-0.75,0.59-0.63,1.06c0.12,0.47,0.59,0.75,1.06,0.63s0.75-0.59,0.63-1.06
			C67.82,24.34,67.35,24.06,66.88,24.18z"/>
		<path d="M57.25,37.58c-0.24-0.94-1.19-1.51-2.13-1.28s-1.51,1.19-1.28,2.13c0.24,0.94,1.19,1.51,2.13,1.28
			C56.92,39.48,57.49,38.52,57.25,37.58z"/>
		<path d="M44.16,9.65c-0.09,0.59,0.32,1.14,0.91,1.22c0.59,0.09,1.14-0.32,1.22-0.91c0.09-0.59-0.32-1.14-0.91-1.22
			C44.79,8.65,44.24,9.06,44.16,9.65z"/>
		<path d="M51.06,37.04c3.13-1.13,5.91-2.9,8.29-5.28l0.14-0.14l-0.14-0.14c-3.5-3.5-7.92-5.7-12.79-6.37
			c3.42-3.54,5.54-8,6.14-12.91l0.02-0.2l-0.2-0.02c-0.91-0.11-1.84-0.17-2.76-0.17c-2.39,0-4.75,0.38-7.01,1.12
			c0.36-3.31-0.01-6.59-1.11-9.76l-0.07-0.19l-0.19,0.07C29.61,7.09,23.35,19.95,27.41,31.71c3.14,9.09,11.7,15.2,21.32,15.2
			c2.5,0,4.97-0.42,7.35-1.24l0.19-0.07l-0.07-0.19C55.11,42.23,53.38,39.42,51.06,37.04z M32.19,36.95c-0.63-0.82-1.2-1.7-1.7-2.62
			c3.79,2.65,8.23,4.05,12.9,4.05c1.94,0,3.88-0.25,5.75-0.74c0.83,0.78,1.59,1.63,2.28,2.53c1.01,1.32,1.85,2.77,2.52,4.3
			c-1.71,0.44-3.46,0.67-5.21,0.67c-2.13,0-4.25-0.33-6.29-0.98c-2.02-0.64-3.92-1.59-5.65-2.8C35.03,40.13,33.48,38.64,32.19,36.95
			z M47.88,36.12c-1.46,0.32-2.97,0.49-4.49,0.49c-2.7,0-5.33-0.51-7.81-1.52c-1.84-0.74-3.55-1.74-5.09-2.97
			c-0.19-0.15-0.38-0.31-0.57-0.47c0,0,0,0-0.01-0.01c0.25-0.22,0.52-0.43,0.78-0.64c0.18-0.14,0.36-0.27,0.54-0.4
			c1.34-0.98,2.81-1.79,4.36-2.42c2.24-0.91,4.6-1.42,7.02-1.51c0.26-0.01,0.53-0.02,0.81-0.02h0c0.45,0,0.9,0.01,1.34,0.04
			c2.23,0.14,4.4,0.64,6.47,1.48c2.07,0.84,3.98,2,5.67,3.45c-1.7,1.46-3.61,2.62-5.68,3.46c-0.56,0.23-1.14,0.43-1.73,0.61
			C48.96,35.86,48.42,36,47.88,36.12z M48.63,19.27c-1.14,2.12-2.62,4.01-4.41,5.62c-0.26-0.01-0.53-0.01-0.8-0.01
			c-2.51,0-4.98,0.41-7.34,1.22c-2.37,0.81-4.57,2-6.54,3.55c0.01-0.05,0.03-0.11,0.04-0.16c0.41-1.72,1.05-3.39,1.88-4.96
			c1.17-2.19,2.72-4.14,4.59-5.78c1.44-1.26,3.03-2.32,4.75-3.14c0.5-0.24,1.01-0.46,1.52-0.66c2.38-0.92,4.88-1.38,7.43-1.38h0
			c0.3,0,0.61,0.01,0.92,0.02C50.27,15.58,49.58,17.49,48.63,19.27z M34.83,8.89c1.66-1.49,3.54-2.7,5.59-3.59
			c0.56,2.16,0.77,4.39,0.62,6.62c-0.04,0.58-0.1,1.15-0.19,1.72c-3.07,1.33-5.85,3.35-8.06,5.87c-2.08,2.38-3.66,5.21-4.58,8.23
			c-0.26-1.58-0.34-3.18-0.23-4.79c0.18-2.68,0.87-5.27,2.06-7.7C31.22,12.83,32.84,10.69,34.83,8.89z"/>
	</g>
	<path d="M47.72,63.75L47.72,63.75c-0.4-0.9-0.85-1.78-1.33-2.65c-0.31-0.56-0.65-1.11-0.99-1.65c-0.17-0.28-0.33-0.56-0.51-0.84
		c-0.47-0.73-0.97-1.45-1.49-2.16c-0.05-0.07-0.1-0.14-0.15-0.21c-0.57-0.77-1.16-1.54-1.77-2.29c0,0-0.01,0-0.01,0
		c-0.34,0-2.37-2.8-5.96-6.43l-1.15-1.07c-0.34-0.31-0.67-0.62-1-0.93c-0.32-0.31-0.64-0.62-0.95-0.94
		c-0.26-0.23-0.54-0.47-0.81-0.71c0.27,0.24,0.55,0.47,0.81,0.7c-0.07-0.07-0.14-0.14-0.21-0.21c-0.34-0.35-0.68-0.71-1.01-1.07
		c-0.33-0.36-0.66-0.72-0.98-1.09c-0.47-0.53-0.92-1.08-1.36-1.62c-0.16-0.2-0.33-0.4-0.49-0.6c-0.16-0.21-0.32-0.42-0.48-0.63
		c-0.99-1.31-1.9-2.66-2.67-4.08c-0.99-1.84-1.7-3.8-2.13-5.83c-0.11-0.55-0.21-1.1-0.28-1.65c-0.13-1.08-0.2-2.17-0.16-3.28
		c0.02-0.46,0.05-0.91,0.1-1.37c0.11-1.12,0.31-2.25,0.59-3.37c0.08-0.34,0.16-0.68,0.26-1.01c0.18-0.62,0.4-1.25,0.62-1.87
		c0.22-0.61,0.47-1.21,0.73-1.81c0.2-0.46,0.41-0.91,0.64-1.36c0.11-0.21,0.21-0.43,0.32-0.64c1.96-3.72,4.58-7.31,7.83-10.51
		c-1.91,1.37-3.62,2.94-5.23,4.58c-1.6,1.65-3.08,3.4-4.35,5.27c-1.29,1.85-2.39,3.81-3.25,5.84c-0.87,2.03-1.5,4.15-1.82,6.28
		c-0.08,0.55-0.15,1.1-0.19,1.65c-0.1,1.17-0.1,2.35-0.02,3.51c0.03,0.42,0.06,0.84,0.11,1.26c0.1,0.8,0.26,1.6,0.45,2.39
		c0,0,0,0,0,0c0.3,1.28,0.7,2.55,1.2,3.77c0.01,0.02,0.02,0.05,0.03,0.07c0.8,1.95,1.84,3.8,3.1,5.52c1.27,1.74,2.78,3.32,4.41,4.77
		c0.81,0.72,1.67,1.43,2.51,2.09l1.23,0.96l1.2,0.97c1.19,0.98,2.32,2,3.42,3.05c0.37,0.35,0.75,0.69,1.1,1.04
		c0.36,0.36,0.71,0.72,1.06,1.08c2.43,2.55,4.58,5.28,6.31,8.23v0c0.1,0.17,0.18,0.35,0.28,0.53h0.02
		c1.82,3.22,3.09,6.72,3.42,10.41c0.06,0.68,0.1,1.36,0.1,2.05c0,1.28-0.12,2.57-0.37,3.87c-0.2,0.99-0.46,1.98-0.83,2.96
		c-0.36,0.98-0.79,1.95-1.39,2.87c1.41-1.74,2.35-3.73,3-5.74c0.65-2.03,1-4.1,1.06-6.17c0-0.17,0.01-0.35,0.01-0.52
		C50.31,71.22,49.32,67.35,47.72,63.75z"/>
</g>
</svg>
