<?xml version="1.0" encoding="utf-8"?>
<!-- Generator: Adobe Illustrator 28.1.0, SVG Export Plug-In . SVG Version: 6.00 Build 0)  -->
<svg version="1.1" id="Livello_6" xmlns="http://www.w3.org/2000/svg" xmlns:xlink="http://www.w3.org/1999/xlink" x="0px" y="0px"
	 viewBox="0 0 100 100" style="enable-background:new 0 0 100 100;" xml:space="preserve">
<style type="text/css">
	.st0{fill:#FFFFFF;}
</style>
<g>
	<path class="st0" d="M79.7,79.93c-5.67,4.68-12.38,7.92-19.39,9.28c-1.75,0.37-3.52,0.58-5.29,0.71c-0.89,0.07-1.77,0.09-2.66,0.12
		c-0.89-0.01-1.77,0-2.66-0.07c-0.44-0.03-0.88-0.04-1.32-0.08l-1.32-0.14l-0.66-0.07l-0.65-0.1l-1.31-0.19
		c-1.73-0.34-3.45-0.7-5.12-1.26c-6.71-2.06-12.85-5.85-17.69-10.9l-0.91-0.95l-0.86-0.99c-0.14-0.17-0.29-0.33-0.43-0.5l-0.41-0.51
		c-0.27-0.34-0.55-0.68-0.81-1.03c-0.5-0.72-1.04-1.41-1.5-2.15c-0.23-0.37-0.48-0.73-0.71-1.1l-0.66-1.13
		c-1.76-3.02-3.07-6.3-4.03-9.68c-0.21-0.85-0.46-1.7-0.61-2.56c-0.08-0.43-0.18-0.86-0.26-1.29l-0.19-1.31l-0.1-0.65l-0.06-0.66
		l-0.14-1.32l-0.08-1.32c-0.02-0.44-0.06-0.88-0.05-1.33c-0.06-1.77,0.06-3.54,0.23-5.31c0.17-1.77,0.48-3.53,0.89-5.26
		c1.62-6.95,5.03-13.57,9.93-19.07c1.2-1.39,2.54-2.68,3.92-3.92c1.39-1.24,2.86-2.39,4.41-3.45c3.09-2.13,6.48-3.9,10.08-5.31
		c-7.66,1.12-15.09,4.64-21.14,9.91C12.07,21.58,7.44,28.65,4.95,36.5c-2.51,7.85-2.81,16.41-0.92,24.53
		C4.52,63.05,5.1,65.06,5.88,67c0.35,0.98,0.8,1.93,1.21,2.89c0.21,0.48,0.46,0.94,0.69,1.41c0.23,0.47,0.46,0.94,0.72,1.39
		l0.77,1.37c0.26,0.45,0.56,0.89,0.83,1.33c0.54,0.89,1.17,1.73,1.77,2.59c0.31,0.42,0.64,0.83,0.96,1.24l0.48,0.62
		c0.16,0.2,0.34,0.4,0.51,0.6l1.02,1.19l1.07,1.14l0.54,0.57l0.57,0.54l1.14,1.08l1.19,1.02l0.6,0.51l0.62,0.48
		c0.41,0.32,0.82,0.65,1.24,0.96l1.28,0.9c0.42,0.31,0.86,0.59,1.31,0.87c0.44,0.28,0.88,0.57,1.33,0.83
		c0.92,0.5,1.81,1.04,2.76,1.49c0.47,0.23,0.93,0.47,1.41,0.69l1.43,0.63c0.47,0.22,0.96,0.4,1.45,0.58
		c0.49,0.18,0.97,0.38,1.47,0.55c0.99,0.32,1.98,0.67,2.99,0.91c2.01,0.57,4.06,0.93,6.12,1.23l1.55,0.17l0.77,0.08l0.78,0.04
		L48,96.97c0.52,0.01,1.04,0,1.55,0.01c4.14,0.01,8.27-0.59,12.23-1.69c7.94-2.2,15.13-6.65,20.6-12.52
		c1.36-1.48,2.63-3.03,3.77-4.66c1.15-1.63,2.17-3.34,3.06-5.09c1.82-3.5,3.06-7.26,3.77-11.06c-1.54,3.55-3.41,6.88-5.66,9.89
		C85.11,74.87,82.53,77.58,79.7,79.93z"/>
	<path class="st0" d="M97.03,41.15c-0.05-0.52-0.09-1.04-0.16-1.56c-0.07-0.52-0.16-1.04-0.24-1.55c-0.08-0.52-0.18-1.03-0.3-1.55
		c-0.11-0.51-0.21-1.03-0.34-1.54c-0.28-1.01-0.54-2.04-0.9-3.03c-0.64-2.02-1.49-3.96-2.44-5.86c-0.49-0.94-0.99-1.88-1.56-2.78
		c-0.53-0.92-1.15-1.79-1.75-2.67c-1.26-1.71-2.59-3.38-4.09-4.9l-0.55-0.58l-0.58-0.55l-1.16-1.09c-0.82-0.68-1.61-1.4-2.47-2.03
		c-1.68-1.31-3.48-2.46-5.33-3.5c-3.72-2.04-7.73-3.55-11.85-4.37c-4.11-0.86-8.33-1.01-12.41-0.56c-2.04,0.23-4.05,0.63-6,1.19
		c-1.95,0.56-3.84,1.28-5.62,2.21c2-0.07,3.96-0.09,5.89-0.01c1.93,0.08,3.83,0.24,5.7,0.52c3.73,0.55,7.35,1.39,10.76,2.68
		c6.85,2.49,12.94,6.52,17.9,11.62c4.97,5.11,8.74,11.35,11.03,18.27c0.59,1.73,1.03,3.51,1.45,5.31c0.36,1.81,0.68,3.66,0.88,5.54
		c0.21,1.88,0.3,3.78,0.32,5.71c0.01,1.93-0.08,3.89-0.22,5.89c0.98-1.75,1.77-3.61,2.39-5.54c0.63-1.93,1.09-3.93,1.39-5.96
		c0.16-1.02,0.23-2.04,0.32-3.07c0.06-0.52,0.06-1.03,0.07-1.55c0.01-0.52,0.03-1.04,0.02-1.56C97.16,43.23,97.15,42.18,97.03,41.15
		z"/>
	<path class="st0" d="M56.04,36.63c-0.02-0.01-0.04,0-0.06-0.01c-0.05-0.02-0.09-0.03-0.14-0.05c-0.48-0.17-0.96-0.37-1.47-0.48
		c-1-0.29-2.08-0.38-3.16-0.39c-1.09,0.02-2.18,0.22-3.25,0.54c-1.06,0.34-2.08,0.84-3.03,1.46c-0.94,0.64-1.78,1.43-2.52,2.3
		l-0.51,0.69c-0.18,0.22-0.31,0.49-0.47,0.73c-0.25,0.38-0.42,0.75-0.59,1.13c-0.03,0.04-0.06,0.07-0.09,0.11
		c-0.15,0.25-0.24,0.55-0.3,0.86c-0.3,0.89-0.53,1.81-0.62,2.74c-0.09,1.14-0.05,2.28,0.17,3.39c0.07,0.32,0.17,0.63,0.26,0.94
		c0,0.04,0,0.08,0,0.11c0.04,0.28,0.13,0.53,0.25,0.77c0.03,0.06,0.07,0.11,0.1,0.17c0.15,0.39,0.3,0.79,0.5,1.16
		c0.53,0.96,1.15,1.87,1.89,2.64c0.7,0.7,1.44,1.34,2.27,1.83c0.51,0.4,1.07,0.75,1.65,0.99c0.05,0.02,0.1,0.03,0.16,0.05
		c5.95,2.42,12.75-0.38,15.24-6.32C64.83,46.02,62.02,39.14,56.04,36.63z M41.04,51.2c-0.22-0.38-0.36-0.79-0.23-1.15L40.82,50h0
		c0,0,0.02-0.06,0.04-0.09l0.08-0.12c0.03-0.04,0.07-0.07,0.1-0.11c0.04-0.04,0.07-0.07,0.11-0.1c0.09-0.06,0.17-0.13,0.27-0.17
		c0.1-0.04,0.2-0.09,0.3-0.14c0.07-0.03,0.15-0.05,0.23-0.07c-0.01,0.12-0.01,0.25-0.01,0.37c0.03,0.48,0.02,0.98,0.1,1.46
		c0.05,0.53,0.16,1.06,0.3,1.59c-0.14-0.13-0.3-0.25-0.44-0.38C41.57,51.92,41.27,51.57,41.04,51.2z M41.35,42.96
		c0.17-0.32,0.42-0.61,0.7-0.84c0.57-0.46,1.25-0.71,1.86-0.88c0.31-0.08,0.6-0.14,0.88-0.18c-0.43,0.58-0.83,1.19-1.19,1.87
		c-0.62,1.18-1.1,2.52-1.39,3.95c-0.08-0.1-0.16-0.21-0.23-0.32c-0.53-0.78-0.9-1.65-0.91-2.46C41.09,43.69,41.16,43.32,41.35,42.96
		z M46.06,39.56c-0.32-0.44-0.45-0.84-0.46-1.13c-0.01-0.14,0.01-0.25,0.03-0.32c0,0,0,0,0-0.01c0.72-0.43,1.48-0.78,2.26-1.05
		c0.46-0.02,1,0.02,1.56,0.09c-0.96,0.44-1.94,1.06-2.86,1.9C46.41,39.21,46.24,39.39,46.06,39.56
		C46.07,39.57,46.06,39.56,46.06,39.56z M47.15,41.27c0.57,0.54,1.27,1.09,2.08,1.61c0.33,0.21,0.68,0.42,1.04,0.62
		c-0.37,0.78-0.72,1.57-1.05,2.38c-0.73,1.76-1.38,3.56-1.88,5.29c-0.29-0.17-0.59-0.33-0.88-0.5c-0.89-0.56-1.74-1.19-2.5-1.87
		c-0.39-0.35-0.77-0.73-1.11-1.11c0.24-1.6,0.73-3.09,1.39-4.46c0.41-0.82,0.9-1.58,1.43-2.27c0.39-0.04,0.72-0.05,0.94-0.05
		c0.07,0,0.1,0,0.15,0C46.89,41.02,47.02,41.14,47.15,41.27z M60.28,48.79c0.01,0,0.02,0.01,0.03,0.02
		c0.45,0.21,0.66,0.73,0.46,1.19c-0.17,0.4-0.59,0.6-1,0.53c-0.07-0.01-0.14-0.01-0.21-0.04c-0.05-0.02-0.09-0.06-0.13-0.09
		c-0.37-0.24-0.53-0.7-0.36-1.12c0.16-0.38,0.53-0.58,0.92-0.55C60.09,48.74,60.19,48.75,60.28,48.79z M51.43,54.1
		c-0.35-0.15-0.55-0.48-0.56-0.83c0-0.13,0.02-0.25,0.07-0.38c0.01-0.02,0.03-0.04,0.04-0.06c0.22-0.42,0.72-0.61,1.16-0.43
		c0.39,0.16,0.59,0.56,0.54,0.95c-0.01,0.08-0.02,0.17-0.05,0.25c-0.02,0.05-0.06,0.09-0.09,0.14C52.3,54.11,51.85,54.27,51.43,54.1
		z M59,46.84c-0.2,0.47-0.74,0.69-1.2,0.49c-0.47-0.19-0.69-0.73-0.49-1.2c0,0,0-0.01,0-0.01c0.2-0.47,0.74-0.69,1.21-0.49
		c0.3,0.13,0.49,0.4,0.54,0.7C59.07,46.51,59.07,46.68,59,46.84z M55.03,53.91c-0.05-0.02-0.08-0.05-0.12-0.08
		c-0.38-0.23-0.55-0.7-0.37-1.13c0.2-0.47,0.74-0.69,1.21-0.49c0.47,0.2,0.69,0.74,0.49,1.21c-0.1,0.24-0.3,0.41-0.52,0.5
		C55.5,54,55.26,54.01,55.03,53.91z M55.4,47.03c-0.2,0.47-0.74,0.69-1.21,0.49c-0.47-0.2-0.69-0.74-0.49-1.21
		c0.2-0.47,0.74-0.69,1.2-0.49C55.38,46.02,55.59,46.56,55.4,47.03z M52.33,49.57c0.2-0.47,0.74-0.69,1.21-0.49
		c0.47,0.2,0.69,0.74,0.49,1.21c-0.2,0.47-0.74,0.69-1.21,0.49C52.36,50.58,52.14,50.04,52.33,49.57z M56.43,50.59
		c-0.47-0.2-0.69-0.74-0.49-1.21c0.2-0.47,0.74-0.69,1.2-0.49c0.47,0.2,0.69,0.74,0.49,1.2C57.43,50.57,56.9,50.79,56.43,50.59z
		 M57.68,52.61c0.16-0.39,0.57-0.59,0.98-0.54c0.08,0.01,0.15,0.01,0.23,0.05c0.05,0.02,0.09,0.06,0.13,0.09
		c0.37,0.24,0.53,0.7,0.36,1.11c-0.2,0.47-0.74,0.69-1.21,0.49c-0.04-0.01-0.06-0.04-0.09-0.06c-0.13-0.07-0.23-0.17-0.3-0.28
		C57.61,53.22,57.55,52.9,57.68,52.61z M46.42,56.95c0.01,0.15,0.02,0.29,0.04,0.42c-0.6-0.35-1.12-0.78-1.59-1.3
		c-0.15-0.18-0.32-0.34-0.45-0.55l-0.4-0.58l-0.09-0.17c0.75,0.46,1.52,0.88,2.31,1.24c0.05,0.02,0.11,0.04,0.16,0.07
		c0,0.08-0.02,0.16-0.02,0.24C46.39,56.53,46.4,56.74,46.42,56.95z M62.14,46.74c-0.2,0.47-0.74,0.69-1.2,0.49
		c-0.07-0.03-0.13-0.08-0.19-0.13c-0.04-0.03-0.09-0.05-0.12-0.09c-0.08-0.09-0.15-0.19-0.19-0.3c-0.03-0.07-0.03-0.14-0.04-0.22
		c-0.01-0.07-0.01-0.13,0-0.2c0.01-0.07,0.02-0.15,0.04-0.22c0.01-0.02,0-0.04,0.01-0.05c0.06-0.14,0.16-0.25,0.27-0.34
		c0.04-0.03,0.09-0.06,0.13-0.09c0.14-0.08,0.29-0.13,0.46-0.13c0.11,0,0.23,0.02,0.34,0.07c0.14,0.06,0.25,0.15,0.34,0.26
		C62.2,46.05,62.28,46.41,62.14,46.74z M54.2,36.8c0.2,0.04,0.4,0.1,0.59,0.17c-0.4,0.26-0.75,0.58-1.07,0.94
		c-0.73-0.24-1.44-0.46-2.12-0.61c-0.33-0.08-0.65-0.13-0.97-0.19c0.89-0.33,1.72-0.5,2.44-0.54C53.46,36.63,53.83,36.7,54.2,36.8z
		 M51.54,37.55c0.63,0.16,1.29,0.38,1.96,0.62c-0.08,0.09-0.15,0.18-0.23,0.27c-0.54,0.67-1.03,1.43-1.52,2.22
		c-0.43,0.72-0.83,1.49-1.21,2.28c-0.35-0.18-0.69-0.36-1-0.55c-0.8-0.48-1.52-0.95-2.11-1.44c-0.38-0.31-0.71-0.62-0.98-0.92
		c0.18-0.19,0.36-0.39,0.54-0.56c1.05-1,2.17-1.75,3.25-2.21C50.66,37.34,51.09,37.43,51.54,37.55z M46.66,40.77
		c-0.02,0-0.02,0-0.04,0c-0.18-0.02-0.45-0.04-0.76-0.05c0.12-0.15,0.24-0.31,0.36-0.45C46.36,40.43,46.5,40.6,46.66,40.77z
		 M43.51,49.31c0.82,0.69,1.72,1.31,2.65,1.85c0.34,0.2,0.68,0.38,1.03,0.56c-0.21,0.75-0.39,1.5-0.53,2.21
		c-0.09,0.5-0.16,0.98-0.21,1.45c-0.82-0.42-1.61-0.89-2.36-1.4c-0.25-0.17-0.5-0.36-0.75-0.54c-0.3-0.81-0.51-1.65-0.59-2.49
		c-0.07-0.46-0.06-0.92-0.08-1.38c0-0.18,0.02-0.37,0.03-0.55c0.12-0.02,0.24-0.04,0.36-0.06l0-0.07c-0.12,0-0.23,0-0.35,0
		c0-0.1,0.02-0.2,0.03-0.31C42.99,48.83,43.23,49.09,43.51,49.31z M51.24,36.46c0.09,0,0.19,0,0.28,0.01
		c-0.46,0.09-0.93,0.22-1.43,0.4c-0.09,0.04-0.19,0.08-0.29,0.12c-0.53-0.06-1.03-0.09-1.48-0.09
		C49.29,36.64,50.27,36.47,51.24,36.46z M42.42,41.05l0.5-0.64c0.71-0.82,1.52-1.55,2.41-2.13c0.06-0.04,0.13-0.07,0.19-0.11
		c-0.02,0.07-0.04,0.15-0.05,0.27c-0.03,0.31,0.09,0.77,0.38,1.27c0.01,0.02,0.02,0.03,0.03,0.05c-0.29,0.3-0.56,0.62-0.83,0.96
		c-0.37,0.01-0.77,0.04-1.22,0.12c-0.33,0.06-0.68,0.14-1.04,0.27c-0.19,0.07-0.39,0.15-0.58,0.25
		C42.27,41.25,42.34,41.15,42.42,41.05z M40.38,46.33c0.04-0.35,0.1-0.7,0.18-1.04c0.18,0.6,0.46,1.17,0.8,1.7
		c0.21,0.31,0.46,0.59,0.7,0.87c-0.01,0.09-0.03,0.18-0.05,0.28c-0.04,0.24-0.05,0.48-0.05,0.72c0,0.03,0,0.05,0,0.08
		c-0.11,0.02-0.22,0.02-0.32,0.05c-0.12,0.04-0.24,0.07-0.36,0.11c-0.12,0.04-0.23,0.11-0.34,0.17c-0.06,0.03-0.11,0.07-0.16,0.12
		c-0.05,0.04-0.11,0.08-0.15,0.13l-0.1,0.12c0-0.02-0.01-0.04-0.02-0.07C40.31,48.5,40.28,47.41,40.38,46.33z M43.31,55.15
		c-0.56-0.59-1.02-1.27-1.44-1.98c0.2,0.19,0.39,0.4,0.61,0.57c0.11,0.08,0.21,0.16,0.32,0.25c0.09,0.21,0.17,0.43,0.29,0.63
		l0.37,0.67l0.04,0.06C43.44,55.28,43.37,55.22,43.31,55.15z"/>
	<path class="st0" d="M47.68,68.06l-2.64,0.5c-0.25,0.05-0.46,0.19-0.61,0.4s-0.2,0.46-0.15,0.71c0.08,0.45,0.48,0.77,0.93,0.77
		c0.06,0,0.12,0,0.18-0.02l2.65-0.5c0.51-0.1,0.85-0.6,0.75-1.11C48.69,68.3,48.2,67.97,47.68,68.06z"/>
	<path class="st0" d="M35.07,32.73c0.24-0.86,0.48-1.72,0.74-2.57c0.15-0.5-0.14-1.03-0.64-1.18c-0.5-0.14-1.03,0.14-1.18,0.64
		c-0.26,0.86-0.5,1.73-0.75,2.61c-0.14,0.5,0.16,1.03,0.66,1.17c0.08,0.02,0.17,0.04,0.25,0.04C34.58,33.43,34.95,33.14,35.07,32.73
		z"/>
	<path class="st0" d="M36.24,25.66c0.1,0.04,0.21,0.05,0.31,0.05c0.4,0,0.76-0.25,0.89-0.63c0.29-0.83,0.6-1.66,0.89-2.42l0.03-0.08
		c0.08-0.24,0.05-0.77-0.6-1.04c-0.65-0.26-1.05,0.12-1.19,0.39c-0.32,0.83-0.63,1.67-0.93,2.52
		C35.48,24.95,35.74,25.49,36.24,25.66z"/>
	<path class="st0" d="M62.73,30.53c0.18,0.17,0.41,0.27,0.66,0.27c0.26,0,0.5-0.1,0.68-0.29c0.18-0.18,0.27-0.42,0.27-0.67
		s-0.11-0.49-0.29-0.67c-0.65-0.63-1.31-1.26-1.96-1.87c-0.38-0.36-0.98-0.34-1.34,0.04c-0.36,0.38-0.34,0.98,0.04,1.34
		C61.44,29.29,62.08,29.9,62.73,30.53z"/>
	<path class="st0" d="M39.74,69.57c-0.9,0.17-1.78,0.34-2.65,0.52c0,0-1.02,0.16-0.84,1.12c0.18,0.95,1.22,0.74,1.22,0.74
		c0.86-0.17,1.74-0.34,2.64-0.51c0.25-0.05,0.46-0.19,0.61-0.4c0.14-0.21,0.19-0.46,0.15-0.71c-0.05-0.25-0.19-0.47-0.4-0.61
		C40.24,69.57,39.99,69.52,39.74,69.57z"/>
	<path class="st0" d="M27.68,65.06l0.07,0c0.25-0.02,0.48-0.13,0.65-0.33c0.17-0.19,0.25-0.44,0.23-0.69
		c-0.01-0.16-0.02-0.32-0.02-0.48c0-0.58,0.07-1.15,0.23-1.75l0.04-0.17c0.1-0.51-0.23-1.01-0.74-1.12
		c-0.51-0.1-1.01,0.24-1.11,0.74l-0.03,0.13c-0.18,0.72-0.28,1.45-0.28,2.18c0,0.21,0.01,0.42,0.02,0.62
		C26.77,64.67,27.19,65.06,27.68,65.06z"/>
	<path class="st0" d="M28.8,57.09c0.06,0.01,0.12,0.02,0.18,0.02c0.45,0,0.84-0.32,0.93-0.77l0.51-2.64
		c0.1-0.51-0.24-1.01-0.75-1.11c-0.52-0.1-1.01,0.24-1.11,0.75l-0.51,2.64c-0.05,0.25,0,0.5,0.15,0.71
		C28.33,56.9,28.55,57.04,28.8,57.09z"/>
	<path class="st0" d="M30.33,49.16c0.06,0.01,0.13,0.02,0.19,0.02c0.45,0,0.84-0.32,0.93-0.76c0.18-0.87,0.35-1.75,0.54-2.63
		c0.05-0.25,0-0.5-0.14-0.71c-0.14-0.21-0.35-0.36-0.6-0.41c-0.25-0.05-0.5-0.01-0.71,0.13c-0.21,0.14-0.36,0.35-0.41,0.6
		c-0.18,0.89-0.36,1.77-0.54,2.64C29.49,48.55,29.82,49.05,30.33,49.16z"/>
	<path class="st0" d="M33.73,37.92c0.06-0.25,0.02-0.5-0.11-0.72s-0.34-0.37-0.59-0.43c-0.51-0.12-1.02,0.19-1.14,0.7
		c-0.21,0.88-0.42,1.76-0.62,2.63c-0.12,0.51,0.21,1.02,0.71,1.13c0.07,0.02,0.14,0.03,0.21,0.03c0.44,0,0.83-0.31,0.92-0.74
		C33.32,39.66,33.52,38.79,33.73,37.92z"/>
	<path class="st0" d="M78.81,59.23c-0.26-0.01-0.49,0.08-0.68,0.25c-0.58,0.53-1.24,0.95-1.98,1.25c-0.48,0.2-0.72,0.75-0.52,1.24
		c0.15,0.36,0.49,0.59,0.88,0.59c0.12,0,0.24-0.02,0.36-0.07c0.95-0.39,1.8-0.93,2.55-1.62c0.38-0.35,0.41-0.96,0.05-1.34
		C79.3,59.35,79.06,59.24,78.81,59.23z"/>
	<path class="st0" d="M73.43,38.93c-0.17-0.19-0.4-0.3-0.65-0.32c-0.25-0.01-0.5,0.07-0.68,0.24s-0.3,0.4-0.32,0.65
		s0.07,0.5,0.24,0.68c0.6,0.68,1.19,1.35,1.77,2.02c0.18,0.21,0.44,0.33,0.72,0.33c0.23,0,0.45-0.08,0.62-0.23
		c0.19-0.17,0.31-0.39,0.33-0.65c0.02-0.25-0.06-0.5-0.23-0.69C74.63,40.3,74.04,39.62,73.43,38.93z"/>
	<path class="st0" d="M49.23,17.01c-0.24-0.09-0.49-0.08-0.72,0.02c-0.23,0.1-0.41,0.29-0.5,0.53c-0.09,0.24-0.08,0.49,0.02,0.72
		c0.1,0.23,0.29,0.41,0.53,0.5c0.65,0.24,1.24,0.56,1.75,0.94l0.34,0.26c0.17,0.12,0.36,0.19,0.57,0.19c0.3,0,0.58-0.14,0.76-0.38
		c0.15-0.2,0.22-0.45,0.18-0.7c-0.04-0.25-0.17-0.47-0.37-0.63l-0.35-0.26C50.79,17.71,50.04,17.31,49.23,17.01z"/>
	<path class="st0" d="M71.86,62.54c-0.23-0.12-0.48-0.14-0.72-0.06c-0.84,0.27-1.7,0.53-2.56,0.78c-0.5,0.15-0.79,0.67-0.64,1.18
		c0.12,0.4,0.49,0.68,0.91,0.68c0.09,0,0.18-0.01,0.27-0.04c0.87-0.26,1.74-0.52,2.6-0.79c0.24-0.08,0.44-0.24,0.55-0.47
		s0.14-0.48,0.06-0.72C72.25,62.86,72.09,62.66,71.86,62.54z"/>
	<path class="st0" d="M78.8,48.45c0.18,0.24,0.46,0.38,0.76,0.38c0.2,0,0.4-0.06,0.56-0.19c0.42-0.31,0.51-0.91,0.2-1.33
		c-0.52-0.7-1.07-1.42-1.65-2.16c-0.32-0.41-0.92-0.48-1.33-0.16c-0.41,0.32-0.48,0.92-0.16,1.33
		C77.75,47.05,78.29,47.76,78.8,48.45z"/>
	<path class="st0" d="M56.83,25.07c0.17,0.15,0.4,0.24,0.63,0.24c0.27,0,0.53-0.12,0.71-0.32c0.17-0.19,0.25-0.43,0.23-0.69
		c-0.02-0.25-0.13-0.48-0.32-0.65c-0.69-0.61-1.38-1.2-2.05-1.77c-0.19-0.17-0.43-0.25-0.69-0.22c-0.25,0.02-0.48,0.14-0.65,0.33
		c-0.16,0.19-0.24,0.44-0.22,0.69c0.02,0.25,0.14,0.48,0.33,0.64C55.48,23.88,56.15,24.47,56.83,25.07z"/>
	<path class="st0" d="M56.29,66.6c-0.21-0.14-0.46-0.18-0.71-0.13c-0.88,0.19-1.76,0.37-2.63,0.55c-0.25,0.05-0.46,0.19-0.6,0.41
		c-0.14,0.21-0.19,0.46-0.14,0.71c0.09,0.44,0.48,0.76,0.93,0.76c0.06,0,0.12-0.01,0.19-0.02c0.88-0.18,1.76-0.36,2.65-0.55
		c0.51-0.11,0.84-0.61,0.73-1.12C56.65,66.95,56.51,66.74,56.29,66.6z"/>
	<path class="st0" d="M69.07,36.55c0.24,0,0.48-0.09,0.65-0.26c0.38-0.36,0.39-0.96,0.04-1.34c-0.62-0.65-1.24-1.3-1.88-1.95
		c-0.36-0.37-0.96-0.38-1.34-0.02c-0.18,0.18-0.28,0.41-0.29,0.67c0,0.25,0.09,0.49,0.27,0.67c0.62,0.64,1.25,1.29,1.86,1.93
		C68.56,36.44,68.81,36.55,69.07,36.55z"/>
	<path class="st0" d="M63.42,64.67c-0.87,0.22-1.73,0.43-2.6,0.64c-0.51,0.12-0.82,0.63-0.7,1.14c0.1,0.43,0.48,0.73,0.92,0.73
		c0.07,0,0.15-0.01,0.22-0.03c0.88-0.21,1.76-0.42,2.63-0.64c0.51-0.13,0.81-0.64,0.69-1.15C64.44,64.85,63.93,64.54,63.42,64.67z"
		/>
	<path class="st0" d="M33.52,79.91c0.51,0.54,1.03,1.09,1.55,1.64c0.02,0,0.04,0,0.06,0c0.81-0.74,1.61-1.49,2.37-2.19
		c-0.59-0.64-1.11-1.2-1.6-1.73C35.11,78.39,34.32,79.14,33.52,79.91z"/>
	<path class="st0" d="M21.48,62.71c-0.12,0.12-1.69,1.63-2.35,2.27c0,0.02,0,0.04,0,0.06c0.51,0.56,1.01,1.11,1.51,1.66
		c0.87-0.84,1.66-1.6,2.4-2.32C22.53,63.84,22.01,63.29,21.48,62.71z"/>
	<path class="st0" d="M31.58,70.15c-0.39-0.41-0.78-0.82-1.18-1.22c-0.54-0.55-1.32-0.58-1.87-0.05c-1.17,1.12-2.33,2.25-3.49,3.37
		c-0.26,0.25-0.37,0.57-0.38,0.84c-0.01,0.44,0.11,0.74,0.35,1c0.4,0.41,0.79,0.83,1.2,1.24c0.57,0.57,1.33,0.57,1.91,0.01
		c1.15-1.1,2.29-2.21,3.43-3.31C32.1,71.48,32.11,70.7,31.58,70.15z"/>
	<path class="st0" d="M31.38,69.33c0.92,0.88,2.13,0.95,3.16,0.23c-1.15-1.19-2.31-2.39-3.47-3.59C30.32,67,30.32,68.32,31.38,69.33
		z"/>
	<path class="st0" d="M33.71,75.41c-0.77,0.74-1.56,1.5-2.32,2.23c0.52,0.55,1.05,1.1,1.56,1.63c0.78-0.75,1.56-1.51,2.31-2.23
		C34.75,76.49,34.22,75.94,33.71,75.41z"/>
	<path class="st0" d="M31.6,73.18c-0.79,0.76-1.58,1.52-2.35,2.26c0.51,0.52,1.03,1.06,1.54,1.59c0.77-0.75,1.56-1.51,2.32-2.24
		C32.6,74.24,32.08,73.69,31.6,73.18z"/>
	<path class="st0" d="M27.38,68.82c-0.51-0.55-1.02-1.09-1.52-1.62c-0.8,0.77-1.59,1.53-2.37,2.29c0.51,0.53,1.04,1.07,1.55,1.6
		C25.81,70.34,26.6,69.57,27.38,68.82z"/>
	<path class="st0" d="M23.68,65.01c-0.78,0.74-1.57,1.5-2.36,2.25c0.51,0.53,1.02,1.07,1.51,1.58c0.81-0.77,1.6-1.53,2.37-2.26
		C24.7,66.05,24.17,65.51,23.68,65.01z"/>
	<path class="st0" d="M86.4,44.1c-0.26,0.83-0.48,1.56-0.7,2.25c1.05,0.31,2.1,0.61,3.16,0.92c0.21-0.72,0.43-1.44,0.65-2.16
		c-0.01-0.02-0.02-0.03-0.03-0.05C88.43,44.73,87.39,44.41,86.4,44.1z"/>
	<path class="st0" d="M79.99,66.29c0.17,0.04,2.26,0.65,3.14,0.91c0.02-0.01,0.03-0.02,0.05-0.03c0.23-0.72,0.46-1.43,0.68-2.14
		c-1.16-0.33-2.21-0.64-3.2-0.92C80.45,64.82,80.22,65.54,79.99,66.29z"/>
	<path class="st0" d="M87.6,54.23c-1.53-0.44-3.06-0.88-4.58-1.31c-0.74-0.21-1.42,0.17-1.63,0.91c-0.16,0.54-0.32,1.08-0.47,1.63
		c-0.21,0.74,0.16,1.43,0.89,1.64c1.55,0.45,3.11,0.89,4.67,1.34c0.35,0.1,0.68,0.04,0.92-0.09c0.38-0.21,0.59-0.47,0.69-0.8
		c0.16-0.55,0.32-1.1,0.47-1.66C88.76,55.11,88.38,54.46,87.6,54.23z"/>
	<path class="st0" d="M79.39,51.55c-0.46,1.59-0.92,3.2-1.37,4.8c1.27,0.15,2.41-0.51,2.76-1.94
		C81.08,53.16,80.53,52.09,79.39,51.55z"/>
	<path class="st0" d="M88.59,48.09c-1.04-0.3-2.08-0.6-3.09-0.88c-0.21,0.72-0.42,1.44-0.63,2.15c1.03,0.3,2.08,0.6,3.09,0.89
		C88.17,49.52,88.38,48.79,88.59,48.09z"/>
	<path class="st0" d="M87.74,51.06c-1.04-0.3-2.09-0.6-3.1-0.89C84.42,50.9,84.2,51.62,84,52.3c1.05,0.3,2.11,0.61,3.13,0.9
		C87.33,52.5,87.54,51.77,87.74,51.06z"/>
	<path class="st0" d="M81.69,60.26c1.06,0.3,2.12,0.61,3.17,0.91c0.2-0.71,0.41-1.43,0.61-2.15c-1.03-0.29-2.09-0.59-3.13-0.89
		C82.12,58.85,81.9,59.56,81.69,60.26z"/>
	<path class="st0" d="M80.89,63.23c1.03,0.3,2.08,0.61,3.13,0.92c0.21-0.7,0.41-1.42,0.61-2.1c-1.07-0.32-2.13-0.62-3.14-0.92
		C81.28,61.84,81.08,62.56,80.89,63.23z"/>
	<path class="st0" d="M32.86,18.7c-0.26-1.06-0.52-2.12-0.78-3.2c-0.73,0.17-1.46,0.35-2.19,0.52c-0.01,0.02-0.02,0.03-0.03,0.05
		c0.24,1.07,0.48,2.14,0.71,3.15C31.42,19.02,32.16,18.86,32.86,18.7z"/>
	<path class="st0" d="M52.99,13.67c-0.05-0.17-0.57-2.28-0.79-3.17c-0.02-0.01-0.03-0.02-0.05-0.03c-0.74,0.16-1.47,0.32-2.19,0.48
		c0.29,1.17,0.56,2.24,0.81,3.24C51.49,14.02,52.22,13.85,52.99,13.67z"/>
	<path class="st0" d="M39.89,17.74c0.19,0.74,0.86,1.14,1.61,0.96c0.55-0.13,1.1-0.27,1.64-0.41c0.75-0.19,1.16-0.85,0.98-1.6
		c-0.38-1.57-0.78-3.14-1.17-4.71c-0.09-0.36-0.31-0.61-0.54-0.75c-0.38-0.22-0.7-0.28-1.04-0.19c-0.56,0.14-1.12,0.27-1.67,0.42
		c-0.78,0.21-1.16,0.86-0.96,1.65C39.12,14.66,39.51,16.2,39.89,17.74z"/>
	<path class="st0" d="M42.3,18.94c-1.23,0.36-1.88,1.37-1.78,2.63c1.61-0.4,3.23-0.81,4.84-1.21C44.85,19.18,43.71,18.53,42.3,18.94
		z"/>
	<path class="st0" d="M35.88,17.92c-0.26-1.04-0.52-2.1-0.77-3.12c-0.73,0.18-1.47,0.36-2.19,0.54c0.26,1.05,0.52,2.1,0.78,3.11
		C34.43,18.27,35.16,18.09,35.88,17.92z"/>
	<path class="st0" d="M38.87,17.2c-0.27-1.06-0.53-2.13-0.79-3.16c-0.7,0.18-1.44,0.36-2.15,0.54c0.26,1.05,0.53,2.1,0.78,3.13
		C37.45,17.53,38.18,17.36,38.87,17.2z"/>
	<path class="st0" d="M46.92,15.22c-0.27-1.07-0.53-2.14-0.8-3.19c-0.71,0.18-1.44,0.36-2.17,0.54c0.26,1.04,0.53,2.11,0.8,3.16
		C45.48,15.56,46.21,15.39,46.92,15.22z"/>
	<path class="st0" d="M49.89,14.43c-0.25-1.04-0.51-2.11-0.77-3.17c-0.71,0.17-1.44,0.35-2.13,0.52c0.26,1.09,0.52,2.15,0.77,3.18
		C48.49,14.78,49.22,14.6,49.89,14.43z"/>
</g>
</svg>
