<?xml version="1.0" encoding="utf-8"?>
<!-- Generator: Adobe Illustrator 28.1.0, SVG Export Plug-In . SVG Version: 6.00 Build 0)  -->
<svg version="1.1" xmlns="http://www.w3.org/2000/svg" xmlns:xlink="http://www.w3.org/1999/xlink" x="0px" y="0px"
	 viewBox="0 0 265 100" style="enable-background:new 0 0 265 100;" xml:space="preserve">
<g id="Livello_7">
	<g>
		<path d="M68.14,46.99c-1.21-1.21-3.16-1.21-4.37,0c-0.89,0.89-1.12,2.19-0.69,3.3l-4.45,4.45H51.9v-4.03l-1.25-3.32l-1.24,3.32
			v10.07h-9.36l-1.38-1.38c0.43-1.11,0.2-2.41-0.69-3.3c-1.21-1.21-3.16-1.21-4.37,0s-1.21,3.16,0,4.37
			c0.89,0.89,2.19,1.12,3.3,0.69l2.11,2.11h10.39v7.71H39.19c-0.69,0-1.24,0.56-1.24,1.24s0.56,1.24,1.24,1.24h23
			c0.69,0,1.24-0.56,1.24-1.24s-0.56-1.24-1.24-1.24H51.9V57.24h7.76l5.18-5.18c1.11,0.43,2.41,0.2,3.3-0.69
			C69.35,50.15,69.35,48.2,68.14,46.99z"/>
		<g>
			<g>
				<defs>
					<path id="SVGID_1_" d="M38.99,6.94c0,0-0.71,0.12-2.03,0.34c-0.66,0.12-1.5,0.23-2.43,0.52c-0.94,0.28-2.06,0.51-3.24,0.98
						c-0.6,0.23-1.22,0.47-1.88,0.72c-0.67,0.24-1.34,0.55-2.03,0.9c-0.69,0.35-1.41,0.71-2.16,1.09c-0.72,0.44-1.46,0.89-2.23,1.36
						c-0.79,0.44-1.53,1.01-2.3,1.59c-0.77,0.58-1.58,1.15-2.33,1.85c-0.75,0.69-1.58,1.34-2.33,2.11c-0.75,0.77-1.5,1.58-2.26,2.42
						c-0.7,0.89-1.42,1.79-2.15,2.71c-0.68,0.96-1.34,1.97-2.02,2.99c-0.63,1.05-1.2,2.16-1.81,3.28c-0.57,1.13-1.05,2.34-1.57,3.54
						c-0.47,1.22-0.87,2.49-1.29,3.77c-0.34,1.3-0.63,2.64-0.95,3.99c-0.22,1.41-0.44,2.89-0.58,4.31
						c-0.03,0.64-0.06,1.29-0.09,1.94l-0.05,0.98l-0.02,0.49l-0.01,0.12c-0.01,0.24,0,0.23,0,0.22c0-0.01,0-0.01,0,0.02l0,0.07
						l0.01,0.27c0.04,5.74,1.37,11.67,3.81,17.13c2.43,5.47,5.89,10.55,10.19,14.75c4.26,4.24,9.33,7.61,14.75,9.87
						c2.71,1.11,5.49,2.01,8.3,2.56c1.37,0.37,2.87,0.46,4.29,0.66c0.7,0.06,1.47,0.22,2.11,0.2c0.66,0.01,1.32,0.03,1.98,0.04
						c5.55,0.13,10.87-0.78,15.61-2.43c4.75-1.65,8.91-4,12.36-6.63c3.46-2.63,6.2-5.52,8.36-8.26c0.51-0.71,1.01-1.39,1.49-2.05
						c0.49-0.65,0.86-1.35,1.27-1.98c0.82-1.26,1.41-2.52,1.97-3.63c0.14-0.28,0.28-0.55,0.41-0.81c0.11-0.27,0.22-0.54,0.33-0.8
						c0.21-0.52,0.41-1,0.6-1.45c0.4-0.89,0.62-1.67,0.82-2.29c0.4-1.25,0.61-1.92,0.61-1.92c0.06-0.2-0.04-0.41-0.23-0.49
						c-0.2-0.08-0.44,0.01-0.52,0.22c0,0-0.27,0.65-0.76,1.86c-0.25,0.61-0.54,1.37-0.98,2.19c-0.21,0.42-0.44,0.86-0.68,1.34
						c-0.12,0.24-0.24,0.48-0.37,0.74c-0.15,0.24-0.3,0.49-0.46,0.75c-0.63,1.03-1.29,2.19-2.17,3.34
						c-0.43,0.58-0.83,1.22-1.34,1.82c-0.5,0.6-1.02,1.22-1.55,1.85c-2.23,2.47-5.02,5.02-8.42,7.26c-3.39,2.24-7.4,4.14-11.84,5.35
						c-4.43,1.2-9.32,1.77-14.25,1.35c-0.65-0.05-1.31-0.1-1.97-0.16c-0.34-0.02-0.65-0.06-0.94-0.13l-0.9-0.17
						c-1.2-0.26-2.4-0.36-3.63-0.79c-2.46-0.65-4.87-1.54-7.2-2.63c-4.66-2.21-8.93-5.37-12.43-9.2c-3.47-3.86-6.19-8.36-7.86-13.11
						c-1.66-4.75-2.47-9.67-2.43-14.43l-0.01-0.22l0-0.06c0,0.02,0,0,0-0.02c0,0,0-0.01,0-0.01l0.02-0.47l0.04-0.98
						c0.02-0.65,0.05-1.3,0.07-1.94c0.14-1.14,0.26-2.19,0.36-3.29c0.22-1.12,0.41-2.24,0.64-3.34c0.31-1.08,0.54-2.16,0.86-3.21
						c0.38-1.03,0.69-2.07,1.08-3.06c0.43-0.98,0.82-1.96,1.27-2.9c0.48-0.93,0.95-1.84,1.41-2.73c0.53-0.86,1.05-1.7,1.56-2.53
						c0.57-0.79,1.14-1.57,1.68-2.32c0.54-0.77,1.17-1.44,1.73-2.14c0.55-0.72,1.19-1.32,1.78-1.93c0.6-0.61,1.17-1.23,1.78-1.75
						c0.6-0.55,1.19-1.08,1.75-1.59c0.61-0.46,1.19-0.91,1.75-1.34c1.09-0.93,2.23-1.57,3.21-2.26c2.03-1.25,3.69-2.2,4.87-2.74
						c1.18-0.59,1.8-0.9,1.8-0.9l0.03-0.02c0.15-0.08,0.24-0.25,0.22-0.42c-0.03-0.2-0.2-0.33-0.39-0.33
						C39.04,6.94,39.01,6.94,38.99,6.94"/>
				</defs>
				<use xlink:href="#SVGID_1_"  style="overflow:visible;"/>
				<clipPath id="SVGID_00000178901163683229896290000006087079993110450847_">
					<use xlink:href="#SVGID_1_"  style="overflow:visible;"/>
				</clipPath>
			</g>
			<g>
				<path d="M39.19,6.98c0,0,0.35-0.11,1.01-0.3c0.66-0.19,1.6-0.53,2.88-0.8c0.63-0.14,1.34-0.33,2.11-0.46
					c0.77-0.12,1.61-0.25,2.51-0.38c0.9-0.1,1.86-0.16,2.88-0.25c0.15-0.01,0.21-0.02,0.43-0.03h0.38c0.26,0,0.52,0,0.78,0
					c0.52,0,1.06,0,1.61,0c0.55,0,1.11,0,1.68,0c0.59,0.06,1.19,0.12,1.8,0.18c0.61,0.06,1.24,0.13,1.87,0.2
					c0.32,0.04,0.64,0.06,0.96,0.11c0.31,0.06,0.63,0.13,0.94,0.2c1.26,0.28,2.6,0.48,3.9,0.89c1.29,0.43,2.65,0.81,3.98,1.32
					c1.3,0.58,2.66,1.11,3.98,1.76c1.28,0.72,2.61,1.41,3.88,2.22c1.22,0.88,2.52,1.69,3.7,2.66l1.75,1.49
					c0.58,0.5,1.19,0.98,1.7,1.56c2.19,2.16,4.25,4.49,6.01,6.99c0.83,1.28,1.79,2.49,2.43,3.85c0.69,1.34,1.44,2.64,1.91,4.03
					c1.09,2.73,1.74,5.51,2.14,8.15c0.15,1.33,0.25,2.63,0.37,3.88c0,1.26-0.04,2.47-0.08,3.62c-0.01,0.29-0.02,0.57-0.03,0.85
					l-0.02,0.51l-0.06,0.39c-0.08,0.52-0.15,1.03-0.23,1.53c-0.08,0.5-0.15,0.98-0.22,1.45c-0.11,0.5-0.22,0.98-0.34,1.44
					c-0.25,0.92-0.41,1.79-0.68,2.55c-0.27,0.75-0.52,1.45-0.75,2.07c-0.2,0.63-0.48,1.16-0.7,1.62c-0.22,0.46-0.41,0.85-0.58,1.17
					c-0.33,0.62-0.5,0.95-0.5,0.95c-0.08,0.15-0.26,0.21-0.41,0.13C92.06,62.46,92,62.35,92,62.23l0-0.02c0,0,0.02-0.37,0.06-1.07
					c0.02-0.7,0.18-1.68,0.2-2.95c0.03-1.27,0.13-2.79,0.04-4.47c-0.01-0.42-0.02-0.85-0.01-1.29c-0.03-0.47-0.07-0.96-0.1-1.46
					c-0.04-0.5-0.07-1.01-0.11-1.54l-0.03-0.4l0-0.05c0-0.09,0,0.09,0,0.07l0-0.02l-0.01-0.1l-0.03-0.19
					c-0.04-0.25-0.08-0.51-0.11-0.77c-0.14-1.02-0.29-2.09-0.45-3.19c-0.24-1.09-0.51-2.2-0.74-3.35c-0.62-2.26-1.29-4.62-2.24-6.98
					c-0.35-1.23-1-2.35-1.48-3.57c-0.47-1.23-1.17-2.36-1.78-3.56c-1.29-2.36-2.9-4.61-4.73-6.68c-0.43-0.55-0.93-1.02-1.43-1.5
					l-1.48-1.45c-1-0.95-2.13-1.75-3.18-2.63c-1.1-0.82-2.27-1.51-3.38-2.28c-1.15-0.69-2.35-1.28-3.5-1.92
					c-1.18-0.57-2.4-1.02-3.56-1.52c-0.58-0.27-1.19-0.41-1.78-0.6c-0.59-0.18-1.18-0.37-1.76-0.55c-0.29-0.09-0.58-0.18-0.86-0.27
					c-0.29-0.08-0.58-0.12-0.86-0.19c-0.57-0.12-1.13-0.23-1.69-0.35c-0.56-0.12-1.1-0.23-1.64-0.34c-0.57-0.06-1.12-0.11-1.67-0.17
					c-0.55-0.05-1.08-0.11-1.6-0.16c-0.26-0.03-0.52-0.05-0.77-0.08L50.91,6.6l-0.32,0c-0.98-0.01-1.91-0.04-2.78-0.03
					c-0.87,0.05-1.69,0.09-2.45,0.13c-0.76,0.05-1.44,0.15-2.07,0.22c-1.25,0.1-2.24,0.35-2.92,0.46c-0.67,0.13-1.03,0.19-1.03,0.19
					c-0.16,0.03-0.32-0.08-0.35-0.24C38.95,7.17,39.05,7.02,39.19,6.98"/>
			</g>
		</g>
		<g>
			<g>
				<path d="M45.83,46.3c0.55,1.45,0.87,3.02,0.89,4.65c1.52-1.7,2.45-3.94,2.45-6.39c0-1.2-0.22-2.35-0.62-3.4
					c-1.38-3.62-4.88-6.21-8.99-6.21c-1.14,0-2.23,0.2-3.24,0.56c-1.16,0.42-2.21,1.05-3.12,1.85C38.97,37.5,43.88,41.18,45.83,46.3
					z"/>
				<path d="M29.95,44.56c0,5.3,4.31,9.61,9.61,9.61c1.52,0,2.95-0.35,4.23-0.98c0.34-0.17,0.67-0.36,0.99-0.56
					c0.72-0.47,1.37-1.03,1.95-1.67c-0.03-1.64-0.34-3.2-0.89-4.65c-1.95-5.13-6.85-8.8-12.62-8.94
					C31.21,39.12,29.95,41.7,29.95,44.56z"/>
			</g>
			<g>
				<path d="M31.05,33.66c0.21,0.55,0.33,1.15,0.34,1.77c0.58-0.65,0.93-1.5,0.93-2.43c0-0.46-0.08-0.89-0.24-1.3
					c-0.52-1.38-1.86-2.36-3.42-2.36c-0.43,0-0.85,0.08-1.23,0.21c-0.44,0.16-0.84,0.4-1.19,0.7C28.44,30.31,30.3,31.71,31.05,33.66
					z"/>
				<path d="M25,33c0,2.02,1.64,3.66,3.66,3.66c0.58,0,1.12-0.13,1.61-0.37c0.13-0.06,0.26-0.14,0.38-0.21
					c0.27-0.18,0.52-0.39,0.74-0.64c-0.01-0.62-0.13-1.22-0.34-1.77c-0.74-1.95-2.61-3.35-4.8-3.4C25.48,30.93,25,31.91,25,33z"/>
			</g>
			<g>
				<path d="M67.6,23.53c0.28,0.75,0.45,1.55,0.46,2.4c0.78-0.88,1.26-2.03,1.26-3.29c0-0.62-0.11-1.21-0.32-1.75
					c-0.71-1.87-2.52-3.2-4.63-3.2c-0.59,0-1.15,0.1-1.67,0.29c-0.6,0.21-1.14,0.54-1.61,0.95C64.07,19,66.6,20.89,67.6,23.53z"/>
				<path d="M59.43,22.64c0,2.73,2.22,4.95,4.95,4.95c0.78,0,1.52-0.18,2.18-0.51c0.18-0.09,0.35-0.18,0.51-0.29
					c0.37-0.24,0.71-0.53,1-0.86c-0.02-0.84-0.18-1.65-0.46-2.4c-1-2.64-3.53-4.53-6.5-4.61C60.08,19.84,59.43,21.16,59.43,22.64z"
					/>
			</g>
			<path d="M62.88,29.74c-1.64,0-3.19,0.34-4.61,0.96c-3.81,1.66-6.56,5.3-6.94,9.61c-0.03,0.34-0.05,0.68-0.05,1.03
				c0,5.38,3.68,9.91,8.65,11.21c0.61,0.16,1.23,0.27,1.87,0.33c0.35,0.03,0.71,0.05,1.07,0.05c6.39,0,11.59-5.2,11.59-11.59
				S69.27,29.74,62.88,29.74z"/>
		</g>
		<path d="M70.44,43.44c0.67,1.75,1.04,3.64,1.08,5.62c1.84-2.05,2.96-4.75,2.96-7.72c0-1.45-0.27-2.83-0.75-4.11
			c-1.66-4.37-5.89-7.49-10.84-7.49c-1.37,0-2.69,0.24-3.91,0.68c-1.4,0.5-2.67,1.26-3.76,2.23C62.17,32.82,68.09,37.25,70.44,43.44
			z"/>
		<g>
			<path d="M38.79,20.71l-0.18,0c-2.41,2.16-3.93,5.3-3.93,8.8c0,1.44,0.26,2.81,0.73,4.09c1.29-0.49,2.69-0.76,4.15-0.76
				c4.19,0,7.87,2.21,9.94,5.52c0.65-2.91,2.23-5.48,4.41-7.37C51.37,25.08,45.57,20.9,38.79,20.71z"/>
			<path d="M46.51,17.69c-3.04,0-5.8,1.15-7.9,3.03l0.18,0c6.78,0.19,12.58,4.37,15.12,10.28c1.26-1.09,2.72-1.96,4.32-2.54
				c0.02-0.01,0.03-0.01,0.05-0.02C57.73,22.4,52.67,17.69,46.51,17.69z"/>
		</g>
		<g>
			<path d="M57.73,76.36H43.68c-0.69,0-1.24,0.56-1.24,1.24c0,0.69,0.56,1.24,1.24,1.24h14.05c0.69,0,1.24-0.56,1.24-1.24
				C58.98,76.92,58.42,76.36,57.73,76.36z"/>
			<path d="M53.68,81.73h-6.1c-0.69,0-1.24,0.56-1.24,1.24s0.56,1.24,1.24,1.24h6.1c0.69,0,1.24-0.56,1.24-1.24
				S54.37,81.73,53.68,81.73z"/>
		</g>
		<g>
			<path d="M37.82,58.88c0.18,0.48,0.28,0.99,0.29,1.53c0.5-0.56,0.8-1.29,0.8-2.1c0-0.39-0.07-0.77-0.2-1.12
				c-0.45-1.19-1.6-2.04-2.95-2.04c-0.37,0-0.73,0.07-1.06,0.18c-0.38,0.14-0.73,0.34-1.02,0.61
				C35.57,55.99,37.18,57.19,37.82,58.88z"/>
			<path d="M32.61,58.31c0,1.74,1.41,3.15,3.15,3.15c0.5,0,0.97-0.12,1.39-0.32c0.11-0.06,0.22-0.12,0.32-0.18
				c0.24-0.15,0.45-0.34,0.64-0.55c-0.01-0.54-0.11-1.05-0.29-1.53c-0.64-1.68-2.25-2.89-4.14-2.93
				C33.03,56.52,32.61,57.37,32.61,58.31z"/>
		</g>
	</g>
</g>
<g id="Livello_3">
	<g>
		<path d="M142.39,60.08c-2.54,2.43-5.58,3.65-9.11,3.65c-3.79,0-7.02-1.33-9.69-4.01c-2.67-2.67-4-5.9-4-9.69
			c0-3.78,1.33-7.01,4-9.68s5.9-4.01,9.69-4.01c3.53,0,6.61,1.19,9.21,3.56l-1.14,1.04c-2.3-2.04-4.99-3.06-8.08-3.06
			c-3.36,0-6.22,1.19-8.6,3.56c-2.38,2.37-3.56,5.24-3.56,8.6c0,3.37,1.19,6.24,3.56,8.61c2.38,2.37,5.24,3.56,8.6,3.56
			c2.88,0,5.41-0.89,7.61-2.66v-8.16h1.5V60.08z"/>
		<path d="M153.59,54.11c-0.14,0.01-0.29,0.02-0.45,0.02h-4.55v9.28h-1.5V36.65h7.02c2.04,0.28,3.77,1.13,5.2,2.56
			c1.71,1.71,2.56,3.76,2.56,6.17c0,2.42-0.85,4.48-2.56,6.19c-1.18,1.18-2.54,1.96-4.06,2.32l6.17,9.52h-1.86L153.59,54.11z
			 M148.59,38.17V52.6h4.55c1.98,0,3.68-0.7,5.09-2.12c1.41-1.41,2.12-3.11,2.12-5.11c0-2-0.71-3.7-2.12-5.1
			c-1.41-1.4-3.11-2.11-5.09-2.11H148.59z"/>
		<path d="M188.32,40.29c2.68,2.68,4.02,5.92,4.02,9.71s-1.34,7.03-4.02,9.71c-2.68,2.68-5.92,4.02-9.71,4.02s-7.03-1.34-9.71-4.02
			c-2.68-2.68-4.02-5.92-4.02-9.71s1.34-7.03,4.02-9.71c2.68-2.68,5.92-4.02,9.71-4.02S185.64,37.61,188.32,40.29z M178.61,37.8
			c-3.37,0-6.24,1.19-8.62,3.57c-2.38,2.38-3.57,5.25-3.57,8.62s1.19,6.24,3.57,8.63c2.38,2.39,5.25,3.58,8.62,3.58
			s6.24-1.19,8.62-3.58c2.38-2.39,3.57-5.26,3.57-8.63s-1.19-6.24-3.57-8.62C184.85,38.99,181.98,37.8,178.61,37.8z"/>
		<path d="M212.89,36.65h1.52v19.23c-0.28,2.04-1.13,3.77-2.56,5.2c-1.71,1.71-3.76,2.56-6.17,2.56c-2.42,0-4.48-0.85-6.19-2.56
			c-1.71-1.71-2.56-3.76-2.56-6.17V36.65h1.52v18.26c0,1.98,0.71,3.68,2.12,5.09c1.41,1.41,3.11,2.12,5.11,2.12s3.7-0.71,5.1-2.12
			c1.41-1.41,2.11-3.11,2.11-5.09V36.65z"/>
		<path d="M219.43,36.65h1.66l13.75,23.8v-23.8h1.5v26.76h-1.5l-13.9-24.03v24.03h-1.5V36.65z"/>
		<path d="M242.86,36.68h0.12c4.4,0,7.82,1.22,10.23,3.65c2.68,2.69,4.01,5.92,4.01,9.7c0,3.79-1.34,7.02-4.01,9.7
			c-2.42,2.43-5.83,3.65-10.23,3.65h-0.12v0.03h-1.5V36.65h1.5V36.68z M242.86,38.22v23.63h0.12c3.97,0,7.02-1.07,9.15-3.21
			c2.38-2.38,3.56-5.25,3.56-8.61c0-3.36-1.19-6.23-3.56-8.61c-2.13-2.13-5.18-3.19-9.15-3.19H242.86z"/>
	</g>
</g>
</svg>
