<?xml version="1.0" encoding="utf-8"?>
<!-- Generator: Adobe Illustrator 28.1.0, SVG Export Plug-In . SVG Version: 6.00 Build 0)  -->
<svg version="1.1" id="Livello_2" xmlns="http://www.w3.org/2000/svg" xmlns:xlink="http://www.w3.org/1999/xlink" x="0px" y="0px"
	 viewBox="0 0 117.42 117.47" style="enable-background:new 0 0 117.42 117.47;" xml:space="preserve">
<g>
	<path d="M49.74,41.43l0.48,0.26c0.73,0.39,1.87,0.36,2.53-0.07l0.43-0.28c0.67-0.44,0.61-1.1-0.12-1.5l-0.47-0.26
		c-0.73-0.4-1.87-0.36-2.53,0.07l-0.43,0.28C48.95,40.36,49.01,41.04,49.74,41.43z"/>
	<path d="M71.63,55.84l-10.34-5.56l-1.02-0.55l-7.83-4.21l-0.31-0.16c-0.39-0.21-0.89-0.29-1.38-0.26
		c-0.43,0.02-0.84,0.13-1.16,0.33l-0.13,0.08c-0.3,0.2-0.45,0.44-0.46,0.69c-0.01,0.3,0.18,0.59,0.58,0.81l0.34,0.18l7.75,4.17
		l1.1,0.59l10.3,5.54c0.73,0.39,1.87,0.36,2.53-0.07l0.13-0.08C72.41,56.9,72.36,56.23,71.63,55.84z"/>
	<path d="M44.82,44.63l0.47,0.25c0.73,0.4,1.87,0.36,2.53-0.07l0.43-0.28c0.67-0.43,0.61-1.1-0.12-1.5l-0.47-0.25
		c-0.73-0.39-1.87-0.36-2.53,0.07l-0.43,0.28C44.03,43.56,44.09,44.23,44.82,44.63z"/>
	<path d="M66.71,59.04l-10.27-5.52l-1.17-0.63l-7.69-4.14l-0.37-0.2c-0.43-0.23-0.99-0.3-1.53-0.24c-0.37,0.04-0.73,0.13-1.01,0.31
		l-0.13,0.08c-0.27,0.18-0.42,0.39-0.45,0.62c-0.05,0.32,0.14,0.65,0.57,0.88l0.4,0.22l7.63,4.1l1.24,0.67l10.24,5.5
		c0.73,0.39,1.87,0.36,2.53-0.07l0.13-0.08C67.5,60.1,67.44,59.43,66.71,59.04z"/>
	<path d="M43.22,46.23l-0.48-0.26c-0.73-0.4-1.87-0.36-2.53,0.07l-0.43,0.28c-0.67,0.43-0.61,1.1,0.12,1.5l0.47,0.26
		c0.73,0.39,1.87,0.36,2.53-0.07l0.43-0.28C44.01,47.29,43.95,46.62,43.22,46.23z"/>
	<path d="M116.38,47.05c-0.5-3.29-1.31-6.74-2.66-10.13c-0.59-1.73-1.52-3.35-2.38-5.01c-0.8-1.7-1.99-3.2-3.02-4.79
		c-2.19-3.11-4.74-6.01-7.47-8.69c-0.64-0.71-1.39-1.31-2.12-1.93l-2.18-1.85c-1.47-1.21-3.08-2.21-4.6-3.3
		c-1.57-1.01-3.23-1.87-4.82-2.76c-1.64-0.81-3.33-1.47-4.94-2.19c-1.65-0.64-3.33-1.1-4.94-1.64c-1.62-0.51-3.27-0.75-4.84-1.1
		c-0.39-0.08-0.78-0.16-1.17-0.24c-0.39-0.07-0.8-0.09-1.19-0.14c-0.79-0.08-1.56-0.16-2.32-0.24c-0.76-0.08-1.5-0.15-2.23-0.23
		c-0.71,0-1.4,0-2.09,0c-0.68,0-1.35,0-2,0c-0.33,0-0.65,0-0.97,0l-0.47,0c-0.28,0.01-0.35,0.02-0.54,0.04
		c-1.26,0.11-2.46,0.19-3.58,0.31c-1.11,0.17-2.15,0.33-3.12,0.47c-0.96,0.17-1.83,0.41-2.62,0.58c-1.59,0.33-2.75,0.76-3.57,0.99
		c-0.77,0.23-1.18,0.36-1.23,0.37c-0.08-0.03-0.17-0.05-0.26-0.04c0,0-0.88,0.15-2.52,0.42c-0.82,0.15-1.86,0.29-3.02,0.65
		c-1.16,0.35-2.56,0.63-4.03,1.21c-0.74,0.29-1.52,0.59-2.34,0.9c-0.83,0.3-1.67,0.68-2.52,1.12c-0.86,0.44-1.76,0.89-2.69,1.36
		c-0.89,0.54-1.82,1.1-2.77,1.69c-0.99,0.55-1.9,1.26-2.85,1.98c-0.95,0.72-1.97,1.44-2.89,2.3c-0.93,0.85-1.96,1.67-2.89,2.63
		c-0.93,0.96-1.86,1.97-2.8,3.01c-0.87,1.1-1.77,2.22-2.68,3.37c-0.84,1.2-1.66,2.45-2.51,3.72c-0.78,1.31-1.49,2.69-2.25,4.08
		c-0.71,1.41-1.3,2.9-1.96,4.4c-0.58,1.52-1.08,3.1-1.61,4.69c-0.43,1.62-0.79,3.28-1.18,4.95c-0.27,1.75-0.55,3.59-0.72,5.36
		c-0.04,0.8-0.07,1.6-0.11,2.41l-0.06,1.21l-0.03,0.61l-0.01,0.15c-0.01,0.46,0,0.18,0,0.3l0,0.08l0.01,0.33
		c0.05,7.14,1.71,14.5,4.73,21.3c3.02,6.8,7.32,13.12,12.67,18.34c5.29,5.27,11.6,9.46,18.33,12.27c3.37,1.38,6.82,2.49,10.32,3.18
		c1.7,0.47,3.56,0.57,5.33,0.82c0.87,0.08,1.82,0.27,2.62,0.25c0.82,0.02,1.64,0.04,2.46,0.05c6.9,0.16,13.5-0.97,19.4-3.02
		c5.9-2.05,11.08-4.97,15.36-8.24c4.3-3.27,7.7-6.86,10.39-10.27c0.64-0.88,1.26-1.73,1.85-2.55c0.61-0.81,1.07-1.68,1.57-2.46
		c1.03-1.57,1.75-3.13,2.45-4.51c0.17-0.35,0.34-0.68,0.51-1.01c0.14-0.34,0.28-0.67,0.41-0.99c0.26-0.64,0.51-1.24,0.74-1.8
		c0.49-1.11,0.76-2.07,1.02-2.85c0.5-1.55,0.76-2.38,0.76-2.38c0-0.01,0-0.02,0-0.03c0.03-0.03,0.06-0.06,0.08-0.1
		c0,0,0.22-0.41,0.62-1.19c0.2-0.39,0.44-0.87,0.72-1.45c0.28-0.58,0.62-1.24,0.88-2.01c0.28-0.78,0.59-1.64,0.93-2.57
		c0.34-0.94,0.54-2.03,0.85-3.17c0.15-0.58,0.29-1.17,0.42-1.79c0.09-0.58,0.18-1.19,0.27-1.8c0.09-0.62,0.19-1.25,0.28-1.9
		l0.07-0.49l0.03-0.63c0.01-0.35,0.03-0.71,0.04-1.06c0.06-1.44,0.1-2.94,0.1-4.51C116.69,50.32,116.57,48.71,116.38,47.05z
		 M111.24,69.23c-0.03,1.58-0.22,2.8-0.25,3.67c-0.03,0.5-0.05,0.85-0.06,1.07c-0.14,0.04-0.27,0.13-0.33,0.28
		c0,0-0.33,0.81-0.95,2.32c-0.31,0.75-0.67,1.71-1.22,2.72c-0.26,0.52-0.54,1.07-0.85,1.67c-0.15,0.3-0.3,0.6-0.46,0.91
		c-0.18,0.3-0.37,0.62-0.57,0.94c-0.79,1.28-1.6,2.72-2.7,4.15c-0.54,0.72-1.03,1.52-1.66,2.26c-0.62,0.74-1.27,1.51-1.93,2.31
		c-2.78,3.07-6.23,6.24-10.46,9.02c-4.21,2.78-9.19,5.15-14.71,6.65c-5.51,1.49-11.58,2.2-17.71,1.68c-0.81-0.06-1.63-0.13-2.45-0.2
		c-0.42-0.02-0.81-0.08-1.17-0.16l-1.12-0.21c-1.49-0.32-2.98-0.45-4.5-0.98c-3.05-0.8-6.05-1.91-8.95-3.27
		c-5.79-2.75-11.1-6.68-15.45-11.44c-4.31-4.8-7.69-10.39-9.77-16.3c-2.07-5.91-3.06-12.02-3.03-17.94l-0.02-0.28l0-0.07
		c0,0.02,0,0.01,0-0.01l0,0l-0.01,0.15c0.01-0.29,0.01-0.2,0.01-0.16l0.02-0.61l0.04-1.21c0.03-0.81,0.06-1.61,0.09-2.41
		c0.17-1.42,0.33-2.73,0.45-4.09c0.28-1.39,0.51-2.78,0.79-4.15c0.38-1.34,0.67-2.69,1.07-3.99c0.47-1.28,0.86-2.57,1.34-3.81
		c0.54-1.21,1.02-2.44,1.58-3.6c0.6-1.15,1.18-2.29,1.75-3.4c0.66-1.07,1.31-2.12,1.95-3.15c0.71-0.98,1.41-1.95,2.09-2.89
		c0.67-0.96,1.46-1.79,2.16-2.66c0.69-0.89,1.48-1.64,2.22-2.4c0.75-0.76,1.45-1.53,2.21-2.18c0.75-0.68,1.48-1.34,2.18-1.97
		c0.75-0.58,1.48-1.14,2.17-1.67c1.36-1.15,2.77-1.95,3.99-2.81c2.52-1.55,4.58-2.73,6.05-3.4c1.46-0.73,2.24-1.12,2.24-1.12
		l0.04-0.02c0.08-0.04,0.15-0.11,0.19-0.18c0.16-0.03,0.57-0.1,1.21-0.22c0.84-0.13,2.07-0.44,3.62-0.57
		c0.78-0.08,1.63-0.21,2.57-0.27c0.94-0.05,1.96-0.1,3.05-0.16c1.09-0.01,2.24,0.03,3.46,0.04l0.4,0.01l0.47,0.05
		c0.32,0.03,0.64,0.06,0.96,0.1c0.65,0.06,1.31,0.13,1.99,0.2c0.68,0.07,1.37,0.14,2.07,0.21c0.67,0.14,1.35,0.28,2.04,0.42
		c0.69,0.14,1.39,0.29,2.1,0.43c0.35,0.08,0.71,0.13,1.07,0.23c0.36,0.11,0.72,0.22,1.08,0.34c0.72,0.22,1.45,0.45,2.19,0.68
		c0.73,0.24,1.5,0.41,2.22,0.75c1.45,0.63,2.96,1.18,4.43,1.89c1.43,0.79,2.92,1.52,4.35,2.38c1.38,0.96,2.83,1.82,4.2,2.84
		c1.3,1.1,2.7,2.09,3.95,3.27l1.84,1.8c0.61,0.6,1.25,1.18,1.77,1.86c2.27,2.58,4.27,5.37,5.88,8.3c0.76,1.49,1.63,2.9,2.22,4.43
		c0.6,1.52,1.41,2.92,1.84,4.44c1.18,2.93,2.02,5.87,2.79,8.68c0.28,1.43,0.61,2.81,0.92,4.16c0.19,1.37,0.38,2.7,0.56,3.97
		c0.05,0.32,0.1,0.64,0.14,0.95l0.04,0.24l0.02,0.12l0,0.03c0,0.03,0-0.19,0-0.08l0,0.06l0.03,0.49c0.05,0.65,0.09,1.29,0.14,1.91
		c0.04,0.62,0.09,1.23,0.13,1.82c-0.01,0.55,0,1.08,0.02,1.6C111.41,65.76,111.28,67.65,111.24,69.23z"/>
	<path d="M89.42,51.42l-0.16-1.24l-1.72-13.34l-0.13-1.01l-0.9-0.48L66.62,24.65c-0.66-0.35-1.45-0.54-2.28-0.54
		c-0.95,0-1.86,0.25-2.56,0.71L30.04,45.45l-5.72,3.72c-0.95,0.62-1.46,1.56-1.42,2.58c0.05,1.04,0.67,1.95,1.7,2.51l4.76,2.55
		l-5.04,3.27c-0.95,0.62-1.46,1.56-1.42,2.58c0.04,1.04,0.66,1.96,1.69,2.51l4.54,2.44l-4.82,3.13c-0.95,0.62-1.46,1.56-1.42,2.58
		c0.04,1.04,0.66,1.95,1.69,2.51l30.58,16.44c0.66,0.35,1.45,0.54,2.28,0.54c0.94,0,1.85-0.25,2.55-0.7l10.68-6.94l17.69-11.5
		L89.42,73l-0.16-1.24l-1.11-8.59l0.22-0.14l1.05-0.68l-0.16-1.24l-1.14-8.83l0.25-0.16L89.42,51.42z M87.96,72
		c0,0-0.61,0.35-1.24,0.71c-0.92,0.52-2.24,1.32-3.94,2.31c-0.48,0.28-0.99,0.58-1.52,0.9c-0.41,0.24-0.84,0.49-1.28,0.76
		c-1.02,0.61-2.11,1.27-3.29,1.98c-2.35,1.42-4.98,3.03-7.85,4.8c-2.87,1.77-5.97,3.7-9.23,5.76l-0.31,0.19l-0.07,0.04
		c0,0,0.01-0.01-0.01,0l-0.04,0.02l-0.08,0.04l-0.02,0l-0.06,0.02c-0.03,0.01-0.06,0.02-0.1,0.03c-0.07,0.02-0.14,0.03-0.22,0.04
		c-0.3,0.05-0.66,0.02-0.92-0.07c-0.06-0.02-0.13-0.05-0.17-0.07l-0.04-0.02l-0.08-0.04l-0.16-0.09l-0.66-0.36
		c-0.44-0.24-0.88-0.48-1.33-0.73c-1.77-0.98-3.6-1.97-5.45-2.96c-3.72-1.97-7.56-4.02-11.49-6.05c-1.96-1.02-3.94-2.05-5.92-3.08
		c-0.99-0.52-1.99-1.04-2.98-1.56l-1.49-0.78l-0.75-0.39l-0.34-0.17l-0.09-0.05l1.36-0.91c0.93-0.62,1.87-1.24,2.8-1.86
		c0.93-0.62,1.85-1.23,2.77-1.84c1.19,0.66,2.38,1.32,3.56,1.98c3.86,2.16,7.69,4.24,11.39,6.25c1.86,0.99,3.68,1.97,5.48,2.91
		c0.45,0.24,0.89,0.47,1.34,0.7l0.66,0.35l0.17,0.09l0.08,0.04l0.13,0.06c0.18,0.09,0.35,0.15,0.52,0.2c0.69,0.19,1.34,0.21,2,0.1
		c0.17-0.03,0.33-0.07,0.5-0.12c0.08-0.03,0.17-0.05,0.25-0.09c0.08-0.03,0.17-0.07,0.27-0.12l0.15-0.08l0.08-0.05l0.12-0.08
		l0.08-0.05l0.3-0.2c3.21-2.14,6.23-4.2,9.02-6.1c2.78-1.9,5.32-3.66,7.57-5.23c0.58-0.4,1.14-0.8,1.68-1.17
		c0.24-0.17,0.46-0.32,0.69-0.48c0.22-0.16,0.45-0.31,0.66-0.46c0.35,0.2,0.71,0.41,1.04,0.61c0.63,0.38,1.25,0.74,1.82,1.1
		c0.57,0.36,1.12,0.69,1.62,1.01c0.92,0.58,1.68,1.09,2.24,1.47L87.96,72z M63.85,26.98l0.14-0.09c0.01-0.01,0.08-0.06,0.12-0.08
		c0.09-0.05,0.13-0.07,0.22-0.11c0.34-0.13,0.72-0.18,1.09-0.16c0.36,0.02,0.68,0.1,0.99,0.26L85.57,37.1l0.05,0.37l0.02,0.17
		l0.02,0.18c0,0,0,0-0.01,0.01c-0.55,0.42-1.34,1.01-2.28,1.72c-0.95,0.7-2.05,1.53-3.25,2.39c-0.6,0.43-1.21,0.88-1.83,1.34
		l-0.05,0.04l-0.42,0.32c-0.01,0.01-0.01,0.01-0.01,0.01c-0.08,0.07-0.12,0.11-0.14,0.15c0.01,0.01,0.02,0.03,0.04,0.05
		c0.01,0.01,0.03,0.03,0.04,0.04c0.02,0.01-0.01,0.01,0.05,0.04l0.06,0.04l0.03,0.02l0.01,0.01c0,0,0,0-0.02-0.01l0.02,0.01
		l0.13,0.07l0.51,0.29c0.34,0.19,0.68,0.39,1.01,0.58c0.67,0.39,1.33,0.76,1.96,1.15c0.63,0.38,1.25,0.74,1.82,1.1
		c0.57,0.36,1.12,0.69,1.62,1.01c0.17,0.11,0.32,0.21,0.48,0.31c0.05,0.03,0.11,0.07,0.16,0.1c0.05,0.03,2.18,1.36,2.23,1.39
		c-0.03,0.02-6.71,4.3-8.66,5.63c-0.26,0.16-0.51,0.3-0.77,0.47c-0.26,0.16-0.53,0.32-0.8,0.48c-0.3,0.18-0.58,0.35-0.89,0.54
		c-2.35,1.42-4.98,3.03-7.85,4.8c-2.87,1.77-5.97,3.7-9.23,5.77l-0.31,0.19l-0.06,0.04c0.01-0.01,0.02-0.01-0.01,0l-0.04,0.02
		l-0.08,0.05h-0.02l-0.06,0.02c-0.03,0.01-0.06,0.02-0.1,0.03c-0.07,0.02-0.14,0.03-0.22,0.04c-0.3,0.05-0.66,0.02-0.92-0.07
		c-0.06-0.02-0.13-0.05-0.17-0.07l-0.04-0.02l-0.08-0.04l-0.16-0.09l-0.66-0.36c-0.44-0.24-0.88-0.49-1.33-0.73
		c-1.77-0.98-3.6-1.97-5.45-2.96c-1.6-0.85-3.24-1.72-4.89-2.59c-0.49-0.26-0.98-0.52-1.48-0.78c-1.69-0.89-3.4-1.79-5.13-2.68
		c-0.79-0.41-1.58-0.82-2.37-1.24c-0.57-0.3-1.14-0.59-1.71-0.89c-0.62-0.32-1.22-0.64-1.84-0.96c-0.99-0.52-1.99-1.04-2.98-1.56
		l-1.49-0.78l-0.75-0.39l-0.34-0.18l-0.09-0.05l1.36-0.91c0.93-0.62,1.87-1.24,2.8-1.86c1.86-1.24,3.72-2.47,5.56-3.7
		c3.68-2.45,7.31-4.86,10.82-7.19c3.51-2.33,6.9-4.59,10.11-6.73c1.6-1.07,3.17-2.12,4.68-3.13c0.38-0.25,0.75-0.5,1.12-0.75
		C63.49,27.23,63.67,27.1,63.85,26.98z M87.72,60.88c-0.25,0.15-8.86,5.82-9.12,5.97c-0.26,0.16-0.53,0.32-0.8,0.48
		c-0.37,0.22-0.73,0.44-1.12,0.67c-2.35,1.42-4.98,3.03-7.85,4.8c-2.87,1.77-5.97,3.7-9.23,5.76l-0.31,0.19l-0.08,0.05
		c-0.02,0.02,0.06-0.03,0,0l-0.04,0.02l-0.08,0.04l-0.02,0l-0.06,0.02c-0.03,0.01-0.06,0.02-0.1,0.03
		c-0.07,0.02-0.14,0.04-0.22,0.04c-0.3,0.05-0.66,0.02-0.92-0.07c-0.06-0.02-0.13-0.05-0.17-0.07l-0.04-0.02l-0.08-0.04l-0.16-0.09
		l-0.66-0.36c-0.44-0.24-0.88-0.49-1.33-0.73c-1.77-0.98-3.6-1.97-5.45-2.96c-3.72-1.98-7.56-4.02-11.49-6.05
		c-0.86-0.45-1.72-0.9-2.59-1.35c-0.57-0.3-1.14-0.59-1.72-0.89c-0.54-0.28-1.08-0.56-1.62-0.84c-0.99-0.52-1.99-1.04-2.98-1.56
		l-1.49-0.78l-0.75-0.39l-0.34-0.17l-0.09-0.05l1.36-0.91c0.93-0.62,1.87-1.24,2.8-1.86c1-0.66,1.99-1.32,2.98-1.98
		c1.12,0.62,2.24,1.25,3.35,1.86c1.31,0.73,2.6,1.44,3.9,2.15c0.5,0.27,1,0.56,1.5,0.83c2.02,1.11,4.02,2.2,5.99,3.27
		c1.86,1,3.68,1.97,5.48,2.92c0.45,0.23,0.89,0.47,1.34,0.7l0.66,0.35l0.17,0.09l0.08,0.04l0.13,0.06c0.18,0.08,0.35,0.15,0.52,0.2
		c0.69,0.19,1.34,0.21,2,0.1c0.17-0.03,0.33-0.07,0.5-0.12c0.08-0.03,0.17-0.06,0.25-0.09c0.08-0.03,0.17-0.07,0.27-0.12l0.15-0.08
		l0.08-0.05l0.12-0.07l0.08-0.05l0.3-0.2c3.21-2.15,6.23-4.2,9.02-6.1c2.78-1.9,5.32-3.66,7.57-5.23c0.5-0.35,0.99-0.69,1.46-1.03
		c0.24-0.17,0.47-0.33,0.7-0.49c0.23-0.16,0.45-0.32,0.67-0.47c0.42,0.24,0.84,0.48,1.24,0.72c0.63,0.38,1.25,0.74,1.82,1.1
		c0.57,0.36,1.12,0.69,1.62,1.01c0.09,0.06,0.18,0.11,0.27,0.17c0.06,0.04,0.12,0.07,0.17,0.11c0.05,0.03,1.14,0.71,1.19,0.74
		L87.72,60.88z"/>
</g>
</svg>
