<?xml version="1.0" encoding="utf-8"?>
<!-- Generator: Adobe Illustrator 28.1.0, SVG Export Plug-In . SVG Version: 6.00 Build 0)  -->
<svg version="1.1" id="Livello_3" xmlns="http://www.w3.org/2000/svg" xmlns:xlink="http://www.w3.org/1999/xlink" x="0px" y="0px"
	 viewBox="0 0 90.66 90.66" style="enable-background:new 0 0 90.66 90.66;" xml:space="preserve">
<style type="text/css">
	.st0{fill:#FFFFFF;}
</style>
<g>
	<path class="st0" d="M45.79,13.65c0.14,0.1,0.28,0.21,0.42,0.32c0.08,0.06,0.15,0.12,0.23,0.18c0.22,0.17,0.43,0.35,0.63,0.52
		L48,15.47l0.91,0.83c0.1,0.09,0.19,0.18,0.28,0.26l0.03,0.03l0.04,0c0.77,0,1.54,0.02,2.3,0.06l0.01,0l0.07,0l0.03-0.06l0.03-0.06
		l-0.05-0.05c-0.74-0.71-1.49-1.39-2.23-2c-1.97-1.65-3.79-2.93-5.56-3.93c-1.94-1.1-3.89-1.93-5.78-2.47l-0.01,0l-0.06,0
		l-0.03,0.04l-0.03,0.04l0.01,0.04c0.14,0.69,0.61,1.27,1.26,1.54c1.3,0.54,2.61,1.23,3.9,2.04C44.1,12.42,44.98,13.02,45.79,13.65z
		"/>
	<path class="st0" d="M64.91,42.24l0.08,0.23c0.11,0.32,0.22,0.64,0.32,0.96c0.63,2,1.18,4.08,1.66,6.36
		c0.26,1.22,0.48,2.46,0.67,3.67l0,0.05l0.03,0.03c0.65,0.57,1.29,1.18,1.92,1.79l0.03,0.03h0.04l0.05,0l0.06-0.07l0-0.04
		c-0.18-1.91-0.46-3.88-0.84-5.85c-0.4-2.07-0.94-4.22-1.66-6.57C67.13,42.4,67,42,66.84,41.51l-0.03-0.06l-0.1,0l-0.03,0.02
		c-0.49,0.34-1.03,0.59-1.61,0.74L64.91,42.24z"/>
	<path class="st0" d="M58.45,24.57c-0.28-0.4-0.57-0.81-0.88-1.23l-0.03-0.04h-0.05l-0.08,0l-0.01,0.08
		c-0.14,0.8-0.31,1.61-0.49,2.39l-0.02,0.05l0.03,0.04c1.22,1.84,2.33,3.68,3.29,5.46c0.3,0.55,0.6,1.14,0.96,1.86l0.03,0.06h0.06
		l0.03,0l0.02-0.01c0.43-0.26,0.89-0.46,1.38-0.58c0.11-0.03,0.23-0.05,0.33-0.07l0.05-0.01l0.05-0.09l-0.02-0.04
		C61.69,29.65,60.13,27.01,58.45,24.57z"/>
	<path class="st0" d="M41.95,3.74c3.54,0,7.12,0.86,10.36,2.48c1.67,0.83,3.32,1.85,4.89,3.05c1.53,1.17,2.99,2.46,4.31,3.83
		c0.92,0.95,1.83,1.98,2.72,3.06l0.06,0.08l0.08-0.06c0.02-0.01,0.03-0.03,0.05-0.04c0.02-0.02,0.04-0.04,0.06-0.05
		c0.36-0.27,0.77-0.45,1.23-0.54l0.06-0.01l0.03-0.11l-0.03-0.04c-1.01-1.19-2.07-2.32-3.16-3.36c-1.58-1.51-3.09-2.75-4.62-3.81
		C56.25,7,54.49,6.02,52.74,5.27c-0.3-0.13-0.61-0.25-0.91-0.36c-0.16-0.06-0.32-0.12-0.49-0.19c-0.16-0.05-0.31-0.1-0.47-0.15
		c-0.31-0.1-0.64-0.21-0.96-0.3c-0.85-0.24-1.87-0.5-2.92-0.64l-0.74-0.11l-0.74-0.06c-0.42-0.05-0.84-0.06-1.25-0.06L43.9,3.37
		c-0.07,0-0.14,0-0.21,0h-0.03l-1.11,0.04c-0.34,0.02-0.68,0.06-1.01,0.09c-0.15,0.02-0.31,0.03-0.46,0.05l0.01,0.2
		C41.37,3.74,41.66,3.74,41.95,3.74z"/>
	<path class="st0" d="M86.24,48.14l-0.01-0.54c0-0.12-0.01-0.24-0.02-0.35l-0.08-1.27c-0.45-5.56-1.86-11.2-4.21-16.75
		c-2.35-5.55-5.41-10.49-9.08-14.69c-2.04-2.3-4.19-4.27-6.39-5.85c-1.21-0.86-2.45-1.62-3.7-2.25c-0.67-0.34-1.34-0.64-1.97-0.89
		c-0.69-0.27-1.38-0.49-2.05-0.68l-0.06,0.19c2.51,0.86,5,2.24,7.42,4.13c0.47,0.36,0.93,0.75,1.37,1.12l0.27,0.23
		c0.17,0.15,0.34,0.3,0.51,0.46c0.09,0.09,0.19,0.17,0.28,0.26c0.25,0.23,0.52,0.47,0.77,0.73l0.75,0.75l0.73,0.78l0.36,0.39
		c0,0,0.52,0.59,0.6,0.69c0.15,0.17,0.3,0.34,0.45,0.51c1.91,2.3,3.56,4.64,4.92,6.94l0.54,0.91l0.78,1.39l0.74,1.42
		c0.52,1.05,1.2,2.45,1.78,3.87c0.49,1.13,0.97,2.39,1.53,3.97c0.07,0.21,0.14,0.41,0.2,0.62c0.15,0.46,0.31,0.94,0.45,1.41
		l0.3,1.02l0.28,1.03c0.71,2.6,1.22,5.33,1.55,8.36c0.29,3.13,0.29,5.91-0.01,8.5c-0.3,2.98-1.03,5.74-2.19,8.2l0.18,0.09
		c0.34-0.62,0.66-1.27,0.94-1.95c0.27-0.64,0.51-1.32,0.73-2.04c0.42-1.38,0.74-2.8,0.95-4.23c0.25-1.56,0.33-3.13,0.37-4.32
		l0.02-1.08c0-0.23-0.01-0.47-0.01-0.7C86.25,48.39,86.24,48.27,86.24,48.14z"/>
	<path class="st0" d="M64.68,78.32c0.05-0.07,0.1-0.14,0.16-0.21l0.52-0.69l0.46-0.72c0.05-0.07,0.09-0.15,0.14-0.22
		c0.11-0.16,0.22-0.33,0.3-0.51c1.05-1.85,1.89-3.98,2.52-6.34c0.54-2.06,0.89-4.26,1.08-6.72c0.01-0.19,0.02-0.39,0.03-0.58
		c0.02-0.37,0.04-0.74,0.06-1.12l0.01-0.79l0-0.1l-0.14,0l-0.03,0.03c-0.49,0.49-1.01,0.99-1.55,1.48l-0.03,0.03l0,0.04
		c-0.01,0.31-0.01,0.61-0.02,0.92c-0.01,0.35-0.04,0.7-0.06,1.05c-0.01,0.2-0.03,0.39-0.04,0.59c-0.02,0.35-0.06,0.7-0.1,1.04
		c-0.02,0.19-0.04,0.39-0.06,0.58c-0.17,1.31-0.34,2.3-0.54,3.22c-0.48,2.25-1.19,4.31-2.11,6.14c-0.57,1.17-1.28,2.27-2.11,3.29
		c-0.28,0.35-0.34,0.82-0.16,1.25l0.03,0.06h0.06l0.04,0L63.17,80c0.31-0.29,0.6-0.61,0.87-0.92c0.09-0.1,0.18-0.2,0.27-0.3
		C64.44,78.64,64.57,78.47,64.68,78.32z"/>
	<path class="st0" d="M83.87,55.69c0.02-0.14,0.03-0.28,0.04-0.43l0.04-0.65c0.01-0.12,0.01-0.25,0.02-0.37
		C83.99,53.93,84,53.61,84,53.3l0.02-1.31l-0.03-1.31c-0.01-0.46-0.04-0.96-0.08-1.54l-0.01-0.09l-0.11,0l-0.02,0.01
		c-0.16,0.09-0.33,0.15-0.5,0.17c-0.07,0.01-0.15,0.02-0.22,0.02c-0.08,0-0.17-0.01-0.26-0.02l-0.13-0.02l0.02,0.25
		c0.01,0.14,0.02,0.29,0.04,0.43c0.03,0.28,0.05,0.56,0.06,0.85c0.11,1.52,0.11,3.14,0.02,5.11c-0.08,1.72-0.29,3.43-0.62,5.07
		c-0.33,1.69-0.82,3.34-1.46,4.89c-0.33,0.8-0.71,1.58-1.12,2.3c-0.43,0.77-0.91,1.49-1.42,2.14l0.15,0.13
		c0.57-0.62,1.11-1.32,1.6-2.06c0.46-0.69,0.89-1.46,1.29-2.28c0.71-1.48,1.31-3.14,1.76-4.94c0.4-1.63,0.69-3.37,0.85-5.17
		C83.86,55.84,83.87,55.77,83.87,55.69z"/>
	<path class="st0" d="M74.94,65.67c0.24-1.12,0.38-2.26,0.49-3.22c0.04-0.35,0.07-0.71,0.09-1.05c0.01-0.19,0.03-0.38,0.05-0.57
		l0.02-0.32c0.02-0.44,0.04-0.87,0.06-1.31c0-0.19,0.01-0.38,0.01-0.57c0.01-0.35,0.01-0.7,0.01-1.06c0-0.19-0.01-0.38-0.01-0.57
		c0-0.35-0.01-0.7-0.03-1.05l-0.01-0.17c-0.02-0.48-0.04-0.97-0.09-1.45l-0.02-0.19c-0.04-0.47-0.07-0.95-0.13-1.42
		c-0.21-2.09-0.55-4.24-1-6.4c-0.86-4.1-2.15-8.25-3.84-12.34c-0.83-2-1.75-3.97-2.74-5.86c-1.08-2.04-2.15-3.87-3.28-5.58
		c-1.22-1.85-2.51-3.6-3.84-5.22c-0.67-0.82-1.39-1.64-2.14-2.44c-0.24-0.26-0.49-0.51-0.74-0.76c-0.13-0.13-0.27-0.27-0.4-0.4
		c-0.39-0.38-0.78-0.75-1.18-1.12c-1.75-1.59-3.44-2.9-5.15-3.98c-1.9-1.2-3.87-2.15-5.88-2.82c-2.08-0.7-4.24-1.06-6.41-1.07
		c-0.49,0-1,0.02-1.51,0.07l-0.05,0l-0.06,0.08l0.01,0.05c0.08,0.28,0.32,0.48,0.62,0.49c0.06,0,0.13,0,0.19,0
		c0.09,0,0.19,0.01,0.28,0.01c0.16,0,0.33,0.01,0.5,0.03c2.15,0.17,4.18,0.64,6.05,1.41c1.9,0.75,3.74,1.74,5.46,2.96
		c1.69,1.18,3.3,2.52,4.79,3.99c2.86,2.84,5.48,6.14,7.78,9.8c1.14,1.81,2.19,3.65,3.12,5.46c0.95,1.84,1.84,3.76,2.64,5.71
		c0.79,1.9,1.52,3.89,2.17,5.9c0.61,1.9,1.17,3.94,1.66,6.06c0.97,4.18,1.48,8.37,1.52,12.43c0.02,2.03-0.13,4.13-0.44,6.23
		c-0.33,2.19-0.85,4.22-1.56,6.03l-0.28,0.73l-0.48,1.07l-0.18,0.35c-0.04,0.08-0.09,0.17-0.13,0.25c-0.07,0.15-0.15,0.3-0.23,0.44
		c-0.47,0.87-1.04,1.71-1.73,2.59c-1.27,1.61-2.93,2.99-4.8,4l0.09,0.18c0.56-0.25,1.02-0.47,1.45-0.7
		c0.48-0.27,0.95-0.56,1.37-0.85c0.84-0.59,1.67-1.32,2.44-2.15c1.36-1.46,2.52-3.25,3.52-5.46C73.83,70.04,74.47,68,74.94,65.67z"
		/>
	<path class="st0" d="M80.05,61.04c0.26-1.83,0.39-3.78,0.4-5.97l0-0.21c0-0.42,0-0.86-0.02-1.29l0-0.08
		c-0.01-0.46-0.03-0.94-0.06-1.41c-0.03-0.6-0.07-1.06-0.11-1.49l-0.01-0.06c-0.04-0.47-0.09-0.95-0.15-1.43
		c-0.23-1.93-0.55-3.91-0.98-5.88c-0.83-3.8-2.02-7.63-3.53-11.38c-1.44-3.48-3.11-6.76-4.95-9.75l-0.03-0.05l-0.12,0l-0.03,0.05
		c-0.2,0.34-0.46,0.63-0.76,0.86c-0.12,0.09-0.25,0.17-0.42,0.26l-0.08,0.05l0.05,0.08c1.74,2.93,3.27,6.03,4.56,9.22
		c1.47,3.54,2.65,7.26,3.53,11.05c0.45,1.91,0.81,3.83,1.07,5.7c0.07,0.45,0.12,0.92,0.17,1.37l0.01,0.07
		c0.05,0.37,0.08,0.76,0.12,1.12l0.03,0.32c0.05,0.44,0.08,0.9,0.11,1.33l0.01,0.11c0.03,0.41,0.05,0.83,0.06,1.24l0.01,0.2
		c0.07,1.91,0.01,3.86-0.17,5.78c-0.18,1.95-0.54,3.86-1.06,5.67c-0.27,1.02-0.65,1.99-0.94,2.73c-0.06,0.14-0.12,0.28-0.19,0.43
		c-0.04,0.08-0.07,0.16-0.1,0.23c-0.03,0.07-0.07,0.15-0.1,0.22c-0.06,0.14-0.13,0.29-0.21,0.43c-0.06,0.12-0.12,0.24-0.19,0.36
		c-0.16,0.3-0.32,0.62-0.5,0.92c-0.04,0.07-0.09,0.15-0.13,0.22c-0.08,0.13-0.15,0.27-0.24,0.4l-0.41,0.61
		c-0.24,0.36-0.51,0.73-0.87,1.16c-0.57,0.69-1.23,1.36-2.02,2.04l-0.05,0.05l0.02,0.06l0.03,0.06h0.07l0.03,0l0.03-0.02
		c0.79-0.56,1.54-1.19,2.23-1.9c0.38-0.39,0.7-0.76,0.98-1.13l0.46-0.59c0.1-0.13,0.19-0.26,0.28-0.4c0.05-0.07,0.1-0.14,0.15-0.22
		c1.06-1.53,1.92-3.28,2.65-5.36C79.29,65.05,79.76,63.09,80.05,61.04z"/>
	<path class="st0" d="M54.9,4.65c0.27,0.1,0.55,0.23,0.81,0.34c0.12,0.05,0.24,0.11,0.36,0.16c0.11,0.05,0.22,0.11,0.33,0.16
		c0.27,0.13,0.55,0.26,0.81,0.41c0.66,0.34,1.35,0.75,2.2,1.29c1.47,0.96,2.84,2,4.07,3.09c1.39,1.23,2.58,2.4,3.65,3.58
		c0.19,0.2,0.37,0.41,0.55,0.62c0.1,0.11,0.2,0.23,0.3,0.34l0.42,0.48l0.4,0.5c0.1,0.13,0.21,0.26,0.32,0.39
		c0.16,0.2,0.33,0.4,0.49,0.6l0.78,1.01c1.13,1.53,2.06,2.91,2.87,4.23c1.83,2.95,3.4,6.01,4.69,9.09c0.25,0.57,0.49,1.16,0.71,1.74
		c0.08,0.21,0.17,0.42,0.25,0.63l0.44,1.2l0.22,0.6l0.2,0.61c0.6,1.76,1.08,3.55,1.43,4.91l0.24,0.99l0.01,0.09h0.09l0.03,0
		l0.02-0.01c0.17-0.1,0.35-0.16,0.53-0.19c0.07-0.01,0.13-0.02,0.2-0.02c0.12,0,0.25,0.02,0.39,0.05l0.01,0l0.06,0l0.06-0.08
		l-0.01-0.04c-0.08-0.38-0.16-0.75-0.25-1.12c-0.41-1.74-0.89-3.44-1.43-5.04l-0.2-0.62l-0.22-0.62l-0.44-1.23
		c-0.08-0.21-0.16-0.42-0.24-0.63c-0.23-0.59-0.47-1.21-0.72-1.8c-0.63-1.51-1.36-3.05-2.24-4.73l-0.61-1.16l-0.64-1.14
		c-0.17-0.3-0.35-0.61-0.53-0.9l-0.14-0.23c-0.07-0.11-0.13-0.22-0.2-0.33c-0.16-0.26-0.32-0.53-0.49-0.78
		c-0.85-1.34-1.84-2.74-3.02-4.28c-1.01-1.31-2.16-2.64-3.43-3.97c-2.62-2.71-5.37-4.91-8.16-6.55c-0.89-0.51-1.63-0.9-2.33-1.21
		c-0.28-0.14-0.58-0.26-0.86-0.38c-0.11-0.05-0.23-0.09-0.34-0.14l-0.21-0.08c-0.33-0.13-0.68-0.26-1.02-0.36
		c-1.69-0.57-3.41-0.89-5.13-0.95l-0.01,0.2c0.82,0.09,1.67,0.25,2.52,0.47C53.25,4.05,54.07,4.32,54.9,4.65z"/>
	<path class="st0" d="M87.38,39.82c-0.27-1.77-0.67-3.59-1.21-5.56c-0.5-1.77-1.12-3.58-1.85-5.38c-0.73-1.78-1.56-3.51-2.44-5.14
		c-0.99-1.79-1.98-3.37-3.02-4.82c-1.11-1.55-2.32-3.03-3.6-4.4c-1.45-1.52-2.82-2.77-4.2-3.82l-0.13,0.15
		c1.49,1.34,2.78,2.65,3.94,4.01c1.18,1.36,2.32,2.86,3.41,4.45c1.09,1.62,2.06,3.23,2.88,4.8c0.88,1.66,1.68,3.37,2.37,5.07
		c0.69,1.69,1.32,3.46,1.85,5.29c0.51,1.71,0.95,3.54,1.3,5.45c0.34,1.91,0.57,3.78,0.68,5.57c0.12,1.79,0.11,3.68-0.04,5.62
		l0.2,0.02C88.05,47.59,88,43.78,87.38,39.82z"/>
	<path class="st0" d="M53.07,42.34c-0.44-1.09-0.93-2.17-1.43-3.23l-0.03-0.06l-0.12,0l-0.03,0.05c-0.44,0.72-0.9,1.44-1.37,2.13
		l-0.04,0.05l0.02,0.05c0.29,0.66,0.56,1.28,0.81,1.89c0.12,0.3,0.24,0.6,0.36,0.9l0.02,0.05l0.05,0.02
		c0.89,0.29,1.78,0.6,2.64,0.94l0.02,0.01h0.02l0.06,0l0.06-0.09L54.08,45C53.75,44.1,53.41,43.2,53.07,42.34z"/>
	<path class="st0" d="M55.31,31.54l-0.03-0.05l-0.12,0l-0.02,0.06c-0.32,0.86-0.67,1.7-1.03,2.52l-0.01,0.04l0.02,0.04
		c1.01,1.87,1.93,3.8,2.74,5.74c0.86,2.02,1.63,4.12,2.29,6.26c0.17,0.53,0.33,1.08,0.49,1.64l0.01,0.04l0.03,0.02
		c0.86,0.48,1.72,1,2.56,1.55l0.02,0.01h0.03l0.05,0l0.06-0.08l-0.01-0.05c-0.8-3.43-1.93-6.9-3.37-10.31
		c-0.9-2.13-1.91-4.22-3.01-6.21C55.8,32.38,55.57,31.98,55.31,31.54z"/>
	<path class="st0" d="M66.67,17.73c-1.03,0.26-1.65,1.3-1.4,2.33c0.26,1.03,1.3,1.65,2.33,1.4c1.03-0.26,1.65-1.3,1.4-2.33
		C68.75,18.1,67.7,17.47,66.67,17.73z"/>
	<path class="st0" d="M63.27,35.03c-1.32,0.33-2.12,1.67-1.79,3s1.67,2.12,3,1.79c1.32-0.33,2.12-1.67,1.79-3
		S64.59,34.7,63.27,35.03z"/>
	<path class="st0" d="M82.31,43.52c-0.9,0.23-1.45,1.14-1.23,2.05c0.23,0.9,1.14,1.45,2.05,1.23s1.45-1.14,1.23-2.05
		S83.22,43.29,82.31,43.52z"/>
	<path class="st0" d="M63.67,69.47c-0.46-1.82-2.31-2.93-4.13-2.47s-2.93,2.31-2.47,4.13c0.46,1.82,2.31,2.93,4.13,2.47
		C63.03,73.14,64.13,71.29,63.67,69.47z"/>
	<path class="st0" d="M38.33,15.4c-0.17,1.14,0.63,2.2,1.77,2.37c1.14,0.17,2.2-0.63,2.37-1.77c0.17-1.14-0.63-2.2-1.77-2.37
		C39.56,13.47,38.5,14.26,38.33,15.4z"/>
	<path class="st0" d="M51.69,68.41c6.05-2.18,11.45-5.61,16.04-10.21L68,57.92l-0.28-0.28c-6.78-6.77-15.33-11.02-24.76-12.34
		c6.62-6.86,10.72-15.48,11.88-24.98l0.05-0.39l-0.39-0.05c-1.77-0.22-3.57-0.33-5.35-0.33c-4.63,0-9.19,0.73-13.58,2.18
		c0.69-6.4-0.03-12.75-2.15-18.89l-0.13-0.37L32.93,2.6C10.18,10.45-1.94,35.34,5.91,58.09c6.07,17.6,22.65,29.42,41.26,29.42
		c4.83,0,9.62-0.81,14.23-2.4l0.37-0.13l-0.13-0.37C59.53,78.47,56.18,73.02,51.69,68.41z M15.17,68.24
		c-1.22-1.6-2.32-3.29-3.28-5.06C19.22,68.3,27.81,71,36.85,71c3.76,0,7.5-0.48,11.13-1.44c1.6,1.5,3.08,3.15,4.42,4.9
		c1.95,2.56,3.58,5.35,4.87,8.32c-3.3,0.86-6.7,1.3-10.09,1.3c-4.12,0-8.22-0.64-12.17-1.89c-3.91-1.25-7.59-3.07-10.94-5.42
		C20.66,74.39,17.67,71.52,15.17,68.24z M45.54,66.64c-2.83,0.62-5.76,0.94-8.69,0.94c-5.22,0-10.31-0.99-15.12-2.94
		c-3.55-1.44-6.87-3.38-9.86-5.76c-0.36-0.29-0.73-0.59-1.11-0.91c0,0-0.01-0.01-0.01-0.01c0.49-0.42,1-0.84,1.52-1.24
		c0.35-0.27,0.7-0.53,1.04-0.78c2.6-1.89,5.44-3.46,8.43-4.68c4.34-1.76,8.91-2.74,13.59-2.92c0.5-0.02,1.02-0.03,1.56-0.03h0
		c0.87,0,1.75,0.03,2.6,0.08c4.31,0.27,8.52,1.23,12.52,2.86c4,1.62,7.7,3.87,10.98,6.68c-3.29,2.82-6.99,5.07-11,6.7
		c-1.09,0.44-2.21,0.84-3.35,1.19C47.62,66.13,46.57,66.41,45.54,66.64z M46.98,34.03c-2.2,4.1-5.07,7.76-8.54,10.88
		c-0.5-0.02-1.02-0.03-1.56-0.03c-4.85,0-9.63,0.8-14.2,2.37c-4.59,1.57-8.84,3.88-12.65,6.87c0.02-0.11,0.05-0.21,0.07-0.32
		c0.8-3.34,2.02-6.56,3.65-9.59c2.27-4.24,5.26-8,8.89-11.19c2.78-2.44,5.87-4.49,9.19-6.08c0.96-0.46,1.95-0.89,2.95-1.27
		c4.61-1.77,9.44-2.67,14.37-2.67h0c0.59,0,1.19,0.01,1.78,0.04C50.17,26.88,48.84,30.58,46.98,34.03z M20.29,13.93
		c3.21-2.89,6.85-5.23,10.82-6.95c1.09,4.19,1.5,8.49,1.2,12.81c-0.08,1.12-0.2,2.23-0.37,3.33c-5.94,2.57-11.33,6.49-15.6,11.37
		c-4.03,4.61-7.08,10.09-8.87,15.93c-0.51-3.05-0.66-6.16-0.45-9.27c0.35-5.19,1.69-10.2,3.98-14.9
		C13.3,21.55,16.42,17.41,20.29,13.93z"/>
</g>
</svg>
