<?xml version="1.0" encoding="utf-8"?>
<!-- Generator: Adobe Illustrator 28.1.0, SVG Export Plug-In . SVG Version: 6.00 Build 0)  -->
<svg version="1.1" id="Livello_2" xmlns="http://www.w3.org/2000/svg" xmlns:xlink="http://www.w3.org/1999/xlink" x="0px" y="0px"
	 viewBox="0 0 90.71 90.71" style="enable-background:new 0 0 90.71 90.71;" xml:space="preserve">
<style type="text/css">
	.st0{fill:url(#SVGID_1_);}
	.st1{fill:#1F9BC2;}
	.st2{fill:#0095C8;}
	.st3{fill:#3AA3DC;}
	.st4{fill:#76CAE8;}
	.st5{fill:#1D6B9B;}
	.st6{fill:#FFFFFF;}
	.st7{opacity:0.9;fill:#76CAE8;}
	.st8{opacity:0.9;fill:#46C0EC;}
	.st9{opacity:0.9;fill:#2FA8E0;}
	.st10{opacity:0.95;fill:#236B8D;}
</style>
<g>
	<linearGradient id="SVGID_1_" gradientUnits="userSpaceOnUse" x1="41.6604" y1="71.3657" x2="71.4119" y2="10.2683">
		<stop  offset="0" style="stop-color:#8DBF33"/>
		<stop  offset="0.2358" style="stop-color:#79B635"/>
		<stop  offset="0.6962" style="stop-color:#3EA138"/>
		<stop  offset="0.8853" style="stop-color:#049839"/>
		<stop  offset="1" style="stop-color:#009739"/>
	</linearGradient>
	<path class="st0" d="M63.95,16.09c-0.88-1.07-1.79-2.1-2.75-3.1c-1.36-1.4-2.82-2.7-4.37-3.88c-1.55-1.18-3.2-2.23-4.95-3.09
		c-3.49-1.75-7.42-2.65-11.39-2.5c0.49-0.05,0.99-0.12,1.48-0.14l0.75-0.03l0.37-0.01c0.12,0,0.25,0,0.37,0.01
		c0.5,0.01,1,0.02,1.5,0.07l0.75,0.06l0.74,0.11c0.99,0.13,1.97,0.38,2.94,0.65c0.48,0.14,0.96,0.31,1.44,0.46
		c0.47,0.18,0.94,0.35,1.41,0.55c1.85,0.8,3.61,1.8,5.27,2.94c1.66,1.14,3.2,2.45,4.66,3.84c1.12,1.08,2.18,2.21,3.19,3.4
		c-0.46,0.09-0.9,0.28-1.28,0.57C64.02,16.02,63.99,16.06,63.95,16.09z M80.15,53.98c-0.02-0.5-0.03-1-0.07-1.51
		c-0.03-0.5-0.06-1-0.12-1.5c-0.05-0.5-0.09-1-0.16-1.5c-0.23-1.99-0.57-3.98-0.98-5.94c-0.85-3.92-2.06-7.76-3.57-11.48
		c-1.41-3.4-3.06-6.7-5-9.84c-0.2,0.35-0.47,0.65-0.8,0.9c-0.14,0.11-0.29,0.19-0.44,0.27c1.77,2.99,3.31,6.11,4.61,9.33
		c1.5,3.62,2.69,7.37,3.57,11.18c0.45,1.91,0.81,3.83,1.08,5.77c0.07,0.48,0.13,0.97,0.18,1.46c0.06,0.49,0.1,0.97,0.15,1.46
		c0.05,0.49,0.08,0.97,0.11,1.46c0.04,0.49,0.05,0.98,0.07,1.46c0.07,1.95,0.01,3.91-0.17,5.85c-0.18,1.94-0.54,3.87-1.07,5.75
		c-0.25,0.94-0.59,1.86-0.95,2.77c-0.09,0.23-0.2,0.45-0.3,0.67C76.2,70.77,76.11,71,76,71.22c-0.23,0.43-0.44,0.88-0.7,1.29
		c-0.13,0.21-0.24,0.43-0.38,0.63l-0.41,0.61c-0.27,0.41-0.57,0.8-0.88,1.18c-0.62,0.76-1.33,1.46-2.08,2.1
		c0.81-0.57,1.58-1.21,2.28-1.93c0.35-0.36,0.68-0.74,0.98-1.13l0.46-0.59c0.15-0.2,0.29-0.41,0.43-0.62c1.14-1.65,2-3.49,2.67-5.39
		c0.65-1.9,1.11-3.88,1.39-5.87c0.29-1.99,0.4-4.01,0.4-6.02C80.17,54.99,80.17,54.49,80.15,53.98z M83.68,49.5
		c-0.17,0.09-0.35,0.16-0.54,0.19c-0.17,0.03-0.34,0.02-0.51-0.01c0,0.04,0.01,0.09,0.01,0.13c0.03,0.43,0.09,0.86,0.1,1.29
		c0.12,1.72,0.1,3.45,0.02,5.17c-0.08,1.72-0.29,3.44-0.63,5.14c-0.33,1.69-0.82,3.36-1.48,4.96c-0.33,0.8-0.71,1.58-1.14,2.33
		c-0.43,0.76-0.9,1.49-1.44,2.17c0.59-0.65,1.12-1.34,1.61-2.07c0.48-0.73,0.91-1.5,1.3-2.29c0.77-1.58,1.34-3.26,1.77-4.97
		c0.42-1.71,0.7-3.46,0.86-5.21c0.02-0.22,0.05-0.44,0.06-0.66l0.04-0.66c0.02-0.44,0.06-0.88,0.05-1.32l0.02-1.32l-0.03-1.32
		C83.74,50.53,83.71,50.01,83.68,49.5z M79.24,34.69l0.22,0.61l0.2,0.61c0.56,1.63,1.02,3.3,1.45,4.97l0.25,1.01
		c0.18-0.1,0.37-0.17,0.57-0.21c0.21-0.03,0.43-0.02,0.64,0.04c-0.08-0.38-0.16-0.76-0.25-1.14c-0.41-1.71-0.88-3.41-1.44-5.08
		l-0.2-0.63l-0.22-0.62l-0.45-1.24c-0.32-0.82-0.63-1.65-0.98-2.45c-0.68-1.62-1.44-3.21-2.26-4.78l-0.62-1.17l-0.65-1.15
		c-0.21-0.39-0.45-0.76-0.67-1.14c-0.23-0.38-0.45-0.76-0.7-1.12c-0.95-1.49-1.97-2.92-3.05-4.32c-1.08-1.4-2.24-2.72-3.46-4
		c-2.45-2.53-5.18-4.82-8.23-6.6c-0.77-0.44-1.54-0.86-2.35-1.22c-0.4-0.19-0.81-0.35-1.21-0.53c-0.41-0.16-0.82-0.32-1.24-0.45
		c-1.67-0.56-3.41-0.89-5.16-0.95c0.87,0.1,1.72,0.26,2.56,0.48c0.84,0.21,1.66,0.49,2.47,0.81c0.4,0.15,0.8,0.34,1.19,0.51
		c0.39,0.19,0.78,0.37,1.16,0.58c0.77,0.4,1.51,0.85,2.23,1.31c1.45,0.94,2.83,1.98,4.12,3.13c1.29,1.14,2.54,2.34,3.7,3.62
		c0.29,0.32,0.57,0.65,0.85,0.97l0.42,0.49l0.41,0.5c0.27,0.34,0.55,0.66,0.81,1.01l0.79,1.03c1.02,1.39,2.01,2.81,2.91,4.28
		c1.82,2.94,3.41,6.01,4.74,9.2c0.35,0.79,0.65,1.6,0.97,2.4L79.24,34.69z M83.96,61.33c0.28-0.67,0.52-1.36,0.74-2.05
		c0.43-1.39,0.75-2.82,0.95-4.26c0.23-1.44,0.32-2.9,0.38-4.35l0.02-1.09c0-0.36-0.02-0.73-0.02-1.09l-0.01-0.55
		c-0.01-0.18-0.02-0.36-0.03-0.55l-0.07-1.09c-0.47-5.82-1.98-11.53-4.24-16.9c-2.27-5.37-5.32-10.43-9.16-14.82
		c-1.94-2.18-4.07-4.19-6.44-5.89c-1.19-0.84-2.43-1.61-3.73-2.27c-0.65-0.33-1.31-0.63-1.99-0.9c-0.68-0.26-1.37-0.49-2.07-0.68
		c2.74,0.94,5.26,2.42,7.52,4.19c0.57,0.44,1.12,0.91,1.66,1.37c0.27,0.23,0.53,0.48,0.8,0.72c0.27,0.24,0.53,0.49,0.78,0.74
		l0.77,0.76l0.74,0.78l0.37,0.39l0.36,0.41c0.24,0.27,0.48,0.54,0.71,0.81c1.83,2.21,3.52,4.55,4.98,7.03l0.55,0.93l0.53,0.94
		l0.26,0.47l0.25,0.48l0.5,0.96c0.64,1.29,1.26,2.59,1.81,3.91c0.57,1.32,1.07,2.67,1.55,4.02c0.22,0.68,0.46,1.36,0.66,2.05
		l0.31,1.03l0.28,1.04c0.76,2.77,1.26,5.61,1.57,8.47c0.27,2.86,0.32,5.75-0.01,8.61c-0.28,2.86-0.99,5.7-2.22,8.32
		C83.36,62.65,83.68,62,83.96,61.33z M87.17,40.09c-0.29-1.89-0.71-3.76-1.22-5.61c-0.52-1.84-1.15-3.65-1.87-5.43
		c-0.73-1.77-1.55-3.5-2.46-5.18c-0.92-1.68-1.93-3.31-3.05-4.86c-1.11-1.56-2.32-3.04-3.63-4.43c-1.32-1.38-2.72-2.69-4.23-3.85
		c1.42,1.27,2.76,2.62,3.99,4.06c1.24,1.43,2.39,2.94,3.45,4.51c1.06,1.57,2.04,3.19,2.92,4.86c0.89,1.67,1.69,3.38,2.4,5.14
		c0.72,1.75,1.34,3.54,1.88,5.35c0.54,1.81,0.97,3.66,1.32,5.52c0.34,1.86,0.58,3.74,0.69,5.64c0.13,1.89,0.1,3.79-0.04,5.69
		C87.88,47.73,87.77,43.86,87.17,40.09z M50.48,43.48c0.12,0.3,0.25,0.61,0.36,0.92c0.9,0.29,1.8,0.61,2.68,0.95
		c-0.32-0.91-0.66-1.8-1.02-2.69c-0.45-1.1-0.93-2.19-1.44-3.26c-0.44,0.73-0.91,1.46-1.4,2.17C49.95,42.2,50.22,42.84,50.48,43.48z
		 M43.23,10.58c-1.84-1.04-3.79-1.9-5.82-2.49c0.07,0.37,0.14,0.73,0.2,1.1c1.74,0.64,3.4,1.48,4.98,2.47
		c0.93,0.59,1.84,1.21,2.72,1.89c0.22,0.16,0.43,0.34,0.65,0.51c0.22,0.17,0.43,0.35,0.64,0.53l0.63,0.54l0.32,0.27l0.3,0.28
		l0.61,0.56c0.1,0.09,0.19,0.18,0.29,0.27c0.78,0,1.55,0.02,2.33,0.06c-0.73-0.7-1.47-1.38-2.25-2.03
		C47.08,13.07,45.23,11.7,43.23,10.58z M62.63,32.65c-1.38-2.75-2.93-5.4-4.68-7.93c-0.29-0.42-0.59-0.83-0.89-1.25
		c-0.15,0.82-0.32,1.63-0.5,2.44c1.19,1.79,2.31,3.63,3.33,5.53c0.34,0.62,0.66,1.25,0.97,1.89c0.43-0.27,0.91-0.47,1.43-0.6
		C62.4,32.7,62.51,32.67,62.63,32.65z M64.69,42.59c0.12,0.37,0.25,0.73,0.36,1.1c0.67,2.12,1.22,4.27,1.68,6.43
		c0.26,1.23,0.49,2.48,0.67,3.73c0.66,0.59,1.31,1.19,1.95,1.82c-0.18-1.98-0.47-3.95-0.85-5.91c-0.43-2.24-1.01-4.45-1.67-6.63
		c-0.14-0.44-0.28-0.87-0.43-1.31c-0.49,0.34-1.05,0.61-1.67,0.76C64.73,42.58,64.71,42.58,64.69,42.59z M68,62.38
		c-0.01,0.31-0.01,0.62-0.02,0.93c-0.02,0.55-0.07,1.1-0.1,1.65c-0.04,0.55-0.11,1.1-0.17,1.65c-0.15,1.09-0.31,2.19-0.55,3.26
		c-0.46,2.16-1.15,4.26-2.14,6.23c-0.68,1.39-1.55,2.69-2.58,3.85c0.1,0.21,0.2,0.43,0.29,0.65c0.42-0.38,0.77-0.81,1.14-1.23
		c0.2-0.21,0.36-0.45,0.53-0.68l0.52-0.69l0.47-0.73c0.15-0.24,0.32-0.48,0.45-0.74c1.13-2,1.95-4.17,2.53-6.39
		c0.58-2.22,0.92-4.49,1.08-6.78c0.03-0.57,0.07-1.14,0.09-1.71l0.01-0.81C69.05,61.39,68.53,61.89,68,62.38z M54.78,31.75
		c-0.32,0.86-0.67,1.71-1.05,2.54c1.02,1.89,1.94,3.83,2.78,5.81c0.88,2.07,1.65,4.19,2.32,6.33c0.17,0.55,0.34,1.1,0.49,1.66
		c0.88,0.49,1.75,1.02,2.6,1.57c-0.83-3.56-1.98-7.04-3.4-10.41c-0.91-2.14-1.92-4.23-3.04-6.27
		C55.25,32.57,55.01,32.16,54.78,31.75z M75.29,56.39c-0.02-0.54-0.05-1.09-0.09-1.63c-0.04-0.54-0.08-1.09-0.14-1.63
		c-0.22-2.17-0.57-4.32-1.01-6.46c-0.9-4.26-2.22-8.43-3.87-12.46c-0.84-2.01-1.76-3.98-2.76-5.91c-1.02-1.93-2.11-3.81-3.31-5.63
		c-1.2-1.82-2.49-3.58-3.88-5.26c-0.69-0.84-1.41-1.66-2.16-2.46c-0.37-0.4-0.77-0.78-1.15-1.17c-0.39-0.38-0.79-0.76-1.19-1.13
		c-1.62-1.47-3.34-2.84-5.19-4.01c-1.85-1.17-3.84-2.15-5.92-2.84c-2.08-0.7-4.27-1.06-6.45-1.07c-0.51,0-1.02,0.02-1.53,0.07
		c0.04,0.14,0.07,0.28,0.11,0.41c0.2,0,0.41,0.01,0.61,0.02c0.27,0.01,0.53,0.01,0.79,0.03c2.11,0.17,4.19,0.63,6.15,1.43
		c1.96,0.77,3.82,1.79,5.54,3c1.73,1.21,3.35,2.57,4.86,4.05c3,2.98,5.62,6.33,7.88,9.92c1.13,1.79,2.19,3.63,3.15,5.52
		c0.97,1.88,1.86,3.81,2.67,5.77c0.82,1.96,1.54,3.95,2.19,5.97c0.65,2.02,1.21,4.07,1.68,6.13c0.95,4.13,1.5,8.36,1.54,12.59
		c0.02,2.12-0.14,4.23-0.45,6.32c-0.31,2.09-0.82,4.15-1.58,6.11l-0.29,0.74l-0.32,0.72l-0.16,0.36l-0.18,0.35
		c-0.12,0.23-0.23,0.47-0.37,0.7c-0.51,0.93-1.1,1.8-1.76,2.63c-1.31,1.66-2.99,3.04-4.88,4.07c0.49-0.22,0.98-0.45,1.45-0.71
		c0.47-0.26,0.93-0.55,1.38-0.86c0.89-0.62,1.7-1.36,2.45-2.16c1.49-1.6,2.64-3.5,3.54-5.49c0.91-2,1.52-4.11,1.95-6.26
		c0.23-1.07,0.37-2.16,0.49-3.24c0.06-0.54,0.09-1.09,0.14-1.63c0.03-0.55,0.06-1.09,0.08-1.64c0.01-0.55,0.03-1.09,0.02-1.64
		C75.31,57.48,75.32,56.93,75.29,56.39z"/>
	<circle id="SAT_02_00000179630537385159031710000008971052696571825066_" class="st1" cx="66.82" cy="19.63" r="2.18"/>
	<circle id="SAT_03_00000178203751150476957050000001110996608358028696_" class="st2" cx="63.52" cy="37.65" r="3.07"/>
	<circle id="SAT_04_00000093858878442603344490000003773933389883281573_" class="st3" cx="82.14" cy="45.47" r="1.98"/>
	<circle id="SAT_05_00000181785651605684163460000010775250528202422163_" class="st4" cx="59.98" cy="70.88" r="4"/>
	<circle id="SAT_01_00000165197729815414177380000009865170676190094743_" class="st5" cx="39.8" cy="15.7" r="2.11"/>
	<circle class="st5" cx="39.8" cy="15.7" r="2.11"/>
	<path class="st6" d="M50.47,68.81c6.09-2.1,11.8-5.57,16.66-10.43c-7.18-7.17-16.24-11.32-25.59-12.46
		C48.2,39.25,52.77,30.4,54,20.32c-6.82-0.83-13.46-0.05-19.55,2.06c0.78-6.39,0.16-13.05-2.08-19.54
		C9.56,10.71-2.56,35.59,5.32,58.41c7.87,22.82,32.76,34.93,55.58,27.06C58.65,78.98,55.03,73.35,50.47,68.81z"/>
	<path id="PETALO_01_00000062161068528040357720000003394276174112972462_" class="st6" d="M32.38,2.83
		c7.87,22.82-4.24,47.7-27.06,55.58C-2.56,35.59,9.56,10.71,32.38,2.83z"/>
	<path id="PETALO_02_00000167381886705369446440000014317386672690466442_" class="st6" d="M5.32,58.41
		C8.24,34.45,30.04,17.4,54,20.32C51.08,44.28,29.27,61.34,5.32,58.41z"/>
	<path id="PETALO_03_00000174578097278554498230000007657428566897131177_" class="st6" d="M5.32,58.41
		c17.06-17.08,44.74-17.1,61.81-0.04C50.07,75.45,22.39,75.47,5.32,58.41z"/>
	<path id="PETALO_04_00000124878420646977856800000001782271957491586475_" class="st6" d="M60.89,85.47
		c-22.82,7.87-47.7-4.25-55.58-27.06C28.14,50.53,53.02,62.66,60.89,85.47z"/>
	<path id="PETALO_01_00000091014847796517494990000001090266481571717762_" class="st7" d="M32.38,2.83
		c7.87,22.82-4.24,47.7-27.06,55.58C-2.56,35.59,9.56,10.71,32.38,2.83z"/>
	<path id="PETALO_02_00000175288470617367500480000017227530912717180335_" class="st8" d="M5.32,58.41
		C8.24,34.45,30.04,17.4,54,20.32C51.08,44.28,29.27,61.34,5.32,58.41z"/>
	<path id="PETALO_03_00000030471907496206708740000007042568986566685600_" class="st9" d="M5.32,58.41
		c17.06-17.08,44.74-17.1,61.81-0.04C50.07,75.45,22.39,75.47,5.32,58.41z"/>
	<path id="PETALO_04_00000137104981763232006600000002712428542251747471_" class="st10" d="M60.89,85.47
		c-22.82,7.87-47.7-4.25-55.58-27.06C28.14,50.53,53.02,62.66,60.89,85.47z"/>
</g>
</svg>
