<?xml version="1.0" encoding="utf-8"?>
<!-- Generator: Adobe Illustrator 28.1.0, SVG Export Plug-In . SVG Version: 6.00 Build 0)  -->
<svg version="1.1" xmlns="http://www.w3.org/2000/svg" xmlns:xlink="http://www.w3.org/1999/xlink" x="0px" y="0px"
	 viewBox="0 0 355 100" style="enable-background:new 0 0 355 100;" xml:space="preserve">
<style type="text/css">
	.st0{fill:#7BB929;}
	.st1{fill:#FFFFFF;}
	.st2{opacity:0.3;fill:#7BB929;}
	
		.st3{clip-path:url(#SVGID_00000132776478649314790940000008150109733348177807_);fill:url(#SVGID_00000181769596823856551020000002833138549651216272_);}
	.st4{opacity:0.8;fill:#7BB929;}
	.st5{opacity:0.6;fill:#7BB929;}
	.st6{fill:#8CC3D3;}
	.st7{clip-path:url(#SVGID_00000052089515447258059390000010427156182793406372_);fill:#FFFFFF;}
	.st8{opacity:0.66;}
	.st9{opacity:0.66;fill:#FFFFFF;}
	.st10{opacity:0.1;}
</style>
<g id="Livello_3">
	<g>
		<path class="st0" d="M132.9,53.27h-9.26l-3.73,10.25h-1.61l9.97-27.38l9.95,27.38h-1.59L132.9,53.27z M132.35,51.77l-4.08-11.22
			l-4.08,11.22H132.35z"/>
		<path class="st0" d="M148.07,54.23c-0.14,0.01-0.29,0.02-0.45,0.02h-4.55v9.28h-1.5V36.77h7.02c2.04,0.28,3.77,1.13,5.2,2.56
			c1.71,1.71,2.56,3.76,2.56,6.17c0,2.42-0.85,4.48-2.56,6.19c-1.18,1.18-2.54,1.96-4.06,2.32l6.17,9.52h-1.86L148.07,54.23z
			 M143.07,38.29v14.43h4.55c1.98,0,3.68-0.7,5.09-2.12c1.41-1.41,2.12-3.11,2.12-5.11c0-2-0.71-3.7-2.12-5.1
			c-1.41-1.4-3.11-2.11-5.09-2.11H143.07z"/>
		<path class="st0" d="M173.16,36.77v1.5h-11.87v11.12h11.87v1.5h-11.87v11.12h11.87v1.5h-13.38V36.77H173.16z"/>
		<path class="st0" d="M177.75,36.77h1.66l13.75,23.8v-23.8h1.5v26.76h-1.5l-13.9-24.03v24.03h-1.5V36.77z"/>
		<path class="st0" d="M212.61,53.27h-9.26l-3.73,10.25h-1.61l9.97-27.38l9.95,27.38h-1.59L212.61,53.27z M212.05,51.77l-4.08-11.22
			l-4.08,11.22H212.05z"/>
		<path class="st0" d="M234.83,36.77l10.05,17.39l10.03-17.39h1.72l-0.07,0.12v26.64h-1.5V39.49l-10.18,17.63l-10.2-17.63v24.03
			h-1.5V36.88l-0.07-0.12H234.83z"/>
		<path class="st0" d="M284.68,40.4c2.68,2.68,4.02,5.92,4.02,9.71s-1.34,7.03-4.02,9.71c-2.68,2.68-5.92,4.02-9.71,4.02
			s-7.03-1.34-9.71-4.02c-2.68-2.68-4.02-5.92-4.02-9.71s1.34-7.03,4.02-9.71c2.68-2.68,5.92-4.02,9.71-4.02S282,37.72,284.68,40.4z
			 M274.97,37.92c-3.37,0-6.24,1.19-8.62,3.57c-2.38,2.38-3.57,5.25-3.57,8.62s1.19,6.24,3.57,8.63c2.38,2.39,5.25,3.58,8.62,3.58
			s6.24-1.19,8.62-3.58c2.38-2.39,3.57-5.26,3.57-8.63s-1.19-6.24-3.57-8.62C281.21,39.11,278.34,37.92,274.97,37.92z"/>
		<path class="st0" d="M298.05,36.77c1.37,0,2.54,0.48,3.52,1.46c0.98,0.97,1.46,2.14,1.46,3.51c0,1.38-0.71,2.67-2.12,3.86
			c1.25,0.26,2.42,0.99,3.53,2.21c1.78,1.8,2.68,3.96,2.68,6.51c0,2.53-0.89,4.72-2.68,6.57c-1.66,1.72-3.65,2.59-5.95,2.63v0.02
			h-5.18V36.77H298.05z M294.8,38.27v6.84h3.63c0.84-0.08,1.55-0.39,2.14-0.94c0.68-0.62,1.02-1.44,1.02-2.44s-0.34-1.83-1.02-2.48
			s-1.52-0.98-2.53-0.98H294.8z M294.8,46.72v15.3h3.68v0.02c1.86-0.12,3.47-0.89,4.82-2.29c1.48-1.53,2.22-3.34,2.22-5.44
			c0-2.1-0.74-3.89-2.22-5.37c-1.48-1.48-3.27-2.22-5.37-2.22H294.8z"/>
		<path class="st0" d="M312.96,36.77v26.76h-1.5V36.77H312.96z"/>
		<path class="st0" d="M318.32,63.52V36.77h1.5v25.25h10.37v1.5H318.32z"/>
		<path class="st0" d="M347.58,36.77v1.5h-11.87v11.12h11.87v1.5h-11.87v11.12h11.87v1.5H334.2V36.77H347.58z"/>
	</g>
</g>
<g id="Livello_6">
	<g>
		<g>
			<path class="st1" d="M94.15,48.57c0,23.82-19.32,43.13-43.15,43.13c-23.83,0-43.15-19.31-43.15-43.13
				c0-23.82,19.32-43.13,43.15-43.13C74.84,5.44,94.15,24.75,94.15,48.57"/>
			<g>
				<path class="st1" d="M67.28,74.22c0-0.03-0.01-0.06-0.02-0.09c0.02-0.25,0.02-0.49-0.02-0.74c-0.04-0.3-0.08-0.59-0.13-0.89
					c0.01-0.23,0.01-0.45-0.02-0.68c-2.3-17.1-5.09-34.54-8.29-51.82c-0.05-0.29-0.15-0.56-0.27-0.82
					c-0.33-1.28-1.32-2.38-2.31-2.46c-6.46-0.54-12.95-0.11-19.47,1.33c-0.23,0.05-0.44,0.16-0.63,0.31c-0.01,0-0.02,0-0.02,0.01
					c-1.1,0.24-3.23,2.39-3.03,3.86c2.55,19,5.56,37.98,9.1,56.85c0.27,1.46,1.42,2.63,2.55,2.57c6.69-0.37,13.04-1.7,19.04-3.97
					C66.7,76.55,67.47,75.63,67.28,74.22"/>
				<path class="st2" d="M67.28,74.22l-0.02-0.09c-0.01-0.27-0.01-0.55-0.03-0.82l-0.12-0.81c0.01-0.56-0.08-1.12-0.17-1.68
					l-0.25-1.67l-0.53-3.34c-0.35-2.22-0.72-4.45-1.11-6.66L63.9,52.5c-0.39-2.22-0.82-4.43-1.24-6.64
					c-0.93-4.41-1.92-8.81-2.89-13.2l-1.46-6.59l-0.73-3.29l-0.35-1.65l-0.09-0.41l-0.04-0.21l-0.02-0.1l-0.01-0.05l-0.01-0.03
					c-0.04-0.19,0.06,0.24,0.05,0.19l-0.01-0.01l-0.29-0.79l-0.02-0.09c-0.09-0.25-0.23-0.49-0.39-0.69
					c-0.16-0.19-0.36-0.31-0.39-0.3c-0.01,0-0.01,0,0.02,0.02c0.01,0.01,0.03,0.01,0.04,0h0.01c0.16,0.01,0.04,0,0.07,0h-0.01h-0.01
					h-0.05h-0.09l-0.75-0.01l-1.49-0.01l-1.49-0.02c-0.5-0.01-1-0.03-1.46,0.01l-2.83,0.17c-0.47,0.03-0.94,0.04-1.41,0.09
					l-1.43,0.19l-2.85,0.38c-0.48,0.05-0.94,0.17-1.41,0.26l-1.41,0.28l-1.41,0.28l-0.7,0.14l-0.02,0l-0.01,0
					c-0.07,0.02,0.55-0.16,0.29-0.08l-0.01,0l-0.04,0.02l-0.09,0.03l-0.17,0.07c0.07,0,0.25-0.07,0.33-0.15l-0.94,0.43l-0.02,0
					c0.36-0.09,0.09-0.02,0.16-0.04l-0.04,0.01l-0.08,0.03c-0.02,0.01-0.08,0.03-0.06,0.02l0.07-0.01c0.04-0.01,0.11-0.05,0.1-0.04
					l-0.04,0.03c-0.06,0.04-0.17,0.12-0.28,0.2c-0.21,0.18-0.44,0.42-0.61,0.64c-0.17,0.22-0.3,0.46-0.32,0.54c0,0.01,0,0.01,0,0.01
					c0.02-0.04,0-0.04,0.01-0.12c0-0.04,0-0.07-0.01-0.11l0-0.01c-0.01-0.07,0-0.01,0-0.02l0.01,0.05l0.01,0.09l0.05,0.35l0.81,5.66
					l0.76,5.67c0.26,1.89,0.46,3.79,0.7,5.68l0.68,5.68l0.62,5.69c0.51,3.77,0.99,7.55,1.45,11.33l1.42,11.35
					c0.23,1.87,0.49,3.83,0.75,5.63l0.08,0.35c0.03,0.1,0.07,0.17,0.1,0.26c0.04,0.17,0.17,0.35,0.26,0.53
					c0.23,0.32,0.51,0.62,0.83,0.8c0.34,0.17,0.61,0.18,1.15,0.14l1.43-0.08l2.86-0.19l2.82-0.39c1.89-0.21,3.74-0.65,5.6-1.08
					c0.46-0.11,0.93-0.21,1.39-0.34l1.36-0.43l2.72-0.87c0.9-0.31,1.8-0.66,2.6-1.18c0.41-0.25,0.76-0.58,1.03-0.97
					C67.28,75.19,67.33,74.7,67.28,74.22 M67.28,74.22c0.05,0.47,0,0.97-0.24,1.39c-0.26,0.4-0.62,0.73-1.03,0.98
					c-0.8,0.53-1.69,0.89-2.59,1.21l-2.71,0.94l-1.36,0.47c-0.45,0.14-0.92,0.25-1.38,0.38l-2.77,0.76
					c-0.92,0.29-1.87,0.4-2.81,0.61c-0.94,0.18-1.89,0.38-2.83,0.54l-2.84,0.34l-1.42,0.19c-0.4,0.08-1.12,0.14-1.66-0.12
					c-0.54-0.24-0.96-0.63-1.31-1.06c-0.15-0.23-0.32-0.44-0.44-0.72c-0.06-0.13-0.13-0.28-0.18-0.4l-0.1-0.34l-1.24-5.64
					l-2.49-11.2c-0.84-3.74-1.67-7.48-2.46-11.23c-0.74-3.75-1.39-7.51-2.03-11.27c-0.32-1.88-0.67-3.76-0.96-5.64l-0.9-5.65
					l-0.85-5.66l-0.05-0.35l-0.03-0.25c-0.01-0.16-0.02-0.31-0.02-0.47c-0.01-0.32,0.04-0.56,0.08-0.83
					c0.05-0.24,0.12-0.47,0.19-0.68c0.3-0.82,0.69-1.4,1.09-1.93c0.41-0.53,0.85-0.98,1.38-1.41c0.27-0.22,0.54-0.42,0.89-0.63
					l0.27-0.15c0.1-0.06,0.28-0.14,0.42-0.19l0.23-0.09l0.11-0.04l0.09-0.02l0.04-0.01l0.2-0.06l0.02,0l-0.94,0.43
					c0.3-0.21,0.68-0.42,0.97-0.54l0.17-0.06l0.09-0.03l0.04-0.02l0.31-0.09l0.01,0l0.02,0l0.76-0.13l1.52-0.26L40.09,15
					c0.51-0.08,1.01-0.2,1.53-0.24l3.08-0.25l1.54-0.12c0.52-0.02,1.05-0.01,1.57-0.02l3.13-0.01c0.53-0.02,1.02,0.04,1.51,0.07
					l1.49,0.12l1.49,0.13l0.75,0.06l0.29,0.03c0.14,0.02,0.27,0.05,0.41,0.08c0.28,0.06,0.51,0.15,0.73,0.26
					c0.87,0.43,1.42,1.02,1.85,1.62c0.41,0.61,0.7,1.28,0.88,1.99l-0.02-0.09l0.23,0.81l0.06,0.23l0,0.03l0.01,0.05l0.01,0.1
					l0.03,0.21l0.06,0.42l0.22,1.68l0.42,3.36l0.84,6.72c0.56,4.48,1.1,8.96,1.71,13.42c0.26,2.24,0.47,4.48,0.74,6.72l0.81,6.71
					c0.26,2.24,0.55,4.47,0.86,6.7l0.46,3.35l0.24,1.67c0.08,0.56,0.17,1.11,0.16,1.68v0l0.11,0.81c0.02,0.27,0.02,0.55,0.03,0.82
					L67.28,74.22z"/>
			</g>
		</g>
		<g>
			<defs>
				<path id="SVGID_1_" d="M38.86,6.94c0,0-0.71,0.12-2.03,0.34c-0.66,0.12-1.5,0.23-2.43,0.52c-0.93,0.28-2.06,0.51-3.24,0.98
					c-0.6,0.23-1.22,0.47-1.88,0.72c-0.67,0.24-1.34,0.55-2.03,0.9c-0.69,0.35-1.41,0.71-2.16,1.09c-0.72,0.44-1.46,0.89-2.23,1.36
					c-0.79,0.44-1.53,1.01-2.3,1.59c-0.77,0.58-1.58,1.15-2.33,1.85c-0.75,0.69-1.58,1.34-2.33,2.11c-0.75,0.77-1.5,1.58-2.26,2.42
					c-0.7,0.89-1.42,1.79-2.15,2.71c-0.68,0.96-1.34,1.97-2.02,2.99c-0.63,1.05-1.2,2.16-1.81,3.28c-0.57,1.13-1.05,2.34-1.57,3.54
					c-0.47,1.22-0.87,2.49-1.29,3.77c-0.34,1.3-0.63,2.64-0.95,3.99c-0.22,1.41-0.44,2.89-0.58,4.31c-0.03,0.64-0.06,1.29-0.09,1.94
					l-0.05,0.98l-0.02,0.49l-0.01,0.12c-0.01,0.24,0,0.23,0,0.22c0-0.01,0-0.01,0,0.02l0,0.07l0.01,0.27
					c0.04,5.74,1.37,11.67,3.81,17.13c2.43,5.47,5.89,10.55,10.19,14.75c4.26,4.24,9.33,7.61,14.75,9.87
					c2.71,1.11,5.49,2.01,8.3,2.56c1.37,0.37,2.87,0.46,4.29,0.66c0.7,0.06,1.47,0.22,2.11,0.2c0.66,0.01,1.32,0.03,1.98,0.04
					c5.55,0.13,10.87-0.78,15.61-2.43c4.75-1.65,8.91-4,12.36-6.63c3.46-2.63,6.2-5.52,8.36-8.26c0.51-0.71,1.01-1.39,1.49-2.05
					c0.49-0.65,0.86-1.35,1.27-1.98c0.82-1.26,1.41-2.52,1.97-3.63c0.14-0.28,0.28-0.55,0.41-0.81c0.11-0.27,0.22-0.54,0.33-0.8
					c0.21-0.52,0.41-1,0.6-1.45c0.4-0.89,0.62-1.67,0.82-2.29c0.4-1.25,0.61-1.92,0.61-1.92c0.06-0.2-0.04-0.41-0.23-0.49
					c-0.2-0.08-0.44,0.01-0.52,0.22c0,0-0.27,0.65-0.76,1.86c-0.25,0.61-0.54,1.37-0.98,2.19c-0.21,0.42-0.44,0.86-0.68,1.34
					c-0.12,0.24-0.24,0.48-0.37,0.74c-0.15,0.24-0.3,0.49-0.46,0.75c-0.63,1.03-1.29,2.19-2.17,3.34c-0.43,0.58-0.83,1.22-1.34,1.82
					c-0.5,0.6-1.02,1.22-1.55,1.85c-2.23,2.47-5.02,5.02-8.42,7.26c-3.39,2.24-7.4,4.14-11.84,5.35c-4.43,1.2-9.32,1.77-14.25,1.35
					c-0.65-0.05-1.31-0.1-1.97-0.16c-0.34-0.02-0.65-0.06-0.94-0.13l-0.9-0.17c-1.2-0.26-2.4-0.36-3.63-0.79
					c-2.46-0.65-4.87-1.54-7.2-2.63c-4.66-2.21-8.93-5.37-12.43-9.2c-3.47-3.86-6.19-8.36-7.86-13.11
					c-1.66-4.75-2.47-9.67-2.43-14.43l-0.01-0.22l0-0.06c0,0.02,0,0,0-0.02c0,0,0-0.01,0-0.01l0.02-0.47l0.04-0.98
					c0.02-0.65,0.05-1.3,0.07-1.94c0.14-1.14,0.26-2.19,0.36-3.29c0.22-1.12,0.41-2.24,0.64-3.34c0.31-1.08,0.54-2.16,0.86-3.21
					c0.38-1.03,0.69-2.07,1.08-3.06c0.43-0.98,0.82-1.96,1.27-2.9c0.48-0.93,0.95-1.84,1.41-2.73c0.53-0.86,1.05-1.7,1.56-2.53
					c0.57-0.79,1.14-1.57,1.68-2.32c0.54-0.77,1.17-1.44,1.73-2.14c0.55-0.72,1.19-1.32,1.78-1.93c0.6-0.61,1.17-1.23,1.78-1.75
					c0.6-0.55,1.19-1.08,1.75-1.59c0.61-0.46,1.19-0.91,1.75-1.34c1.09-0.93,2.23-1.57,3.21-2.26c2.03-1.25,3.69-2.2,4.87-2.74
					c1.18-0.59,1.8-0.9,1.8-0.9l0.03-0.02c0.15-0.08,0.24-0.25,0.22-0.42c-0.03-0.2-0.2-0.33-0.39-0.33
					C38.91,6.94,38.88,6.94,38.86,6.94"/>
			</defs>
			<clipPath id="SVGID_00000168837853464430810030000012641548629352253586_">
				<use xlink:href="#SVGID_1_"  style="overflow:visible;"/>
			</clipPath>
			
				<linearGradient id="SVGID_00000018949584041086126250000005277319726148996543_" gradientUnits="userSpaceOnUse" x1="-2168.1711" y1="2065.1179" x2="-2167.594" y2="2065.1179" gradientTransform="matrix(-82.1071 -142.2137 -142.2137 82.1071 115737.2109 -477812.625)">
				<stop  offset="0" style="stop-color:#1890BB"/>
				<stop  offset="0.7957" style="stop-color:#53A782"/>
				<stop  offset="1" style="stop-color:#7BB829"/>
			</linearGradient>
			
				<polygon style="clip-path:url(#SVGID_00000168837853464430810030000012641548629352253586_);fill:url(#SVGID_00000018949584041086126250000005277319726148996543_);" points="
				25.44,133.53 -34.99,28.92 70.1,-31.73 130.53,72.89 			"/>
		</g>
		<g>
			<path class="st0" d="M39.06,6.98c0,0,0.35-0.11,1.01-0.3c0.66-0.19,1.6-0.53,2.88-0.8c0.63-0.14,1.34-0.33,2.11-0.46
				c0.77-0.12,1.61-0.25,2.51-0.38c0.9-0.1,1.86-0.16,2.88-0.25c0.15-0.01,0.21-0.02,0.43-0.03h0.38c0.26,0,0.52,0,0.78,0
				c0.52,0,1.06,0,1.61,0c0.55,0,1.11,0,1.68,0c0.59,0.06,1.19,0.12,1.8,0.18c0.61,0.06,1.24,0.13,1.87,0.2
				c0.32,0.04,0.64,0.06,0.96,0.11c0.31,0.06,0.63,0.13,0.94,0.2c1.26,0.28,2.6,0.48,3.9,0.89c1.29,0.43,2.65,0.81,3.98,1.32
				c1.3,0.58,2.66,1.11,3.98,1.76c1.28,0.72,2.61,1.41,3.88,2.22c1.22,0.88,2.52,1.69,3.7,2.66l1.75,1.49
				c0.58,0.5,1.19,0.98,1.7,1.56c2.19,2.16,4.25,4.49,6.01,6.99c0.83,1.28,1.79,2.49,2.43,3.85c0.69,1.34,1.44,2.64,1.91,4.03
				c1.09,2.73,1.74,5.51,2.14,8.15c0.15,1.33,0.25,2.63,0.37,3.88c0,1.26-0.04,2.47-0.08,3.62c-0.01,0.29-0.02,0.57-0.03,0.85
				l-0.02,0.51l-0.06,0.39c-0.08,0.52-0.15,1.03-0.23,1.53c-0.08,0.5-0.15,0.98-0.22,1.45c-0.11,0.5-0.22,0.98-0.34,1.44
				c-0.25,0.92-0.41,1.79-0.68,2.55c-0.27,0.75-0.52,1.45-0.75,2.07c-0.2,0.63-0.48,1.16-0.7,1.62c-0.22,0.46-0.41,0.85-0.58,1.17
				c-0.33,0.62-0.5,0.95-0.5,0.95c-0.08,0.15-0.26,0.21-0.41,0.13c-0.11-0.06-0.17-0.17-0.16-0.29l0-0.02c0,0,0.02-0.37,0.06-1.07
				c0.02-0.7,0.18-1.68,0.2-2.95c0.03-1.27,0.13-2.79,0.04-4.47c-0.01-0.42-0.02-0.85-0.01-1.29c-0.03-0.47-0.07-0.96-0.1-1.46
				c-0.04-0.5-0.07-1.01-0.11-1.54l-0.03-0.4l0-0.05c0-0.09,0,0.09,0,0.07l0-0.02l-0.01-0.1l-0.03-0.19
				c-0.04-0.25-0.08-0.51-0.11-0.77c-0.14-1.02-0.29-2.09-0.45-3.19c-0.24-1.09-0.51-2.2-0.74-3.35c-0.62-2.26-1.29-4.62-2.24-6.98
				c-0.35-1.23-1-2.35-1.48-3.57c-0.47-1.23-1.17-2.36-1.78-3.56c-1.29-2.36-2.9-4.61-4.73-6.68c-0.43-0.55-0.93-1.02-1.43-1.5
				l-1.48-1.45c-1-0.95-2.13-1.75-3.18-2.63c-1.1-0.82-2.27-1.51-3.38-2.28c-1.15-0.69-2.35-1.28-3.5-1.92
				c-1.18-0.57-2.4-1.02-3.56-1.52c-0.58-0.27-1.19-0.41-1.78-0.6c-0.59-0.18-1.18-0.37-1.76-0.55c-0.29-0.09-0.58-0.18-0.86-0.27
				c-0.29-0.08-0.58-0.12-0.86-0.19c-0.57-0.12-1.13-0.23-1.69-0.35c-0.56-0.12-1.1-0.23-1.64-0.34c-0.57-0.06-1.12-0.11-1.67-0.17
				c-0.55-0.05-1.08-0.11-1.6-0.16c-0.26-0.03-0.52-0.05-0.77-0.08L50.77,6.6l-0.32,0c-0.98-0.01-1.91-0.04-2.78-0.03
				c-0.87,0.05-1.69,0.09-2.45,0.13c-0.76,0.05-1.44,0.15-2.07,0.22c-1.25,0.1-2.24,0.35-2.92,0.46c-0.67,0.13-1.03,0.19-1.03,0.19
				c-0.16,0.03-0.32-0.08-0.35-0.24C38.82,7.17,38.92,7.02,39.06,6.98"/>
			<path class="st4" d="M67.52,74.1c-0.93-6.84-4.01-13.46-5.06-20.28c-1.12-7.29-2.31-14.57-3.58-21.84
				c-0.67-3.88-1.37-7.76-2.08-11.64c-0.26-1.39-1.32-2.63-2.38-2.72c-6.46-0.55-11.55-0.83-18.07,0.61
				c-1.1,0.25-3.23,2.39-3.03,3.86c2.55,19,5.56,37.98,9.1,56.85c0.27,1.46,1.42,2.63,2.55,2.57c6.69-0.37,13.04-1.7,19.04-3.97
				C66.94,76.43,67.71,75.51,67.52,74.1"/>
			<path class="st0" d="M67.49,73.27c0.19,1.4-0.45,2.87-1.42,3.24c-6.01,2.26-12.35,3.6-19.05,3.97c-1.13,0.06-2.27-1.11-2.55-2.57
				c-3.54-18.87-6.54-37.84-9.1-56.85c-0.2-1.47,0.53-2.9,1.63-3.14c6.52-1.44,13.01-1.87,19.47-1.33c1.05,0.09,2.12,1.32,2.38,2.72
				C62.16,37.25,65.03,55.22,67.49,73.27"/>
			<path class="st1" d="M67.24,71.72c0.18,1.35-0.46,2.76-1.44,3.12c-6.02,2.2-12.37,3.51-19.06,3.9c-1.12,0.06-2.26-1.05-2.53-2.46
				c-3.38-18.12-6.3-36.34-8.74-54.59c-0.19-1.41,0.55-2.79,1.65-3.03c6.52-1.42,13.01-1.86,19.46-1.36
				c1.05,0.08,2.11,1.26,2.36,2.6C62.14,37.12,64.91,54.37,67.24,71.72"/>
			<path class="st5" d="M46.65,78.84c-1.16,0-2.27-1.12-2.54-2.55c-3.38-18.11-6.32-36.48-8.74-54.6c-0.2-1.48,0.58-2.89,1.73-3.15
				c4.77-1.03,9.6-1.56,14.38-1.56c1.7,0,3.42,0.07,5.11,0.2c1.1,0.09,2.2,1.29,2.46,2.69c3.2,17.28,6,34.72,8.29,51.83
				c0.19,1.41-0.49,2.86-1.51,3.23c-6.04,2.21-12.47,3.52-19.09,3.91C46.71,78.84,46.68,78.84,46.65,78.84 M51.48,17.2
				c-4.76,0-9.58,0.52-14.33,1.55c-1.03,0.23-1.74,1.56-1.57,2.91c2.42,18.11,5.36,36.48,8.74,54.59c0.25,1.34,1.35,2.43,2.42,2.37
				c6.6-0.38,13.01-1.69,19.03-3.89c0.93-0.34,1.55-1.69,1.37-3.01c-2.3-17.1-5.09-34.53-8.29-51.81c-0.24-1.31-1.26-2.43-2.26-2.51
				C54.89,17.27,53.17,17.2,51.48,17.2"/>
			<path class="st1" d="M64.23,65.44c0.18,1.33-0.52,2.65-1.54,2.94c-4.99,1.42-9.95,2.58-14.86,3.34c-1.09,0.17-2.18-0.9-2.43-2.35
				C43.06,55.8,40.71,42.39,39,29.5c-0.18-1.38,0.59-2.69,1.7-2.91c5.03-0.97,10.05-1.6,15.05-1.85c1.03-0.05,2.06,1.06,2.3,2.46
				C60.3,40.22,62.55,53.07,64.23,65.44"/>
			<path class="st0" d="M47.59,71.85c-1.07,0-2.06-1.06-2.31-2.46l-0.51-2.98c-2.21-12.83-4.3-24.95-5.88-36.9
				c-0.19-1.44,0.62-2.8,1.79-3.02c5.17-1,10.24-1.62,15.06-1.85c1.09-0.05,2.16,1.09,2.42,2.55l0.42,2.41
				c2.15,12.45,4.19,24.21,5.76,35.83c0.19,1.37-0.54,2.74-1.62,3.05c-5.39,1.53-10.26,2.63-14.87,3.35
				C47.76,71.85,47.68,71.85,47.59,71.85 M55.82,24.85h-0.06c-4.81,0.23-9.87,0.85-15.03,1.84c-1.07,0.21-1.79,1.46-1.62,2.79
				c1.58,11.95,3.67,24.06,5.88,36.89l0.51,2.98c0.23,1.3,1.13,2.28,2.1,2.28c0.07,0,0.14,0,0.21-0.02
				c4.6-0.72,9.46-1.81,14.85-3.34c0.99-0.28,1.64-1.55,1.47-2.82c-1.57-11.61-3.61-23.37-5.76-35.82l-0.42-2.41
				C57.72,25.92,56.76,24.85,55.82,24.85"/>
			<path class="st6" d="M63.41,64.75c0.18,1.31-0.44,2.65-1.37,2.96c-4.41,1.45-9.02,2.32-13.82,2.58c-1.05,0.05-2.1-1.03-2.36-2.37
				c-2.36-12.58-4.38-25.22-6.07-37.89c-0.18-1.36,0.5-2.68,1.51-2.91c4.68-1.05,9.35-1.46,14.03-1.25
				c0.99,0.05,1.99,1.17,2.24,2.47C59.83,40.43,61.77,52.57,63.41,64.75"/>
			<path class="st0" d="M63.41,64.75c0.18,1.31-0.44,2.65-1.37,2.96c-4.41,1.45-9.02,2.32-13.82,2.58c-1.05,0.05-2.1-1.03-2.36-2.37
				c-2.36-12.58-4.38-25.22-6.07-37.89c-0.18-1.36,0.5-2.68,1.51-2.91c4.68-1.05,9.35-1.46,14.03-1.25
				c0.99,0.05,1.99,1.17,2.24,2.47C59.83,40.43,61.77,52.57,63.41,64.75"/>
			<path class="st5" d="M63.41,64.75c0.18,1.31-0.44,2.65-1.37,2.96c-4.41,1.45-9.02,2.32-13.82,2.58c-1.05,0.05-2.1-1.03-2.36-2.37
				c-2.36-12.58-4.38-25.22-6.07-37.89c-0.18-1.36,0.5-2.68,1.51-2.91c4.68-1.05,9.35-1.46,14.03-1.25
				c0.99,0.05,1.99,1.17,2.24,2.47C59.83,40.43,61.77,52.57,63.41,64.75"/>
			<path class="st0" d="M48.14,70.39c-1.06,0-2.13-1.1-2.39-2.46c-2.35-12.52-4.39-25.27-6.07-37.9c-0.19-1.43,0.53-2.78,1.59-3.02
				c4.64-1.04,9.37-1.46,14.06-1.25c1.03,0.05,2.08,1.19,2.34,2.55c2.24,12.06,4.21,24.32,5.83,36.43c0.18,1.37-0.46,2.75-1.44,3.07
				c-4.42,1.46-9.08,2.33-13.85,2.58H48.14z M52.98,25.92c-3.88,0-7.8,0.44-11.65,1.3c-0.94,0.21-1.6,1.49-1.43,2.79
				c1.68,12.62,3.72,25.37,6.07,37.89c0.24,1.29,1.26,2.33,2.25,2.29c4.75-0.25,9.39-1.12,13.79-2.57c0.87-0.29,1.46-1.6,1.3-2.84
				c-1.62-12.1-3.59-24.36-5.83-36.42c-0.24-1.27-1.2-2.33-2.14-2.38C54.55,25.94,53.76,25.92,52.98,25.92"/>
			<path class="st0" d="M51.57,21.48c0.06,0.35-0.12,0.65-0.39,0.67l-6.84,0.55c-0.28,0.02-0.55-0.25-0.61-0.61
				c-0.06-0.36,0.12-0.67,0.4-0.69l6.85-0.53C51.25,20.86,51.51,21.13,51.57,21.48"/>
			<path class="st1" d="M44.3,22.81c-0.32,0-0.62-0.3-0.69-0.7c-0.04-0.23,0.01-0.45,0.14-0.61c0.09-0.12,0.22-0.19,0.36-0.2
				l6.85-0.53c0.34-0.03,0.64,0.28,0.71,0.69c0.04,0.23-0.01,0.45-0.13,0.6c-0.09,0.11-0.22,0.18-0.35,0.19l-6.84,0.55H44.3z
				 M51,20.98l-6.87,0.53c-0.1,0.01-0.17,0.07-0.21,0.12c-0.09,0.11-0.12,0.28-0.09,0.45c0.05,0.28,0.26,0.52,0.48,0.52l0.02,0
				l6.84-0.55c0.1-0.01,0.16-0.07,0.2-0.11c0.08-0.11,0.12-0.27,0.09-0.44C51.42,21.21,51.21,20.98,51,20.98"/>
			<g>
				<defs>
					<rect id="SVGID_00000062151575763749113210000000578421668972311704_" x="39.73" y="25.91" width="20.22" height="16.14"/>
				</defs>
				<clipPath id="SVGID_00000099660991607807152070000014049080256162778777_">
					<use xlink:href="#SVGID_00000062151575763749113210000000578421668972311704_"  style="overflow:visible;"/>
				</clipPath>
				<path style="clip-path:url(#SVGID_00000099660991607807152070000014049080256162778777_);fill:#FFFFFF;" d="M59.95,42.05
					c0,0-1.56-9.09-2.4-13.62c-0.24-1.3-1.25-2.42-2.24-2.46c-4.68-0.21-9.36,0.2-14.04,1.25c-1.01,0.23-1.69,1.55-1.51,2.91
					c0.3,2.22,0.6,4.45,0.92,6.67C40.68,36.79,56.41,38.1,59.95,42.05"/>
			</g>
			<g class="st8">
				<path class="st0" d="M59.95,42.05c0,0-1.56-9.09-2.4-13.62c-0.24-1.3-1.25-2.42-2.24-2.46c-4.68-0.21-9.36,0.2-14.04,1.25
					c-1.01,0.23-1.69,1.55-1.51,2.91c0.3,2.22,0.6,4.45,0.92,6.67C40.68,36.79,56.41,38.1,59.95,42.05"/>
			</g>
		</g>
	</g>
	<g>
		<path class="st9" d="M53.85,34.61l-3.48,0.44l-6.3,24.65l4.27-0.9l2.1-7.92l5.33-0.93l2.84,6.73l3.75-0.77L53.85,34.61z
			 M51.52,46.61l1.1-4.2l1.6,3.79L51.52,46.61z"/>
	</g>
	<g class="st10">
		<path class="st9" d="M55.88,39.71c0,0-0.94-0.36-2.69-0.83c-1.57-0.43-3.59-0.83-3.59-0.83l-5.53,21.65l4.27-0.9l2.1-7.92
			l5.33-0.93l2.84,6.73l3.75-0.77L55.88,39.71z M51.52,46.61l1.1-4.2l1.6,3.79L51.52,46.61z"/>
	</g>
</g>
</svg>
