<?xml version="1.0" encoding="utf-8"?>
<!-- Generator: Adobe Illustrator 28.1.0, SVG Export Plug-In . SVG Version: 6.00 Build 0)  -->
<svg version="1.1" id="SEPAL_LOGO_01" xmlns="http://www.w3.org/2000/svg" xmlns:xlink="http://www.w3.org/1999/xlink" x="0px"
	 y="0px" viewBox="0 0 1538.55 600" style="enable-background:new 0 0 1538.55 600;" xml:space="preserve">
<style type="text/css">
	.st0{opacity:0.95;}
	.st1{fill:#FFFFFF;}
	.st2{fill:#206B8E;}
	.st3{fill:url(#SVGID_1_);}
	.st4{fill:#219BC2;}
	.st5{fill:#0095C7;}
	.st6{fill:#2CA4E6;}
	.st7{fill:#6CD4F0;}
	.st8{fill:#1B6A99;}
	.st9{opacity:0.9;fill:#6CD4F0;}
	.st10{opacity:0.9;fill:#43BFEB;}
	.st11{opacity:0.9;fill:#15AAEB;}
	.st12{opacity:0.95;fill:#206A8C;}
	.st13{fill:url(#SVGID_00000036248503700089589150000010927642187369292938_);}
</style>
<g>
	<g>
		<g class="st0">
			<path class="st1" d="M716.31,405.35v-21.89c0-4.1,2.28-6.84,6.84-6.84h10.49c4.1,0,6.84,2.74,6.84,6.84v14.14
				c0,35.57,16.42,52.45,42.87,52.45c25.54,0,42.87-16.87,42.87-52.45v-14.14c0-26.45-27.36-50.62-51.53-74.34
				c-25.99-25.99-58.37-52.45-58.37-92.58v-21.89c0-41.04,26.91-67.95,67.04-67.95c40.13,0,67.49,26.91,67.49,67.95v21.89
				c0,4.1-2.74,6.84-6.84,6.84h-10.95c-4.1,0-6.84-2.74-6.84-6.84v-14.14c0-35.57-17.33-52.45-42.87-52.45s-42.87,16.87-42.87,52.45
				v14.14c0,26.45,25.08,48.8,51.08,74.79c23.71,24.17,59.29,51.53,59.29,92.12v21.89c0,40.59-27.36,67.95-67.49,67.95
				C743.22,473.3,716.31,445.93,716.31,405.35z"/>
			<path class="st1" d="M916.97,464.18V135.82c0-4.1,2.28-6.84,6.84-6.84h87.1c4.1,0,6.84,2.74,6.84,6.84v8.66
				c0,4.1-2.74,6.84-6.84,6.84h-62.93c-4.1,0-6.84,2.74-6.84,6.84v121.76c0,4.1,2.74,6.84,6.84,6.84h62.93
				c4.1,0,6.84,2.74,6.84,6.84v8.66c0,4.1-2.74,6.84-6.84,6.84h-62.93c-4.1,0-6.84,2.74-6.84,6.84v125.87c0,4.1,2.74,6.84,6.84,6.84
				h62.93c4.1,0,6.84,2.74,6.84,6.84v8.66c0,4.1-2.74,6.84-6.84,6.84h-87.1C919.71,471.02,916.97,468.28,916.97,464.18z"/>
			<path class="st1" d="M1087.98,464.18V135.82c0-4.1,2.28-6.84,6.84-6.84h60.2c40.13,0,67.49,26.91,67.49,67.95v72.97
				c0,41.5-27.36,67.95-67.49,67.95h-36.03c-4.1,0-6.84,2.74-6.84,6.84v119.48c0,4.1-2.28,6.84-6.84,6.84h-10.49
				C1090.72,471.02,1087.98,468.28,1087.98,464.18z M1155.02,314.59c25.54,0,42.87-16.87,42.87-52.44v-57.46
				c0-35.57-17.33-52.44-42.87-52.44h-36.03c-4.1,0-6.84,2.74-6.84,6.84v148.67c0,4.1,2.74,6.84,6.84,6.84H1155.02z"/>
			<path class="st1" d="M1240.76,463.26l57.46-326.07c1.37-6.84,2.74-8.21,8.66-8.21h6.84c5.47,0,6.84,1.37,8.21,8.21l57.46,326.07
				c0.91,5.47-1.37,7.75-5.93,7.75h-10.49c-4.1,0-5.93-1.37-6.84-6.84l-7.3-42.87c-0.46-2.74-1.37-6.84-6.84-6.84h-63.85
				c-5.47,0-6.38,4.1-6.84,6.84l-7.3,42.87c-0.91,5.47-2.74,6.84-6.84,6.84h-10.49C1242.12,471.02,1239.84,468.74,1240.76,463.26z
				 M1339.72,391.66c3.19,0,4.1-1.82,3.65-5.02l-31.01-181.51c-0.46-2.74-4.1-2.74-4.56,0l-30.56,181.51
				c-0.46,3.19,0.46,5.02,3.65,5.02H1339.72z"/>
			<path class="st1" d="M1437.77,135.82c0-4.1,2.28-6.84,6.84-6.84h10.49c4.1,0,6.84,2.74,6.84,6.84v306.01
				c0,4.1,2.74,6.84,6.84,6.84h62.93c4.1,0,6.84,2.74,6.84,6.84v8.66c0,4.1-2.74,6.84-6.84,6.84h-87.1c-4.1,0-6.84-2.74-6.84-6.84
				V135.82z"/>
		</g>
		<g class="st0">
			<path class="st2" d="M716.31,405.35v-21.89c0-4.1,2.28-6.84,6.84-6.84h10.49c4.1,0,6.84,2.74,6.84,6.84v14.14
				c0,35.57,16.42,52.45,42.87,52.45c25.54,0,42.87-16.87,42.87-52.45v-14.14c0-26.45-27.36-50.62-51.53-74.34
				c-25.99-25.99-58.37-52.45-58.37-92.58v-21.89c0-41.04,26.91-67.95,67.04-67.95c40.13,0,67.49,26.91,67.49,67.95v21.89
				c0,4.1-2.74,6.84-6.84,6.84h-10.95c-4.1,0-6.84-2.74-6.84-6.84v-14.14c0-35.57-17.33-52.45-42.87-52.45s-42.87,16.87-42.87,52.45
				v14.14c0,26.45,25.08,48.8,51.08,74.79c23.71,24.17,59.29,51.53,59.29,92.12v21.89c0,40.59-27.36,67.95-67.49,67.95
				C743.22,473.3,716.31,445.93,716.31,405.35z"/>
			<path class="st2" d="M916.97,464.18V135.82c0-4.1,2.28-6.84,6.84-6.84h87.1c4.1,0,6.84,2.74,6.84,6.84v8.66
				c0,4.1-2.74,6.84-6.84,6.84h-62.93c-4.1,0-6.84,2.74-6.84,6.84v121.76c0,4.1,2.74,6.84,6.84,6.84h62.93
				c4.1,0,6.84,2.74,6.84,6.84v8.66c0,4.1-2.74,6.84-6.84,6.84h-62.93c-4.1,0-6.84,2.74-6.84,6.84v125.87c0,4.1,2.74,6.84,6.84,6.84
				h62.93c4.1,0,6.84,2.74,6.84,6.84v8.66c0,4.1-2.74,6.84-6.84,6.84h-87.1C919.71,471.02,916.97,468.28,916.97,464.18z"/>
			<path class="st2" d="M1087.98,464.18V135.82c0-4.1,2.28-6.84,6.84-6.84h60.2c40.13,0,67.49,26.91,67.49,67.95v72.97
				c0,41.5-27.36,67.95-67.49,67.95h-36.03c-4.1,0-6.84,2.74-6.84,6.84v119.48c0,4.1-2.28,6.84-6.84,6.84h-10.49
				C1090.72,471.02,1087.98,468.28,1087.98,464.18z M1155.02,314.59c25.54,0,42.87-16.87,42.87-52.44v-57.46
				c0-35.57-17.33-52.44-42.87-52.44h-36.03c-4.1,0-6.84,2.74-6.84,6.84v148.67c0,4.1,2.74,6.84,6.84,6.84H1155.02z"/>
			<path class="st2" d="M1240.76,463.26l57.46-326.07c1.37-6.84,2.74-8.21,8.66-8.21h6.84c5.47,0,6.84,1.37,8.21,8.21l57.46,326.07
				c0.91,5.47-1.37,7.75-5.93,7.75h-10.49c-4.1,0-5.93-1.37-6.84-6.84l-7.3-42.87c-0.46-2.74-1.37-6.84-6.84-6.84h-63.85
				c-5.47,0-6.38,4.1-6.84,6.84l-7.3,42.87c-0.91,5.47-2.74,6.84-6.84,6.84h-10.49C1242.12,471.02,1239.84,468.74,1240.76,463.26z
				 M1339.72,391.66c3.19,0,4.1-1.82,3.65-5.02l-31.01-181.51c-0.46-2.74-4.1-2.74-4.56,0l-30.56,181.51
				c-0.46,3.19,0.46,5.02,3.65,5.02H1339.72z"/>
			<path class="st2" d="M1437.77,135.82c0-4.1,2.28-6.84,6.84-6.84h10.49c4.1,0,6.84,2.74,6.84,6.84v306.01
				c0,4.1,2.74,6.84,6.84,6.84h62.93c4.1,0,6.84,2.74,6.84,6.84v8.66c0,4.1-2.74,6.84-6.84,6.84h-87.1c-4.1,0-6.84-2.74-6.84-6.84
				V135.82z"/>
		</g>
	</g>
	<g>
		<linearGradient id="SVGID_1_" gradientUnits="userSpaceOnUse" x1="282.9573" y1="430.7795" x2="432.5413" y2="123.5951">
			<stop  offset="0" style="stop-color:#8BC729"/>
			<stop  offset="0.1443" style="stop-color:#7BC12B"/>
			<stop  offset="0.4276" style="stop-color:#50B330"/>
			<stop  offset="0.8192" style="stop-color:#0C9C39"/>
			<stop  offset="0.8853" style="stop-color:#00983A"/>
			<stop  offset="1" style="stop-color:#00973A"/>
		</linearGradient>
		<path class="st3" d="M395.02,152.86c-4.4-5.37-9.01-10.57-13.83-15.56c-6.83-7.04-14.19-13.56-21.97-19.51
			c-7.79-5.95-16.11-11.2-24.91-15.55c-17.54-8.79-37.3-13.32-57.26-12.55c2.48-0.25,4.96-0.58,7.46-0.73l3.75-0.15l1.88-0.07
			c0.63,0,1.25,0.02,1.88,0.03c2.51,0.07,5.02,0.08,7.52,0.36l3.76,0.33l3.74,0.54c5,0.67,9.91,1.89,14.78,3.24
			c2.43,0.7,4.81,1.55,7.22,2.32c2.35,0.93,4.74,1.78,7.07,2.78c9.3,4.01,18.15,9.06,26.49,14.81c8.35,5.75,16.11,12.31,23.42,19.3
			c5.64,5.4,10.99,11.12,16.03,17.07c-2.32,0.46-4.51,1.39-6.45,2.85C395.39,152.52,395.21,152.7,395.02,152.86z M476.45,343.39
			c-0.08-2.52-0.15-5.05-0.33-7.57c-0.15-2.52-0.32-5.04-0.58-7.55c-0.23-2.51-0.46-5.03-0.79-7.53
			c-1.17-10.03-2.85-19.99-4.95-29.85c-4.29-19.72-10.36-39.02-17.94-57.72c-7.09-17.1-15.4-33.71-25.13-49.48
			c-1.02,1.74-2.35,3.29-4.01,4.54c-0.7,0.53-1.44,0.97-2.2,1.36c8.9,15.01,16.65,30.71,23.2,46.9
			c7.53,18.2,13.52,37.03,17.95,56.21c2.25,9.58,4.08,19.26,5.43,29.01c0.37,2.43,0.64,4.88,0.92,7.32
			c0.31,2.44,0.51,4.89,0.73,7.34c0.26,2.45,0.41,4.9,0.58,7.35c0.2,2.45,0.27,4.91,0.37,7.36c0.36,9.82,0.06,19.66-0.87,29.43
			c-0.92,9.77-2.69,19.46-5.4,28.9c-1.28,4.74-2.97,9.35-4.78,13.92c-0.46,1.14-1,2.24-1.49,3.37c-0.52,1.11-0.97,2.26-1.57,3.34
			c-1.15,2.17-2.21,4.4-3.51,6.49c-0.63,1.05-1.22,2.14-1.9,3.17l-2.06,3.07c-1.36,2.07-2.86,4.03-4.43,5.94
			c-3.13,3.83-6.68,7.33-10.46,10.58c4.09-2.85,7.93-6.1,11.45-9.7c1.75-1.81,3.42-3.7,4.95-5.69l2.33-2.98
			c0.77-1,1.45-2.06,2.17-3.09c5.76-8.31,10.07-17.57,13.41-27.11c3.28-9.58,5.57-19.49,7-29.5c1.44-10.02,2-20.14,2.01-30.24
			C476.55,348.44,476.56,345.91,476.45,343.39z M494.2,320.83c-0.85,0.47-1.75,0.8-2.71,0.94c-0.86,0.13-1.72,0.12-2.58-0.03
			c0.02,0.22,0.04,0.43,0.06,0.64c0.17,2.16,0.43,4.32,0.5,6.49c0.61,8.66,0.51,17.35,0.11,26.01c-0.42,8.67-1.46,17.31-3.17,25.82
			c-1.67,8.52-4.13,16.89-7.42,24.95c-1.67,4.02-3.57,7.95-5.73,11.74c-2.14,3.8-4.55,7.47-7.25,10.93
			c2.96-3.24,5.65-6.74,8.1-10.41c2.43-3.68,4.59-7.54,6.54-11.51c3.85-7.97,6.74-16.39,8.91-24.98c2.14-8.6,3.53-17.38,4.32-26.21
			c0.1-1.1,0.24-2.21,0.31-3.31l0.19-3.32c0.1-2.21,0.28-4.43,0.28-6.64l0.09-6.65l-0.15-6.65
			C494.51,326.03,494.37,323.43,494.2,320.83z M471.91,246.36l1.1,3.06l1.02,3.09c2.82,8.21,5.14,16.59,7.29,25l1.25,5.1
			c0.89-0.51,1.85-0.88,2.86-1.03c1.07-0.16,2.15-0.08,3.2,0.18c-0.41-1.91-0.83-3.82-1.27-5.72c-2.04-8.62-4.43-17.16-7.24-25.56
			l-1.03-3.16l-1.11-3.13l-2.24-6.25c-1.62-4.12-3.15-8.28-4.92-12.34c-3.42-8.17-7.26-16.16-11.35-24.01l-3.12-5.87l-3.27-5.78
			c-1.07-1.94-2.24-3.82-3.38-5.72c-1.16-1.89-2.26-3.81-3.5-5.65c-4.75-7.48-9.93-14.68-15.31-21.72
			c-5.42-7.01-11.26-13.7-17.38-20.11c-12.33-12.73-26.04-24.21-41.36-33.18c-3.85-2.2-7.75-4.3-11.79-6.13
			c-1.99-0.96-4.06-1.77-6.09-2.64c-2.07-0.78-4.13-1.59-6.24-2.25c-8.38-2.83-17.15-4.48-25.92-4.78
			c4.36,0.48,8.67,1.31,12.89,2.41c4.23,1.07,8.37,2.46,12.41,4.09c2.03,0.77,4,1.71,6,2.57c1.95,0.96,3.93,1.85,5.84,2.9
			c3.86,1.99,7.58,4.25,11.23,6.59c7.27,4.74,14.23,9.97,20.72,15.73c6.5,5.75,12.75,11.77,18.58,18.21
			c1.47,1.59,2.86,3.26,4.3,4.89l2.13,2.46l2.05,2.53c1.35,1.7,2.79,3.33,4.09,5.06l3.96,5.16c5.15,6.99,10.09,14.13,14.62,21.54
			c9.13,14.76,17.17,30.23,23.84,46.26c1.76,3.97,3.28,8.04,4.89,12.07L471.91,246.36z M495.64,380.33
			c1.4-3.37,2.63-6.82,3.71-10.31c2.15-6.99,3.76-14.16,4.79-21.41c1.16-7.24,1.63-14.56,1.89-21.89l0.09-5.5
			c0-1.83-0.08-3.66-0.11-5.5l-0.07-2.75c-0.03-0.92-0.1-1.83-0.15-2.74l-0.33-5.49c-2.37-29.25-9.95-57.95-21.33-84.95
			c-11.42-26.98-26.73-52.43-46.08-74.49c-9.73-10.96-20.47-21.07-32.37-29.63c-5.97-4.25-12.22-8.09-18.74-11.41
			c-3.26-1.65-6.59-3.18-9.98-4.52c-3.41-1.32-6.87-2.47-10.39-3.42c13.8,4.7,26.44,12.17,37.82,21.07c2.87,2.2,5.61,4.57,8.36,6.9
			c1.38,1.17,2.67,2.43,4.01,3.64c1.34,1.22,2.66,2.44,3.93,3.74l3.85,3.82l3.72,3.95l1.85,1.98l1.79,2.04
			c1.19,1.36,2.39,2.71,3.56,4.09c9.22,11.12,17.71,22.87,25.05,35.32l2.77,4.66l2.65,4.73l1.32,2.36l1.26,2.4l2.51,4.8
			c3.21,6.47,6.32,13,9.08,19.68c2.87,6.63,5.4,13.41,7.79,20.23c1.12,3.44,2.33,6.84,3.32,10.32l1.55,5.19l1.42,5.23
			c3.82,13.94,6.33,28.22,7.9,42.58c1.35,14.38,1.62,28.9-0.04,43.28c-1.43,14.39-4.96,28.64-11.15,41.83
			C492.63,386.98,494.22,383.69,495.64,380.33z M511.79,273.51c-1.45-9.51-3.58-18.91-6.16-28.18c-2.61-9.26-5.77-18.37-9.38-27.29
			c-3.66-8.9-7.78-17.62-12.38-26.07c-4.65-8.43-9.7-16.64-15.32-24.44c-5.58-7.83-11.68-15.29-18.26-22.29
			c-6.64-6.94-13.66-13.52-21.27-19.34c7.13,6.39,13.88,13.16,20.07,20.42c6.25,7.2,12.01,14.81,17.35,22.68
			c5.31,7.9,10.25,16.04,14.68,24.46c4.47,8.39,8.51,17.01,12.08,25.83c3.62,8.79,6.75,17.79,9.44,26.91
			c2.72,9.12,4.89,18.39,6.62,27.75c1.69,9.36,2.89,18.83,3.46,28.34c0.65,9.51,0.53,19.08-0.19,28.62
			C515.34,311.94,514.77,292.49,511.79,273.51z M327.3,290.59c0.62,1.53,1.23,3.07,1.83,4.6c4.55,1.46,9.04,3.06,13.47,4.79
			c-1.61-4.55-3.32-9.07-5.13-13.54c-2.27-5.53-4.68-11-7.26-16.4c-2.24,3.69-4.57,7.33-7.02,10.9
			C324.62,284.14,325.99,287.35,327.3,290.59z M290.85,125.15c-9.25-5.22-19.04-9.57-29.28-12.5c0.36,1.84,0.7,3.68,1.02,5.52
			c8.75,3.2,17.12,7.46,25.02,12.42c4.68,2.96,9.27,6.1,13.67,9.48c1.12,0.82,2.19,1.71,3.28,2.56c1.1,0.85,2.16,1.74,3.22,2.65
			l3.18,2.7l1.59,1.35l1.53,1.41l3.07,2.83c0.49,0.45,0.98,0.9,1.46,1.35c3.9,0.01,7.82,0.12,11.73,0.32
			c-3.65-3.52-7.41-6.92-11.3-10.18C310.21,137.67,300.92,130.8,290.85,125.15z M388.4,236.14c-6.92-13.8-14.74-27.16-23.53-39.88
			c-1.47-2.1-2.97-4.19-4.49-6.27c-0.74,4.12-1.59,8.2-2.54,12.25c5.99,9.01,11.61,18.27,16.74,27.8c1.69,3.13,3.3,6.3,4.88,9.48
			c2.17-1.33,4.57-2.37,7.17-3.02C387.21,236.36,387.81,236.24,388.4,236.14z M398.76,286.1c0.62,1.84,1.24,3.67,1.83,5.52
			c3.36,10.64,6.13,21.45,8.47,32.34c1.33,6.21,2.46,12.46,3.39,18.74c3.34,2.95,6.61,6,9.8,9.15c-0.91-9.97-2.36-19.88-4.25-29.7
			c-2.17-11.27-5.06-22.38-8.41-33.34c-0.69-2.21-1.41-4.4-2.14-6.59c-2.47,1.72-5.29,3.04-8.38,3.82
			C398.97,286.06,398.87,286.08,398.76,286.1z M415.37,385.59c-0.03,1.57-0.06,3.13-0.12,4.7c-0.1,2.78-0.33,5.54-0.49,8.32
			c-0.19,2.77-0.56,5.52-0.83,8.29c-0.73,5.5-1.58,10.99-2.76,16.41c-2.32,10.84-5.79,21.44-10.75,31.33
			c-3.41,7.01-7.79,13.53-12.95,19.38c0.5,1.08,0.99,2.16,1.47,3.25c2.09-1.9,3.87-4.08,5.75-6.18c1-1.05,1.8-2.26,2.68-3.4
			l2.6-3.47l2.34-3.65c0.76-1.23,1.61-2.41,2.26-3.7c5.7-10.06,9.8-20.97,12.73-32.11c2.94-11.16,4.61-22.6,5.45-34.07
			c0.15-2.87,0.34-5.74,0.46-8.62l0.07-4.05C420.69,380.63,418.05,383.14,415.37,385.59z M348.9,231.61
			c-1.63,4.32-3.38,8.59-5.26,12.79c5.11,9.5,9.78,19.24,13.95,29.19c4.42,10.41,8.3,21.05,11.65,31.85
			c0.87,2.76,1.69,5.54,2.48,8.33c4.43,2.49,8.79,5.12,13.06,7.9c-4.17-17.91-9.97-35.41-17.08-52.35
			c-4.56-10.76-9.65-21.28-15.29-31.52C351.28,235.73,350.1,233.67,348.9,231.61z M452.05,355.46c-0.12-2.74-0.23-5.48-0.47-8.21
			c-0.21-2.73-0.41-5.47-0.72-8.19c-1.12-10.91-2.84-21.74-5.07-32.46c-4.5-21.44-11.14-42.39-19.48-62.62
			c-4.2-10.11-8.83-20.03-13.9-29.74c-5.11-9.68-10.61-19.17-16.63-28.32c-6.03-9.15-12.52-18.01-19.5-26.47
			c-3.48-4.24-7.11-8.36-10.87-12.37c-1.87-2.01-3.85-3.92-5.76-5.89c-1.97-1.91-3.97-3.8-5.97-5.68
			c-8.13-7.4-16.79-14.27-26.11-20.15c-9.3-5.9-19.28-10.79-29.75-14.29c-10.45-3.51-21.46-5.35-32.42-5.4
			c-2.58,0-5.15,0.13-7.7,0.35c0.19,0.69,0.37,1.39,0.55,2.08c1.02-0.01,2.05,0.07,3.07,0.08c1.33,0.06,2.67,0.03,4,0.17
			c10.62,0.84,21.09,3.18,30.9,7.19c9.86,3.87,19.2,8.99,27.86,15.11c8.68,6.08,16.84,12.9,24.42,20.34
			c15.08,14.97,28.27,31.85,39.6,49.89c5.68,9.01,11,18.27,15.85,27.76c4.89,9.48,9.38,19.17,13.44,29.03
			c4.1,9.85,7.77,19.88,11.02,30.04c3.29,10.15,6.07,20.45,8.47,30.84c4.8,20.77,7.53,42.02,7.76,63.29
			c0.1,10.64-0.69,21.26-2.25,31.75c-1.57,10.49-4.1,20.86-7.97,30.74l-1.45,3.71l-1.63,3.63l-0.82,1.82l-0.91,1.77
			c-0.62,1.17-1.18,2.38-1.85,3.53c-2.54,4.66-5.54,9.06-8.84,13.24c-6.61,8.35-15.01,15.3-24.54,20.44
			c2.48-1.09,4.93-2.24,7.31-3.55c2.37-1.32,4.69-2.75,6.94-4.31c4.47-3.14,8.57-6.82,12.31-10.84
			c7.51-8.05,13.27-17.61,17.82-27.61c4.55-10.04,7.66-20.68,9.82-31.46c1.14-5.39,1.85-10.85,2.46-16.31
			c0.3-2.73,0.47-5.47,0.71-8.21c0.14-2.74,0.29-5.49,0.38-8.23c0.03-2.74,0.13-5.49,0.09-8.23
			C452.16,360.95,452.21,358.2,452.05,355.46z"/>
		<circle id="SAT_02_00000072246980787435857720000011824093842887257741_" class="st4" cx="409.45" cy="170.69" r="10.95"/>
		<circle id="SAT_03_00000085931197354221240960000012688593457357531021_" class="st5" cx="392.85" cy="261.27" r="15.42"/>
		<circle id="SAT_04_00000018949611539619708280000008813199719441351066_" class="st6" cx="486.5" cy="300.58" r="9.93"/>
		<circle id="SAT_05_00000161629761962092415490000016633750516116754579_" class="st7" cx="375.09" cy="428.32" r="20.12"/>
		<circle class="st8" cx="273.58" cy="150.9" r="10.61"/>
		<path class="st1" d="M327.27,417.91c30.6-10.54,59.33-28.02,83.74-52.46c-36.11-36.06-81.64-56.94-128.66-62.64
			c33.5-33.49,56.47-78,62.66-128.66c-34.29-4.19-67.69-0.23-98.28,10.34c3.94-32.12,0.82-65.61-10.44-98.26
			C121.57,125.8,60.64,250.93,100.22,365.64c39.58,114.72,164.71,175.64,279.42,136.06C368.38,469.06,350.18,440.77,327.27,417.91z"
			/>
		<path id="PETALO_01_00000125566125263636601170000006978513165231226290_" class="st1" d="M236.29,86.22
			c39.58,114.72-21.31,239.83-136.06,279.42C60.64,250.93,121.57,125.8,236.29,86.22z"/>
		<path id="PETALO_02_00000159438237427628743850000009860787750472321721_" class="st1" d="M100.22,365.64
			c14.71-120.46,124.28-206.21,244.78-191.5C330.3,294.6,220.68,380.35,100.22,365.64z"/>
		<path id="PETALO_03_00000172412247123339432240000004365506734118184326_" class="st1" d="M100.22,365.64
			c85.75-85.86,224.93-85.95,310.79-0.2C325.23,451.34,186.09,451.4,100.22,365.64z"/>
		<path id="PETALO_04_00000095325487748164209360000012348639373447189415_" class="st1" d="M379.65,501.71
			c-114.72,39.58-239.84-21.35-279.42-136.06C214.98,326.05,340.06,386.99,379.65,501.71z"/>
		<path id="PETALO_01_00000178887608694292426830000002211358100424937649_" class="st9" d="M236.29,86.22
			c39.58,114.72-21.31,239.83-136.06,279.42C60.64,250.93,121.57,125.8,236.29,86.22z"/>
		<path id="PETALO_02_00000060027225494895819620000013621744488389236104_" class="st10" d="M100.22,365.64
			c14.71-120.46,124.28-206.21,244.78-191.5C330.3,294.6,220.68,380.35,100.22,365.64z"/>
		<path id="PETALO_03_00000037679514054382580830000002312297134222527146_" class="st11" d="M100.22,365.64
			c85.75-85.86,224.93-85.95,310.79-0.2C325.23,451.34,186.09,451.4,100.22,365.64z"/>
		<path id="PETALO_04_00000178171457919655129500000006014401711101221818_" class="st12" d="M379.65,501.71
			c-114.72,39.58-239.84-21.35-279.42-136.06C214.98,326.05,340.06,386.99,379.65,501.71z"/>
	</g>
	
		<linearGradient id="SVGID_00000096750111634540415150000013999911927860348067_" gradientUnits="userSpaceOnUse" x1="-105.9225" y1="381.125" x2="320.5897" y2="-45.3872" gradientTransform="matrix(0.9911 -0.1333 0.1333 0.9911 173.1051 142.1785)">
		<stop  offset="0.2714" style="stop-color:#219BC2"/>
		<stop  offset="0.7516" style="stop-color:#00973A"/>
		<stop  offset="1" style="stop-color:#8BC729"/>
	</linearGradient>
	<path style="fill:url(#SVGID_00000096750111634540415150000013999911927860348067_);" d="M214.11,21.65
		C249.29,9.9,286.43,4.11,323.85,5.11c18.7,0.52,37.47,2.64,55.98,6.66c18.5,4.05,36.76,9.87,54.32,17.63
		c35.07,15.55,67.39,38.83,93.09,68.47c25.8,29.52,45.08,64.99,56.21,102.68c5.49,18.87,9.06,38.28,10.65,57.78
		c1.52,19.51,1.13,39.09-1.15,58.34c-4.5,38.55-16.33,75.66-33.61,109.55c-17.35,33.9-40.59,64.53-68.52,90.14
		c-3.57,3.1-7.03,6.36-10.71,9.34c-3.72,2.92-7.33,6.01-11.16,8.8c-3.85,2.76-7.57,5.72-11.5,8.36c-3.97,2.59-7.85,5.33-11.9,7.8
		c-16.16,9.94-33.19,18.6-51.01,25.39c-35.59,13.54-74.18,20.5-112.79,18.65c-38.6-1.65-76.93-11.78-111.96-28.97
		c-17.51-8.61-34.25-18.96-49.82-30.94c-15.55-12-29.97-25.58-42.96-40.49C50.93,464.55,31.22,429,19.08,391.12
		C7.06,353.19,2.51,312.73,6.3,273.2c3.73-39.56,16.29-77.87,35.47-111.67c9.6-16.91,20.89-32.68,33.38-47.18
		c12.52-14.49,26.36-27.62,41.07-39.41C145.69,51.37,178.95,33.46,214.11,21.65z M215.17,24.91c-34.72,11.81-66.8,31.49-93,57.04
		c-26.27,25.51-46.53,56.65-60.36,89.84c-13.86,33.24-21.31,68.59-22.91,103.85c-0.77,17.64-0.04,35.3,2.39,52.72
		c2.49,17.4,6.4,34.58,11.99,51.21c11.06,33.31,28.25,64.3,50.39,91.24c22.2,26.9,49.69,49.38,80.42,65.89
		c30.78,16.46,64.78,26.73,99.62,30.49c4.36,0.35,8.73,0.9,13.11,1.1c4.38,0.13,8.77,0.46,13.17,0.44c4.39-0.07,8.8,0.09,13.2-0.11
		c4.39-0.27,8.82-0.36,13.21-0.77c17.61-1.46,35.15-4.71,52.31-9.67c34.25-10,66.96-26.99,94.6-50.65
		c27.79-23.43,50.59-53.15,66.29-86.29c15.75-33.14,23.95-69.7,24.77-105.96c0.4-18.14-0.94-36.23-4-53.93
		c-2.98-17.71-7.6-35.04-13.65-51.79c-24.03-67.05-70.87-124.12-132.22-160.6c-30.66-18.1-65.2-30.72-101.27-35.18
		C287.2,9.26,249.89,13.08,215.17,24.91z"/>
</g>
</svg>
