<?xml version="1.0" encoding="utf-8"?>
<!-- Generator: Adobe Illustrator 28.1.0, SVG Export Plug-In . SVG Version: 6.00 Build 0)  -->
<svg version="1.1" xmlns="http://www.w3.org/2000/svg" xmlns:xlink="http://www.w3.org/1999/xlink" x="0px" y="0px"
	 viewBox="0 0 510 100" style="enable-background:new 0 0 510 100;" xml:space="preserve">
<style type="text/css">
	.st0{fill:#FFFFFF;}
	.st1{fill:url(#SVGID_1_);}
	.st2{fill:#FFD000;}
	.st3{opacity:0.3;}
	.st4{fill:#5C9EC2;}
	.st5{fill:url(#SVGID_00000095311264210307580990000002749831351221524380_);}
	.st6{fill:#FDD100;}
	.st7{fill:#3E9E9C;}
</style>
<g id="Livello_6">
	<g>
		<path class="st0" d="M50.59,4.96c-3.91,0-7.69,0.51-11.3,1.46C20.32,11.41,6.32,28.68,6.32,49.23c0,24.45,19.82,44.27,44.27,44.27
			c20.02,0,36.94-13.3,42.41-31.54c1.21-4.03,1.86-8.3,1.86-12.73C94.86,24.78,75.04,4.96,50.59,4.96z"/>
		<g id="XMLID_7_">
			<g>
				<g>
					<linearGradient id="SVGID_1_" gradientUnits="userSpaceOnUse" x1="2.3457" y1="51.6961" x2="96.8041" y2="51.6961">
						<stop  offset="0" style="stop-color:#1590BB"/>
						<stop  offset="0.7957" style="stop-color:#52A782"/>
						<stop  offset="1" style="stop-color:#7AB829"/>
					</linearGradient>
					<path class="st1" d="M39.29,6.42c-3.6,1.41-6.99,3.18-10.08,5.31c-1.55,1.06-3.03,2.21-4.41,3.45
						c-1.38,1.24-2.72,2.52-3.92,3.92c-4.9,5.5-8.31,12.12-9.93,19.07c-0.41,1.74-0.72,3.49-0.89,5.26
						c-0.17,1.77-0.29,3.54-0.23,5.31c-0.01,0.44,0.03,0.89,0.05,1.33l0.08,1.32l0.14,1.32l0.06,0.66l0.1,0.65l0.19,1.31
						c0.08,0.43,0.17,0.86,0.26,1.29c0.15,0.87,0.4,1.71,0.61,2.56c0.96,3.38,2.26,6.65,4.03,9.68L16.01,70
						c0.22,0.38,0.47,0.74,0.71,1.1c0.46,0.75,1,1.44,1.5,2.15c0.26,0.35,0.54,0.69,0.81,1.03l0.41,0.51
						c0.14,0.17,0.29,0.33,0.43,0.5l0.86,0.99l0.91,0.95c4.85,5.04,10.99,8.83,17.69,10.9c1.67,0.55,3.39,0.92,5.12,1.26l1.31,0.19
						l0.65,0.1l0.66,0.07l1.32,0.14c0.44,0.04,0.88,0.05,1.32,0.08c0.88,0.07,1.77,0.06,2.66,0.07c0.89-0.03,1.77-0.05,2.66-0.12
						c1.77-0.13,3.54-0.34,5.29-0.71c7.01-1.36,13.71-4.6,19.39-9.28c2.83-2.35,5.41-5.06,7.64-8.08c2.24-3.02,4.12-6.35,5.66-9.89
						c-0.71,3.79-1.95,7.55-3.77,11.06c-0.9,1.76-1.92,3.47-3.06,5.09c-1.15,1.63-2.41,3.18-3.77,4.66
						c-5.47,5.87-12.67,10.32-20.6,12.52c-3.96,1.1-8.09,1.71-12.23,1.69c-0.52,0-1.04,0.01-1.55-0.01l-1.55-0.08l-0.78-0.04
						l-0.77-0.08l-1.55-0.17c-2.05-0.31-4.11-0.66-6.12-1.23c-1.01-0.24-2-0.59-2.99-0.91c-0.49-0.17-0.98-0.37-1.47-0.55
						c-0.49-0.19-0.98-0.37-1.45-0.58l-1.43-0.63c-0.48-0.22-0.94-0.46-1.41-0.69c-0.95-0.45-1.84-0.99-2.76-1.49
						c-0.45-0.26-0.89-0.55-1.33-0.83c-0.44-0.28-0.88-0.56-1.31-0.87l-1.28-0.9c-0.42-0.31-0.83-0.64-1.24-0.96l-0.62-0.48
						l-0.6-0.51l-1.19-1.02l-1.14-1.08l-0.57-0.54l-0.54-0.57l-1.07-1.14l-1.02-1.19c-0.17-0.2-0.34-0.39-0.51-0.6l-0.48-0.62
						c-0.32-0.41-0.65-0.82-0.96-1.24c-0.6-0.86-1.23-1.69-1.77-2.59c-0.28-0.44-0.57-0.88-0.83-1.33L8.5,72.69
						c-0.26-0.45-0.49-0.92-0.72-1.39c-0.23-0.47-0.47-0.93-0.69-1.41c-0.42-0.96-0.86-1.9-1.21-2.89
						c-0.77-1.94-1.36-3.95-1.85-5.97C2.14,52.91,2.44,44.34,4.95,36.5c2.49-7.84,7.13-14.91,13.2-20.17
						C24.2,11.06,31.63,7.53,39.29,6.42z"/>
				</g>
			</g>
			<g>
				<path class="st2" d="M93,61.95c0.14-2,0.23-3.96,0.22-5.89c-0.01-1.93-0.11-3.84-0.32-5.71c-0.19-1.88-0.52-3.72-0.88-5.54
					c-0.42-1.81-0.85-3.59-1.45-5.31c-2.28-6.92-6.06-13.17-11.03-18.27c-4.96-5.11-11.05-9.13-17.9-11.62
					c-3.41-1.29-7.03-2.13-10.76-2.68c-1.87-0.28-3.77-0.43-5.7-0.52c-1.93-0.08-3.89-0.06-5.89,0.01c1.78-0.93,3.67-1.65,5.62-2.21
					c1.95-0.57,3.96-0.96,6-1.19c4.08-0.44,8.3-0.3,12.41,0.56c4.12,0.82,8.13,2.33,11.85,4.37c1.85,1.04,3.65,2.19,5.33,3.5
					c0.86,0.63,1.65,1.35,2.47,2.03l1.16,1.09l0.58,0.55l0.55,0.58c1.5,1.52,2.83,3.19,4.09,4.9c0.6,0.88,1.22,1.74,1.75,2.67
					c0.57,0.9,1.06,1.84,1.56,2.78c0.95,1.9,1.8,3.85,2.44,5.86c0.35,0.99,0.62,2.02,0.9,3.03c0.12,0.51,0.23,1.03,0.34,1.54
					c0.11,0.51,0.22,1.03,0.3,1.55c0.08,0.52,0.17,1.04,0.24,1.55c0.06,0.52,0.1,1.04,0.16,1.56c0.12,1.04,0.13,2.08,0.17,3.12
					c0.01,0.52-0.02,1.04-0.02,1.56c-0.01,0.52-0.01,1.03-0.07,1.55c-0.09,1.03-0.16,2.06-0.32,3.07c-0.31,2.03-0.76,4.03-1.39,5.96
					C94.76,58.34,93.98,60.2,93,61.95z"/>
			</g>
		</g>
		<g>
			<g>
				<g>
					<g>
						<path class="st2" d="M46.95,58.27c-1.25-0.53-0.24-5.8,2.27-11.78c2.51-5.98,5.56-10.4,6.82-9.87
							c-5.98-2.51-12.86,0.3-15.37,6.28C38.17,48.88,40.98,55.76,46.95,58.27z"/>
						<g class="st3">
							<path class="st4" d="M59.55,45.75c0,0,0.07,0.08,0.21,0.21c0.13,0.13,0.32,0.34,0.54,0.58c0.22,0.25,0.46,0.55,0.7,0.88
								c0.11,0.17,0.24,0.34,0.35,0.53c0.12,0.18,0.22,0.38,0.32,0.57c0.1,0.2,0.19,0.4,0.27,0.6c0.08,0.2,0.14,0.41,0.19,0.61
								c0.04,0.2,0.09,0.4,0.1,0.59c0.02,0.19,0.02,0.37,0.01,0.53c-0.02,0.33-0.09,0.59-0.15,0.77c-0.07,0.17-0.11,0.27-0.11,0.27
								s0.03-0.1,0.08-0.28c0.04-0.18,0.08-0.45,0.07-0.76c-0.01-0.16-0.03-0.33-0.07-0.5c-0.03-0.18-0.09-0.36-0.15-0.54
								c-0.07-0.18-0.15-0.37-0.24-0.55c-0.09-0.18-0.2-0.36-0.31-0.54c-0.11-0.17-0.23-0.35-0.36-0.51
								c-0.12-0.17-0.26-0.32-0.38-0.47c-0.26-0.29-0.52-0.55-0.75-0.77c-0.23-0.21-0.42-0.38-0.57-0.5
								c-0.14-0.12-0.23-0.19-0.23-0.19L59.55,45.75z"/>
							<path class="st4" d="M62,51.91c0,0-0.12,0.25-0.35,0.73c-0.06,0.12-0.11,0.25-0.2,0.39c-0.08,0.14-0.18,0.29-0.28,0.45
								c-0.1,0.16-0.2,0.34-0.33,0.52c-0.13,0.17-0.27,0.36-0.42,0.55c-0.61,0.76-1.43,1.65-2.57,2.42
								c-1.13,0.77-2.55,1.45-4.22,1.8c-1.66,0.34-3.55,0.32-5.43-0.19c-0.24-0.06-0.46-0.15-0.7-0.23
								c-0.23-0.09-0.47-0.14-0.71-0.27c-0.44-0.22-0.9-0.4-1.34-0.69c-0.91-0.51-1.71-1.19-2.46-1.95
								c-0.75-0.77-1.36-1.67-1.89-2.64c-0.51-0.98-0.87-2.04-1.11-3.14c-0.22-1.11-0.26-2.25-0.17-3.39
								c0.12-1.14,0.41-2.25,0.83-3.32c0.26-0.53,0.45-1.02,0.78-1.53c0.16-0.24,0.28-0.51,0.47-0.73L42.42,40
								c0.74-0.88,1.58-1.66,2.52-2.3c0.95-0.62,1.97-1.13,3.03-1.46c1.07-0.31,2.16-0.52,3.25-0.54c1.08,0,2.16,0.1,3.16,0.39
								c0.51,0.11,0.99,0.31,1.47,0.48c0.07,0.03,0.1,0.03,0.19,0.07l0.16,0.08l0.33,0.16c0.22,0.12,0.44,0.2,0.65,0.34
								c1.74,1.02,3.08,2.37,3.99,3.83c0.91,1.46,1.4,2.98,1.63,4.34c0.23,1.37,0.16,2.58,0.03,3.55c-0.04,0.24-0.08,0.47-0.11,0.69
								c-0.04,0.21-0.1,0.41-0.15,0.6c-0.05,0.18-0.09,0.36-0.14,0.51c-0.04,0.16-0.1,0.29-0.15,0.42C62.1,51.65,62,51.91,62,51.91
								L62,51.91z M61.93,51.88c0,0,0.09-0.26,0.26-0.76c0.04-0.12,0.1-0.26,0.14-0.41c0.04-0.16,0.08-0.33,0.12-0.51
								c0.04-0.18,0.1-0.38,0.13-0.59c0.03-0.21,0.06-0.44,0.09-0.68c0.11-0.96,0.15-2.16-0.15-3.48c-0.28-1.32-0.83-2.76-1.77-4.11
								c-0.94-1.33-2.27-2.6-3.88-3.48c-0.2-0.12-0.43-0.21-0.65-0.31l-0.33-0.15l-0.17-0.08l-0.15-0.05
								c-0.45-0.15-0.9-0.35-1.38-0.44c-0.94-0.27-1.95-0.35-2.96-0.34c-1.02,0.01-2.04,0.19-3.04,0.47c-1,0.31-1.96,0.77-2.87,1.34
								c-0.89,0.59-1.7,1.32-2.41,2.13l-0.5,0.64c-0.18,0.21-0.29,0.45-0.44,0.67c-0.3,0.43-0.53,0.98-0.77,1.45
								c-0.4,1.01-0.7,2.07-0.83,3.15c-0.1,1.08-0.07,2.18,0.12,3.24c0.21,1.06,0.55,2.08,1.02,3.03c0.5,0.93,1.08,1.81,1.79,2.56
								c0.71,0.74,1.49,1.41,2.34,1.91c0.4,0.28,0.87,0.47,1.31,0.7c0.2,0.11,0.45,0.18,0.67,0.27c0.23,0.08,0.44,0.18,0.67,0.24
								c1.82,0.54,3.66,0.6,5.3,0.31c1.64-0.3,3.06-0.94,4.19-1.69c1.15-0.73,1.97-1.61,2.58-2.37c0.15-0.19,0.29-0.38,0.42-0.55
								c0.12-0.18,0.22-0.36,0.32-0.52c0.1-0.16,0.19-0.31,0.27-0.45c0.08-0.14,0.14-0.28,0.2-0.39
								C61.81,52.13,61.94,51.88,61.93,51.88L61.93,51.88z"/>
							<g>
								<path class="st4" d="M62,51.91c0,0-0.01,0.03-0.04,0.09c-0.03,0.06-0.06,0.15-0.13,0.26c-0.13,0.22-0.35,0.53-0.72,0.83
									c-0.37,0.29-0.88,0.58-1.51,0.78c-0.63,0.21-1.36,0.34-2.17,0.39c-0.81,0.05-1.68,0.02-2.6-0.09
									c-0.92-0.1-1.88-0.3-2.85-0.56c-1.95-0.53-3.96-1.35-5.82-2.44c-0.93-0.55-1.83-1.16-2.65-1.85
									c-0.82-0.69-1.56-1.46-2.15-2.33c-0.56-0.87-1.01-1.86-0.98-2.89c0.01-0.51,0.16-1.03,0.39-1.42
									c0.25-0.43,0.59-0.76,0.94-1.01c0.35-0.26,0.72-0.43,1.08-0.55c0.36-0.13,0.71-0.21,1.04-0.27
									c0.66-0.12,1.24-0.14,1.71-0.13c0.47,0.01,0.84,0.04,1.09,0.07C46.87,40.8,47,40.82,47,40.82L47,40.89c0,0-0.13,0-0.38,0.01
									c-0.25,0.01-0.61,0.01-1.07,0.06c-0.46,0.05-1.02,0.12-1.63,0.28c-0.6,0.17-1.29,0.42-1.86,0.88
									c-0.29,0.23-0.54,0.52-0.7,0.84c-0.19,0.36-0.27,0.73-0.27,1.14c0.01,0.81,0.37,1.68,0.91,2.46
									c0.52,0.8,1.21,1.54,1.97,2.23c0.76,0.69,1.61,1.31,2.5,1.87c3.58,2.23,7.79,3.42,10.96,3.33c0.79-0.03,1.51-0.13,2.13-0.31
									c0.62-0.17,1.12-0.43,1.49-0.71c0.37-0.27,0.6-0.56,0.72-0.77c0.07-0.1,0.11-0.19,0.14-0.25c0.03-0.06,0.04-0.09,0.04-0.09
									L62,51.91z"/>
							</g>
							<path class="st4" d="M45.59,37.98c0,0,0.02-0.04,0.05-0.1c0.03-0.07,0.1-0.17,0.21-0.28c0.21-0.22,0.62-0.45,1.17-0.57
								c1.1-0.25,2.73-0.15,4.59,0.28c1.86,0.43,3.98,1.18,6.09,2.31c1.05,0.57,2.11,1.23,3.08,2.05c0.48,0.41,0.95,0.87,1.34,1.41
								c0.19,0.27,0.36,0.57,0.47,0.91c0.11,0.34,0.15,0.73-0.02,1.14c-0.05,0.12-0.19,0.35-0.32,0.47
								c-0.14,0.13-0.29,0.24-0.45,0.33c-0.32,0.17-0.66,0.26-0.99,0.33c-0.66,0.12-1.32,0.12-1.96,0.08
								c-1.28-0.08-2.51-0.36-3.67-0.69c-1.15-0.36-2.24-0.77-3.24-1.25c-1-0.48-1.91-0.98-2.72-1.51c-0.81-0.52-1.5-1.08-2.08-1.61
								c-0.57-0.54-1.02-1.07-1.3-1.57c-0.29-0.49-0.4-0.95-0.38-1.27c0.01-0.16,0.04-0.27,0.07-0.35
								C45.57,38.02,45.59,37.98,45.59,37.98l0.07,0.03c0,0-0.01,0.04-0.03,0.11c-0.02,0.07-0.03,0.18-0.03,0.32
								c0.01,0.28,0.15,0.69,0.46,1.13c0.31,0.44,0.78,0.91,1.36,1.39c0.58,0.48,1.3,0.96,2.11,1.44c0.8,0.48,1.71,0.94,2.7,1.36
								c0.99,0.42,2.04,0.84,3.17,1.16c1.12,0.34,2.3,0.62,3.5,0.74c0.6,0.06,1.21,0.07,1.8-0.02c0.57-0.1,1.15-0.29,1.35-0.76
								c0.02-0.07,0.06-0.21,0.06-0.33c-0.01-0.13-0.02-0.26-0.06-0.39c-0.08-0.26-0.22-0.52-0.38-0.77
								c-0.34-0.49-0.76-0.94-1.22-1.34c-0.91-0.81-1.94-1.48-2.96-2.06c-1.02-0.58-2.06-1.06-3.06-1.47
								c-1-0.41-1.98-0.73-2.89-0.97c-1.82-0.48-3.42-0.62-4.5-0.41c-0.54,0.1-0.93,0.3-1.13,0.51c-0.1,0.1-0.16,0.19-0.2,0.26
								c-0.04,0.07-0.05,0.1-0.05,0.1L45.59,37.98z"/>
							<g>
								<path class="st4" d="M56.31,54.46c0.33,0.35,0.65,0.72,0.88,1.16c0.06,0.11,0.11,0.22,0.15,0.34
									c0.02,0.06,0.04,0.12,0.06,0.18l0.03,0.19c0.03,0.12,0.01,0.25,0.01,0.38c-0.03,0.12-0.05,0.26-0.11,0.37
									c-0.23,0.49-0.74,0.74-1.21,0.88c-0.48,0.14-0.97,0.19-1.46,0.2c-0.98,0.02-1.95-0.11-2.91-0.3
									c-0.95-0.19-1.89-0.46-2.81-0.77c-0.46-0.16-0.91-0.33-1.37-0.51c-0.44-0.18-0.9-0.37-1.34-0.57
									c-0.88-0.41-1.75-0.87-2.57-1.4c-0.42-0.26-0.81-0.56-1.19-0.87c-0.39-0.31-0.75-0.65-1.09-1.02
									c-0.34-0.37-0.65-0.77-0.88-1.25c-0.11-0.24-0.21-0.49-0.25-0.77c-0.04-0.28-0.01-0.58,0.11-0.85l-0.01,0.04
									c0.02-0.05,0.04-0.1,0.05-0.13c0.02-0.03,0.04-0.07,0.06-0.1l0.13-0.17c0.05-0.05,0.1-0.09,0.15-0.13
									c0.05-0.04,0.1-0.09,0.16-0.12c0.11-0.06,0.22-0.13,0.34-0.17c0.12-0.04,0.24-0.07,0.36-0.11c0.12-0.03,0.24-0.04,0.36-0.06
									c0.12-0.01,0.24-0.04,0.36-0.04c0.24,0,0.48,0,0.71,0.01l0,0.07c-0.23,0.04-0.46,0.08-0.69,0.11
									c-0.11,0.02-0.22,0.06-0.33,0.09c-0.11,0.04-0.22,0.05-0.32,0.1c-0.1,0.05-0.2,0.1-0.3,0.14c-0.1,0.04-0.18,0.12-0.27,0.17
									c-0.05,0.03-0.08,0.07-0.11,0.1c-0.03,0.04-0.07,0.07-0.1,0.11l-0.08,0.12C40.85,49.94,40.82,50,40.82,50l0,0l-0.01,0.04
									c-0.12,0.36,0.02,0.78,0.23,1.15c0.23,0.38,0.53,0.72,0.85,1.05c0.33,0.32,0.68,0.63,1.05,0.92
									c0.37,0.29,0.76,0.55,1.14,0.82c0.78,0.53,1.6,1.01,2.44,1.44c0.43,0.22,0.84,0.42,1.29,0.62c0.43,0.19,0.87,0.37,1.32,0.54
									c0.89,0.33,1.8,0.62,2.72,0.84c0.92,0.22,1.87,0.37,2.81,0.39c0.47,0.01,0.94-0.02,1.39-0.13c0.44-0.11,0.89-0.31,1.1-0.71
									c0.22-0.39,0.1-0.89-0.09-1.31c-0.2-0.43-0.49-0.81-0.81-1.17L56.31,54.46z"/>
							</g>
							<path class="st4" d="M49.41,56.29c0,0-0.07,0.1-0.21,0.28c-0.14,0.18-0.35,0.45-0.65,0.76c-0.15,0.15-0.33,0.32-0.54,0.48
								c-0.21,0.15-0.47,0.33-0.82,0.31c-0.04,0-0.09-0.01-0.13-0.02c-0.03-0.01-0.03-0.01-0.07-0.03l-0.05-0.03
								c-0.06-0.03-0.16-0.11-0.2-0.18c-0.12-0.14-0.18-0.31-0.23-0.48c-0.09-0.34-0.11-0.7-0.11-1.08
								c0.01-0.75,0.11-1.55,0.27-2.38c0.16-0.83,0.37-1.7,0.63-2.59c0.51-1.78,1.17-3.64,1.93-5.46c0.76-1.82,1.59-3.62,2.54-5.22
								c0.49-0.79,0.98-1.55,1.52-2.22c0.55-0.66,1.08-1.3,1.86-1.68c0.2-0.08,0.44-0.16,0.7-0.1c0.07,0.03,0.12,0.03,0.2,0.08
								c0.04,0.03,0.06,0.03,0.12,0.09c0.05,0.05,0.11,0.1,0.14,0.15l0.09,0.14c0.18,0.38,0.2,0.72,0.21,1.03
								c0.01,0.63-0.08,1.15-0.16,1.57c-0.08,0.43-0.16,0.75-0.23,0.98c-0.06,0.22-0.1,0.34-0.1,0.34l-0.07-0.02
								c0,0,0.02-0.12,0.04-0.35c0.02-0.23,0.07-0.56,0.1-0.99c0.02-0.42,0.06-0.94,0-1.51c-0.03-0.28-0.09-0.59-0.22-0.81
								l-0.05-0.07c-0.02-0.02-0.03-0.02-0.04-0.03c0.01-0.01-0.06-0.04-0.09-0.05c0.01,0-0.03,0-0.05-0.01
								c-0.08-0.01-0.21,0.02-0.34,0.09c-0.27,0.14-0.54,0.39-0.79,0.66c-0.26,0.27-0.51,0.59-0.75,0.92
								c-0.48,0.66-0.97,1.4-1.43,2.18c-0.94,1.55-1.85,3.29-2.65,5.06c-0.8,1.78-1.51,3.6-2.06,5.35c-0.28,0.87-0.51,1.72-0.7,2.54
								c-0.18,0.81-0.32,1.6-0.35,2.32c-0.02,0.36,0,0.71,0.07,1.02c0.06,0.31,0.23,0.58,0.49,0.6c0.26,0.02,0.51-0.12,0.72-0.26
								c0.21-0.14,0.39-0.3,0.54-0.44c0.31-0.3,0.53-0.55,0.67-0.73c0.15-0.18,0.22-0.27,0.22-0.27L49.41,56.29z"/>
							<path class="st4" d="M55.89,36.93c0,0,0.22,0.11,0.64,0.31c0.41,0.22,0.99,0.6,1.62,1.21c0.62,0.62,1.25,1.5,1.72,2.62
								c0.48,1.12,0.8,2.48,0.84,3.98c0.05,1.5-0.16,3.14-0.69,4.78c-0.15,0.4-0.28,0.81-0.46,1.23c-0.09,0.2-0.18,0.4-0.27,0.6
								c-0.09,0.2-0.18,0.4-0.3,0.6c-0.22,0.4-0.44,0.81-0.7,1.18c-0.13,0.19-0.25,0.39-0.39,0.58c-0.14,0.18-0.29,0.37-0.43,0.56
								c-0.14,0.19-0.3,0.37-0.46,0.54c-0.16,0.17-0.32,0.35-0.49,0.53c-0.36,0.32-0.69,0.67-1.09,0.96
								c-0.75,0.62-1.62,1.12-2.54,1.51c-1.83,0.81-4.04,0.93-5.97,0.16c-0.92-0.39-1.83-1.02-2.52-1.77
								c-0.17-0.2-0.36-0.37-0.5-0.59l-0.44-0.63l-0.37-0.67c-0.13-0.22-0.21-0.46-0.32-0.69c-0.39-0.93-0.65-1.91-0.75-2.89
								c-0.08-0.49-0.07-0.98-0.1-1.46c0-0.24,0.02-0.48,0.03-0.72c0.01-0.24,0.02-0.48,0.05-0.72c0.22-1.89,0.79-3.69,1.6-5.21
								c0.83-1.56,1.86-2.86,2.98-3.88c1.12-1.03,2.35-1.74,3.5-2.18c1.16-0.44,2.24-0.59,3.12-0.56c0.88,0.05,1.56,0.2,2,0.36
								C55.65,36.84,55.88,36.93,55.89,36.93L55.86,37c0,0-0.24-0.07-0.68-0.2c-0.44-0.12-1.11-0.24-1.96-0.22
								c-0.85,0.03-1.88,0.23-2.97,0.69c-1.09,0.46-2.21,1.21-3.26,2.21c-1.05,1-2.01,2.29-2.74,3.76
								c-0.74,1.52-1.28,3.19-1.48,4.99c-0.04,0.22-0.05,0.45-0.06,0.68c-0.01,0.23-0.03,0.46-0.03,0.68
								c0.02,0.46,0.01,0.92,0.08,1.38c0.09,0.92,0.31,1.84,0.66,2.71c0.1,0.21,0.16,0.44,0.28,0.65l0.33,0.62l0.4,0.58
								c0.12,0.2,0.3,0.36,0.45,0.55c0.64,0.71,1.38,1.26,2.27,1.66c1.75,0.73,3.8,0.66,5.55-0.09c0.88-0.35,1.71-0.83,2.44-1.41
								c0.39-0.27,0.71-0.6,1.06-0.91c0.16-0.16,0.32-0.34,0.48-0.5c0.16-0.17,0.32-0.33,0.45-0.52c0.14-0.18,0.29-0.36,0.43-0.53
								c0.14-0.18,0.26-0.37,0.39-0.56c0.27-0.36,0.48-0.75,0.7-1.13c0.11-0.19,0.21-0.38,0.3-0.59c0.1-0.2,0.19-0.4,0.28-0.6
								c0.17-0.38,0.31-0.8,0.47-1.18c0.55-1.59,0.78-3.19,0.76-4.66c-0.02-1.47-0.31-2.81-0.76-3.92c-0.45-1.11-1.05-1.98-1.64-2.6
								c-0.61-0.61-1.17-0.99-1.57-1.22C56.07,37.11,55.85,37,55.85,37L55.89,36.93z"/>
						</g>
						
							<linearGradient id="SVGID_00000148624079296683119530000014135763086936377768_" gradientUnits="userSpaceOnUse" x1="126.8898" y1="-47.6348" x2="142.2943" y2="-47.6348" gradientTransform="matrix(0.9873 0.1586 -0.1586 0.9873 -84.9822 73.9354)">
							<stop  offset="0" style="stop-color:#1590BB"/>
							<stop  offset="0.9086" style="stop-color:#52A782"/>
						</linearGradient>
						<path style="fill:url(#SVGID_00000148624079296683119530000014135763086936377768_);" d="M56.04,36.63
							c5.98,2.51,8.79,9.39,6.28,15.37c-2.51,5.98-9.39,8.79-15.37,6.28c-1.25-0.53-0.24-5.8,2.27-11.78
							C51.74,40.52,54.79,36.1,56.04,36.63z"/>
					</g>
					<g>
						<path class="st0" d="M55.4,47.03c-0.2,0.47-0.74,0.69-1.21,0.49c-0.47-0.2-0.69-0.74-0.49-1.21c0.2-0.47,0.74-0.69,1.2-0.49
							S55.59,46.56,55.4,47.03z"/>
						<path class="st0" d="M59,46.84c-0.2,0.47-0.74,0.69-1.2,0.49c-0.47-0.2-0.69-0.74-0.49-1.21c0.2-0.47,0.74-0.69,1.21-0.49
							C58.98,45.84,59.2,46.37,59,46.84z"/>
						<path class="st0" d="M62.14,46.74c-0.2,0.47-0.74,0.69-1.2,0.49c-0.47-0.2-0.69-0.74-0.49-1.21c0.2-0.47,0.74-0.69,1.2-0.49
							C62.12,45.73,62.33,46.27,62.14,46.74z"/>
						<path class="st0" d="M54.03,50.29c-0.2,0.47-0.74,0.69-1.21,0.49c-0.47-0.2-0.69-0.74-0.49-1.21c0.2-0.47,0.74-0.69,1.21-0.49
							C54.01,49.28,54.23,49.82,54.03,50.29z"/>
						<path class="st0" d="M57.63,50.1c-0.2,0.47-0.74,0.69-1.21,0.49c-0.47-0.2-0.69-0.74-0.49-1.2c0.2-0.47,0.74-0.69,1.2-0.49
							C57.61,49.09,57.83,49.63,57.63,50.1z"/>
						<path class="st0" d="M60.77,50c-0.2,0.47-0.74,0.69-1.21,0.49c-0.47-0.2-0.69-0.74-0.49-1.2c0.2-0.47,0.74-0.69,1.21-0.49
							C60.75,48.99,60.97,49.53,60.77,50z"/>
						<path class="st0" d="M52.63,53.61c-0.2,0.47-0.74,0.69-1.2,0.49c-0.47-0.2-0.69-0.74-0.49-1.21c0.2-0.47,0.74-0.69,1.2-0.49
							C52.61,52.6,52.83,53.14,52.63,53.61z"/>
						<path class="st0" d="M56.24,53.42c-0.2,0.47-0.74,0.69-1.21,0.49c-0.47-0.2-0.69-0.74-0.49-1.2c0.2-0.47,0.74-0.69,1.21-0.49
							C56.21,52.41,56.43,52.95,56.24,53.42z"/>
						<path class="st0" d="M59.38,53.32c-0.2,0.47-0.74,0.69-1.21,0.49c-0.47-0.2-0.69-0.74-0.49-1.2c0.2-0.47,0.74-0.69,1.2-0.49
							C59.35,52.31,59.57,52.85,59.38,53.32z"/>
					</g>
				</g>
			</g>
		</g>
		<g>
			<path class="st6" d="M47.68,68.06l-2.64,0.5c-0.25,0.05-0.46,0.19-0.61,0.4s-0.2,0.46-0.15,0.71c0.08,0.45,0.48,0.77,0.93,0.77
				c0.06,0,0.12,0,0.18-0.02l2.65-0.5c0.51-0.1,0.85-0.6,0.75-1.11C48.69,68.3,48.2,67.97,47.68,68.06z"/>
			<path class="st6" d="M35.16,28.98c-0.5-0.14-1.03,0.14-1.18,0.64c-0.26,0.86-0.5,1.73-0.75,2.61c-0.14,0.5,0.16,1.03,0.66,1.17
				c0.08,0.02,0.17,0.04,0.25,0.04c0.43,0,0.8-0.29,0.91-0.7c0.24-0.86,0.48-1.72,0.74-2.57C35.95,29.66,35.66,29.13,35.16,28.98z"
				/>
			<path class="st6" d="M37.44,25.08c0.29-0.83,0.6-1.66,0.89-2.42l0.03-0.08c0.08-0.24,0.05-0.77-0.6-1.04
				c-0.65-0.26-1.05,0.12-1.19,0.39c-0.32,0.83-0.63,1.67-0.93,2.52c-0.17,0.49,0.09,1.04,0.58,1.21c0.1,0.04,0.21,0.05,0.31,0.05
				C36.95,25.72,37.31,25.46,37.44,25.08z"/>
			<path class="st6" d="M62.73,30.53c0.18,0.17,0.41,0.27,0.66,0.27c0.26,0,0.5-0.1,0.68-0.29c0.18-0.18,0.27-0.42,0.27-0.67
				s-0.11-0.49-0.29-0.67c-0.65-0.63-1.31-1.26-1.96-1.87c-0.38-0.36-0.98-0.34-1.34,0.04c-0.36,0.38-0.34,0.98,0.04,1.34
				C61.44,29.29,62.08,29.9,62.73,30.53z"/>
			<path class="st6" d="M39.74,69.57c-0.9,0.17-1.78,0.34-2.65,0.52c0,0-1.02,0.16-0.84,1.12s1.22,0.74,1.22,0.74
				c0.86-0.17,1.74-0.34,2.64-0.51c0.25-0.05,0.46-0.19,0.61-0.4c0.14-0.21,0.19-0.46,0.15-0.71c-0.05-0.25-0.19-0.47-0.4-0.61
				C40.24,69.57,39.99,69.52,39.74,69.57z"/>
			<path class="st6" d="M28.13,60.52c-0.51-0.1-1.01,0.24-1.11,0.74l-0.03,0.13c-0.18,0.72-0.28,1.45-0.28,2.18
				c0,0.21,0.01,0.42,0.02,0.62c0.04,0.49,0.45,0.88,0.94,0.88l0.07,0c0.25-0.02,0.48-0.13,0.65-0.33c0.17-0.19,0.25-0.44,0.23-0.69
				c-0.01-0.16-0.02-0.32-0.02-0.48c0-0.58,0.07-1.15,0.23-1.75l0.04-0.17C28.98,61.12,28.64,60.62,28.13,60.52z"/>
			<path class="st6" d="M29.66,52.58c-0.52-0.1-1.01,0.24-1.11,0.75l-0.51,2.64c-0.05,0.25,0,0.5,0.15,0.71
				c0.14,0.21,0.36,0.35,0.61,0.4c0.06,0.01,0.12,0.02,0.18,0.02c0.45,0,0.84-0.32,0.93-0.77l0.51-2.64
				C30.51,53.18,30.18,52.68,29.66,52.58z"/>
			<path class="st6" d="M31.25,44.66c-0.25-0.05-0.5-0.01-0.71,0.13c-0.21,0.14-0.36,0.35-0.41,0.6c-0.18,0.89-0.36,1.77-0.54,2.64
				c-0.1,0.51,0.23,1.01,0.74,1.12c0.06,0.01,0.13,0.02,0.19,0.02c0.45,0,0.84-0.32,0.93-0.76c0.18-0.87,0.35-1.75,0.54-2.63
				c0.05-0.25,0-0.5-0.14-0.71C31.71,44.85,31.5,44.71,31.25,44.66z"/>
			<path class="st6" d="M33.03,36.78c-0.51-0.12-1.02,0.19-1.14,0.7c-0.21,0.88-0.42,1.76-0.62,2.63c-0.12,0.51,0.21,1.02,0.71,1.13
				c0.07,0.02,0.14,0.03,0.21,0.03c0.44,0,0.83-0.31,0.92-0.74c0.2-0.87,0.4-1.74,0.61-2.61c0.06-0.25,0.02-0.5-0.11-0.72
				S33.28,36.84,33.03,36.78z"/>
			<path class="st6" d="M78.81,59.23c-0.26-0.01-0.49,0.08-0.68,0.25c-0.58,0.53-1.24,0.95-1.98,1.25c-0.48,0.2-0.72,0.75-0.52,1.24
				c0.15,0.36,0.49,0.59,0.88,0.59c0.12,0,0.24-0.02,0.36-0.07c0.95-0.39,1.8-0.93,2.55-1.62c0.38-0.35,0.41-0.96,0.05-1.34
				C79.3,59.35,79.06,59.24,78.81,59.23z"/>
			<path class="st6" d="M73.43,38.93c-0.17-0.19-0.4-0.3-0.65-0.32c-0.25-0.01-0.5,0.07-0.68,0.24s-0.3,0.4-0.32,0.65
				s0.07,0.5,0.24,0.68c0.6,0.68,1.19,1.35,1.77,2.02c0.18,0.21,0.44,0.33,0.72,0.33c0.23,0,0.45-0.08,0.62-0.23
				c0.19-0.17,0.31-0.39,0.33-0.65c0.02-0.25-0.06-0.5-0.23-0.69C74.63,40.3,74.04,39.62,73.43,38.93z"/>
			<path class="st6" d="M51.44,18.2c-0.65-0.49-1.4-0.89-2.21-1.2c-0.24-0.09-0.49-0.08-0.72,0.02c-0.23,0.1-0.41,0.29-0.5,0.53
				c-0.09,0.24-0.08,0.49,0.02,0.72c0.1,0.23,0.29,0.41,0.53,0.5c0.65,0.24,1.24,0.56,1.75,0.94l0.34,0.26
				c0.17,0.12,0.36,0.19,0.57,0.19c0.3,0,0.58-0.14,0.76-0.38c0.15-0.2,0.22-0.45,0.18-0.7c-0.04-0.25-0.17-0.47-0.37-0.63
				L51.44,18.2z"/>
			<path class="st6" d="M71.86,62.54c-0.23-0.12-0.48-0.14-0.72-0.06c-0.84,0.27-1.7,0.53-2.56,0.78c-0.5,0.15-0.79,0.67-0.64,1.18
				c0.12,0.4,0.49,0.68,0.91,0.68c0.09,0,0.18-0.01,0.27-0.04c0.87-0.26,1.74-0.52,2.6-0.79c0.24-0.08,0.44-0.24,0.55-0.47
				s0.14-0.48,0.06-0.72C72.25,62.86,72.09,62.66,71.86,62.54z"/>
			<path class="st6" d="M80.33,47.32c-0.52-0.7-1.07-1.42-1.65-2.16c-0.32-0.41-0.92-0.48-1.33-0.16c-0.41,0.32-0.48,0.92-0.16,1.33
				c0.57,0.72,1.11,1.43,1.62,2.12c0.18,0.24,0.46,0.38,0.76,0.38c0.2,0,0.4-0.06,0.56-0.19C80.55,48.33,80.64,47.74,80.33,47.32z"
				/>
			<path class="st6" d="M56.04,21.87c-0.19-0.17-0.43-0.25-0.69-0.22c-0.25,0.02-0.48,0.14-0.65,0.33
				c-0.16,0.19-0.24,0.44-0.22,0.69c0.02,0.25,0.14,0.48,0.33,0.64c0.67,0.56,1.34,1.15,2.02,1.75c0.17,0.15,0.4,0.24,0.63,0.24
				c0.27,0,0.53-0.12,0.71-0.32c0.17-0.19,0.25-0.43,0.23-0.69c-0.02-0.25-0.13-0.48-0.32-0.65C57.4,23.04,56.71,22.45,56.04,21.87z
				"/>
			<path class="st6" d="M56.29,66.6c-0.21-0.14-0.46-0.18-0.71-0.13c-0.88,0.19-1.76,0.37-2.63,0.55c-0.25,0.05-0.46,0.19-0.6,0.41
				c-0.14,0.21-0.19,0.46-0.14,0.71c0.09,0.44,0.48,0.76,0.93,0.76c0.06,0,0.12-0.01,0.19-0.02c0.88-0.18,1.76-0.36,2.65-0.55
				c0.51-0.11,0.84-0.61,0.73-1.12C56.65,66.95,56.51,66.74,56.29,66.6z"/>
			<path class="st6" d="M69.07,36.55c0.24,0,0.48-0.09,0.65-0.26c0.38-0.36,0.39-0.96,0.04-1.34c-0.62-0.65-1.24-1.3-1.88-1.95
				c-0.36-0.37-0.96-0.38-1.34-0.02c-0.18,0.18-0.28,0.41-0.29,0.67c0,0.25,0.09,0.49,0.27,0.67c0.62,0.64,1.25,1.29,1.86,1.93
				C68.56,36.44,68.81,36.55,69.07,36.55z"/>
			<path class="st6" d="M63.42,64.67c-0.87,0.22-1.73,0.43-2.6,0.64c-0.51,0.12-0.82,0.63-0.7,1.14c0.1,0.43,0.48,0.73,0.92,0.73
				c0.07,0,0.15-0.01,0.22-0.03c0.88-0.21,1.76-0.42,2.63-0.64c0.51-0.13,0.81-0.64,0.69-1.15C64.44,64.85,63.93,64.54,63.42,64.67z
				"/>
		</g>
		<g id="VtAZmA_00000096737403078250913450000013692836698331749253_">
			<g>
				<path class="st7" d="M35.07,81.55c-0.52-0.55-1.03-1.1-1.55-1.64c0.8-0.77,1.59-1.52,2.38-2.27c0.49,0.53,1,1.09,1.6,1.73
					c-0.76,0.7-1.56,1.44-2.37,2.19C35.11,81.55,35.09,81.55,35.07,81.55z"/>
				<path class="st7" d="M19.13,64.98c0.66-0.63,2.23-2.14,2.35-2.27c0.53,0.57,1.05,1.13,1.55,1.67c-0.74,0.71-1.53,1.48-2.4,2.31
					c-0.5-0.55-1-1.1-1.51-1.66C19.13,65.02,19.13,65,19.13,64.98z"/>
				<path class="st7" d="M24.66,73.09c0.01-0.27,0.12-0.59,0.38-0.84c1.17-1.12,2.33-2.25,3.49-3.37c0.55-0.53,1.33-0.5,1.87,0.05
					c0.4,0.4,0.79,0.81,1.18,1.22c0.53,0.56,0.52,1.34-0.03,1.87c-1.14,1.11-2.28,2.21-3.43,3.31c-0.59,0.56-1.34,0.56-1.91-0.01
					c-0.41-0.41-0.8-0.82-1.2-1.24C24.76,73.83,24.65,73.53,24.66,73.09z"/>
				<path class="st7" d="M34.55,69.56c-1.03,0.72-2.24,0.65-3.16-0.23c-1.06-1.02-1.06-2.33-0.3-3.36
					C32.24,67.17,33.4,68.37,34.55,69.56z"/>
				<path class="st7" d="M31.39,77.63c0.76-0.73,1.54-1.48,2.32-2.23c0.51,0.53,1.03,1.08,1.55,1.62c-0.75,0.72-1.53,1.48-2.31,2.23
					C32.44,78.73,31.92,78.18,31.39,77.63z"/>
				<path class="st7" d="M33.11,74.79c-0.76,0.73-1.54,1.49-2.32,2.24c-0.51-0.53-1.04-1.07-1.54-1.59c0.77-0.74,1.56-1.5,2.35-2.26
					C32.08,73.69,32.6,74.24,33.11,74.79z"/>
				<path class="st7" d="M27.38,68.82c-0.78,0.76-1.56,1.52-2.33,2.27c-0.52-0.54-1.04-1.08-1.55-1.6c0.78-0.76,1.57-1.52,2.37-2.29
					C26.36,67.73,26.87,68.27,27.38,68.82z"/>
				<path class="st7" d="M22.84,68.84c-0.49-0.51-1.01-1.05-1.51-1.58c0.79-0.75,1.58-1.51,2.36-2.25c0.49,0.5,1.01,1.04,1.53,1.57
					C24.44,67.31,23.65,68.07,22.84,68.84z"/>
			</g>
		</g>
		<g id="VtAZmA_00000116195391396403372200000012373834578454976913_">
			<g>
				<path class="st7" d="M89.51,45.11c-0.22,0.72-0.43,1.44-0.65,2.16c-1.06-0.31-2.11-0.62-3.16-0.92c0.21-0.69,0.44-1.41,0.7-2.25
					c0.98,0.31,2.03,0.63,3.08,0.96C89.49,45.08,89.5,45.09,89.51,45.11z"/>
				<path class="st7" d="M83.13,67.19c-0.88-0.26-2.97-0.86-3.14-0.91c0.23-0.75,0.45-1.47,0.67-2.18c0.99,0.28,2.04,0.59,3.2,0.92
					c-0.22,0.7-0.45,1.42-0.68,2.14C83.17,67.18,83.15,67.19,83.13,67.19z"/>
				<path class="st7" d="M87.39,58.35c-0.24,0.13-0.57,0.19-0.92,0.09c-1.55-0.45-3.11-0.89-4.67-1.34c-0.73-0.21-1.1-0.9-0.89-1.64
					c0.15-0.54,0.31-1.09,0.47-1.63c0.22-0.74,0.9-1.12,1.63-0.91c1.53,0.43,3.06,0.87,4.58,1.31c0.78,0.23,1.16,0.88,0.95,1.66
					c-0.15,0.56-0.31,1.11-0.47,1.66C87.98,57.89,87.77,58.14,87.39,58.35z"/>
				<path class="st7" d="M79.39,51.55c1.14,0.54,1.69,1.61,1.38,2.86c-0.35,1.43-1.49,2.09-2.76,1.94
					C78.48,54.75,78.94,53.14,79.39,51.55z"/>
				<path class="st7" d="M87.96,50.25c-1.01-0.29-2.05-0.6-3.09-0.89c0.21-0.71,0.42-1.44,0.63-2.15c1,0.29,2.05,0.59,3.09,0.88
					C88.38,48.79,88.17,49.52,87.96,50.25z"/>
				<path class="st7" d="M84.64,50.18c1.02,0.29,2.06,0.59,3.1,0.89c-0.2,0.71-0.41,1.43-0.61,2.13c-1.02-0.29-2.08-0.6-3.13-0.9
					C84.2,51.62,84.42,50.9,84.64,50.18z"/>
				<path class="st7" d="M82.33,58.13c1.04,0.3,2.1,0.59,3.13,0.89c-0.2,0.72-0.41,1.44-0.61,2.15c-1.05-0.3-2.1-0.6-3.17-0.91
					C81.9,59.56,82.12,58.85,82.33,58.13z"/>
				<path class="st7" d="M84.62,62.05c-0.2,0.68-0.41,1.4-0.61,2.1c-1.05-0.31-2.1-0.62-3.13-0.92c0.19-0.67,0.39-1.39,0.6-2.11
					C82.5,61.43,83.55,61.74,84.62,62.05z"/>
			</g>
		</g>
		<g id="VtAZmA_00000043439036236555864710000012817294113203971977_">
			<g>
				<path class="st7" d="M29.88,16.02c0.73-0.17,1.47-0.35,2.19-0.52c0.26,1.08,0.52,2.13,0.78,3.2c-0.7,0.16-1.44,0.33-2.29,0.52
					c-0.23-1.01-0.47-2.08-0.71-3.15C29.86,16.05,29.87,16.04,29.88,16.02z"/>
				<path class="st7" d="M52.2,10.5c0.22,0.89,0.74,3,0.79,3.17c-0.76,0.17-1.5,0.34-2.22,0.51c-0.25-1-0.51-2.06-0.81-3.24
					c0.72-0.16,1.46-0.32,2.19-0.48C52.17,10.48,52.18,10.49,52.2,10.5z"/>
				<path class="st7" d="M42.42,11.23c0.23,0.14,0.45,0.4,0.54,0.75c0.39,1.57,0.79,3.14,1.17,4.71c0.18,0.74-0.23,1.4-0.98,1.6
					c-0.55,0.14-1.1,0.28-1.64,0.41c-0.75,0.18-1.42-0.22-1.61-0.96c-0.39-1.54-0.77-3.08-1.15-4.63c-0.19-0.79,0.19-1.44,0.96-1.65
					c0.55-0.15,1.11-0.28,1.67-0.42C41.72,10.96,42.04,11.01,42.42,11.23z"/>
				<path class="st7" d="M40.52,21.56c-0.1-1.25,0.55-2.27,1.78-2.63c1.41-0.41,2.55,0.25,3.06,1.42
					C43.75,20.76,42.13,21.16,40.52,21.56z"/>
				<path class="st7" d="M35.11,14.8c0.25,1.02,0.51,2.08,0.77,3.12c-0.72,0.17-1.45,0.35-2.18,0.53c-0.25-1.01-0.52-2.07-0.78-3.11
					C33.64,15.16,34.38,14.98,35.11,14.8z"/>
				<path class="st7" d="M36.71,17.71c-0.26-1.02-0.52-2.08-0.78-3.13c0.71-0.18,1.45-0.36,2.15-0.54c0.26,1.03,0.52,2.1,0.79,3.16
					C38.18,17.36,37.45,17.53,36.71,17.71z"/>
				<path class="st7" d="M44.75,15.72c-0.27-1.05-0.54-2.12-0.8-3.16c0.72-0.18,1.45-0.36,2.17-0.54c0.26,1.06,0.53,2.12,0.8,3.19
					C46.21,15.39,45.48,15.56,44.75,15.72z"/>
				<path class="st7" d="M47,11.78c0.69-0.17,1.41-0.34,2.13-0.52c0.26,1.06,0.52,2.12,0.77,3.17c-0.68,0.17-1.4,0.36-2.12,0.54
					C47.52,13.94,47.26,12.87,47,11.78z"/>
			</g>
		</g>
	</g>
</g>
<g id="Livello_3">
	<g>
		<path class="st2" d="M140.76,59.47l1.14,1.02c-2.61,2.38-5.68,3.56-9.21,3.56c-3.79,0-7.02-1.33-9.69-4
			c-2.67-2.67-4.01-5.9-4.01-9.69c0-3.78,1.33-7.01,4.01-9.68c2.67-2.68,5.9-4.01,9.69-4.01c3.53,0,6.61,1.19,9.21,3.56l-1.14,1.04
			c-2.3-2.04-4.99-3.06-8.08-3.06c-3.36,0-6.22,1.19-8.6,3.56c-2.38,2.38-3.56,5.24-3.56,8.6c0,3.37,1.19,6.24,3.56,8.61
			c2.37,2.38,5.24,3.56,8.6,3.56C135.77,62.53,138.46,61.51,140.76,59.47z"/>
		<path class="st2" d="M169.1,40.62c2.68,2.68,4.02,5.92,4.02,9.71s-1.34,7.03-4.02,9.71c-2.68,2.68-5.92,4.02-9.71,4.02
			s-7.03-1.34-9.71-4.02c-2.68-2.68-4.02-5.92-4.02-9.71s1.34-7.03,4.02-9.71c2.68-2.68,5.92-4.02,9.71-4.02
			S166.42,37.94,169.1,40.62z M159.39,38.13c-3.37,0-6.24,1.19-8.62,3.57c-2.38,2.38-3.57,5.25-3.57,8.62s1.19,6.24,3.57,8.63
			c2.38,2.39,5.25,3.58,8.62,3.58s6.24-1.19,8.62-3.58c2.38-2.39,3.57-5.26,3.57-8.63s-1.19-6.24-3.57-8.62
			C165.63,39.32,162.76,38.13,159.39,38.13z"/>
		<path class="st2" d="M177.72,63.74V36.98h1.5v25.25h10.37v1.5H177.72z"/>
		<path class="st2" d="M193.61,63.74V36.98h1.5v25.25h10.37v1.5H193.61z"/>
		<path class="st2" d="M222.87,36.98v1.5H211v11.12h11.87v1.51H211v11.12h11.87v1.5H209.5V36.98H222.87z"/>
		<path class="st2" d="M248.83,59.47l1.14,1.02c-2.61,2.38-5.68,3.56-9.21,3.56c-3.79,0-7.02-1.33-9.69-4
			c-2.67-2.67-4.01-5.9-4.01-9.69c0-3.78,1.33-7.01,4.01-9.68c2.67-2.68,5.9-4.01,9.69-4.01c3.53,0,6.61,1.19,9.21,3.56l-1.14,1.04
			c-2.3-2.04-4.99-3.06-8.08-3.06c-3.36,0-6.22,1.19-8.6,3.56c-2.38,2.38-3.56,5.24-3.56,8.6c0,3.37,1.19,6.24,3.56,8.61
			c2.37,2.38,5.24,3.56,8.6,3.56C243.84,62.53,246.53,61.51,248.83,59.47z"/>
		<path class="st2" d="M260.75,38.48v25.25h-1.5V38.48h-6.77v-1.5h15.05v1.5H260.75z"/>
		<path class="st2" d="M296.09,36.98v1.5h-11.87v11.12h11.87v1.51h-11.87v11.12h11.87v1.5h-13.38V36.98H296.09z"/>
		<path class="st2" d="M313.62,53.49h-9.27l-3.73,10.25h-1.61l9.97-27.38l9.95,27.38h-1.59L313.62,53.49z M313.06,51.98l-4.08-11.22
			l-4.08,11.22H313.06z"/>
		<path class="st2" d="M328.79,54.44c-0.15,0.01-0.3,0.02-0.45,0.02h-4.55v9.28h-1.5V36.98h7.02c2.04,0.28,3.77,1.13,5.2,2.56
			c1.71,1.71,2.56,3.76,2.56,6.17c0,2.42-0.85,4.48-2.56,6.19c-1.18,1.18-2.54,1.96-4.06,2.32l6.17,9.52h-1.86L328.79,54.44z
			 M323.78,38.5v14.43h4.55c1.98,0,3.68-0.71,5.09-2.12c1.41-1.41,2.12-3.11,2.12-5.11c0-2-0.71-3.7-2.12-5.1
			c-1.41-1.4-3.11-2.11-5.09-2.11H323.78z"/>
		<path class="st2" d="M347.35,38.48v25.25h-1.5V38.48h-6.77v-1.5h15.05v1.5H347.35z"/>
		<path class="st2" d="M358.97,51.75v11.99h-1.5V36.98h1.5v13.26h11.21V36.98h1.5v26.76h-1.5V51.75H358.97z"/>
		<path class="st2" d="M411.56,40.62c2.68,2.68,4.02,5.92,4.02,9.71s-1.34,7.03-4.02,9.71c-2.68,2.68-5.92,4.02-9.71,4.02
			s-7.03-1.34-9.71-4.02c-2.68-2.68-4.02-5.92-4.02-9.71s1.34-7.03,4.02-9.71c2.68-2.68,5.92-4.02,9.71-4.02
			S408.88,37.94,411.56,40.62z M401.85,38.13c-3.37,0-6.24,1.19-8.62,3.57c-2.38,2.38-3.57,5.25-3.57,8.62s1.19,6.24,3.57,8.63
			c2.38,2.39,5.25,3.58,8.62,3.58s6.24-1.19,8.62-3.58c2.38-2.39,3.57-5.26,3.57-8.63s-1.19-6.24-3.57-8.62
			C408.09,39.32,405.22,38.13,401.85,38.13z"/>
		<path class="st2" d="M420.18,36.98h1.66l13.75,23.8v-23.8h1.5v26.76h-1.5l-13.9-24.03v24.03h-1.5V36.98z"/>
		<path class="st2" d="M442.1,63.74V36.98h1.5v25.25h10.37v1.5H442.1z"/>
		<path class="st2" d="M459.83,36.98v26.76h-1.51V36.98H459.83z"/>
		<path class="st2" d="M465.18,36.98h1.66l13.75,23.8v-23.8h1.5v26.76h-1.5l-13.9-24.03v24.03h-1.5V36.98z"/>
		<path class="st2" d="M500.49,36.98v1.5h-11.87v11.12h11.87v1.51h-11.87v11.12h11.87v1.5h-13.38V36.98H500.49z"/>
	</g>
</g>
</svg>
